<svg xmlns="http://www.w3.org/2000/svg" width="12.763mm" height="18.158mm" viewBox="0 0 36.178 51.472">
  <title>activist</title>
  <g>
    <path d="M10.55,11.764a38.956,38.956,0,0,1,4.442-5.577q2.6-2.85,5.2-5.694c.217-.237-.136-.591-.353-.353Q17.169,3.062,14.5,5.984a38.684,38.684,0,0,0-4.383,5.527c-.171.274.262.526.431.253Z" transform="translate(-0.004)" fill="#1d1d1b"/>
    <path d="M26.808,17.673c3.377-3.857,5.887-8.381,9.307-12.2.214-.239-.139-.594-.354-.354-3.42,3.823-5.929,8.347-9.306,12.2-.211.241.141.6.353.354Z" transform="translate(-0.004)" fill="#1d1d1b"/>
    <path d="M10.157,11.857q8.229,2.756,16.382,5.735c.3.111.433-.372.133-.482q-8.151-2.98-16.382-5.735c-.306-.1-.437.38-.133.482Z" transform="translate(-0.004)" fill="#1d1d1b"/>
    <path d="M20.09.493Q28,2.772,35.793,5.433c.3.1.436-.379.133-.482Q28.135,2.29,20.223.011a.25.25,0,0,0-.133.482Z" transform="translate(-0.004)" fill="#1d1d1b"/>
    <path d="M15.991,17.731a12.21,12.21,0,0,0-1.646-.374c-.246-.038-.563-.136-.766.06a1.758,1.758,0,0,0-.35.687c-.138.413-.29,1.089.056,1.44a1.657,1.657,0,0,0,.659.325c.256.089.513.174.765.273a2.743,2.743,0,0,1,1.323.941c.178.266.612.016.432-.252a2.963,2.963,0,0,0-1.246-1.012,9.1,9.1,0,0,0-.875-.34c-.138-.048-.276-.094-.413-.144a.689.689,0,0,1-.291-.145.446.446,0,0,1-.051-.313,2.179,2.179,0,0,1,.058-.409,2.317,2.317,0,0,1,.139-.422c.028-.064.066-.124.094-.188.038-.084.046-.059.14-.047a11.691,11.691,0,0,1,1.839.4.25.25,0,0,0,.133-.482Z" transform="translate(-0.004)" fill="#1d1d1b"/>
    <path d="M16.931,17.519a.948.948,0,0,0,.173.122c.035.019.144.051.164.088-.017-.032-.032.015-.054.052a1.77,1.77,0,0,1-.121.176c-.18.232-.395.435-.555.684a1.36,1.36,0,0,0-.219.877,1.4,1.4,0,0,0,.148.494c.07.134.194.244.251.384a.259.259,0,0,0,.308.175.252.252,0,0,0,.174-.308c-.124-.3-.384-.515-.388-.865a1.173,1.173,0,0,1,.363-.77,2.536,2.536,0,0,0,.553-.767.472.472,0,0,0-.116-.493c-.1-.092-.231-.118-.328-.2-.241-.211-.6.142-.353.354Z" transform="translate(-0.004)" fill="#1d1d1b"/>
    <path d="M15.551,20.4a1.232,1.232,0,0,0-.246,1.3,10.083,10.083,0,0,1,.53,1.494,10.888,10.888,0,0,1,.009,3.269c-.033.32.468.318.5,0a12.652,12.652,0,0,0,.052-2.917,5.635,5.635,0,0,0-.335-1.361c-.183-.463-.566-.972-.157-1.429.214-.239-.138-.594-.353-.353Z" transform="translate(-0.004)" fill="#1d1d1b"/>
    <path d="M16.937,19.939c.123-.052.357-.287.482-.2.106.078.164.528.211.667.152.439.325.87.515,1.294a14.653,14.653,0,0,0,1.427,2.481,3.241,3.241,0,0,1,.676,1.213,1.846,1.846,0,0,1-.2,1.234,1.777,1.777,0,0,1-2.322.672c-.288-.142-.541.289-.253.432a2.25,2.25,0,0,0,2.949-3.213c-.346-.563-.768-1.074-1.105-1.645a14.178,14.178,0,0,1-.908-1.816q-.187-.453-.341-.918a2.54,2.54,0,0,0-.284-.783c-.34-.424-.755,0-1.1.145-.3.125-.041.556.252.432Z" transform="translate(-0.004)" fill="#1d1d1b"/>
    <path d="M6.823,22.176Q4.079,24.933,1.336,27.69c-.431.434-1.533,1.365-1.3,2.08.246.757,1.37.645,1.957.513a14.421,14.421,0,0,0,3.354-1.2,4.6,4.6,0,0,0,1.138-.781,4.656,4.656,0,0,1,1.356-1.13A1.6,1.6,0,0,1,8.958,27a3.594,3.594,0,0,0,.676.258,1.207,1.207,0,0,0,1.015-.5c.369-.42,1.223-1.366.394-1.75a8.933,8.933,0,0,0-1.9-.528c-.385-.08-.819-.221-1.123.108a3.166,3.166,0,0,0-.267.488,2.276,2.276,0,0,1-.873.6L4.942,26.732c-.282.155-.03.587.253.432.834-.458,1.709-.878,2.515-1.383a1.353,1.353,0,0,0,.526-.573c.249-.486.717-.27,1.174-.163.235.055.468.117.7.183.128.036.624.115.691.214.177.261-.566,1.154-.819,1.243-.434.153-.889-.242-1.333-.237a2.636,2.636,0,0,0-1.06.3,3.145,3.145,0,0,0-.929.6,7.093,7.093,0,0,1-.954.952,9.988,9.988,0,0,1-2.577,1.144c-.4.129-2.742.941-2.54-.057.073-.364.536-.766.786-1.025.325-.338.66-.666.991-1l4.81-4.834a.25.25,0,0,0-.353-.354Z" transform="translate(-0.004)" fill="#1d1d1b"/>
    <path d="M11.31,25.254a60.563,60.563,0,0,1,3.656-4.914c.2-.246-.148-.6-.353-.353A61.46,61.46,0,0,0,10.878,25c-.179.268.254.519.432.252Z" transform="translate(-0.004)" fill="#1d1d1b"/>
    <path d="M16.594,18.193a26.7,26.7,0,0,1,2.685-3.224c.225-.231-.129-.585-.354-.354a27.558,27.558,0,0,0-2.763,3.326c-.186.263.247.513.432.252Z" transform="translate(-0.004)" fill="#1d1d1b"/>
    <path d="M15.146,17.733q1.313-1.656,2.735-3.218c.217-.238-.136-.592-.353-.354q-1.423,1.562-2.736,3.218a.259.259,0,0,0,0,.354.253.253,0,0,0,.354,0Z" transform="translate(-0.004)" fill="#1d1d1b"/>
    <path d="M9.907,24.814a45.389,45.389,0,0,1,3.662-5.084c.2-.246-.148-.6-.354-.354a46.591,46.591,0,0,0-3.74,5.186c-.17.274.262.525.432.252Z" transform="translate(-0.004)" fill="#1d1d1b"/>
    <path d="M9.165,24.631l.152-.442.074-.217a.928.928,0,0,0,.035-.1c-.017.039-.02.047-.008.024l-.023.03a.162.162,0,0,1-.068.037.1.1,0,0,1,.025-.006l-.067.009a.313.313,0,0,1,.053,0l-.067-.009a1.627,1.627,0,0,1,.227.074l.248.088a.251.251,0,0,0,.307-.175.255.255,0,0,0-.174-.307c-.132-.047-.264-.1-.4-.14a.4.4,0,0,0-.506.162,1.911,1.911,0,0,0-.085.229l-.069.2-.14.409a.25.25,0,1,0,.482.133Z" transform="translate(-0.004)" fill="#1d1d1b"/>
    <path d="M8.316,26.5a4.124,4.124,0,0,0-.824.987l-.874,1.233L5.715,30A2.872,2.872,0,0,0,5.1,31.14a.872.872,0,0,0,1.242.989,2.07,2.07,0,0,0,.764-.861q.4-.645.8-1.285.9-1.407,1.848-2.778c.183-.265-.25-.516-.432-.252Q8.433,28.24,7.588,29.56q-.409.639-.807,1.284c-.186.3-.455.927-.892.894-.537-.039-.227-.777-.077-1.011.273-.426.584-.831.877-1.244l.9-1.275.482-.681a2.546,2.546,0,0,1,.494-.594c.254-.191.005-.625-.252-.432Z" transform="translate(-0.004)" fill="#1d1d1b"/>
    <path d="M6.611,24.115c.019.023.02.024,0,0l.025.038a.894.894,0,0,1,.044.08l.019.042c-.01-.024-.01-.023,0,0s.022.059.032.088c.04.117.078.235.123.351a4.928,4.928,0,0,0,.371.754.25.25,0,1,0,.432-.253c-.072-.118-.139-.239-.2-.363-.031-.062-.06-.124-.087-.188l0-.011-.02-.048c-.013-.032-.025-.064-.037-.1a2.343,2.343,0,0,0-.349-.753.251.251,0,0,0-.354,0,.256.256,0,0,0,0,.353Z" transform="translate(-0.004)" fill="#1d1d1b"/>
    <path d="M14.282,20.961a1.842,1.842,0,0,0,.273.292c.093.079.192.153.285.232a3.719,3.719,0,0,1,.527.552.251.251,0,0,0,.177.073.255.255,0,0,0,.177-.073.251.251,0,0,0,.073-.177.294.294,0,0,0-.073-.177,3.737,3.737,0,0,0-.513-.539c-.089-.077-.182-.147-.272-.222-.046-.038-.09-.077-.133-.118l-.055-.057-.029-.033c-.01-.012-.044-.056,0,0a.278.278,0,0,0-.15-.115.257.257,0,0,0-.192.025.253.253,0,0,0-.09.342Z" transform="translate(-0.004)" fill="#1d1d1b"/>
    <path d="M8.547,28.46c.628,1.021.939,2.2,1.612,3.2.277.408.689.9.53,1.429-.147.483-.493.8-.417,1.337.044.318.526.183.482-.132-.037-.261.156-.509.269-.728a1.616,1.616,0,0,0,.2-.676,2.455,2.455,0,0,0-.581-1.4c-.7-1.021-1.021-2.226-1.668-3.275-.168-.274-.6-.023-.431.252Z" transform="translate(-0.004)" fill="#1d1d1b"/>
    <path d="M18.234,27.853a10.935,10.935,0,0,1-.369,3.5,4.069,4.069,0,0,0-.169,1.432,3.552,3.552,0,0,0,.635,1.243c.155.282.587.03.432-.253-.244-.444-.592-.74-.586-1.285a7.584,7.584,0,0,1,.273-1.467,10.309,10.309,0,0,0,.284-3.172c-.031-.317-.531-.32-.5,0Z" transform="translate(-0.004)" fill="#1d1d1b"/>
    <path d="M10.319,34.438c.027.761.82,1.138,1.433,1.4a6.134,6.134,0,0,0,7.083-1.63c.211-.242-.141-.6-.353-.354a5.628,5.628,0,0,1-5.826,1.776c-.517-.145-1.813-.514-1.837-1.191-.012-.321-.512-.322-.5,0Z" transform="translate(-0.004)" fill="#1d1d1b"/>
    <path d="M11.4,35.705a31.829,31.829,0,0,1,.286,6.7l0,6.648a.25.25,0,0,0,.5,0l-.005-6.894a31.172,31.172,0,0,0-.3-6.586c-.069-.314-.551-.181-.483.133Z" transform="translate(-0.004)" fill="#1d1d1b"/>
    <path d="M14.222,37.318c-.321,3.919-.71,7.84-.891,11.769-.014.322.486.321.5,0,.181-3.929.57-7.85.891-11.769.026-.321-.474-.319-.5,0Z" transform="translate(-0.004)" fill="#1d1d1b"/>
    <path d="M14.413,38.389a2.208,2.208,0,0,0,.607.173,3.93,3.93,0,0,1,.631-.018c.1.062.144.532.17.645q.069.3.126.6a27.053,27.053,0,0,1,.395,3.272c.141,2.033.183,4.071.474,6.091.045.317.527.182.482-.133-.329-2.279-.32-4.585-.529-6.875a23.084,23.084,0,0,0-.466-3.085c-.069-.3-.1-.839-.44-.983a.751.751,0,0,0-.359-.011,2.017,2.017,0,0,1-.958-.155c-.3-.124-.426.359-.133.482Z" transform="translate(-0.004)" fill="#1d1d1b"/>
    <path d="M17.888,34.578c.435,4.8.362,9.688.377,14.509a.25.25,0,0,0,.5,0c-.015-4.821.058-9.705-.377-14.509-.029-.318-.529-.321-.5,0Z" transform="translate(-0.004)" fill="#1d1d1b"/>
    <path d="M13.286,48.846a.882.882,0,0,1-.669.347.856.856,0,0,1-.361-.06c-.14-.059-.249-.178-.41-.177a1.063,1.063,0,0,0-.511.26l-.526.35c-.339.226-.68.451-1.019.679-.251.168-.525.4-.445.743a.7.7,0,0,0,.756.478,6.7,6.7,0,0,0,2.21-.58c.7-.3,1.52-.7,1.577-1.565.022-.321-.479-.32-.5,0-.039.59-.734.875-1.2,1.077a7.874,7.874,0,0,1-1.822.534c-.145.024-.753.071-.427-.185.258-.2.552-.37.825-.552l.822-.547c.076-.051.155-.1.23-.153.025-.018.046-.033,0-.039.018,0,.052.035.068.045a1.278,1.278,0,0,0,.323.143,1.377,1.377,0,0,0,1.428-.445c.2-.25-.154-.606-.353-.353Z" transform="translate(-0.004)" fill="#1d1d1b"/>
    <path d="M16.737,49.2a1.158,1.158,0,0,0,1.339.452,1.083,1.083,0,0,0,.329-.19c.026-.021.086-.07.084-.071a2.34,2.34,0,0,1,.243.136l1.039.533a6.839,6.839,0,0,1,.942.491q.159.117.009.258a.714.714,0,0,1-.423.128,5.378,5.378,0,0,1-1.091.021,3.908,3.908,0,0,1-1.031-.3,2.784,2.784,0,0,1-.933-.511.555.555,0,0,1-.1-.759c.225-.23-.128-.584-.354-.354a.95.95,0,0,0-.213.942,1.4,1.4,0,0,0,.643.778,5.929,5.929,0,0,0,1.149.509,3.651,3.651,0,0,0,1.259.211A2.93,2.93,0,0,0,20.88,51.3a.712.712,0,0,0,.389-.824c-.125-.379-.64-.538-.959-.7l-1.218-.624a1.538,1.538,0,0,0-.625-.263c-.2,0-.307.163-.469.254a.651.651,0,0,1-.83-.194c-.176-.267-.609-.017-.431.252Z" transform="translate(-0.004)" fill="#1d1d1b"/>
    <path d="M5.579,31.212a.628.628,0,0,1,1.028.1.125.125,0,0,0,.216-.126.9.9,0,0,0-.67-.438.889.889,0,0,0-.751.29c-.107.12.069.3.177.177Z" transform="translate(-0.004)" fill="#1d1d1b"/>
    <path d="M7.767,25.276a1.8,1.8,0,0,0-.359,1.464.125.125,0,1,0,.241-.066,1.528,1.528,0,0,1,.295-1.221.129.129,0,0,0,0-.177.126.126,0,0,0-.177,0Z" transform="translate(-0.004)" fill="#1d1d1b"/>
    <path d="M9.127,26.051a2.6,2.6,0,0,1,1.006.47.126.126,0,0,0,.171-.045.129.129,0,0,0-.045-.171,2.778,2.778,0,0,0-1.066-.5.13.13,0,0,0-.154.088.127.127,0,0,0,.088.154Z" transform="translate(-0.004)" fill="#1d1d1b"/>
    <path d="M9.54,25.588a4.256,4.256,0,0,1,.945.567.13.13,0,0,0,.177,0,.126.126,0,0,0,0-.177,4.467,4.467,0,0,0-1-.606.129.129,0,0,0-.171.045.126.126,0,0,0,.045.171Z" transform="translate(-0.004)" fill="#1d1d1b"/>
    <path d="M13.548,18.834a1.434,1.434,0,0,1,.882.113,2.679,2.679,0,0,0,.8.291.125.125,0,1,0,0-.25,3.279,3.279,0,0,1-.808-.314,1.635,1.635,0,0,0-.941-.081c-.157.033-.091.274.067.241Z" transform="translate(-0.004)" fill="#1d1d1b"/>
    <path d="M13.71,18.225a2.856,2.856,0,0,1,1.594.456c.136.088.261-.129.126-.216a3.1,3.1,0,0,0-1.72-.49.125.125,0,0,0,0,.25Z" transform="translate(-0.004)" fill="#1d1d1b"/>
    <path d="M16.1,18.181l.043.016.017.006c-.015-.006-.017-.007-.009,0l.008,0,.079.038a1.4,1.4,0,0,1,.147.093l.015.011c-.012-.009-.015-.011-.007-.006l.007.006.032.026c.022.019.043.039.064.059s.04.042.059.064l.03.035.011.014c-.009-.012-.011-.014-.005-.007l.008.011a.134.134,0,0,0,.075.057.125.125,0,0,0,.1-.012.127.127,0,0,0,.045-.171,1.365,1.365,0,0,0-.649-.481.125.125,0,0,0-.153.087.129.129,0,0,0,.087.154Z" transform="translate(-0.004)" fill="#1d1d1b"/>
    <path d="M16.141,20.968a.2.2,0,0,0,.225.186.633.633,0,0,0,.244-.069.7.7,0,0,0,.314-.335.645.645,0,0,0,.056-.281.125.125,0,0,0-.25,0,.375.375,0,0,1,0,.058l0,.025c0-.037,0-.006,0,0a.439.439,0,0,1-.013.052l-.008.024-.006.015c.008-.017.009-.019,0-.007a.673.673,0,0,1-.054.094l0,.007,0-.006c0,.006-.012.014-.016.019a.533.533,0,0,1-.04.042l-.019.017s-.03.023-.013.011l-.014.01-.021.014q-.026.015-.051.027c-.009.005-.031.008,0,0a.234.234,0,0,0-.024.009l-.055.016-.025,0c-.027,0,.026,0,0,0a.141.141,0,0,0-.029,0l.019,0-.014,0,.013.006c-.008-.005,0,0,.012.01-.009-.009-.007,0,.008.011.008.048.012.061.013.039a.125.125,0,1,0-.25,0Z" transform="translate(-0.004)" fill="#1d1d1b"/>
    <path d="M15.521,21.427a.719.719,0,0,0,.8.156,2.835,2.835,0,0,0,.8-.379,1.291,1.291,0,0,0,.486-1.477c-.053-.15-.295-.085-.241.067a1.04,1.04,0,0,1-.371,1.194,2.628,2.628,0,0,1-.638.319c-.213.079-.49.15-.653-.057-.1-.126-.276.052-.177.177Z" transform="translate(-0.004)" fill="#1d1d1b"/>
    <path d="M6.97,22.331a2.072,2.072,0,0,0-.081,1.843.125.125,0,0,0,.171.045.128.128,0,0,0,.045-.171,1.806,1.806,0,0,1,.081-1.591c.078-.14-.137-.267-.216-.126Z" transform="translate(-0.004)" fill="#1d1d1b"/>
    <path d="M10.9,33.384a4.812,4.812,0,0,0,3.373.747,9.105,9.105,0,0,0,3.878-.95c.141-.078.015-.294-.126-.215a8.683,8.683,0,0,1-3.64.907,4.7,4.7,0,0,1-3.308-.665c-.126-.1-.3.077-.177.176Z" transform="translate(-0.004)" fill="#1d1d1b"/>
    <path d="M10.949,32.431c.248.358.76.323,1.149.351a17.469,17.469,0,0,0,2.021.03,17.891,17.891,0,0,0,3.828-.59.125.125,0,0,0-.067-.241,17.645,17.645,0,0,1-3.371.56c-.542.035-1.086.046-1.629.031q-.392-.012-.782-.04c-.266-.019-.762.021-.933-.227-.091-.131-.308-.006-.216.126Z" transform="translate(-0.004)" fill="#1d1d1b"/>
    <path d="M11.924,48.425a1.693,1.693,0,0,0,1.553.251c.151-.052.086-.294-.066-.241a1.462,1.462,0,0,1-1.361-.226.126.126,0,0,0-.171.045.128.128,0,0,0,.045.171Z" transform="translate(-0.004)" fill="#1d1d1b"/>
    <path d="M17.071,48.5a1.957,1.957,0,0,0,1.412-.283.126.126,0,0,0,0-.177.129.129,0,0,0-.177,0,1.752,1.752,0,0,1-1.235.21.125.125,0,0,0,0,.25Z" transform="translate(-0.004)" fill="#1d1d1b"/>
    <path d="M10.847,50.079a.479.479,0,0,1,.074.021l.02.007c.01,0,.023.015,0,0a.3.3,0,0,0,.031.015.648.648,0,0,1,.067.039c.012.007.022.016.034.024l-.006-.005.017.014a.549.549,0,0,1,.055.053l.026.029c.006.007.017.027,0,0l.011.014a.477.477,0,0,1,.041.065l.018.034.009.019-.008-.017.006.013a.137.137,0,0,0,.057.075.129.129,0,0,0,.1.012.127.127,0,0,0,.088-.154.8.8,0,0,0-.22-.317.788.788,0,0,0-.343-.177.126.126,0,0,0-.153.087.127.127,0,0,0,.087.154Z" transform="translate(-0.004)" fill="#1d1d1b"/>
    <path d="M11.39,49.732l.041.015a.146.146,0,0,1,.041.016c-.018-.015-.007,0,0,0l.022.01.04.02a1.265,1.265,0,0,1,.155.092l.036.026s.019.015.007,0l.01.008.067.058a1.47,1.47,0,0,1,.126.136.124.124,0,0,0,.177,0,.128.128,0,0,0,0-.176,1.419,1.419,0,0,0-.658-.451.125.125,0,0,0-.153.087.127.127,0,0,0,.087.154Z" transform="translate(-0.004)" fill="#1d1d1b"/>
    <path d="M18.492,50.018l.022-.034.012-.016,0-.007c.006-.007,0,0-.007.01l.026-.031.027-.03a.7.7,0,0,1,.055-.054l.03-.026.016-.013c-.009.009-.017.014,0,0a1.04,1.04,0,0,1,.135-.083l.036-.017.015-.007c-.032.016-.007,0,0,0,.025-.01.051-.018.077-.026a.125.125,0,1,0-.067-.241,1.072,1.072,0,0,0-.595.445.126.126,0,0,0,.044.171.13.13,0,0,0,.172-.045Z" transform="translate(-0.004)" fill="#1d1d1b"/>
    <path d="M19.149,50.264a.637.637,0,0,1,.035-.063l.019-.03a.134.134,0,0,1,.021-.03s-.019.025,0,.008l.01-.013.024-.027c.017-.017.034-.034.052-.05l.028-.023c.016-.013-.02.014-.008,0l.014-.009a.617.617,0,0,1,.06-.039c.021-.012.042-.023.064-.033,0,0,.024-.01,0,0s0,0,0,0l.037-.013a.125.125,0,1,0-.066-.241.869.869,0,0,0-.507.435.128.128,0,0,0-.012.1.124.124,0,0,0,.228.03Z" transform="translate(-0.004)" fill="#1d1d1b"/>
    <path d="M16.63,36.46a1.743,1.743,0,0,0,1.1.073.125.125,0,0,0-.067-.241,1.515,1.515,0,0,1-.967-.073.126.126,0,0,0-.154.088.128.128,0,0,0,.088.153Z" transform="translate(-0.004)" fill="#1d1d1b"/>
    <path d="M12.217,37.258a1.872,1.872,0,0,0,1.113-.419.126.126,0,0,0,0-.177.128.128,0,0,0-.177,0,1.59,1.59,0,0,1-.936.346c-.161,0-.162.255,0,.25Z" transform="translate(-0.004)" fill="#1d1d1b"/>
    <path d="M3.389,13.623a3.246,3.246,0,0,0-.279.536,4.4,4.4,0,0,1-.186.565,1.806,1.806,0,0,1-.5.419,3.9,3.9,0,0,0-.458.339.461.461,0,0,0,.109.748,1.38,1.38,0,0,0,.508.14,1.948,1.948,0,0,0,.358.017c.059,0,.119-.009.178-.017-.076-.121-.1-.147-.088-.08a1.055,1.055,0,0,0,.045.3l.054.372a2.183,2.183,0,0,0,.105.582c.168.367.708.147,1,.092a12.819,12.819,0,0,1,2.737-.311c.322.01.322-.49,0-.5a9.266,9.266,0,0,0-1.7.124c-.28.043-.558.093-.836.144a5.407,5.407,0,0,1-.922.159l.177.073c-.047-.037-.044-.252-.053-.31l-.054-.372a1.66,1.66,0,0,0-.12-.616c-.1-.166-.262-.164-.435-.149a1.862,1.862,0,0,1-.358,0c-.067-.007-.3-.022-.344-.083-.02.057,0,.054.049-.009l.151-.106c.1-.071.2-.144.3-.219a2.228,2.228,0,0,0,.485-.422,1.889,1.889,0,0,0,.21-.556,2.73,2.73,0,0,1,.3-.611c.175-.271-.258-.522-.431-.252Z" transform="translate(-0.004)" fill="#1d1d1b"/>
    <path d="M4.581,17.466c.034.211.018.539.215.672a1.188,1.188,0,0,0,.685.048,2.548,2.548,0,0,1,1.5.138,2.229,2.229,0,0,1,.873,1.11A7.37,7.37,0,0,1,8.3,21.01c.056.316.538.182.482-.133a4.566,4.566,0,0,0-1.3-2.813,2.062,2.062,0,0,0-1.39-.421c-.271.009-.539.044-.809.055a1.234,1.234,0,0,0-.2,0H5.01c.1.109.14.126.119.05a1.549,1.549,0,0,0-.066-.416c-.05-.317-.532-.182-.482.133Z" transform="translate(-0.004)" fill="#1d1d1b"/>
    <path d="M8.371,13.226a2.446,2.446,0,0,1,.669,1.945,4.583,4.583,0,0,1-.5,1.934.559.559,0,0,0-.015.5c.138.382.282.752.384,1.146a20.7,20.7,0,0,1,.392,2.1c.048.317.53.182.482-.133a18.752,18.752,0,0,0-.448-2.3c-.057-.2-.121-.407-.2-.606a1.527,1.527,0,0,1-.168-.447c.007-.125.169-.335.22-.456a4.448,4.448,0,0,0,.17-.478c.335-1.158.3-2.838-.739-3.63-.256-.2-.5.239-.252.432Z" transform="translate(-0.004)" fill="#1d1d1b"/>
    <path d="M3.642,12.568a2.628,2.628,0,0,1,2.21-1.578A1.8,1.8,0,0,1,8.027,12.1a.257.257,0,0,0,.241.183c.039,0,.314.012.306.007a.783.783,0,0,1,.063.255c-.012.132.043.042-.063.118-.074.052-.141.062-.2.136-.207.245.145.6.353.354.047-.055.165-.059.227-.1a.433.433,0,0,0,.157-.189.763.763,0,0,0,0-.495.715.715,0,0,0-.218-.468,1.457,1.457,0,0,0-.623-.118l.241.184a2.262,2.262,0,0,0-2.624-1.479A3.142,3.142,0,0,0,3.16,12.435a.25.25,0,0,0,.482.133Z" transform="translate(-0.004)" fill="#1d1d1b"/>
    <path d="M3.109,12.416c-.086.079-.249.079-.348.149a.587.587,0,0,0-.2.273,1.564,1.564,0,0,0-.1.888.48.48,0,0,0,.5.345,6.747,6.747,0,0,0,1.016-.158q2.216-.359,4.444-.629c.315-.039.319-.539,0-.5q-1.737.211-3.465.472-.863.132-1.722.275c-.062.011-.292.051-.3.047-.055-.063.018-.371.042-.438.084-.235.3-.212.475-.371.237-.218-.117-.571-.354-.353Z" transform="translate(-0.004)" fill="#1d1d1b"/>
    <path d="M3.129,14.741a.707.707,0,0,0,.112.561.531.531,0,0,0,.244.2.287.287,0,0,0,.3-.068.728.728,0,0,0,.136-.563.845.845,0,0,0-.232-.559.3.3,0,0,0-.331-.049.305.305,0,0,0-.172.278.125.125,0,0,0,.25,0,.048.048,0,0,1,.021-.048c-.013.011.034-.015.016-.009l.008,0h.009a.229.229,0,0,1,.109.128.854.854,0,0,1,.068.486.552.552,0,0,1-.029.113.351.351,0,0,1-.019.035c-.009.014-.011.016-.006.008-.012.01-.013.013-.005.008-.016.01,0,.008-.02.01a.057.057,0,0,1-.031-.006.225.225,0,0,1-.081-.063.45.45,0,0,1-.108-.391.129.129,0,0,0-.088-.154.126.126,0,0,0-.153.087Z" transform="translate(-0.004)" fill="#1d1d1b"/>
    <path d="M2.933,15.006a.805.805,0,0,1-.121-.256L2.8,14.715c-.007-.037,0,.02,0-.014s0-.042,0-.063l0-.032c0,.029,0,0,0-.009a.488.488,0,0,1,.02-.065c0-.009,0-.007,0,.005l.007-.014.016-.027.008-.013c-.008.01-.009.012,0,0l.024-.027c.006-.005.031-.022.006-.006L2.9,14.44c.007,0,.033-.014,0,0l.027-.009.028-.006H3c.027,0-.021-.006,0,0l.027.007c.026,0-.017-.011,0,0,0,0,.034.02.019.01s.012.012.015.015a.126.126,0,0,0,.177,0,.127.127,0,0,0,0-.176.374.374,0,0,0-.346-.1.417.417,0,0,0-.284.217.735.735,0,0,0,.1.735.125.125,0,0,0,.216-.126Z" transform="translate(-0.004)" fill="#1d1d1b"/>
    <path d="M3.83,14.957a17.91,17.91,0,0,0,3.487-.563c.153-.048.088-.289-.066-.241a17.551,17.551,0,0,1-3.421.554c-.158.017-.16.267,0,.25Z" transform="translate(-0.004)" fill="#1d1d1b"/>
    <path d="M7.076,14.848a1.434,1.434,0,0,1,.312-.452.507.507,0,0,1,.2-.1c.055-.013.131-.022.169.03a.305.305,0,0,1,.021.232,2.044,2.044,0,0,1-.067.267,1.954,1.954,0,0,1-.249.5.125.125,0,0,0,.216.126,2.2,2.2,0,0,0,.25-.49,1.414,1.414,0,0,0,.11-.55.376.376,0,0,0-.339-.373.678.678,0,0,0-.488.184,1.57,1.57,0,0,0-.351.5c-.075.143.141.27.215.127Z" transform="translate(-0.004)" fill="#1d1d1b"/>
    <path d="M3.239,12.828l5.083-.669c.157-.02.159-.271,0-.25l-5.083.669c-.157.021-.159.271,0,.25Z" transform="translate(-0.004)" fill="#1d1d1b"/>
    <path d="M7.973,19.324a9.861,9.861,0,0,0-1.734,1.2,1.2,1.2,0,0,0-.328.353.451.451,0,0,0,.066.483,1.249,1.249,0,0,0,.393.284l.224.125a1.064,1.064,0,0,1,.233.134l-.064-.11a.807.807,0,0,1,0,.23l-.01.261c-.012.321.488.321.5,0a2.356,2.356,0,0,0,.008-.581c-.043-.186-.217-.256-.367-.34A5.071,5.071,0,0,1,6.42,21.1c-.014-.01-.038-.04-.048-.04-.028,0,.008.032-.012.038.04-.011.125-.121.158-.151a9.208,9.208,0,0,1,1.708-1.189c.283-.154.03-.586-.253-.432Z" transform="translate(-0.004)" fill="#1d1d1b"/>
    <path d="M9.43,19.254A5.138,5.138,0,0,1,10.347,19a4.279,4.279,0,0,1,.465-.058c.08-.006.159-.01.239-.011l.119,0c.054,0,.049,0-.016-.015l-.065-.111a1.053,1.053,0,0,1-.076.324c-.032.1-.081.2-.107.3a.4.4,0,0,0,.3.512,3.707,3.707,0,0,1,1.269.444.252.252,0,0,0,.342-.09.255.255,0,0,0-.089-.342,2.945,2.945,0,0,0-1.079-.425,1.758,1.758,0,0,0-.31-.07l-.037-.009c.046.126.075.157.089.091a.6.6,0,0,0,.043-.117,1.866,1.866,0,0,0,.156-.625c0-.491-.68-.371-.989-.336a5.391,5.391,0,0,0-1.308.313c-.3.113-.169.6.133.482Z" transform="translate(-0.004)" fill="#1d1d1b"/>
    <path d="M7.164,21.236a3.931,3.931,0,0,0,3.546-.88c.241-.215-.114-.567-.353-.354a3.407,3.407,0,0,1-3.06.752.25.25,0,0,0-.133.482Z" transform="translate(-0.004)" fill="#1d1d1b"/>
    <g>
      <path d="M22.579,3.081c-.174-.056-.336-.128-.5-.19l-.63.694a1.53,1.53,0,0,0,.3.121c.092.026.1.125.043.2a.271.271,0,0,1-.273.079,1.748,1.748,0,0,1-.319-.123c-.3.341-.563.7-.887,1.034-.164.169-.482.055-.317-.115.335-.343.6-.716.914-1.068s.646-.713.969-1.069a.276.276,0,0,1,.275-.08c.226.074.431.171.657.244C23.02,2.873,22.787,3.149,22.579,3.081Z" transform="translate(-0.004)" fill="#1d1d1b"/>
      <path d="M23.364,4.2c-.1-.012-.207-.075-.316-.047a1.02,1.02,0,0,0-.315.166.331.331,0,0,1-.066.031c-.287.352-.571.7-.839,1.061-.139.181-.455.065-.317-.116q.6-.8,1.262-1.572c.151-.177.468-.061.318.115l-.016.02a.622.622,0,0,1,.171-.01c.092.01.165.045.255.055C23.736,3.927,23.6,4.22,23.364,4.2Z" transform="translate(-0.004)" fill="#1d1d1b"/>
      <path d="M24.354,4.333q-.659.753-1.282,1.518c-.145.18-.463.063-.318-.115q.625-.766,1.283-1.518C24.191,4.041,24.509,4.157,24.354,4.333Zm.154-.624a.512.512,0,0,1,.094-.125.274.274,0,0,1,.274-.08.115.115,0,0,1,.043.195.194.194,0,0,0-.043.049.27.27,0,0,1-.253.129C24.529,3.866,24.464,3.788,24.508,3.709Z" transform="translate(-0.004)" fill="#1d1d1b"/>
      <path d="M24.663,6.463a.221.221,0,0,1-.34.017.2.2,0,0,1-.114-.006c-.226-.083-.627-.178-.6-.421s.342-.526.518-.735c.188-.225.421-.625.729-.775s.549.066.807.109a.155.155,0,0,1,.066.024l.467-.561c.147-.178.464-.063.317.115ZM24.441,6.2a.072.072,0,0,1,.019.011c.349-.42.7-.843,1.048-1.264-.165-.034-.417-.163-.58-.08-.134.068-.3.35-.388.455a3.357,3.357,0,0,0-.4.486C24,6.064,24.208,6.115,24.441,6.2Z" transform="translate(-0.004)" fill="#1d1d1b"/>
      <path d="M25.784,7.049a.121.121,0,0,1-.007-.033.176.176,0,0,1-.088-.024c-.2-.12-.566-.06-.525-.342.036-.24.388-.54.55-.766a2.03,2.03,0,0,1,.746-.744.91.91,0,0,1,.658.052.107.107,0,0,1,.068.04c.152-.069.345.034.231.181-.206.267-.421.527-.651.785-.132.147-.661.567-.594.739S25.851,7.216,25.784,7.049Zm.08-.345a4.5,4.5,0,0,1,.312-.329q.418-.441.785-.9a.225.225,0,0,1-.073,0c-.307-.078-.447.015-.649.253-.138.163-.245.338-.371.506s-.384.339-.175.428A1.193,1.193,0,0,0,25.864,6.7Z" transform="translate(-0.004)" fill="#1d1d1b"/>
      <path d="M27.345,8.13c-.48.467-.976.1-1.338-.1-.18-.1.129-.333.308-.235a1.52,1.52,0,0,0,.438.234.506.506,0,0,0,.475-.242c.06-.068.116-.137.176-.206a.176.176,0,0,1-.033,0c-.334-.058-.732-.181-.625-.521a2.408,2.408,0,0,1,.488-.659c.219-.268.446-.53.678-.789.154-.176.472-.06.317.115-.214.239-.425.482-.628.726a3.359,3.359,0,0,0-.3.368c-.122.095-.138.186-.049.272-.012.137.073.2.258.189a.142.142,0,0,1,.1.06c.037-.045.078-.09.116-.136.356-.431.69-.871,1.009-1.315.13-.183.446-.066.317.115A15.519,15.519,0,0,1,27.345,8.13Z" transform="translate(-0.004)" fill="#1d1d1b"/>
      <path d="M29.068,8.074a1.07,1.07,0,0,1-.777-.194c-.181-.1.127-.332.306-.234a.517.517,0,0,0,.389.1c.174-.033.189-.1.3-.217.034-.039.174-.16.177-.2.007-.076-.123-.1-.183-.131-.165-.083-.314-.144-.23-.333a1.426,1.426,0,0,1,.584-.6c.291-.114.442.068.689.075s.1.3-.139.295c-.212,0-.339-.143-.545.007-.095.067-.18.211-.129.285.023.035.18.057.221.076.212.1.2.25.05.444S29.376,8,29.068,8.074Z" transform="translate(-0.004)" fill="#1d1d1b"/>
      <path d="M22.593,7.234c-.175-.057-.337-.128-.5-.191-.211.232-.421.462-.63.7a1.66,1.66,0,0,0,.3.12.114.114,0,0,1,.043.2.272.272,0,0,1-.274.08,1.694,1.694,0,0,1-.318-.123c-.3.341-.564.7-.887,1.034-.165.169-.482.055-.317-.115.335-.343.6-.716.914-1.068s.646-.712.969-1.069a.273.273,0,0,1,.275-.08c.226.074.43.17.657.244C23.033,7.026,22.8,7.3,22.593,7.234Z" transform="translate(-0.004)" fill="#1d1d1b"/>
      <path d="M22.61,9.759a.682.682,0,0,1-.568.049c-.632-.143-.449-.42-.109-.867a4.568,4.568,0,0,1,.775-.909.828.828,0,0,1,.671-.118c.083.009.118.054.12.1.611.108,0,.743-.25,1.038A3.284,3.284,0,0,1,22.61,9.759Zm.228-.706c.05-.061.681-.725.469-.747-.077-.01-.112-.048-.117-.1-.359,0-.586.387-.76.612-.137.176-.5.533-.335.668C22.4,9.728,22.682,9.23,22.838,9.053Z" transform="translate(-0.004)" fill="#1d1d1b"/>
      <path d="M24.918,8.908c-.1-.011-.206-.075-.315-.047a1.026,1.026,0,0,0-.314.166.334.334,0,0,1-.067.031c-.287.351-.57.7-.839,1.061-.138.182-.454.065-.318-.116q.6-.8,1.263-1.572c.151-.177.469-.062.318.115l-.016.02a.719.719,0,0,1,.172-.01c.091.01.166.045.254.057C25.292,8.64,25.153,8.935,24.918,8.908Z" transform="translate(-0.004)" fill="#1d1d1b"/>
      <path d="M17.849,9.654c-.174-.057-.336-.129-.5-.191l-.63.694a1.722,1.722,0,0,0,.3.122.114.114,0,0,1,.044.194.275.275,0,0,1-.275.079,1.6,1.6,0,0,1-.318-.122c-.3.342-.563.7-.888,1.034-.164.169-.482.054-.317-.115.336-.344.6-.716.915-1.067s.646-.714.97-1.07a.272.272,0,0,1,.273-.08c.228.074.431.171.658.244C18.289,9.446,18.056,9.72,17.849,9.654Z" transform="translate(-0.004)" fill="#1d1d1b"/>
      <path d="M18.024,12.028a.775.775,0,0,1-.866.172c-.332-.094-.422-.26-.228-.55a14.328,14.328,0,0,1,1.15-1.324c.153-.175.47-.06.317.116l-.691.79c-.149.17-.623.551-.387.675.381.2.646-.287.833-.505.207-.246.421-.489.658-.722.168-.166.488-.052.318.116C18.727,11.19,18.44,11.648,18.024,12.028Z" transform="translate(-0.004)" fill="#1d1d1b"/>
      <path d="M19.933,11.218c-.046-.019-.089-.041-.135-.061l-.142.168c-.071.088-.967,1.071-.854,1.1.22.05.082.347-.14.3-.5-.111-.27-.424.012-.74.3-.342.6-.688.889-1.035a.169.169,0,0,1,.032-.055.209.209,0,0,1,.051-.043c.167-.2.335-.4.5-.6.149-.177.467-.061.318.116s-.292.35-.439.524c.047.022.09.044.137.063C20.362,11.023,20.131,11.3,19.933,11.218Z" transform="translate(-0.004)" fill="#1d1d1b"/>
      <path d="M20.631,12.977a.777.777,0,0,1-.866.173c-.33-.1-.42-.261-.227-.551a14.612,14.612,0,0,1,1.149-1.323c.154-.176.471-.061.318.115-.229.264-.462.527-.69.79-.149.17-.623.552-.387.675.38.2.645-.286.831-.5.209-.246.422-.488.659-.722.169-.166.487-.052.318.116C21.336,12.139,21.047,12.6,20.631,12.977Z" transform="translate(-0.004)" fill="#1d1d1b"/>
      <path d="M22.807,12.286c-.1-.011-.207-.075-.316-.047a1.015,1.015,0,0,0-.314.166.364.364,0,0,1-.066.032c-.288.35-.57.7-.84,1.06-.139.182-.455.065-.318-.116q.6-.8,1.264-1.572c.15-.177.468-.062.317.116l-.016.02a.67.67,0,0,1,.172-.011c.092.01.165.045.254.056C23.179,12.018,23.041,12.312,22.807,12.286Z" transform="translate(-0.004)" fill="#1d1d1b"/>
      <path d="M23.006,13.369c-.026.029-.049.056-.074.083-.093.106-.2.322-.122.422a1.781,1.781,0,0,0,.375.1c.217.059-.016.334-.231.275-.233-.063-.6-.1-.655-.315s.154-.417.314-.6c.271-.3.7-1.005,1.243-.98a.817.817,0,0,1,.563.24c.117.159-.02.345-.169.516-.116.133-.34.424-.558.469A1.209,1.209,0,0,1,23.006,13.369Zm.4-.445c-.054.058-.106.116-.159.174a2.32,2.32,0,0,0,.417.175c.177-.139.436-.393.383-.511-.028-.065-.22-.091-.3-.081C23.569,12.7,23.513,12.812,23.405,12.924Z" transform="translate(-0.004)" fill="#1d1d1b"/>
    </g>
  </g>
</svg>
