<svg xmlns="http://www.w3.org/2000/svg" width="3.852mm" height="2.534mm" viewBox="0 0 10.92 7.184">
  <title>anthill</title>
  <g>
    <path d="M.811,3.974C2.578,2.969,4.18,1.7,5.957.711c.356-.2.453-.216.794.021a7.828,7.828,0,0,1,.626.541L8.629,2.356c.4.349.815.688,1.207,1.047.428.392.763.816.448,1.4C9.3,6.624,6.709,6.707,4.918,6.687a7.659,7.659,0,0,1-2.616-.4,3.712,3.712,0,0,1-1.22-.736C.677,5.169.218,4.418.811,3.974c.255-.191.006-.625-.252-.432-1.551,1.161.5,2.809,1.61,3.223a7.914,7.914,0,0,0,2.587.419,13.073,13.073,0,0,0,2.989-.212,4.945,4.945,0,0,0,2.334-1.131,1.854,1.854,0,0,0,.744-1.991A2.509,2.509,0,0,0,10.134,3c-.457-.406-.925-.8-1.387-1.2L7.5.717C7.206.466,6.878.049,6.472.009,6.033-.033,5.56.36,5.209.572c-.515.313-1.019.642-1.521.976C2.658,2.233,1.635,2.93.559,3.542a.25.25,0,0,0,.252.432Z" transform="translate(0 -0.006)" fill="#1d1d1b"/>
    <path d="M2.079,4.293a1.063,1.063,0,0,1,.135-.227l-.02.025a1.111,1.111,0,0,1,.166-.17A.125.125,0,0,0,2.4,3.833a.127.127,0,0,0-.036-.089.123.123,0,0,0-.089-.036.141.141,0,0,0-.088.036,1.153,1.153,0,0,0-.32.422.142.142,0,0,0-.013.1.126.126,0,0,0,.058.074A.124.124,0,0,0,2,4.35a.12.12,0,0,0,.075-.057Z" transform="translate(0 -0.006)" fill="#1d1d1b"/>
    <path d="M4.167,4.251l.155-.233a.124.124,0,0,0,.013-.1.126.126,0,0,0-.154-.088.144.144,0,0,0-.075.058l-.154.233a.124.124,0,0,0-.013.1A.13.13,0,0,0,4,4.3a.127.127,0,0,0,.1.012.132.132,0,0,0,.074-.057Z" transform="translate(0 -0.006)" fill="#1d1d1b"/>
    <path d="M6,2.837a.243.243,0,0,1,.038,0l-.033,0a.291.291,0,0,1,.07.019l-.03-.012a.27.27,0,0,1,.059.035l-.025-.02a.284.284,0,0,1,.049.049l-.02-.025.012.017a.134.134,0,0,0,.075.057.125.125,0,0,0,.154-.087.124.124,0,0,0-.013-.1A.4.4,0,0,0,6,2.587a.132.132,0,0,0-.088.037.128.128,0,0,0-.037.088A.125.125,0,0,0,6,2.837Z" transform="translate(0 -0.006)" fill="#1d1d1b"/>
    <path d="M6.223,1.834l.039.039a.126.126,0,0,0,.088.037.13.13,0,0,0,.089-.037.127.127,0,0,0,.036-.088A.132.132,0,0,0,6.439,1.7L6.4,1.657a.134.134,0,0,0-.089-.036.127.127,0,0,0-.088.036.128.128,0,0,0-.037.089.132.132,0,0,0,.037.088Z" transform="translate(0 -0.006)" fill="#1d1d1b"/>
    <path d="M9.01,3.824a.2.2,0,0,0-.035.056.132.132,0,0,0-.013.048.189.189,0,0,0,0,.067l0,.021a.2.2,0,0,0,.094.114.221.221,0,0,0,.08.021.091.091,0,0,0,.049-.011.1.1,0,0,0,.04-.026.126.126,0,0,0,0-.176l-.026-.02A.124.124,0,0,0,9.143,3.9h0l.033,0-.015,0,.03.013-.013-.008.025.019-.012-.012.02.025L9.2,3.921l.013.03a.079.079,0,0,1-.006-.022l0,.033V3.945l0,.033,0-.017-.012.03L9.2,3.979l-.019.026,0,0a.107.107,0,0,0,.026-.04.1.1,0,0,0,.01-.048.127.127,0,0,0-.036-.089A.123.123,0,0,0,9.1,3.788a.121.121,0,0,0-.088.036Z" transform="translate(0 -0.006)" fill="#1d1d1b"/>
    <path d="M7.892,5.072a.563.563,0,0,0-.053.075.74.74,0,0,0-.038.087.5.5,0,0,0-.026.158.127.127,0,0,0,.036.088.124.124,0,0,0,.177,0,.132.132,0,0,0,.037-.088.359.359,0,0,1,0-.047l0,.033a.367.367,0,0,1,.026-.1l-.012.029a.389.389,0,0,1,.048-.084l-.019.026,0,0a.09.09,0,0,0,.026-.04.1.1,0,0,0,.011-.048.126.126,0,0,0-.037-.088.128.128,0,0,0-.088-.037.119.119,0,0,0-.089.037Z" transform="translate(0 -0.006)" fill="#1d1d1b"/>
    <path d="M5.645,5.008,5.568,5.2a.1.1,0,0,0,0,.05.09.09,0,0,0,.015.047.128.128,0,0,0,.074.057.131.131,0,0,0,.1-.012l.025-.02a.133.133,0,0,0,.032-.055l.077-.194a.1.1,0,0,0,0-.05.089.089,0,0,0-.014-.047A.13.13,0,0,0,5.8,4.921a.124.124,0,0,0-.1.013l-.026.019a.133.133,0,0,0-.032.055Z" transform="translate(0 -0.006)" fill="#1d1d1b"/>
    <path d="M3.143,5.175a.219.219,0,0,0-.025.094.193.193,0,0,0,.008.067.216.216,0,0,0,.1.125.124.124,0,0,0,.1.013.13.13,0,0,0,.075-.057.127.127,0,0,0,.012-.1.132.132,0,0,0-.057-.074L3.34,5.24l.025.019-.014-.015.019.026a.113.113,0,0,1-.012-.021l.013.03a.078.078,0,0,1-.007-.025l0,.033a.1.1,0,0,1,0-.024l0,.034.005-.021-.012.03,0,0a.1.1,0,0,0,.015-.046.1.1,0,0,0,0-.05.13.13,0,0,0-.057-.075.124.124,0,0,0-.1-.012.118.118,0,0,0-.075.057Z" transform="translate(0 -0.006)" fill="#1d1d1b"/>
  </g>
</svg>
