<svg xmlns="http://www.w3.org/2000/svg" width="4.544mm" height="6.543mm" viewBox="0 0 12.882 18.548">
  <title>barkbeetle</title>
  <g>
    <path d="M6.822,1.787a2.657,2.657,0,0,0-2.64.845,5.233,5.233,0,0,0-.5,1.434A12.484,12.484,0,0,0,3.05,5.717c-.079.561.108,1.12.073,1.683-.047.743-.26,1.473-.316,2.22A19.2,19.2,0,0,0,2.975,13.8a2.707,2.707,0,0,0,1.744,2.32,4.488,4.488,0,0,0,3.6-.374,3.256,3.256,0,0,0,1.362-2.48,32.148,32.148,0,0,0-.038-4.443c-.038-1.487.137-3.04-.546-4.4a20.033,20.033,0,0,0-1.05-2.021,1.237,1.237,0,0,0-1.245-.59c-.314.042-.318.542,0,.5.715-.093.936.556,1.2,1.076.251.491.518.976.754,1.474a8.7,8.7,0,0,1,.372,3.48q.042,1.678.085,3.358a5.089,5.089,0,0,1-.516,2.981,3.411,3.411,0,0,1-3.3,1.095,2.386,2.386,0,0,1-1.991-2.452,21.79,21.79,0,0,1-.133-3.349,23.748,23.748,0,0,0,.326-3.1,3.051,3.051,0,0,1,.171-1.747,7.394,7.394,0,0,0,.476-1.3,1.9,1.9,0,0,1,.9-1.406,3.319,3.319,0,0,1,1.668-.145c.321.024.319-.476,0-.5Z" transform="translate(-0.002)" fill="#1d1d1b"/>
    <path d="M11.638,3.266a7.828,7.828,0,0,0-1.013,2.54c-.045.218-.078.438-.105.658-.018.145-.023.372-.146.473s-.342.076-.488.1a.761.761,0,0,0-.463.224c-.218.236.134.59.354.354.106-.115.3-.1.441-.116a.864.864,0,0,0,.509-.207c.3-.289.274-.764.341-1.143a7.432,7.432,0,0,1,1-2.629c.169-.274-.263-.526-.432-.252Z" transform="translate(-0.002)" fill="#1d1d1b"/>
    <path d="M9.422,9.447l.734.128c.071.012.3.092.367.064-.019.008-.024-.12-.017-.019a1.637,1.637,0,0,0,.048.216c.106.465.232.927.377,1.382a2.124,2.124,0,0,0,.238.615,1.344,1.344,0,0,0,.532.32,1.067,1.067,0,0,1,.682.96c-.016.321.484.321.5,0a1.431,1.431,0,0,0-.61-1.19,3.673,3.673,0,0,0-.609-.333c-.2-.1-.243-.477-.306-.68-.079-.258-.152-.517-.218-.779a5.533,5.533,0,0,0-.178-.726c-.1-.241-.336-.254-.563-.293l-.844-.147c-.314-.055-.45.427-.133.482Z" transform="translate(-0.002)" fill="#1d1d1b"/>
    <path d="M9.568,12.384l.75,1.537a.594.594,0,0,1,.083.472,3.428,3.428,0,0,1-.172.429c-.108.269-.218.537-.324.806a.76.76,0,0,0-.034.643,2.353,2.353,0,0,0,.49.56c.174.178,1.168.98.747,1.245-.271.172-.02.6.253.432a.806.806,0,0,0,.154-1.175,5.364,5.364,0,0,0-.605-.656c-.254-.258-.678-.521-.523-.916.127-.323.259-.645.388-.967A1.058,1.058,0,0,0,10.906,14,20.46,20.46,0,0,0,10,12.131c-.141-.289-.573-.036-.432.253Z" transform="translate(-0.002)" fill="#1d1d1b"/>
    <path d="M2.8,12.188c-.2.295-.4.589-.6.884a.831.831,0,0,0-.16.649c.049.348.126.7.208,1.038a7.543,7.543,0,0,1,.27,1.016c.026.3-.321.657-.5.875a4.187,4.187,0,0,0-.532.658.735.735,0,0,0,.356,1.086c.307.1.438-.384.133-.483-.411-.132.453-.974.558-1.11.3-.391.583-.748.445-1.258-.148-.543-.3-1.082-.4-1.635a1.155,1.155,0,0,1-.058-.378,1.1,1.1,0,0,1,.206-.345l.507-.745c.181-.266-.252-.517-.432-.252Z" transform="translate(-0.002)" fill="#1d1d1b"/>
    <path d="M3.07,8.9a6.411,6.411,0,0,0-.987.1c-.266.049-.47.119-.558.394a16.643,16.643,0,0,0-.4,1.876,1.06,1.06,0,0,1-.329.679,2.52,2.52,0,0,0-.571.478,1.25,1.25,0,0,0-.034,1.372c.172.271.605.02.432-.253A.743.743,0,0,1,.85,12.51a1.85,1.85,0,0,0,.482-.407,1.6,1.6,0,0,0,.254-.605c.115-.511.189-1.03.311-1.541A2.578,2.578,0,0,1,2,9.548c.023-.053.024-.04-.007-.024a.941.941,0,0,1,.223-.046A5.429,5.429,0,0,1,3.07,9.4a.25.25,0,0,0,0-.5Z" transform="translate(-0.002)" fill="#1d1d1b"/>
    <path d="M3.3,6.8a7.246,7.246,0,0,0-1.255.135l.307.175a7.567,7.567,0,0,0-.411-.92A3.134,3.134,0,0,1,1.811,5.2a8.246,8.246,0,0,0-.542-2.112c-.107-.3-.59-.171-.482.133A7.449,7.449,0,0,1,1.32,5.345a3,3,0,0,0,.141.976,9.032,9.032,0,0,1,.412.922.256.256,0,0,0,.308.174A6.5,6.5,0,0,1,3.3,7.3a.25.25,0,0,0,0-.5Z" transform="translate(-0.002)" fill="#1d1d1b"/>
    <path d="M8.16,3c.184-.029.369-.053.551-.087a.478.478,0,0,0,.387-.4,3.8,3.8,0,0,0,.045-.554c0-.19,0-.381-.01-.571a.25.25,0,1,0-.5,0,7.332,7.332,0,0,1-.016.983c0,.032,0,.006,0-.01a.186.186,0,0,1-.009.047c0,.012-.008.024-.01.036s0,.012.008-.016L8.6,2.448l-.009.015.016-.024a.056.056,0,0,1,.031-.019c.013,0,.012,0,0,0-.035.009-.07.015-.106.021l-.5.079a.251.251,0,0,0-.174.308A.257.257,0,0,0,8.16,3Z" transform="translate(-0.002)" fill="#1d1d1b"/>
    <path d="M8.792.011a.922.922,0,0,0-.6.581.728.728,0,0,0,.209.75.726.726,0,0,0,.474.162,1.477,1.477,0,0,0,.239-.023.8.8,0,0,0,.193-.047.58.58,0,0,0,.318-.286A.713.713,0,0,0,9.681.705a.806.806,0,0,0-.658-.59A.27.27,0,0,0,8.83.141.253.253,0,0,0,8.715.29.254.254,0,0,0,8.89.6a.935.935,0,0,1,.126.033C9.064.646,8.972.61,9,.625l.026.013A.59.59,0,0,1,9.1.678l.023.016C9.07.663,9.091.67,9.1.682l.051.05c.012.012.021.035-.012-.018l.016.023.018.031c.005.008.028.057.009.014s.005.018.007.03A.2.2,0,0,0,9.2.838c-.019-.047,0-.053,0-.029s0,.043,0,.065S9.183.91,9.2.846c0,.012,0,.025-.007.037s-.026.075-.007.031S9.177.929,9.17.94a.153.153,0,0,0-.014.021c.024-.049.031-.037.016-.022A.115.115,0,0,0,9.15.961c-.012.015.055-.032.01-.009L9.129.97s.06-.02.014-.006l-.072.02L9,1C8.951,1,9.01,1,9.013,1A.146.146,0,0,1,8.961,1a.651.651,0,0,1-.077,0,.669.669,0,0,0-.077,0c.039-.007.041.008.016,0L8.782.993c-.008,0-.036-.007-.04-.013l.029.011L8.747.979,8.725.965c-.033-.021.018.012.02.015A.286.286,0,0,0,8.7.934s.035.052.015.019L8.7.931,8.686.908,8.674.885,8.689.92C8.684.9,8.673.878,8.668.857L8.662.831c-.009-.04,0,.025,0,.027a.252.252,0,0,1,0-.067l0-.027c0-.049-.014.061,0,.014.005-.023.011-.045.017-.067C8.69.673,8.672.726,8.669.73A.336.336,0,0,0,8.688.692.579.579,0,0,1,8.73.625C8.749.6,8.688.672,8.722.636L8.752.6c.017-.017.037-.032.054-.049C8.767.6,8.775.578,8.79.567L8.827.543A.66.66,0,0,1,8.891.507C8.9.5,8.942.485,8.9.5L8.925.493A.254.254,0,0,0,9.1.186.255.255,0,0,0,8.792.011Z" transform="translate(-0.002)" fill="#1d1d1b"/>
    <path d="M3.231,1.485,3.2,2.063a1.118,1.118,0,0,0,.063.535.575.575,0,0,0,.452.3c.2.029.4.043.6.062a.25.25,0,0,0,.25-.25.257.257,0,0,0-.25-.25c-.163-.016-.327-.031-.49-.049-.044,0,.009,0,.009,0l-.056-.011c-.015,0-.03-.01-.045-.013s.035.025,0,0,.019.025,0,0c-.035-.038,0-.005,0,0L3.7,2.353c.015.011.016.045,0,0A.25.25,0,0,0,3.7,2.312c.011.01,0,.052,0,0,0-.031,0-.062,0-.092,0-.078.007-.155.01-.233l.024-.5a.251.251,0,0,0-.25-.25.256.256,0,0,0-.25.25Z" transform="translate(-0.002)" fill="#1d1d1b"/>
    <path d="M3.326.121a.8.8,0,0,0-.539.707.826.826,0,0,0,.408.754A.749.749,0,0,0,4.291.7.822.822,0,0,0,3.572.126a.251.251,0,0,0-.25.25.256.256,0,0,0,.25.25c.008,0,.055,0,.007,0s0,0,.007,0,.039.013.058.017S3.586.617,3.628.64l.024.012c.019.011.037.028.057.037C3.662.668,3.676.661,3.7.68L3.721.7c.014.014.027.031.042.045S3.726.7,3.753.735l.015.023c.014.021.025.044.038.066s0,.038-.006-.016a.267.267,0,0,0,.009.026.572.572,0,0,1,.017.059.191.191,0,0,0,.006.033s0-.066,0-.026c0,.025,0,.049,0,.074s-.015.037,0-.019c0,.007,0,.018-.005.026s-.013.04-.017.059.028-.056,0-.011L3.8,1.057l-.02.032c-.032.047.017-.017,0,0s-.03.034-.048.05-.037.041-.01.01,0,0-.013.007-.05.02-.053.029c0-.014.053-.02.009,0l-.044.013c-.021.005-.049,0,.016,0l-.028,0a.588.588,0,0,0-.072,0s.064.012.023,0l-.028-.006L3.5,1.177c-.058-.019.042.024,0,0-.017-.009-.035-.018-.051-.028l-.031-.02c-.032-.022,0-.017.009.008-.006-.015-.037-.033-.049-.045l-.025-.027c-.032-.033.03.046,0,0-.011-.017-.023-.033-.032-.05L3.305.987C3.3.966,3.3.945,3.31,1c0-.021-.015-.042-.02-.063A.143.143,0,0,0,3.283.9l0,.038,0-.03c0-.024,0-.049,0-.073,0-.052-.009.049,0,.015,0-.014.006-.029.01-.043L3.3.772l0-.014Q3.323.72,3.3.776c.014-.019.022-.045.034-.065L3.353.68c.031-.046-.02.022,0,.005s.037-.038.057-.057.008.009-.017.013c.011,0,.026-.017.036-.023L3.457.6,3.431.612,3.459.6A.255.255,0,0,0,3.633.3.252.252,0,0,0,3.326.121Z" transform="translate(-0.002)" fill="#1d1d1b"/>
    <path d="M4.132,3.892a2.072,2.072,0,0,1,1.7.009,3.064,3.064,0,0,0,.469.262c.152.038.25-.063.367-.141a1.774,1.774,0,0,1,.5-.228,1.838,1.838,0,0,1,1.147.058c.151.057.216-.184.066-.241a2.06,2.06,0,0,0-1.121-.1,2.089,2.089,0,0,0-.522.177,1.981,1.981,0,0,0-.251.15c-.125.088-.142.069-.27-.014a2.337,2.337,0,0,0-2.212-.153c-.147.066-.02.281.126.216Z" transform="translate(-0.002)" fill="#1d1d1b"/>
    <path d="M3.62,7.425A2.214,2.214,0,0,1,6.211,7.41a.121.121,0,0,0,.127,0,2.659,2.659,0,0,1,2.744-.122c.141.078.268-.138.126-.216a2.912,2.912,0,0,0-3,.123h.127a2.453,2.453,0,0,0-2.844.015c-.128.094,0,.311.126.215Z" transform="translate(-0.002)" fill="#1d1d1b"/>
    <path d="M6.225,7.275q-.043,4.342-.012,8.686a.125.125,0,0,0,.25,0q-.032-4.342.012-8.686a.125.125,0,0,0-.25,0Z" transform="translate(-0.002)" fill="#1d1d1b"/>
  </g>
</svg>
