<svg xmlns="http://www.w3.org/2000/svg" width="1.665mm" height="3.139mm" viewBox="0 0 4.719 8.898">
  <title>battery</title>
  <g>
    <path d="M3.358.815C2.511.868,1.654.889.81.975.1,1.048,0,1.558,0,2.178q0,2.63.134,5.257c.028.558,0,1.313.7,1.438a4.986,4.986,0,0,0,1.05-.018l1.4-.06c.676-.029,1.232-.09,1.372-.86A9.526,9.526,0,0,0,4.6,5.451L4.348,2.477C4.292,1.829,4.281.9,3.43.845c-.322-.019-.321.481,0,.5.4.024.375.636.4.909l.082.967.165,1.933c.053.628.126,1.259.132,1.89a2.9,2.9,0,0,1-.077.921C4,8.35,3.542,8.284,3.2,8.3c-.636.028-1.273.057-1.91.081-.188.007-.434.04-.554-.121a.653.653,0,0,1-.079-.331C.632,7.616.626,7.3.612,6.991Q.521,5.031.5,3.067C.5,2.721.5,2.375.5,2.03c0-.157-.021-.4.126-.507a1.364,1.364,0,0,1,.58-.074l2.152-.134c.319-.02.322-.52,0-.5Z" transform="translate(0)" fill="#1d1d1b"/>
    <path d="M1.229,1.082l-.056-.4L1.148.508A.691.691,0,0,0,1.132.4c0-.014,0-.037,0-.022L1.064.486,1.082.464.971.528a1.081,1.081,0,0,1,.323-.01l.319,0L2.319.51l.342,0h.183A.7.7,0,0,0,3,.505q.1.006-.084-.1c0-.021,0-.015,0,.016a.773.773,0,0,0,0,.18v.36a.25.25,0,0,0,.5,0c0-.188.012-.38,0-.567A.369.369,0,0,0,3.091.01a4.857,4.857,0,0,0-.566,0l-.593,0-.569,0A1.244,1.244,0,0,0,.779.071C.57.193.638.448.665.641l.082.574a.251.251,0,0,0,.307.175.257.257,0,0,0,.175-.308Z" transform="translate(0)" fill="#1d1d1b"/>
    <path d="M1.333,3.02a8.711,8.711,0,0,0,1.549.018L2.761,2.88q-.186.78-.422,1.548a.125.125,0,0,0,.087.154,1.943,1.943,0,0,0,.752-.027l-.142-.183a24.156,24.156,0,0,0-1.186,2.7l.246.033a8.66,8.66,0,0,1,.117-1.791c.026-.147.129-.4-.056-.485a1.626,1.626,0,0,0-.7-.006l.121.092a8.473,8.473,0,0,1-.1-1.935c.009-.161-.241-.161-.25,0a8.765,8.765,0,0,0,.113,2,.123.123,0,0,0,.12.092c.113-.01.226-.017.339-.019h.15l.076,0c.046,0,.049,0,.011.018a.072.072,0,0,0-.042.095l-.014.078c-.009.053-.018.1-.026.158-.016.1-.03.206-.043.309a8.979,8.979,0,0,0-.057,1.391.126.126,0,0,0,.246.033A23.354,23.354,0,0,1,3.252,4.5a.127.127,0,0,0-.141-.184,1.613,1.613,0,0,1-.619.027L2.58,4.5Q2.816,3.727,3,2.946a.126.126,0,0,0-.12-.158A8.711,8.711,0,0,1,1.333,2.77c-.16-.016-.159.234,0,.25Z" transform="translate(0)" fill="#1d1d1b"/>
  </g>
</svg>
