<svg xmlns="http://www.w3.org/2000/svg" width="1.639mm" height="3.921mm" viewBox="0 0 4.646 11.116">
  <title>bottle</title>
  <g>
    <path d="M2.922,0C2.5.022,2.067.042,1.639.066a.435.435,0,0,0-.311.108.555.555,0,0,0-.111.351,2.394,2.394,0,0,0,.009.644.424.424,0,0,0,.45.368c.209,0,.418-.014.627-.021L2.949,1.5c.221-.008.453-.017.565-.242A1.517,1.517,0,0,0,3.578.6.649.649,0,0,0,3.505.229a.368.368,0,0,0-.4-.155.254.254,0,0,0-.175.308A.255.255,0,0,0,3.24.557C3,.609,3.084.39,3.078.5c0,.034,0,.068,0,.1l0,.191c0,.061,0,.121,0,.182,0,.005,0,.08,0,.037,0,.05-.01.011.01,0,.047-.023.056-.03.027-.022s-.018,0,0,0c-.034,0-.068,0-.1,0L2.8,1l-.424.014-.406.013-.221.008a.583.583,0,0,0-.1,0c.008-.012.054.042.067.044l.007.015c0-.012-.006-.024-.008-.036s0-.016,0,.005l-.005-.054C1.7.946,1.7.88,1.7.814S1.7.669,1.71.6A.659.659,0,0,0,1.721.489C1.716.439,1.76.464,1.7.511l-.11.064c.04-.015,0,0,.03-.008s.061,0,.092,0L1.878.554,2.226.536,2.922.5a.255.255,0,0,0,.25-.25A.252.252,0,0,0,2.922,0Z" fill="#1d1d1b"/>
    <path d="M1.569,1.451c.2.457-.367.837-.65,1.085a1.783,1.783,0,0,0-.556.741,3.842,3.842,0,0,0-.132,1.1L.17,5.8.045,8.718c-.027.61-.171,1.4.254,1.91a2.243,2.243,0,0,0,1.772.488,4.146,4.146,0,0,0,2.1-.443c.6-.354.456-1.183.456-1.782,0-.964-.059-1.926-.067-2.89a10.715,10.715,0,0,0-.025-2.7,1.583,1.583,0,0,0-.552-.856c-.411-.31-.85-.336-.778-.987.036-.32-.465-.317-.5,0a1.05,1.05,0,0,0,.641,1.2c.813.419.8,1.139.747,1.957-.1,1.612.071,3.221.027,4.833a1.412,1.412,0,0,1-.083.614c-.112.223-.315.284-.549.362a4.023,4.023,0,0,1-1.1.184c-.71.031-1.813.117-1.876-.829A21.328,21.328,0,0,1,.6,7.493L.7,5.042A9.923,9.923,0,0,1,.782,3.673c.091-.492.427-.708.773-1.024A1.246,1.246,0,0,0,2,1.2c-.128-.294-.559-.04-.431.253Z" fill="#1d1d1b"/>
    <path d="M.469,4.428a1.86,1.86,0,0,0,1.12.291,5.727,5.727,0,0,0,1.475-.165l-.158-.121a48.633,48.633,0,0,0,.129,4.978l.091-.121a3.358,3.358,0,0,1-2.6-.185C.38,9.032.254,9.248.4,9.321a3.617,3.617,0,0,0,2.8.211.129.129,0,0,0,.092-.121,48.633,48.633,0,0,1-.129-4.978A.126.126,0,0,0,3,4.313a5.513,5.513,0,0,1-1.311.158A1.756,1.756,0,0,1,.6,4.212c-.128-.1-.252.119-.126.216Z" fill="#1d1d1b"/>
  </g>
</svg>
