<svg xmlns="http://www.w3.org/2000/svg" width="2.503mm" height="2.66mm" viewBox="0 0 7.095 7.54">
  <title>branches1</title>
  <g>
    <path d="M.421,7.461A20.719,20.719,0,0,1,6.966,2.652c.291-.136.038-.567-.252-.432A21.083,21.083,0,0,0,.068,7.107c-.217.237.136.592.353.354Z" fill="#1d1d1b"/>
    <path d="M2.036.937a8,8,0,0,1,.406,3.987c-.076.312.406.446.482.133A8.491,8.491,0,0,0,2.518.8a.25.25,0,0,0-.482.133Z" fill="#1d1d1b"/>
    <path d="M5.221,1.141A1.3,1.3,0,0,0,4.9,2.653a.125.125,0,0,0,.216-.126A1.052,1.052,0,0,1,5.4,1.318a.126.126,0,0,0,0-.177.128.128,0,0,0-.177,0Z" fill="#1d1d1b"/>
    <path d="M5.261,1.242a.976.976,0,0,1,.062.909c-.069.15-.191.267-.264.414a.966.966,0,0,0-.066.529c.014.159.264.16.25,0a1.21,1.21,0,0,1,0-.282.568.568,0,0,1,.11-.239A1.667,1.667,0,0,0,5.6,2.11a1.23,1.23,0,0,0-.127-.994c-.085-.137-.3-.012-.216.126Z" fill="#1d1d1b"/>
    <path d="M4.083,4.32a1.857,1.857,0,0,1,.365-.009c.127.009.246.044.37.064a1.254,1.254,0,0,0,.63-.16A.911.911,0,0,1,6.456,4.5c.1.126.314,0,.216-.126a1.139,1.139,0,0,0-1.384-.364,1,1,0,0,1-.371.122,3.727,3.727,0,0,1-.4-.067,1.96,1.96,0,0,0-.433,0c-.158.018-.159.268,0,.25Z" fill="#1d1d1b"/>
    <path d="M4.928,4.366a.911.911,0,0,0,.674.4A2.142,2.142,0,0,0,6.555,4.6c.152-.052.087-.293-.066-.241a2.085,2.085,0,0,1-.822.165.669.669,0,0,1-.523-.286c-.084-.136-.3-.011-.216.127Z" fill="#1d1d1b"/>
    <path d="M1.434,6.456a2.5,2.5,0,0,0,.675-.023c.19-.05.3-.233.472-.325a.987.987,0,0,1,1.192.047c.1.122.281-.056.176-.177a1.126,1.126,0,0,0-1.238-.2,1.5,1.5,0,0,0-.543.332.422.422,0,0,1-.308.093c-.142,0-.284,0-.426,0-.161-.005-.161.245,0,.25Z" fill="#1d1d1b"/>
    <path d="M2.169,6.538a3.087,3.087,0,0,1,.523.079,1.542,1.542,0,0,0,1.3-.378c.12-.108-.057-.284-.177-.177a1.294,1.294,0,0,1-.734.322c-.31.029-.6-.1-.907-.1a.125.125,0,0,0,0,.25Z" fill="#1d1d1b"/>
    <path d="M.308,4.428a.937.937,0,0,0-.13.77.947.947,0,0,0,.457.569c.142.076.268-.14.127-.216a.675.675,0,0,1-.238-1,.125.125,0,0,0-.216-.126Z" fill="#1d1d1b"/>
    <path d="M.415,4.528c.319.06.429.49.41.765a.972.972,0,0,1-.042.22,1.013,1.013,0,0,0-.078.243.77.77,0,0,0,.069.265c.035.1.07.207.106.31.052.151.294.086.241-.067-.038-.108-.075-.217-.112-.326a.773.773,0,0,1-.05-.152A.274.274,0,0,1,1,5.66a1.216,1.216,0,0,0,.078-.537c-.03-.337-.223-.767-.592-.836C.324,4.258.257,4.5.415,4.528Z" fill="#1d1d1b"/>
    <path d="M2.783,3.105,2.175,2.82a.126.126,0,0,0-.126,0c-.207.144-.485.345-.744.213A1.2,1.2,0,0,1,1.02,2.8a.7.7,0,0,1-.2-.309.125.125,0,0,0-.241.067.94.94,0,0,0,.24.4,1.426,1.426,0,0,0,.388.308.977.977,0,0,0,.966-.228H2.049l.608.285c.145.068.272-.148.126-.216Z" fill="#1d1d1b"/>
    <path d="M.778,2.548a.839.839,0,0,1,.658-.023.66.66,0,0,1,.3.152,1.2,1.2,0,0,1,.2.295c.078.141.294.015.216-.126A1.376,1.376,0,0,0,1.9,2.485a.928.928,0,0,0-.4-.2,1.077,1.077,0,0,0-.85.048c-.135.087-.01.3.126.216Z" fill="#1d1d1b"/>
    <path d="M2.876,2.154c.124-.2.249-.392.371-.59A.5.5,0,0,0,3.341,1.3,1.705,1.705,0,0,0,3.285,1a.584.584,0,0,1,.1-.512.893.893,0,0,1,.453-.24A.126.126,0,0,0,3.774,0a.893.893,0,0,0-.754.76,1.251,1.251,0,0,0,.027.317c.02.1.069.2.016.3-.117.222-.269.431-.4.644-.086.136.131.262.216.126Z" fill="#1d1d1b"/>
    <path d="M3.289,1.5a.846.846,0,0,0,.529-.462A1.951,1.951,0,0,0,3.963.2a.125.125,0,0,0-.25,0c0,.377-.044.935-.49,1.053a.125.125,0,0,0,.066.241Z" fill="#1d1d1b"/>
  </g>
</svg>
