<svg xmlns="http://www.w3.org/2000/svg" width="2.796mm" height="2.287mm" viewBox="0 0 7.925 6.483">
  <title>branches2</title>
  <g>
    <path d="M.313,5.688C3.345,5.043,5.728,2.906,7.852.773A.25.25,0,0,0,7.5.42C5.432,2.494,3.13,4.579.18,5.206c-.315.067-.182.549.133.482Z" fill="#1d1d1b"/>
    <path d="M1.071,5.558c.215.118.433.234.647.355.091.052.1.139.162.222a.792.792,0,0,0,.205.2,1.211,1.211,0,0,0,1.2-.032c.145-.068.019-.284-.126-.215a.884.884,0,0,1-1.04-.046A1.9,1.9,0,0,1,2,5.824a.544.544,0,0,0-.205-.156L1.2,5.342c-.141-.078-.267.138-.126.216Z" fill="#1d1d1b"/>
    <path d="M1.976,5.88a.857.857,0,0,1,1.26.227c.085.136.3.01.216-.126a1.105,1.105,0,0,0-1.6-.317.13.13,0,0,0-.045.171.127.127,0,0,0,.171.045Z" fill="#1d1d1b"/>
    <path d="M2.4,4.531c.045-.276.069-.567.138-.838.027-.107.166-.133.248-.2a.736.736,0,0,0,.2-.25A1.255,1.255,0,0,0,2.7,1.934c-.1-.127-.274.051-.177.177.241.312.494.845.133,1.174-.068.062-.158.083-.229.139a.4.4,0,0,0-.132.258c-.046.26-.085.522-.127.783-.026.157.215.225.241.066Z" fill="#1d1d1b"/>
    <path d="M2.491,1.885a1.014,1.014,0,0,0-.4.784,1.706,1.706,0,0,0,.058.5.721.721,0,0,0,.213.4.129.129,0,0,0,.177,0,.127.127,0,0,0,0-.177.5.5,0,0,1-.149-.285,1.484,1.484,0,0,1-.05-.409.76.76,0,0,1,.274-.6.13.13,0,0,0,.045-.171.126.126,0,0,0-.171-.045Z" fill="#1d1d1b"/>
    <path d="M4.446,3.927l.422.032c.108.008.246-.012.328.066a1.225,1.225,0,0,0,.588.318,1.181,1.181,0,0,0,1.164-.427c.1-.126-.078-.3-.177-.177a.934.934,0,0,1-1.107.3A.91.91,0,0,1,5.4,3.873a.445.445,0,0,0-.215-.137,5.842,5.842,0,0,0-.737-.059c-.161-.012-.16.238,0,.25Z" fill="#1d1d1b"/>
    <path d="M5.308,3.97a2.077,2.077,0,0,1,.762-.34.849.849,0,0,1,.365.024,2.488,2.488,0,0,1,.339.187c.144.069.271-.146.126-.216a2.974,2.974,0,0,0-.4-.212,1.056,1.056,0,0,0-.44-.032,2.247,2.247,0,0,0-.881.373c-.136.084-.011.3.127.216Z" fill="#1d1d1b"/>
    <path d="M5.788,2.336a6.063,6.063,0,0,1-.06-.819A.128.128,0,0,0,5.6,1.392c-.09-.007-.132-.138-.151-.209a.99.99,0,0,1-.029-.33,1.006,1.006,0,0,1,.267-.6C5.8.133,5.623-.044,5.513.074A1.274,1.274,0,0,0,5.17.953c0,.278.1.662.433.689l-.125-.125a6.542,6.542,0,0,0,.068.885c.023.159.264.092.242-.066Z" fill="#1d1d1b"/>
    <path d="M5.656,1.663A.714.714,0,0,0,6.1.949a2.171,2.171,0,0,0-.066-.5.888.888,0,0,0-.2-.41C5.724-.08,5.548.1,5.657.216a.649.649,0,0,1,.136.3A2.049,2.049,0,0,1,5.849.9c.008.2-.044.455-.259.526-.152.05-.087.292.066.241Z" fill="#1d1d1b"/>
  </g>
</svg>
