<svg xmlns="http://www.w3.org/2000/svg" width="13.14mm" height="21.748mm" viewBox="0 0 37.248 61.647">
  <title>buy_morespeed</title>
  <g>
    <path d="M2.69,2.655c4.343.459,8.71.622,13.058,1.027,4.455.416,8.891.691,13.365.8,2.633.064,5.266.111,7.9.2l-.25-.25c-.124,10.552-1.145,21.06-1.857,31.581-.2,2.914-.369,5.829-.49,8.747l.25-.25q-13.395-.23-26.749-1.428-3.83-.345-7.651-.771l.25.25L2.4,11.26,2.94,2.4c.02-.321-.48-.32-.5,0L.549,33.708.014,42.563a.255.255,0,0,0,.25.25Q13.578,44.291,26.977,44.8q3.842.146,7.687.21a.255.255,0,0,0,.25-.25c.435-10.487,1.526-20.933,2.058-31.414.15-2.969.254-5.941.289-8.914a.254.254,0,0,0-.25-.25c-4.578-.161-9.162-.178-13.738-.4-4.394-.216-8.767-.731-13.156-1.031-2.478-.169-4.956-.335-7.427-.6-.319-.034-.317.466,0,.5Z" transform="translate(-0.013 -0.004)" fill="#1d1d1b"/>
    <path d="M18.908,3.393q.081-.811.163-1.623a6.079,6.079,0,0,0,0-1.583L18.828.5l2.688.033-.25-.25a31.186,31.186,0,0,1-.2,3.536.252.252,0,0,0,.25.25.256.256,0,0,0,.25-.25,31.186,31.186,0,0,0,.2-3.536.252.252,0,0,0-.25-.25L18.828,0a.254.254,0,0,0-.241.316,5.846,5.846,0,0,1-.023,1.518l-.156,1.555c-.032.32.468.318.5,0Z" transform="translate(-0.013 -0.004)" fill="#1d1d1b"/>
    <path d="M15.809,44.007l-.8,15.12c-.017.321.483.32.5,0l.8-15.12c.016-.321-.484-.321-.5,0Z" transform="translate(-0.013 -0.004)" fill="#1d1d1b"/>
    <path d="M19.14,44.028a14.553,14.553,0,0,0-.363,3.577l-.11,3.723-.228,7.693a.25.25,0,0,0,.5,0l.221-7.445.11-3.723a15.034,15.034,0,0,1,.352-3.692.25.25,0,0,0-.482-.133Z" transform="translate(-0.013 -0.004)" fill="#1d1d1b"/>
    <path d="M8.4,60.728a26.908,26.908,0,0,1,16.63-.146c.307.1.439-.385.133-.482a27.376,27.376,0,0,0-16.9.146c-.3.1-.173.585.133.482Z" transform="translate(-0.013 -0.004)" fill="#1d1d1b"/>
    <path d="M21.534,56.069q-.285,2.227-.541,4.458c-.018.159.232.158.25,0q.257-2.231.541-4.458c.021-.159-.23-.158-.25,0Z" transform="translate(-0.013 -0.004)" fill="#1d1d1b"/>
    <path d="M22.023,60.757a12.03,12.03,0,0,1,2.1-4.281c.1-.127-.12-.252-.216-.126a12.217,12.217,0,0,0-2.122,4.34.125.125,0,0,0,.241.067Z" transform="translate(-0.013 -0.004)" fill="#1d1d1b"/>
    <path d="M22.474,61.587a10.148,10.148,0,0,1,2.3-3.065c.12-.108-.057-.285-.176-.177a10.324,10.324,0,0,0-2.338,3.116c-.07.144.145.271.216.126Z" transform="translate(-0.013 -0.004)" fill="#1d1d1b"/>
    <g>
      <path d="M29.724,25.188c-.181-1.27.315-2.513-.83-3.453a4.838,4.838,0,0,0-3.518-.692l.241.183a39.509,39.509,0,0,0-1.881-5.76.265.265,0,0,0-.241-.184,3.931,3.931,0,0,1-2.045-.866A5.8,5.8,0,0,1,20,13.155c-.633-.869-.1-2.355-1.151-2.951-.941-.536-1.93.165-2.629.761-1.184,1.01-2.326,2.072-3.439,3.159a.251.251,0,0,0-.039.3,93.966,93.966,0,0,0,7.135,8.205q.925.973,1.852,1.944a2.636,2.636,0,0,0,.674.6,2.971,2.971,0,0,0,1.048.162l5.8.487c.32.026.319-.474,0-.5l-5.2-.436a3.357,3.357,0,0,1-1.616-.3,6.218,6.218,0,0,1-.756-.79q-.888-.932-1.776-1.866a89.67,89.67,0,0,1-6.734-7.762l-.039.3q1.5-1.468,3.087-2.853c.523-.456,1.131-1.1,1.879-1.1.943,0,.933.939,1.008,1.633a3.247,3.247,0,0,0,1.457,2.234A5.384,5.384,0,0,0,23.5,15.782l-.241-.183a39.509,39.509,0,0,1,1.881,5.76.252.252,0,0,0,.241.184c1.114-.073,2.417-.164,3.3.662s.418,2.065.568,3.115c.045.318.527.183.482-.132Z" transform="translate(-0.013 -0.004)" fill="#1d1d1b"/>
      <path d="M13.887,13.689a27.757,27.757,0,0,1,3.376,3.721q1.732,2,3.547,3.93c.882.939,1.825,2.2,3.194,2.38.774.1,1.571.025,2.352.114.944.108,1.885.245,2.824.393.158.024.225-.217.067-.241a30.8,30.8,0,0,0-4.61-.489,3.191,3.191,0,0,1-2.331-.968c-.577-.542-1.108-1.138-1.648-1.717q-1.683-1.8-3.3-3.67a27,27,0,0,0-3.3-3.63c-.125-.1-.3.076-.177.177Z" transform="translate(-0.013 -0.004)" fill="#1d1d1b"/>
      <path d="M5.484,17.09q2.994.229,6,.27a.125.125,0,0,0,0-.25q-3-.041-6-.27c-.16-.013-.159.237,0,.25Z" transform="translate(-0.013 -0.004)" fill="#1d1d1b"/>
      <path d="M8.8,19.606q2.829.288,5.67.42c.16.008.16-.242,0-.25q-2.841-.131-5.67-.42c-.159-.016-.158.234,0,.25Z" transform="translate(-0.013 -0.004)" fill="#1d1d1b"/>
      <path d="M3.415,21.486q5.818.355,11.61,1.05c.159.019.158-.231,0-.25q-5.789-.695-11.61-1.05c-.161-.009-.16.241,0,.25Z" transform="translate(-0.013 -0.004)" fill="#1d1d1b"/>
      <path d="M12.6,10.657a2.959,2.959,0,0,0-1.294,1.35,2.727,2.727,0,0,0-.56,1.987.125.125,0,0,0,.241-.066,2.577,2.577,0,0,1,.56-1.838,2.682,2.682,0,0,1,1.179-1.217c.147-.065.02-.281-.126-.216Z" transform="translate(-0.013 -0.004)" fill="#1d1d1b"/>
      <path d="M24.313,13.528a2.455,2.455,0,0,1,1.369,1.3.127.127,0,0,0,.171.045A.129.129,0,0,0,25.9,14.7a2.7,2.7,0,0,0-1.518-1.416.126.126,0,0,0-.154.087.129.129,0,0,0,.087.154Z" transform="translate(-0.013 -0.004)" fill="#1d1d1b"/>
      <path d="M19.993,9.131a8.248,8.248,0,0,1,4.615-1.063,9.434,9.434,0,0,1,4.711,1.114A11.428,11.428,0,0,1,34.192,15.8a9.961,9.961,0,0,1-1.517,9.256,10.933,10.933,0,0,1-8.089,3.918,9.394,9.394,0,0,1-5.4-1.213,12.235,12.235,0,0,1-2.071-1.751,8.38,8.38,0,0,1-1.727-2.1c-.07-.145-.286-.018-.216.126a7.411,7.411,0,0,0,1.469,1.846,16.258,16.258,0,0,0,1.9,1.735,8.7,8.7,0,0,0,4.71,1.588A11.477,11.477,0,0,0,32.2,25.96a9.88,9.88,0,0,0,2.506-9.124A12.121,12.121,0,0,0,30.238,9.5a9.06,9.06,0,0,0-5.1-1.658,8.877,8.877,0,0,0-5.268,1.074c-.136.084-.011.3.127.216Z" transform="translate(-0.013 -0.004)" fill="#1d1d1b"/>
      <g>
        <path d="M10.167,36.206c0,.3-.459.267-.46-.028,0-.411.014-.82.048-1.231a3.346,3.346,0,0,0,.061-.605c-.024-.231-.348-.752-.539-.256,0,.009-.013.016-.018.026,0,.176-.021.355-.029.512-.023.5-.058.994-.092,1.493a.23.23,0,0,1-.459-.028c.028-.4.055-.809.077-1.212a6.21,6.21,0,0,0,.03-.654c0-.05,0-.1,0-.151.015-.3-.124-.383-.414-.235l-.012.012c-.038.743-.092,1.484-.174,2.222-.031.292-.49.267-.459-.027q.142-1.273.193-2.548a.227.227,0,0,1,.378-.154.705.705,0,0,1,.835.233.721.721,0,0,1,1,.135,1.35,1.35,0,0,1,.107.981C10.191,35.2,10.17,35.7,10.167,36.206Z" transform="translate(-0.013 -0.004)" fill="#1d1d1b"/>
        <path d="M12.329,36.249c-.123.248-.351.271-.6.291-.84.062-.869-.382-.864-1.115a5.1,5.1,0,0,1,.106-1.522c.1-.31.365-.363.661-.424a.211.211,0,0,1,.226.091c.787-.1.636.992.6,1.485A3.517,3.517,0,0,1,12.329,36.249Zm-.343-1.032c.006-.1.158-1.241-.1-1.187a.206.206,0,0,1-.214-.08c-.412.14-.336.75-.342,1.118-.006.292-.117.912.187,1.025C12.059,36.293,11.961,35.513,11.986,35.217Z" transform="translate(-0.013 -0.004)" fill="#1d1d1b"/>
        <path d="M14.232,34.192c-.124.025-.3-.017-.4.064a.854.854,0,0,0-.214.346.365.365,0,0,1-.048.069c-.029.585-.05,1.167-.051,1.752,0,.3-.461.266-.459-.029,0-.869.033-1.735.1-2.6a.23.23,0,0,1,.459.028l0,.031a.622.622,0,0,1,.187-.08c.112-.023.227-.008.336-.028A.23.23,0,0,1,14.232,34.192Z" transform="translate(-0.013 -0.004)" fill="#1d1d1b"/>
        <path d="M15.385,35.56c0,.047-.008.093-.014.139a.72.72,0,0,0,.222.613,2.212,2.212,0,0,0,.512-.014c.3-.008.266.451-.027.459-.321.007-.768.1-1.017-.161a1.139,1.139,0,0,1-.151-.924c.047-.516-.068-1.619.577-1.8a1.176,1.176,0,0,1,.842.1c.271.165.274.467.249.753-.017.226-.023.7-.232.852S15.7,35.618,15.385,35.56Zm.072-.755c-.012.1-.021.2-.031.3a3.281,3.281,0,0,0,.623.069c.082-.255.16-.7,0-.834-.088-.077-.328-.034-.411.012C15.454,34.444,15.485,34.613,15.457,34.805Z" transform="translate(-0.013 -0.004)" fill="#1d1d1b"/>
        <path d="M19.376,36.818c-.287.224-.728.116-1.049.051-.289-.059-.138-.495.149-.436.2.04.356.094.526-.018s.135-.2.154-.41c.006-.065.063-.283.032-.337-.058-.106-.227-.085-.321-.1-.257-.046-.48-.068-.545-.354a1.507,1.507,0,0,1,.149-1.036c.233-.268.561-.084.848-.175s.375.361.1.45c-.247.078-.508-.057-.615.226a.4.4,0,0,0,.1.432c.057.038.253,0,.317.015.331.054.436.257.436.573S19.661,36.591,19.376,36.818Z" transform="translate(-0.013 -0.004)" fill="#1d1d1b"/>
        <path d="M21.923,35.467c-.045.292-.1.576-.135.87a.981.981,0,0,1-.116.429.9.9,0,0,1-.966.265c-.023-.006-.04-.017-.06-.024-.018.366-.031.734-.039,1.1-.007.3-.466.268-.46-.028.029-1.281.106-2.564.225-3.839a.236.236,0,0,1,.383-.157c.325.045.785.054,1.017.294A1.314,1.314,0,0,1,21.923,35.467Zm-.659-.834a1.31,1.31,0,0,0-.456-.084q-.09,1.01-.141,2.024a.164.164,0,0,1,.067,0c.673.114.635-.553.716-1.043C21.5,35.231,21.616,34.831,21.264,34.633Z" transform="translate(-0.013 -0.004)" fill="#1d1d1b"/>
        <path d="M22.988,36.019c0,.048-.008.094-.013.139a.716.716,0,0,0,.221.613,2.156,2.156,0,0,0,.512-.014c.3-.008.266.451-.027.459-.321.007-.767.1-1.016-.16a1.143,1.143,0,0,1-.152-.925c.047-.516-.068-1.618.577-1.8a1.184,1.184,0,0,1,.843.1c.271.165.273.468.249.753-.018.226-.024.7-.233.852S23.305,36.077,22.988,36.019Zm.073-.755c-.013.1-.021.2-.031.3a3.342,3.342,0,0,0,.623.068c.082-.255.159-.7,0-.834-.087-.077-.328-.034-.411.012C23.057,34.9,23.089,35.072,23.061,35.264Z" transform="translate(-0.013 -0.004)" fill="#1d1d1b"/>
        <path d="M25.2,36.153c-.006.047-.009.093-.014.139a.719.719,0,0,0,.222.613,2.215,2.215,0,0,0,.512-.015c.3-.007.266.452-.028.459-.321.008-.767.1-1.016-.16a1.141,1.141,0,0,1-.151-.925c.047-.515-.069-1.618.577-1.8a1.176,1.176,0,0,1,.842.1c.271.165.274.468.249.754-.018.226-.024.7-.233.852S25.517,36.211,25.2,36.153Zm.072-.755c-.012.1-.021.2-.031.295a3.269,3.269,0,0,0,.623.068c.082-.254.159-.7,0-.834-.088-.077-.328-.033-.412.013C25.27,35.037,25.3,35.206,25.273,35.4Z" transform="translate(-0.013 -0.004)" fill="#1d1d1b"/>
        <path d="M28.569,37.364a.229.229,0,0,1-.374.156.2.2,0,0,1-.134.038c-.328-.019-.865.013-1.043-.32a2.436,2.436,0,0,1-.039-1.189,2.953,2.953,0,0,1,.168-1.327c.229-.333.681-.13,1.011-.174a.24.24,0,0,1,.1,0c.016-.31.032-.624.049-.935a.23.23,0,0,1,.459.028Q28.666,35.5,28.569,37.364Zm-.48-.268a.131.131,0,0,1,.032.01c.038-.7.073-1.4.111-2.107-.216.021-.612-.051-.727.127-.094.14-.042.585-.052.758a3.963,3.963,0,0,0-.047.812C27.467,37.1,27.754,37.079,28.089,37.1Z" transform="translate(-0.013 -0.004)" fill="#1d1d1b"/>
      </g>
    </g>
  </g>
</svg>
