<svg xmlns="http://www.w3.org/2000/svg" width="12.398mm" height="21.215mm" viewBox="0 0 35.145 60.137">
  <title>buy_coneshooting</title>
  <g>
    <path d="M.251,1.761c4.363.2,8.732.1,13.1.238,4.472.146,8.916.154,13.389-.009,2.632-.095,5.263-.206,7.9-.272l-.25-.25c.527,10.84.126,21.7.05,32.543-.021,2.951-.018,5.9.038,8.852l.25-.25q-13.384.579-26.786.187Q4.091,42.686.25,42.492l.25.25q0-16.135,0-32.271V1.511a.25.25,0,0,0-.5,0Q0,17.647,0,33.782v8.96a.255.255,0,0,0,.25.25q13.38.674,26.784.376,3.845-.087,7.686-.255a.253.253,0,0,0,.25-.25c-.2-10.8.263-21.592.16-32.389-.029-3-.1-6.006-.248-9.006a.253.253,0,0,0-.25-.25c-4.58.114-9.156.374-13.737.426-4.4.05-8.795-.2-13.194-.236-2.484-.019-4.968-.036-7.45-.147-.322-.015-.321.486,0,.5Z" transform="translate(0 -0.011)" fill="#1d1d1b"/>
    <path d="M16.5,1.535c0-.025,0-.049,0-.074,0-.042-.021.072-.029.087l-.089.09h0l-.3-.039h0l-.064-.111c.011.029,0-.087,0-.016,0,.031,0,.061.006.092,0,.078.007.155.01.232a.764.764,0,0,0,.093.466.257.257,0,0,0,.3.039c.1-.043.122-.161.13-.255.012-.152.013-.307.017-.459a5.156,5.156,0,0,0-.1-1.264L16.23.641,18.915.512l-.25-.25c.016.256.052.514.058.77s-.031.517-.045.771c-.018.322.482.321.5,0,.014-.254.05-.515.045-.771s-.042-.514-.058-.77a.253.253,0,0,0-.25-.25L16.23.141a.254.254,0,0,0-.241.316,4.321,4.321,0,0,1,.088,1c0,.163-.008.326-.015.489,0,.03,0,.062,0,.093,0,.054.02-.064.029-.081l.089-.09h0l.3.039h0l.064.111c-.011-.029,0,.087,0,.016,0-.031,0-.061-.006-.092,0-.078-.007-.155-.01-.232a.764.764,0,0,0-.093-.466.257.257,0,0,0-.3-.039c-.127.054-.129.214-.133.329-.014.321.486.321.5,0Z" transform="translate(0 -0.011)" fill="#1d1d1b"/>
    <path d="M15.853,43.232l.112,14.74a.25.25,0,0,0,.5,0l-.112-14.74a.25.25,0,0,0-.5,0Z" transform="translate(0 -0.011)" fill="#1d1d1b"/>
    <path d="M19.184,43.052a14.488,14.488,0,0,0-.151,3.592l.115,3.722.236,7.693c.01.321.51.323.5,0l-.229-7.445-.114-3.722a15.021,15.021,0,0,1,.125-3.707c.069-.314-.413-.448-.482-.133Z" transform="translate(0 -0.011)" fill="#1d1d1b"/>
    <path d="M9.59,59.837a26.905,26.905,0,0,1,16.629-.146c.308.1.44-.385.133-.482a27.373,27.373,0,0,0-16.895.146c-.3.1-.173.585.133.482Z" transform="translate(0 -0.011)" fill="#1d1d1b"/>
    <path d="M9.912,56.463a8.261,8.261,0,0,1,1.887,3.6c.038.157.279.09.241-.066a8.5,8.5,0,0,0-1.952-3.706c-.107-.12-.284.057-.176.176Z" transform="translate(0 -0.011)" fill="#1d1d1b"/>
    <path d="M13.493,54.614a10.988,10.988,0,0,0,.032,5.181.125.125,0,0,0,.241-.066,10.707,10.707,0,0,1-.032-5.049c.037-.156-.2-.223-.241-.066Z" transform="translate(0 -0.011)" fill="#1d1d1b"/>
    <g>
      <path d="M29.463,17.364l.313.351c.2.1.209.2.039.3a2.091,2.091,0,0,1-.559.587,4.308,4.308,0,0,1-1.6.84,10.274,10.274,0,0,1-3.461.25,20.02,20.02,0,0,1-3.577-.215,3.651,3.651,0,0,1-1.6-.7,4.429,4.429,0,0,1-.889-1.3c-.151-.284-.583-.032-.432.253a4.582,4.582,0,0,0,1.107,1.518,4.191,4.191,0,0,0,1.578.69,8.558,8.558,0,0,0,2.063.188c.854.009,1.706.083,2.559.1a7.432,7.432,0,0,0,3.917-.779,4.108,4.108,0,0,0,1.412-1.285c.29-.474-.225-.821-.523-1.153-.215-.241-.567.114-.353.353Z" transform="translate(0 -0.011)" fill="#1d1d1b"/>
      <path d="M29.91,17.035a6.053,6.053,0,0,0-2.733-1.43,32.887,32.887,0,0,0-3.652-.22,7.873,7.873,0,0,0-3.685.179,3.723,3.723,0,0,0-2.093,1.85c-.139.289.292.543.432.252,1.047-2.186,3.547-1.944,5.565-1.759,1.032.094,2.1-.044,3.117.143a5.526,5.526,0,0,1,2.7,1.339c.239.214.594-.138.354-.354Z" transform="translate(0 -0.011)" fill="#1d1d1b"/>
      <path d="M29.514,17.265a1.351,1.351,0,0,1-.177.272c-.078.092-.219.181-.158.32a.349.349,0,0,0,.114.121,1.044,1.044,0,0,1,.289.366.125.125,0,0,0,.216-.127,1.314,1.314,0,0,0-.164-.252,1.679,1.679,0,0,0-.226-.212c-.014-.012.009,0-.006-.007-.033-.017-.041.118,0,.085a.41.41,0,0,0,.051-.051,1.413,1.413,0,0,0,.1-.117,1.551,1.551,0,0,0,.174-.272.125.125,0,1,0-.215-.126Z" transform="translate(0 -0.011)" fill="#1d1d1b"/>
      <path d="M28.429,17a4.434,4.434,0,0,1,.423.4q.095.1.183.21a1.121,1.121,0,0,1,.166.224l-.017-.063v0l.032-.055a.949.949,0,0,1-.18.141q-.105.075-.213.141a4.145,4.145,0,0,1-.452.238.125.125,0,0,0-.045.171.129.129,0,0,0,.171.045,3.886,3.886,0,0,0,.538-.293c.086-.055.169-.115.25-.177s.181-.133.138-.256a.984.984,0,0,0-.172-.241c-.063-.079-.128-.156-.2-.231a4.521,4.521,0,0,0-.448-.427.129.129,0,0,0-.177,0,.127.127,0,0,0,0,.177Z" transform="translate(0 -0.011)" fill="#1d1d1b"/>
      <path d="M27.641,16.267a3.545,3.545,0,0,1,.457.382c.068.068.133.138.2.211.008.01.041.04.043.054,0-.014-.014.016-.018.02a.96.96,0,0,1-.085.095,1.719,1.719,0,0,1-.9.484c-.158.031-.091.272.066.241a1.927,1.927,0,0,0,1.09-.634.277.277,0,0,0,.064-.332,1.526,1.526,0,0,0-.233-.269,3.8,3.8,0,0,0-.553-.468c-.132-.093-.257.124-.126.216Z" transform="translate(0 -0.011)" fill="#1d1d1b"/>
      <path d="M27.355,17.748a2.7,2.7,0,0,1,.526.3,2.509,2.509,0,0,1,.23.194c.074.071.132.126.088.233a.911.911,0,0,1-.372.366l-.6.4c-.133.089-.008.306.126.216.226-.152.456-.3.678-.456a.945.945,0,0,0,.426-.516c.062-.263-.17-.44-.354-.585a2.764,2.764,0,0,0-.621-.37.13.13,0,0,0-.171.045.126.126,0,0,0,.045.171Z" transform="translate(0 -0.011)" fill="#1d1d1b"/>
      <path d="M27.269,19.51l.023.01-.029-.013a.6.6,0,0,1,.129.076l-.026-.02a.591.591,0,0,1,.106.106l-.02-.025.011.013a.129.129,0,0,0,.074.058.132.132,0,0,0,.1-.013.128.128,0,0,0,.057-.074.126.126,0,0,0-.012-.1,1.064,1.064,0,0,0-.075-.091.783.783,0,0,0-.088-.074.717.717,0,0,0-.181-.1.124.124,0,0,0-.1.013.124.124,0,0,0-.045.171.139.139,0,0,0,.075.057Z" transform="translate(0 -0.011)" fill="#1d1d1b"/>
      <path d="M27.523,15.987a2.482,2.482,0,0,1-1.251.725.125.125,0,0,0,.066.241,2.726,2.726,0,0,0,1.362-.789.13.13,0,0,0,0-.177.128.128,0,0,0-.177,0Z" transform="translate(0 -0.011)" fill="#1d1d1b"/>
      <path d="M26.282,16.923a1.988,1.988,0,0,1,.925.715.129.129,0,0,0,.171.044.126.126,0,0,0,.044-.171,2.706,2.706,0,0,0-.472-.5,2.035,2.035,0,0,0-.6-.327.126.126,0,0,0-.153.087.127.127,0,0,0,.087.154Z" transform="translate(0 -0.011)" fill="#1d1d1b"/>
      <path d="M27.223,17.567l0-.036a.021.021,0,0,1-.01.015.2.2,0,0,0-.025.025l-.056.057-.114.113c-.081.079-.165.156-.252.228a1.634,1.634,0,0,1-.547.307c-.153.047-.088.288.067.241a1.969,1.969,0,0,0,.684-.394c.1-.083.191-.171.282-.262s.236-.2.209-.36a.125.125,0,1,0-.241.066Z" transform="translate(0 -0.011)" fill="#1d1d1b"/>
      <path d="M26.117,18.5a3.132,3.132,0,0,0,.3.212,2.32,2.32,0,0,1,.256.218,6.665,6.665,0,0,1,.478.53.126.126,0,0,0,.177,0,.127.127,0,0,0,0-.176,6.508,6.508,0,0,0-.478-.531,2.986,2.986,0,0,0-.278-.236,3.317,3.317,0,0,1-.275-.194.129.129,0,0,0-.177,0,.127.127,0,0,0,0,.177Z" transform="translate(0 -0.011)" fill="#1d1d1b"/>
      <path d="M27.089,19.229a3.131,3.131,0,0,1-.346.364.125.125,0,1,0,.177.177,3.131,3.131,0,0,0,.346-.364.135.135,0,0,0,.037-.089.125.125,0,0,0-.214-.088Z" transform="translate(0 -0.011)" fill="#1d1d1b"/>
      <path d="M25.013,15.876a2.684,2.684,0,0,1,1.149,1.036.125.125,0,0,0,.216-.126,2.916,2.916,0,0,0-1.239-1.125.129.129,0,0,0-.171.044.126.126,0,0,0,.045.171Z" transform="translate(0 -0.011)" fill="#1d1d1b"/>
      <path d="M26.17,16.821a.638.638,0,0,1-.205.185c-.095.063-.192.123-.29.181a1.885,1.885,0,0,1-.615.25.127.127,0,0,0-.087.154.128.128,0,0,0,.154.088,2.148,2.148,0,0,0,.693-.287,1.575,1.575,0,0,0,.566-.445c.086-.137-.13-.262-.216-.126Z" transform="translate(0 -0.011)" fill="#1d1d1b"/>
      <path d="M25.123,17.711a2.944,2.944,0,0,1,.977.9.129.129,0,0,0,.171.045.127.127,0,0,0,.045-.171,3.22,3.22,0,0,0-1.067-.99.125.125,0,0,0-.126.216Z" transform="translate(0 -0.011)" fill="#1d1d1b"/>
      <path d="M26.092,18.427a2.9,2.9,0,0,1-.983.814.125.125,0,0,0,.127.216,3.176,3.176,0,0,0,1.071-.9.126.126,0,0,0-.044-.171.128.128,0,0,0-.171.045Z" transform="translate(0 -0.011)" fill="#1d1d1b"/>
      <path d="M25.135,19.493a1.449,1.449,0,0,1,.16.1l.039.029c.013.009-.018-.015,0,0l.021.017c.024.02.047.04.07.062a1.385,1.385,0,0,1,.127.138l.014.017c-.019-.027,0,0,0,0l.026.037c.018.026.036.054.052.082a.125.125,0,1,0,.216-.126,1.517,1.517,0,0,0-.6-.572.125.125,0,0,0-.126.216Z" transform="translate(0 -0.011)" fill="#1d1d1b"/>
      <path d="M25.233,15.7a3.873,3.873,0,0,1-1.335.649.125.125,0,0,0,.067.241,4.062,4.062,0,0,0,1.394-.674.129.129,0,0,0,.045-.171.126.126,0,0,0-.171-.045Z" transform="translate(0 -0.011)" fill="#1d1d1b"/>
      <path d="M23.915,16.639a2.678,2.678,0,0,1,1.035.963c.084.137.3.011.216-.126a2.932,2.932,0,0,0-1.124-1.053c-.143-.075-.269.141-.127.216Z" transform="translate(0 -0.011)" fill="#1d1d1b"/>
      <path d="M25.029,17.453a2.468,2.468,0,0,1-1.235.921c-.152.05-.087.292.067.241a2.754,2.754,0,0,0,1.384-1.035.125.125,0,1,0-.216-.127Z" transform="translate(0 -0.011)" fill="#1d1d1b"/>
      <path d="M23.88,18.653a4.15,4.15,0,0,1,1.131.866c.112.115.289-.062.177-.177a4.377,4.377,0,0,0-1.182-.9.129.129,0,0,0-.171.045.126.126,0,0,0,.045.171Z" transform="translate(0 -0.011)" fill="#1d1d1b"/>
      <path d="M25.005,19.338a1.875,1.875,0,0,1-.194.184l-.026.02c-.013.011,0,0,.008-.006l-.014.011-.054.039c-.037.026-.075.05-.114.073a.125.125,0,0,0,.126.216,1.932,1.932,0,0,0,.445-.36.125.125,0,0,0-.177-.177Z" transform="translate(0 -0.011)" fill="#1d1d1b"/>
      <path d="M22.989,15.814a2.424,2.424,0,0,1,.235.127,2.229,2.229,0,0,1,.2.145,2.142,2.142,0,0,1,.192.176q.048.05.093.1l.039.048.021.027c-.01-.014.015.02.014.018a.129.129,0,0,0,.171.045A.127.127,0,0,0,24,16.331a2.371,2.371,0,0,0-.887-.733.128.128,0,0,0-.171.045.125.125,0,0,0,.045.171Z" transform="translate(0 -0.011)" fill="#1d1d1b"/>
      <path d="M23.815,16.4a2.266,2.266,0,0,1-.682.6c-.133.084-.269.162-.4.242-.066.039-.131.079-.2.119s-.153.084-.185.161a.129.129,0,0,0,.044.171.126.126,0,0,0,.171-.045c.014-.032-.009,0,.019-.023.012-.009.026-.016.038-.024l.107-.066q.1-.063.207-.123c.136-.08.271-.16.4-.246a2.45,2.45,0,0,0,.7-.643c.092-.132-.125-.257-.216-.126Z" transform="translate(0 -0.011)" fill="#1d1d1b"/>
      <path d="M22.462,17.7a2.959,2.959,0,0,1,1.184.772c.118.108.3-.068.176-.177a3.215,3.215,0,0,0-1.293-.836.125.125,0,0,0-.067.241Z" transform="translate(0 -0.011)" fill="#1d1d1b"/>
      <path d="M23.766,18.4a1.871,1.871,0,0,1-.652.426,4.3,4.3,0,0,1-.8.268c-.157.036-.091.277.066.241a4.619,4.619,0,0,0,.863-.293,2.034,2.034,0,0,0,.7-.466c.106-.12-.07-.3-.177-.176Z" transform="translate(0 -0.011)" fill="#1d1d1b"/>
      <path d="M22.381,19.36a1.793,1.793,0,0,1,.854.661.13.13,0,0,0,.171.045.126.126,0,0,0,.045-.171,2.065,2.065,0,0,0-1-.777.127.127,0,0,0-.154.088.129.129,0,0,0,.088.154Z" transform="translate(0 -0.011)" fill="#1d1d1b"/>
      <path d="M22.449,15.792l.01.005-.057-.075v-.054c.007-.022,0,0-.012,0l-.034.031c-.023.02-.046.04-.071.058a1.694,1.694,0,0,1-.16.105,2.859,2.859,0,0,1-.339.164c-.119.049-.239.1-.361.139a.97.97,0,0,0-.369.149c-.122.105.055.282.177.177a.42.42,0,0,1,.177-.061,1.816,1.816,0,0,0,.229-.078c.142-.055.283-.111.421-.175a2.158,2.158,0,0,0,.379-.224.741.741,0,0,0,.179-.165.147.147,0,0,0-.043-.215c-.143-.075-.269.141-.127.216Z" transform="translate(0 -0.011)" fill="#1d1d1b"/>
      <path d="M21.148,16.517a2.017,2.017,0,0,1,1.212,1.054c.088.134.3.008.215-.126a2.256,2.256,0,0,0-1.361-1.169.128.128,0,0,0-.153.088.124.124,0,0,0,.087.153Z" transform="translate(0 -0.011)" fill="#1d1d1b"/>
      <path d="M22.375,17.576l.01.009-.032-.055,0,.012v-.066c0,.024-.087.078-.113.1-.054.042-.109.082-.166.121a3.007,3.007,0,0,1-.357.206,2.886,2.886,0,0,1-.774.251.125.125,0,1,0,.066.241,3.147,3.147,0,0,0,.946-.333,3.251,3.251,0,0,0,.41-.269c.1-.076.352-.254.182-.393a.127.127,0,0,0-.176,0,.126.126,0,0,0,0,.177Z" transform="translate(0 -0.011)" fill="#1d1d1b"/>
      <path d="M21.05,18.4a2.551,2.551,0,0,1,1.15.86.129.129,0,0,0,.171.045.127.127,0,0,0,.045-.171,2.851,2.851,0,0,0-1.3-.975.126.126,0,0,0-.154.087.129.129,0,0,0,.087.154Z" transform="translate(0 -0.011)" fill="#1d1d1b"/>
      <path d="M22.18,19.21a.4.4,0,0,1-.031.052l-.014.02c-.008.012.014-.016,0,0a.92.92,0,0,1-.076.077l-.022.019s-.03.023-.006.005l-.04.03q-.048.033-.1.063a3.881,3.881,0,0,0-.391.238.128.128,0,0,0-.045.171.126.126,0,0,0,.171.045c.257-.2.607-.292.77-.6a.125.125,0,1,0-.216-.126Z" transform="translate(0 -0.011)" fill="#1d1d1b"/>
      <path d="M20.056,15.933a2.365,2.365,0,0,1,.937.5.129.129,0,0,0,.177,0,.127.127,0,0,0,0-.177,2.649,2.649,0,0,0-1.047-.561.125.125,0,0,0-.067.241Z" transform="translate(0 -0.011)" fill="#1d1d1b"/>
      <path d="M21.011,16.444c0,.009,0,0,0-.006s-.015.019-.021.025a1,1,0,0,1-.077.067c-.046.038-.092.075-.14.11a3.237,3.237,0,0,1-.333.213,3.177,3.177,0,0,1-.713.29.125.125,0,0,0,.066.241,3.436,3.436,0,0,0,.854-.361,3.675,3.675,0,0,0,.379-.265c.11-.087.29-.217.221-.381a.129.129,0,0,0-.154-.087.126.126,0,0,0-.087.154Z" transform="translate(0 -0.011)" fill="#1d1d1b"/>
      <path d="M19.7,17.393a3.287,3.287,0,0,1,1.134,1,.129.129,0,0,0,.171.045.127.127,0,0,0,.045-.171,3.559,3.559,0,0,0-1.223-1.091c-.142-.076-.268.139-.127.216Z" transform="translate(0 -0.011)" fill="#1d1d1b"/>
      <path d="M20.832,18.3a1.406,1.406,0,0,1-.522.325c-.221.076-.458.078-.674.169a.125.125,0,0,0,.126.216,1.552,1.552,0,0,1,.337-.076,1.668,1.668,0,0,0,.333-.088,1.72,1.72,0,0,0,.577-.369c.115-.113-.061-.289-.177-.177Z" transform="translate(0 -0.011)" fill="#1d1d1b"/>
      <path d="M19.667,19.036a.794.794,0,0,1,.11.062.524.524,0,0,1,.085.064,1.71,1.71,0,0,1,.177.184l.04.05.016.021c-.011-.015.012.016.012.015l.073.1.182.251a.125.125,0,0,0,.216-.126c-.119-.163-.234-.33-.362-.486a1.3,1.3,0,0,0-.423-.349.125.125,0,0,0-.126.216Z" transform="translate(0 -0.011)" fill="#1d1d1b"/>
      <path d="M18.844,16.653a1.691,1.691,0,0,1,.213.117c.034.022.066.045.1.07.011.008-.011-.009.006,0l.023.018.048.042a1.656,1.656,0,0,1,.165.17l.018.022s.024.031.009.011l.035.047c.024.035.047.07.069.106a.125.125,0,1,0,.216-.126,1.787,1.787,0,0,0-.775-.7.125.125,0,0,0-.126.216Z" transform="translate(0 -0.011)" fill="#1d1d1b"/>
      <path d="M19.608,17.175a3.566,3.566,0,0,1-.536.46,3.055,3.055,0,0,1-.605.316.129.129,0,0,0-.087.154.126.126,0,0,0,.154.087,3.31,3.31,0,0,0,.664-.342,3.876,3.876,0,0,0,.587-.5.125.125,0,0,0-.177-.177Z" transform="translate(0 -0.011)" fill="#1d1d1b"/>
      <path d="M18.373,18.156a1.268,1.268,0,0,0,.317.163,2.883,2.883,0,0,1,.328.178,2.94,2.94,0,0,1,.56.459c.112.116.288-.06.177-.177a3.284,3.284,0,0,0-.576-.476,3.183,3.183,0,0,0-.317-.179c-.056-.027-.113-.052-.171-.077a.511.511,0,0,1-.141-.068.128.128,0,0,0-.177,0,.126.126,0,0,0,0,.177Z" transform="translate(0 -0.011)" fill="#1d1d1b"/>
      <path d="M19.57,18.871c-.012.018-.024.036-.037.053l.019-.025a.733.733,0,0,1-.127.128l.025-.02a.7.7,0,0,1-.151.09.126.126,0,0,0-.045.171.125.125,0,0,0,.075.058l.033,0a.124.124,0,0,0,.063-.017A.832.832,0,0,0,19.786,19a.125.125,0,1,0-.216-.126Z" transform="translate(0 -0.011)" fill="#1d1d1b"/>
      <path d="M28.536,18.513a.069.069,0,0,1-.035.03c-.024.011-.029.014-.017.011l-.033.005h.01l-.033-.005c.014,0,.017.009-.01-.006a.051.051,0,0,1-.022-.019c-.007-.01-.008-.01,0,0s.011.03,0-.005l.012.027a.417.417,0,0,0,.037.073.894.894,0,0,0,.105.124c.032.033.066.065.1.1l.012.014s.015.019,0,0,0,0,0,0l.009.013.018.03s.008.012.008.016l-.008-.018,0,.011a.139.139,0,0,0,.058.075.128.128,0,0,0,.1.012.126.126,0,0,0,.087-.154.575.575,0,0,0-.115-.185c-.038-.043-.081-.081-.12-.123l-.028-.032-.008-.01.012.016a.133.133,0,0,1-.014-.019c-.007-.012-.015-.024-.021-.036l-.008-.017c.026.052-.012-.029-.01-.024a.182.182,0,0,0-.118-.105.159.159,0,0,0-.18.073.125.125,0,1,0,.216.126Z" transform="translate(0 -0.011)" fill="#1d1d1b"/>
      <path d="M4.946,18.006c3.954,0,7.909.008,11.864-.018a.125.125,0,0,0,0-.25c-3.955.026-7.91.018-11.864.018a.125.125,0,0,0,0,.25Z" transform="translate(0 -0.011)" fill="#1d1d1b"/>
      <path d="M8.718,18.835c.854.035,1.71.022,2.564.025a.125.125,0,0,0,0-.25c-.854,0-1.71.01-2.564-.025-.161-.007-.16.243,0,.25Z" transform="translate(0 -0.011)" fill="#1d1d1b"/>
      <path d="M12.5,17.017l3.776-.074a.125.125,0,0,0,0-.25l-3.776.074a.125.125,0,0,0,0,.25Z" transform="translate(0 -0.011)" fill="#1d1d1b"/>
      <path d="M15.193,16.1a25.654,25.654,0,0,0,3.1-.065c.159-.012.161-.263,0-.25a25.654,25.654,0,0,1-3.1.065c-.161-.006-.161.244,0,.25Z" transform="translate(0 -0.011)" fill="#1d1d1b"/>
      <path d="M7.838,16.083a10.322,10.322,0,0,1,9.011-9.129,10.565,10.565,0,0,1,3.6.354,14.926,14.926,0,0,1,1.777.515A7,7,0,0,1,24.045,8.97c1.875,1.5,3.741,3.259,4.09,5.755.022.158.263.091.241-.067a8.257,8.257,0,0,0-2.963-4.867A14.092,14.092,0,0,0,22.947,7.88a11.449,11.449,0,0,0-3.011-.953A10.035,10.035,0,0,0,9.865,10.542a11.318,11.318,0,0,0-2.277,5.541c-.021.159.229.158.25,0Z" transform="translate(0 -0.011)" fill="#1d1d1b"/>
      <path d="M7.794,20.54c1.594,3.04,3.836,6.12,7.329,7.045a10.38,10.38,0,0,0,5.617.091,13.087,13.087,0,0,0,4.149-2.252,9.979,9.979,0,0,0,3.065-4.081c.06-.149-.182-.214-.241-.066a10,10,0,0,1-3.65,4.457,9.7,9.7,0,0,1-5.863,2,10.1,10.1,0,0,1-6.353-2.175A16.524,16.524,0,0,1,8.01,20.414c-.075-.142-.291-.016-.216.126Z" transform="translate(0 -0.011)" fill="#1d1d1b"/>
      <g>
        <path d="M6.171,36.017c-.3-.013-.791.071-1.012-.191-.244-.285-.127-.858-.115-1.194.014-.4-.131-.966.067-1.334.188-.349.559-.271.9-.251.294.019.3.478,0,.46-.219-.013-.306-.074-.435.1-.1.137-.074.233-.069.393.009.242.007.48,0,.722,0,.133-.095.7.036.8.09.074.513.023.636.031C6.47,35.572,6.47,36.031,6.171,36.017Z" transform="translate(0 -0.011)" fill="#1d1d1b"/>
        <path d="M8.551,35.711c-.107.255-.333.293-.584.328-.835.113-.89-.33-.929-1.061a5.126,5.126,0,0,1,.013-1.525c.083-.317.343-.385.635-.463a.21.21,0,0,1,.231.076c.779-.146.7.951.69,1.447A3.523,3.523,0,0,1,8.551,35.711Zm-.4-1.01c0-.1.083-1.246-.175-1.178a.21.21,0,0,1-.219-.066c-.4.164-.29.767-.274,1.136.012.293-.062.918.249,1.012C8.285,35.771,8.14,35,8.147,34.7Z" transform="translate(0 -0.011)" fill="#1d1d1b"/>
        <path d="M10.842,34.281c-.009.51-.023,1.019-.035,1.529a.23.23,0,0,1-.46,0c.012-.445.021-.892.033-1.338a2.944,2.944,0,0,0,.011-.578c-.085-.42-.347-.57-.674-.187-.007.008-.014.009-.021.017q-.028,1.049.021,2.1c.014.3-.447.295-.46,0-.042-.889-.042-1.775,0-2.666a.23.23,0,0,1,.458-.022.771.771,0,0,1,1.012.106A1.784,1.784,0,0,1,10.842,34.281Z" transform="translate(0 -0.011)" fill="#1d1d1b"/>
        <path d="M11.933,34.84c0,.048,0,.093,0,.14a.718.718,0,0,0,.258.6,2.188,2.188,0,0,0,.51-.045c.295-.026.293.433,0,.459-.319.027-.759.15-1.023-.1a1.136,1.136,0,0,1-.207-.914c.016-.517-.166-1.611.467-1.836a1.182,1.182,0,0,1,.846.045c.281.151.3.451.295.738,0,.227.018.7-.182.864S12.253,34.879,11.933,34.84Zm.027-.758c-.007.1-.009.2-.014.3a3.362,3.362,0,0,0,.626.031c.067-.26.118-.707-.05-.834-.092-.07-.329-.014-.41.037C11.935,33.72,11.976,33.888,11.96,34.082Z" transform="translate(0 -0.011)" fill="#1d1d1b"/>
        <path d="M15.993,35.855c-.273.24-.72.16-1.044.113-.292-.041-.168-.484.122-.443.2.027.361.072.524-.051s.122-.211.129-.418c0-.064.046-.285.012-.338-.064-.1-.232-.072-.327-.084-.26-.029-.483-.039-.566-.32a1.512,1.512,0,0,1,.087-1.043c.217-.281.555-.119.836-.226s.4.337.122.443c-.242.094-.511-.025-.6.264a.406.406,0,0,0,.122.425c.06.034.253-.011.318-.005.333.035.45.23.469.546S16.263,35.611,15.993,35.855Z" transform="translate(0 -0.011)" fill="#1d1d1b"/>
        <path d="M18.36,35.8c.016.3-.444.3-.46,0a10.458,10.458,0,0,1,0-1.3,3.084,3.084,0,0,0,.044-.559.308.308,0,0,0-.162-.375,1.1,1.1,0,0,0-.494-.047,21.65,21.65,0,0,0,.009,2.293c.023.3-.437.291-.46,0-.095-1.2.034-2.406,0-3.613-.009-.3.451-.295.46,0s.009.57,0,.855c.414-.039.971.038,1.086.45a3.568,3.568,0,0,1-.028,1.086A11.117,11.117,0,0,0,18.36,35.8Z" transform="translate(0 -0.011)" fill="#1d1d1b"/>
        <path d="M20.578,35.711c-.108.255-.334.293-.585.328-.835.113-.89-.33-.929-1.061a5.092,5.092,0,0,1,.014-1.525c.082-.317.343-.385.635-.463a.208.208,0,0,1,.23.076c.78-.146.7.951.69,1.447A3.523,3.523,0,0,1,20.578,35.711Zm-.405-1.01c0-.1.083-1.246-.175-1.178a.21.21,0,0,1-.219-.066c-.4.164-.29.767-.273,1.136.011.293-.062.918.248,1.012C20.311,35.771,20.166,35,20.173,34.7Z" transform="translate(0 -0.011)" fill="#1d1d1b"/>
        <path d="M22.818,35.711c-.108.255-.334.293-.585.328-.835.113-.89-.33-.929-1.061a5.092,5.092,0,0,1,.014-1.525c.083-.317.342-.385.634-.463a.21.21,0,0,1,.231.076c.78-.146.7.951.69,1.447A3.549,3.549,0,0,1,22.818,35.711Zm-.405-1.01c0-.1.083-1.246-.175-1.178a.21.21,0,0,1-.219-.066c-.4.164-.29.767-.274,1.136.012.293-.062.918.249,1.012C22.551,35.771,22.406,35,22.413,34.7Z" transform="translate(0 -0.011)" fill="#1d1d1b"/>
        <path d="M24.187,33.517c-.069,0-.138-.011-.207-.017v.283c0,.144-.076,1.822.071,1.8.291-.039.415.4.123.443-.661.09-.7-.418-.68-.955.019-.58.024-1.16.024-1.738a.239.239,0,0,1-.016-.086.194.194,0,0,1,.016-.08c0-.334,0-.67,0-1.006a.23.23,0,0,1,.46,0c0,.291,0,.584,0,.877.071,0,.14.013.209.015C24.482,33.066,24.482,33.525,24.187,33.517Z" transform="translate(0 -0.011)" fill="#1d1d1b"/>
        <path d="M25.482,33.259q-.032,1.272-.009,2.545a.23.23,0,0,1-.46,0q-.021-1.274.009-2.545A.23.23,0,0,1,25.482,33.259Zm-.41-.871a.636.636,0,0,1-.013-.2.234.234,0,0,1,.23-.228.23.23,0,0,1,.23.228.184.184,0,0,0,0,.084.231.231,0,1,1-.445.121Z" transform="translate(0 -0.011)" fill="#1d1d1b"/>
        <path d="M27.732,34.281c-.01.51-.023,1.019-.035,1.529a.23.23,0,0,1-.46,0c.011-.445.021-.892.032-1.338a2.8,2.8,0,0,0,.011-.578c-.084-.42-.347-.57-.674-.187-.007.008-.014.009-.02.017q-.028,1.049.02,2.1c.014.3-.446.295-.46,0-.041-.889-.041-1.775,0-2.666a.23.23,0,0,1,.458-.022.772.772,0,0,1,1.012.106A1.8,1.8,0,0,1,27.732,34.281Z" transform="translate(0 -0.011)" fill="#1d1d1b"/>
        <path d="M30.073,36.687c-.078.842-.8.631-1.457.565-.292-.032-.294-.491,0-.461.183.017.367.037.548.054.228.022.246.067.382-.121a1.222,1.222,0,0,0,.12-.693c-.354-.008-.973.1-1.2-.231-.217-.312-.079-.8-.054-1.15.028-.393-.117-.977.12-1.326.2-.3.732-.246,1.047-.279a.274.274,0,0,1,.088.009.242.242,0,0,1,.4.161A23.532,23.532,0,0,1,30.073,36.687Zm-.419-1.111v0c.014-.693,0-1.383-.037-2.076a.344.344,0,0,1-.041.011c-.133.016-.274.02-.407.043-.283.049-.288.1-.3.375-.009.245.016.487,0,.731-.019.262-.141.592.055.789C29.1,35.625,29.406,35.572,29.654,35.576Z" transform="translate(0 -0.011)" fill="#1d1d1b"/>
      </g>
    </g>
  </g>
</svg>
