<svg xmlns="http://www.w3.org/2000/svg" width="12.399mm" height="20.351mm" viewBox="0 0 35.146 57.688">
  <title>buy_healthpoints</title>
  <g>
    <path d="M.251,3.761c4.363.2,8.732.1,13.1.238,4.472.146,8.916.154,13.389-.009,2.632-.1,5.263-.206,7.9-.272l-.25-.25c.469,9.639.129,19.276.051,28.92-.023,2.825-.016,5.65.037,8.475l.25-.25q-13.384.579-26.786.187Q4.091,40.686.25,40.492l.25.25q0-14.367,0-28.734v-8.5a.25.25,0,0,0-.5,0Q0,17.878,0,32.245v8.5a.255.255,0,0,0,.25.25q13.38.674,26.784.376,3.845-.087,7.686-.255a.253.253,0,0,0,.25-.25c-.181-9.589.259-19.175.161-28.764q-.044-4.317-.249-8.631a.253.253,0,0,0-.25-.25c-4.58.114-9.156.374-13.737.426-4.4.05-8.795-.2-13.194-.236-2.484-.019-4.968-.036-7.45-.147-.322-.015-.321.486,0,.5Z" transform="translate(0 -0.011)" fill="#1d1d1b"/>
    <path d="M16.5,3.535q.032-.815.064-1.628A6.044,6.044,0,0,0,16.471.324L16.23.641,18.915.512l-.25-.25A30.985,30.985,0,0,1,18.678,3.8c-.018.322.482.321.5,0A30.985,30.985,0,0,0,19.165.262a.253.253,0,0,0-.25-.25L16.23.141a.254.254,0,0,0-.241.316,5.788,5.788,0,0,1,.072,1.516q-.03.782-.061,1.562c-.013.321.487.321.5,0Z" transform="translate(0 -0.011)" fill="#1d1d1b"/>
    <path d="M15.853,41.232q.053,6.87.112,13.74a.25.25,0,0,0,.5,0q-.052-6.87-.112-13.74a.25.25,0,0,0-.5,0Z" transform="translate(0 -0.011)" fill="#1d1d1b"/>
    <path d="M19.184,41.052a9.331,9.331,0,0,0-.151,2.592l.115,3.722.236,7.693c.01.321.51.323.5,0l-.229-7.445-.114-3.722a9.85,9.85,0,0,1,.125-2.707c.075-.313-.407-.446-.482-.133Z" transform="translate(0 -0.011)" fill="#1d1d1b"/>
    <path d="M9.59,56.837a26.905,26.905,0,0,1,16.629-.146c.308.1.44-.385.133-.482a27.373,27.373,0,0,0-16.895.146c-.3.1-.173.585.133.482Z" transform="translate(0 -0.011)" fill="#1d1d1b"/>
    <path d="M22.445,52.806a22.145,22.145,0,0,0-.274,4.234c0,.16.256.161.25,0a21.848,21.848,0,0,1,.265-4.167c.025-.158-.215-.225-.241-.067Z" transform="translate(0 -0.011)" fill="#1d1d1b"/>
    <path d="M23.621,57.612a15.39,15.39,0,0,1,2.1-4.178c.094-.132-.123-.257-.216-.127a15.606,15.606,0,0,0-2.129,4.239c-.05.153.191.219.241.066Z" transform="translate(0 -0.011)" fill="#1d1d1b"/>
    <g>
      <path d="M17.525,13.19l.351-.314q.153-.293.3-.039a2.106,2.106,0,0,1,.587.559,4.312,4.312,0,0,1,.84,1.6,10.272,10.272,0,0,1,.25,3.461,20.009,20.009,0,0,1-.215,3.576,3.65,3.65,0,0,1-.7,1.6,4.456,4.456,0,0,1-1.3.889c-.285.15-.033.582.252.431a4.554,4.554,0,0,0,1.518-1.107,4.184,4.184,0,0,0,.69-1.578,8.549,8.549,0,0,0,.188-2.063c.009-.854.083-1.705.1-2.559a7.432,7.432,0,0,0-.779-3.917,4.117,4.117,0,0,0-1.285-1.412c-.474-.29-.821.226-1.153.523-.24.215.114.568.353.354Z" transform="translate(0 -0.011)" fill="#1d1d1b"/>
      <path d="M17.2,12.743a6.055,6.055,0,0,0-1.43,2.732,32.919,32.919,0,0,0-.22,3.653,7.887,7.887,0,0,0,.179,3.685,3.726,3.726,0,0,0,1.85,2.093c.289.138.543-.293.252-.432-2.186-1.048-1.944-3.547-1.759-5.565.095-1.032-.044-2.1.143-3.117a5.529,5.529,0,0,1,1.339-2.7c.214-.239-.138-.593-.354-.353Z" transform="translate(0 -0.011)" fill="#1d1d1b"/>
      <path d="M17.426,13.139a1.319,1.319,0,0,1,.272.176c.092.078.182.22.32.158a.34.34,0,0,0,.121-.114,1.124,1.124,0,0,1,.111-.118,1.064,1.064,0,0,1,.255-.171.127.127,0,0,0,.045-.171.128.128,0,0,0-.171-.044,1.275,1.275,0,0,0-.253.164,1.671,1.671,0,0,0-.212.225c-.012.014,0-.008-.006.007-.018.032.117.041.084,0a.418.418,0,0,0-.051-.052c-.037-.036-.076-.069-.116-.1a1.66,1.66,0,0,0-.273-.174.128.128,0,0,0-.171.045.127.127,0,0,0,.045.171Z" transform="translate(0 -0.011)" fill="#1d1d1b"/>
      <path d="M17.16,14.223a4.687,4.687,0,0,1,.4-.423c.068-.063.138-.124.21-.182a1.063,1.063,0,0,1,.225-.166l-.064.017h0l-.055-.033a1,1,0,0,1,.142.181c.049.069.1.14.14.213a3.969,3.969,0,0,1,.238.452.127.127,0,0,0,.171.045.129.129,0,0,0,.045-.171,4.062,4.062,0,0,0-.292-.539c-.056-.085-.115-.169-.178-.25s-.133-.181-.256-.138a.96.96,0,0,0-.24.172c-.08.063-.157.129-.231.2a4.418,4.418,0,0,0-.428.448.129.129,0,0,0,0,.177.127.127,0,0,0,.177,0Z" transform="translate(0 -0.011)" fill="#1d1d1b"/>
      <path d="M16.428,15.012a3.479,3.479,0,0,1,.382-.457c.068-.068.138-.134.211-.2.01-.008.04-.042.055-.044-.015,0,.015.015.019.018a.97.97,0,0,1,.1.086,1.712,1.712,0,0,1,.484.9c.031.158.272.091.241-.066a1.928,1.928,0,0,0-.634-1.089.278.278,0,0,0-.332-.065,1.568,1.568,0,0,0-.269.233,3.812,3.812,0,0,0-.468.554c-.093.132.124.257.216.126Z" transform="translate(0 -0.011)" fill="#1d1d1b"/>
      <path d="M17.909,15.3a2.653,2.653,0,0,1,.3-.526,2.226,2.226,0,0,1,.193-.229c.071-.075.126-.132.233-.089a.919.919,0,0,1,.367.372c.135.2.269.4.4.6.09.133.306.008.216-.126-.152-.226-.3-.455-.456-.678a.947.947,0,0,0-.515-.426c-.264-.061-.44.171-.585.354a2.753,2.753,0,0,0-.371.621.13.13,0,0,0,.045.171.125.125,0,0,0,.171-.045Z" transform="translate(0 -0.011)" fill="#1d1d1b"/>
      <path d="M19.671,15.384l.01-.024-.013.03a.6.6,0,0,1,.076-.129l-.02.025a.625.625,0,0,1,.106-.106l-.025.02.014-.01a.137.137,0,0,0,.057-.075.128.128,0,0,0-.013-.1.126.126,0,0,0-.074-.058.122.122,0,0,0-.1.013.8.8,0,0,0-.09.075.766.766,0,0,0-.075.087.734.734,0,0,0-.1.181.132.132,0,0,0,.013.1.127.127,0,0,0,.075.057.128.128,0,0,0,.1-.012.142.142,0,0,0,.057-.075Z" transform="translate(0 -0.011)" fill="#1d1d1b"/>
      <path d="M16.149,15.13a2.483,2.483,0,0,1,.724,1.251.125.125,0,0,0,.241-.067,2.719,2.719,0,0,0-.789-1.361.125.125,0,0,0-.176.177Z" transform="translate(0 -0.011)" fill="#1d1d1b"/>
      <path d="M17.084,16.37a1.987,1.987,0,0,1,.715-.924.13.13,0,0,0,.044-.171.125.125,0,0,0-.171-.045,2.74,2.74,0,0,0-.5.472,2.035,2.035,0,0,0-.327.6.125.125,0,1,0,.241.066Z" transform="translate(0 -0.011)" fill="#1d1d1b"/>
      <path d="M17.728,15.43l-.036,0a.02.02,0,0,1,.015.009.118.118,0,0,0,.025.025l.057.056c.038.038.076.076.113.115.079.081.156.164.228.252a1.62,1.62,0,0,1,.307.546c.047.153.288.088.241-.066a1.952,1.952,0,0,0-.394-.684c-.083-.1-.171-.192-.261-.283s-.2-.235-.361-.208a.126.126,0,0,0-.088.154.129.129,0,0,0,.154.087Z" transform="translate(0 -0.011)" fill="#1d1d1b"/>
      <path d="M18.66,16.536a3.281,3.281,0,0,0,.212-.3,2.416,2.416,0,0,1,.218-.256,6.464,6.464,0,0,1,.53-.477.125.125,0,1,0-.176-.177,6.5,6.5,0,0,0-.531.477,3.122,3.122,0,0,0-.236.278,3.333,3.333,0,0,1-.194.276.129.129,0,0,0,0,.177.127.127,0,0,0,.177,0Z" transform="translate(0 -0.011)" fill="#1d1d1b"/>
      <path d="M19.39,15.563a3.217,3.217,0,0,1,.364.346.126.126,0,0,0,.177,0,.128.128,0,0,0,0-.177,3.308,3.308,0,0,0-.364-.346.139.139,0,0,0-.089-.036.127.127,0,0,0-.088.036.128.128,0,0,0-.037.089.126.126,0,0,0,.037.088Z" transform="translate(0 -0.011)" fill="#1d1d1b"/>
      <path d="M16.037,17.639a2.7,2.7,0,0,1,1.036-1.149.125.125,0,0,0-.126-.215,2.913,2.913,0,0,0-1.125,1.238.129.129,0,0,0,.044.171.125.125,0,0,0,.171-.045Z" transform="translate(0 -0.011)" fill="#1d1d1b"/>
      <path d="M16.982,16.482a.653.653,0,0,1,.186.205c.062.095.122.192.18.29a1.887,1.887,0,0,1,.251.615.124.124,0,0,0,.153.087.128.128,0,0,0,.088-.153,2.138,2.138,0,0,0-.287-.693,1.579,1.579,0,0,0-.445-.567c-.137-.086-.262.13-.126.216Z" transform="translate(0 -0.011)" fill="#1d1d1b"/>
      <path d="M17.872,17.529a2.953,2.953,0,0,1,.9-.977.128.128,0,0,0,.045-.171.126.126,0,0,0-.171-.044,3.207,3.207,0,0,0-.99,1.066.125.125,0,0,0,.216.126Z" transform="translate(0 -0.011)" fill="#1d1d1b"/>
      <path d="M18.588,16.561a2.884,2.884,0,0,1,.814.982.125.125,0,0,0,.216-.126,3.159,3.159,0,0,0-.9-1.072.126.126,0,0,0-.171.045.129.129,0,0,0,.045.171Z" transform="translate(0 -0.011)" fill="#1d1d1b"/>
      <path d="M19.654,17.518a1.362,1.362,0,0,1,.1-.16l.029-.04c.01-.012-.015.019,0,0L19.8,17.3c.02-.024.041-.048.062-.07A1.274,1.274,0,0,1,20,17.1l.017-.014c-.027.019,0,0,0,0l.037-.026c.027-.019.054-.036.082-.053a.126.126,0,0,0,.045-.171.127.127,0,0,0-.171-.045,1.526,1.526,0,0,0-.572.6.125.125,0,0,0,.216.126Z" transform="translate(0 -0.011)" fill="#1d1d1b"/>
      <path d="M15.856,17.42a3.877,3.877,0,0,1,.649,1.334.125.125,0,0,0,.241-.066,4.057,4.057,0,0,0-.674-1.395.129.129,0,0,0-.171-.044.126.126,0,0,0-.045.171Z" transform="translate(0 -0.011)" fill="#1d1d1b"/>
      <path d="M16.8,18.737a2.685,2.685,0,0,1,.963-1.035c.137-.084.011-.3-.126-.215a2.932,2.932,0,0,0-1.053,1.124c-.074.142.141.269.216.126Z" transform="translate(0 -0.011)" fill="#1d1d1b"/>
      <path d="M17.614,17.624a2.461,2.461,0,0,1,.921,1.234c.05.152.292.087.241-.066a2.75,2.75,0,0,0-1.035-1.384.126.126,0,0,0-.171.045.127.127,0,0,0,.044.171Z" transform="translate(0 -0.011)" fill="#1d1d1b"/>
      <path d="M18.814,18.772a4.161,4.161,0,0,1,.866-1.13c.115-.113-.062-.29-.177-.177a4.378,4.378,0,0,0-.905,1.181.129.129,0,0,0,.045.171.126.126,0,0,0,.171-.045Z" transform="translate(0 -0.011)" fill="#1d1d1b"/>
      <path d="M19.5,17.647a1.875,1.875,0,0,1,.184.194l.02.026c.011.013,0,0-.006-.008l.011.015c.014.017.026.035.039.053.026.037.05.075.073.114a.125.125,0,1,0,.216-.126,1.953,1.953,0,0,0-.36-.445.125.125,0,0,0-.177.177Z" transform="translate(0 -0.011)" fill="#1d1d1b"/>
      <path d="M15.975,19.664a2.21,2.21,0,0,1,.127-.235,2.251,2.251,0,0,1,.145-.2,2.287,2.287,0,0,1,.177-.192c.032-.032.066-.062.1-.092l.048-.04.027-.021.018-.014a.129.129,0,0,0,.045-.171.126.126,0,0,0-.171-.044,2.363,2.363,0,0,0-.733.887.125.125,0,0,0,.216.126Z" transform="translate(0 -0.011)" fill="#1d1d1b"/>
      <path d="M16.564,18.837a2.278,2.278,0,0,1,.6.682c.084.133.163.269.243.405.038.065.078.131.118.2a.421.421,0,0,0,.161.185.13.13,0,0,0,.171-.045.125.125,0,0,0-.045-.171c-.032-.014,0,.01-.022-.018a.322.322,0,0,1-.025-.039l-.066-.107c-.042-.068-.083-.138-.123-.207-.08-.135-.159-.271-.246-.4a2.45,2.45,0,0,0-.643-.7c-.132-.091-.257.125-.126.216Z" transform="translate(0 -0.011)" fill="#1d1d1b"/>
      <path d="M17.86,20.19a2.949,2.949,0,0,1,.772-1.183c.108-.119-.068-.3-.177-.177a3.232,3.232,0,0,0-.836,1.293.125.125,0,0,0,.241.067Z" transform="translate(0 -0.011)" fill="#1d1d1b"/>
      <path d="M18.565,18.886a1.875,1.875,0,0,1,.426.653,4.254,4.254,0,0,1,.268.8c.036.156.277.09.241-.067a4.585,4.585,0,0,0-.293-.862,2.038,2.038,0,0,0-.466-.7c-.12-.106-.3.07-.176.177Z" transform="translate(0 -0.011)" fill="#1d1d1b"/>
      <path d="M19.521,20.272a1.791,1.791,0,0,1,.661-.855.129.129,0,0,0,.045-.171.127.127,0,0,0-.171-.045,2.062,2.062,0,0,0-.776,1,.126.126,0,0,0,.087.154.128.128,0,0,0,.154-.087Z" transform="translate(0 -0.011)" fill="#1d1d1b"/>
      <path d="M15.953,20.2l.005-.01-.075.058.012,0h-.066c-.022-.006,0,0,0,.013s.02.022.03.033.04.047.058.071a1.694,1.694,0,0,1,.105.16,2.8,2.8,0,0,1,.164.34c.05.118.1.238.139.36a.975.975,0,0,0,.149.37c.1.121.282-.056.177-.177a.424.424,0,0,1-.061-.178,1.872,1.872,0,0,0-.078-.229c-.055-.141-.111-.283-.175-.421a2.114,2.114,0,0,0-.224-.378.764.764,0,0,0-.165-.18.148.148,0,0,0-.215.044c-.075.142.141.269.216.126Z" transform="translate(0 -0.011)" fill="#1d1d1b"/>
      <path d="M16.679,21.505a2.01,2.01,0,0,1,1.053-1.212c.134-.088.009-.3-.126-.216a2.256,2.256,0,0,0-1.169,1.361.129.129,0,0,0,.088.154.127.127,0,0,0,.154-.087Z" transform="translate(0 -0.011)" fill="#1d1d1b"/>
      <path d="M17.737,20.278l.009-.011-.055.032.012,0h-.066c.024,0,.078.087.1.113.042.054.082.11.121.166a2.95,2.95,0,0,1,.206.357,2.9,2.9,0,0,1,.251.775.126.126,0,0,0,.154.087.128.128,0,0,0,.088-.154,3.18,3.18,0,0,0-.334-.945,3.113,3.113,0,0,0-.269-.41c-.076-.1-.254-.352-.393-.183a.13.13,0,0,0,0,.177.127.127,0,0,0,.177,0Z" transform="translate(0 -0.011)" fill="#1d1d1b"/>
      <path d="M18.557,21.6a2.564,2.564,0,0,1,.86-1.15.129.129,0,0,0,.045-.171.126.126,0,0,0-.171-.044,2.851,2.851,0,0,0-.975,1.3.125.125,0,1,0,.241.066Z" transform="translate(0 -0.011)" fill="#1d1d1b"/>
      <path d="M19.371,20.472l.052.031.02.014c.013.009-.016-.014,0,0a.778.778,0,0,1,.077.075l.019.022s.023.03,0,.006l.03.041c.022.032.043.065.063.1a3.9,3.9,0,0,0,.238.392.129.129,0,0,0,.171.045.126.126,0,0,0,.045-.171c-.2-.258-.292-.608-.595-.771a.125.125,0,0,0-.127.216Z" transform="translate(0 -0.011)" fill="#1d1d1b"/>
      <path d="M16.094,22.6a2.365,2.365,0,0,1,.5-.937.125.125,0,0,0-.177-.177,2.659,2.659,0,0,0-.561,1.048.125.125,0,0,0,.241.066Z" transform="translate(0 -0.011)" fill="#1d1d1b"/>
      <path d="M16.605,21.642c.009,0,0,0-.006,0s.019.015.025.02c.024.024.045.052.067.078.038.045.075.092.11.14a3.193,3.193,0,0,1,.5,1.046.125.125,0,0,0,.241-.067A3.445,3.445,0,0,0,17.184,22a3.583,3.583,0,0,0-.265-.38c-.087-.11-.217-.289-.381-.221a.13.13,0,0,0-.087.154.126.126,0,0,0,.154.088Z" transform="translate(0 -0.011)" fill="#1d1d1b"/>
      <path d="M17.554,22.948a3.294,3.294,0,0,1,1-1.133.128.128,0,0,0,.045-.171.126.126,0,0,0-.171-.045,3.56,3.56,0,0,0-1.091,1.223c-.076.142.14.268.216.126Z" transform="translate(0 -0.011)" fill="#1d1d1b"/>
      <path d="M18.46,21.82a1.418,1.418,0,0,1,.325.523c.077.22.078.457.17.673a.125.125,0,0,0,.171.045.128.128,0,0,0,.044-.171,1.486,1.486,0,0,1-.075-.336,1.673,1.673,0,0,0-.458-.91c-.113-.116-.289.061-.177.176Z" transform="translate(0 -0.011)" fill="#1d1d1b"/>
      <path d="M19.2,22.985a.794.794,0,0,1,.062-.11.65.65,0,0,1,.064-.085,1.61,1.61,0,0,1,.184-.176l.05-.041.021-.016.015-.012.1-.072.25-.183a.125.125,0,1,0-.126-.216c-.163.119-.33.234-.485.363a1.273,1.273,0,0,0-.35.422.128.128,0,0,0,.045.171.126.126,0,0,0,.171-.045Z" transform="translate(0 -0.011)" fill="#1d1d1b"/>
      <path d="M16.814,23.808a1.752,1.752,0,0,1,.117-.212c.022-.034.046-.067.07-.1.008-.011-.009.01,0-.007l.018-.022.042-.049a1.643,1.643,0,0,1,.17-.164l.022-.019s.031-.024.011-.009l.047-.034c.035-.025.07-.048.107-.07a.125.125,0,0,0-.127-.215,1.779,1.779,0,0,0-.7.774.128.128,0,0,0,.045.171.126.126,0,0,0,.171-.045Z" transform="translate(0 -0.011)" fill="#1d1d1b"/>
      <path d="M17.336,23.044a3.616,3.616,0,0,1,.46.536,3.055,3.055,0,0,1,.316.605.128.128,0,0,0,.154.087.125.125,0,0,0,.087-.153,3.267,3.267,0,0,0-.342-.665,3.876,3.876,0,0,0-.5-.587c-.114-.113-.291.064-.177.177Z" transform="translate(0 -0.011)" fill="#1d1d1b"/>
      <path d="M18.317,24.28a1.292,1.292,0,0,0,.163-.318,2.97,2.97,0,0,1,.178-.328,3.011,3.011,0,0,1,.459-.56c.117-.111-.06-.288-.177-.177a3.255,3.255,0,0,0-.476.577,3.159,3.159,0,0,0-.178.316c-.028.057-.053.114-.078.172a.511.511,0,0,1-.068.141.125.125,0,0,0,.177.177Z" transform="translate(0 -0.011)" fill="#1d1d1b"/>
      <path d="M19.032,23.082l.053.038-.025-.02a.738.738,0,0,1,.128.128l-.02-.025a.694.694,0,0,1,.09.15.124.124,0,0,0,.171.045.125.125,0,0,0,.058-.074l0-.034a.119.119,0,0,0-.017-.063.829.829,0,0,0-.316-.36.125.125,0,0,0-.171.044.127.127,0,0,0,.045.171Z" transform="translate(0 -0.011)" fill="#1d1d1b"/>
      <path d="M18.674,14.116a.067.067,0,0,1,.03.036c.011.023.015.029.011.016l0,.033v-.01l0,.033c0-.014.01-.017-.006.01a.041.041,0,0,1-.019.022c-.009.007-.01.008,0,0s.03-.011,0,0l.027-.011a.459.459,0,0,0,.073-.038.823.823,0,0,0,.124-.1c.033-.033.065-.066.1-.1L19.02,14s.019-.015,0,0l0,0,.013-.008.03-.019a.061.061,0,0,1,.017-.007l-.019.008.011-.005a.137.137,0,0,0,.075-.057.131.131,0,0,0,.012-.1.126.126,0,0,0-.153-.087.569.569,0,0,0-.186.115c-.043.039-.081.082-.123.121l-.032.028-.009.007.015-.012a.085.085,0,0,1-.019.014.335.335,0,0,1-.036.021l-.017.008c.052-.026-.029.013-.024.01a.183.183,0,0,0-.1.119.159.159,0,0,0,.073.179.125.125,0,1,0,.126-.216Z" transform="translate(0 -0.011)" fill="#1d1d1b"/>
      <path d="M21.515,17.023a2.458,2.458,0,0,1,.289,3.244c-.1.125.077.3.176.177a2.709,2.709,0,0,0-.289-3.6c-.119-.108-.3.069-.176.177Z" transform="translate(0 -0.011)" fill="#1d1d1b"/>
      <path d="M22.237,14.442a6.632,6.632,0,0,1,1.58,1.838,4.15,4.15,0,0,1,.708,2.362A7.366,7.366,0,0,1,23,22.928c-.1.129.121.253.216.126a7.452,7.452,0,0,0,1.55-4.72,4.393,4.393,0,0,0-.778-2.242,6.909,6.909,0,0,0-1.628-1.866c-.133-.091-.258.125-.126.216Z" transform="translate(0 -0.011)" fill="#1d1d1b"/>
      <path d="M14.143,20.3a2.457,2.457,0,0,1-.289-3.244c.1-.125-.077-.3-.177-.177a2.71,2.71,0,0,0,.289,3.6c.119.108.3-.068.177-.177Z" transform="translate(0 -0.011)" fill="#1d1d1b"/>
      <path d="M13.421,22.883a6.653,6.653,0,0,1-1.581-1.838,4.156,4.156,0,0,1-.707-2.361A7.373,7.373,0,0,1,12.654,14.4c.1-.128-.12-.253-.216-.126a7.447,7.447,0,0,0-1.549,4.72,4.392,4.392,0,0,0,.777,2.242A6.912,6.912,0,0,0,13.3,23.1c.132.092.257-.125.126-.216Z" transform="translate(0 -0.011)" fill="#1d1d1b"/>
      <path d="M18.577,7.8A10.192,10.192,0,0,0,11.794,9.81a10.81,10.81,0,0,0-4.1,5.112,11.363,11.363,0,0,0,4.056,11.664,10.324,10.324,0,0,0,6.032,2.094,13.5,13.5,0,0,0,3.66-.578,9.019,9.019,0,0,0,3.243-1.45A10.784,10.784,0,0,0,28.218,15.7a10.858,10.858,0,0,0-9.873-7.9c-.161-.008-.161.242,0,.25a10.691,10.691,0,0,1,9.1,6.18,10.64,10.64,0,0,1-1.694,11.066,9.915,9.915,0,0,1-6.022,2.955,9.869,9.869,0,0,1-6.364-.944,11.046,11.046,0,0,1-5.717-10.29A6.887,6.887,0,0,1,8.9,13.128a13.853,13.853,0,0,1,2.4-2.618,10.146,10.146,0,0,1,7.276-2.462c.16.013.16-.237,0-.25Z" transform="translate(0 -0.011)" fill="#1d1d1b"/>
      <g>
        <path d="M7.684,36.8c.016.3-.444.3-.46,0a10.442,10.442,0,0,1,0-1.3,3.1,3.1,0,0,0,.043-.56.306.306,0,0,0-.161-.375,1.087,1.087,0,0,0-.494-.046,21.632,21.632,0,0,0,.009,2.292c.023.3-.437.292-.46,0-.095-1.2.034-2.406,0-3.612-.009-.3.451-.3.46,0s.009.57.005.855c.414-.039.971.038,1.086.45a3.568,3.568,0,0,1-.028,1.086A11.1,11.1,0,0,0,7.684,36.8Z" transform="translate(0 -0.011)" fill="#1d1d1b"/>
        <path d="M8.815,35.84c0,.048,0,.094,0,.14a.725.725,0,0,0,.258.6,2.2,2.2,0,0,0,.511-.046c.294-.026.292.434,0,.46-.32.027-.759.149-1.024-.1a1.144,1.144,0,0,1-.207-.914c.016-.517-.165-1.61.467-1.836a1.184,1.184,0,0,1,.847.046c.281.15.3.451.294.738,0,.226.019.7-.181.864S9.135,35.88,8.815,35.84Zm.028-.757c-.007.1-.01.2-.014.3a3.355,3.355,0,0,0,.626.03c.066-.26.117-.706-.051-.833-.092-.071-.329-.014-.409.037C8.817,34.721,8.859,34.889,8.843,35.083Z" transform="translate(0 -0.011)" fill="#1d1d1b"/>
        <path d="M11.752,37.073a.24.24,0,0,1-.039-.039.239.239,0,0,1-.12.012c-.333-.06-.683.186-.9-.2-.184-.322-.073-.872-.1-1.238a2.109,2.109,0,0,1,.136-1.3c.172-.253.506-.217.779-.241a.192.192,0,0,1,.113.02.237.237,0,0,1,.426.124c.018.438.023.873.007,1.31-.01.251-.205,1.035.03,1.224S11.982,37.257,11.752,37.073Zm-.233-.479a4.862,4.862,0,0,1,.04-.568c.037-.506.043-1.015.03-1.522a.28.28,0,0,1-.086.027c-.414.041-.483.226-.485.626,0,.273.044.547.06.821s-.111.614.2.63A1.536,1.536,0,0,0,11.519,36.594Z" transform="translate(0 -0.011)" fill="#1d1d1b"/>
        <path d="M13.423,37.037c-.626.124-.679-.477-.672-.95.016-.981.08-1.966.058-2.946a.23.23,0,0,1,.459,0c.012.569-.013,1.137-.027,1.7a7.842,7.842,0,0,0,.06,1.749C13.591,36.537,13.715,36.979,13.423,37.037Z" transform="translate(0 -0.011)" fill="#1d1d1b"/>
        <path d="M14.876,34.517c-.069,0-.138-.011-.207-.016v.283c0,.144-.076,1.822.071,1.8.29-.039.414.405.122.444-.66.09-.7-.419-.679-.955.019-.58.023-1.16.023-1.739a.258.258,0,0,1-.016-.086.211.211,0,0,1,.016-.08c0-.334,0-.67,0-1.006a.23.23,0,0,1,.46,0c0,.292,0,.585,0,.877.072.005.141.013.21.015C15.17,34.066,15.17,34.526,14.876,34.517Z" transform="translate(0 -0.011)" fill="#1d1d1b"/>
        <path d="M17.252,36.8c.016.3-.444.3-.461,0a10.843,10.843,0,0,1,0-1.3,3.014,3.014,0,0,0,.044-.56.306.306,0,0,0-.161-.375,1.087,1.087,0,0,0-.494-.046,21.632,21.632,0,0,0,.009,2.292c.023.3-.438.292-.461,0-.094-1.2.035-2.406,0-3.612-.009-.3.451-.3.46,0s.009.57,0,.855c.414-.039.971.038,1.086.45a3.568,3.568,0,0,1-.028,1.086A11.1,11.1,0,0,0,17.252,36.8Z" transform="translate(0 -0.011)" fill="#1d1d1b"/>
        <path d="M20.667,35.354c-.028.293-.065.58-.083.875a.974.974,0,0,1-.09.437.9.9,0,0,1-.948.322.411.411,0,0,1-.062-.021c0,.367.014.735.028,1.1.011.3-.449.3-.46,0C19,36.786,19,35.5,19.045,34.22a.235.235,0,0,1,.372-.179,1.8,1.8,0,0,1,1.034.232A1.319,1.319,0,0,1,20.667,35.354Zm-.709-.794a1.3,1.3,0,0,0-.46-.056q-.029,1.013-.019,2.029a.182.182,0,0,1,.067-.007c.679.073.6-.59.652-1.084C20.229,35.143,20.322,34.736,19.958,34.56Z" transform="translate(0 -0.011)" fill="#1d1d1b"/>
        <path d="M22.85,36.712c-.108.255-.333.293-.584.327-.835.113-.891-.329-.93-1.061a5.126,5.126,0,0,1,.014-1.525c.083-.316.343-.385.635-.463a.208.208,0,0,1,.23.076c.78-.145.7.952.69,1.447A3.5,3.5,0,0,1,22.85,36.712Zm-.405-1.01c0-.1.083-1.247-.175-1.178a.206.206,0,0,1-.218-.067c-.4.164-.29.768-.274,1.136.011.293-.062.918.248,1.013C22.583,36.772,22.438,36,22.445,35.7Z" transform="translate(0 -0.011)" fill="#1d1d1b"/>
        <path d="M24,34.259q-.032,1.273-.009,2.545a.23.23,0,0,1-.46,0q-.021-1.274.009-2.545A.23.23,0,0,1,24,34.259Zm-.409-.87a.61.61,0,0,1-.014-.205.234.234,0,0,1,.23-.229.23.23,0,0,1,.23.229.212.212,0,0,0,0,.083.235.235,0,0,1-.161.283A.232.232,0,0,1,23.592,33.389Z" transform="translate(0 -0.011)" fill="#1d1d1b"/>
        <path d="M26.251,35.281c-.009.511-.023,1.019-.035,1.53a.23.23,0,0,1-.46,0q.017-.669.032-1.339a2.868,2.868,0,0,0,.012-.578c-.085-.419-.347-.57-.675-.186-.006.007-.013.009-.02.016q-.029,1.049.02,2.1c.015.3-.446.294-.46,0-.041-.889-.041-1.776,0-2.667a.23.23,0,0,1,.458-.021.77.77,0,0,1,1.012.106A1.79,1.79,0,0,1,26.251,35.281Z" transform="translate(0 -0.011)" fill="#1d1d1b"/>
        <path d="M27.558,34.517c-.069,0-.138-.011-.207-.016v.283c0,.144-.076,1.822.071,1.8.29-.039.414.405.122.444-.66.09-.7-.419-.679-.955.019-.58.024-1.16.024-1.739a.235.235,0,0,1-.017-.086.2.2,0,0,1,.017-.08c0-.334,0-.67,0-1.006a.23.23,0,0,1,.46,0c0,.292,0,.585,0,.877.071.005.14.013.209.015C27.852,34.066,27.852,34.526,27.558,34.517Z" transform="translate(0 -0.011)" fill="#1d1d1b"/>
        <path d="M29.589,36.855c-.274.241-.72.16-1.045.114-.292-.041-.168-.485.122-.443.2.027.362.071.525-.051s.122-.212.129-.419c0-.064.046-.285.011-.338-.064-.1-.232-.071-.326-.083-.26-.03-.484-.039-.567-.32a1.515,1.515,0,0,1,.088-1.044c.216-.281.554-.118.835-.225s.4.337.122.443c-.241.093-.51-.025-.6.263a.4.4,0,0,0,.122.425c.059.035.253-.011.317,0,.334.035.451.23.469.545S29.858,36.611,29.589,36.855Z" transform="translate(0 -0.011)" fill="#1d1d1b"/>
      </g>
    </g>
  </g>
</svg>
