<svg xmlns="http://www.w3.org/2000/svg" width="3.81mm" height="3.674mm" viewBox="0 0 10.8 10.413">
  <title>buy_coin1</title>
  <g>
    <path d="M6.119,3.446Q6.037,5.225,5.958,7c-.014.295-.474.3-.46,0q.061-1.438.129-2.881c-.178.207-.359.412-.548.613-.2.218-.527-.109-.324-.325q.507-.541.97-1.121A.233.233,0,0,1,6.119,3.446Z" fill="#1d1d1b"/>
    <path d="M5.01,0A5.641,5.641,0,0,0,.325,3.5,5.092,5.092,0,0,0,1.9,9.259a6.164,6.164,0,0,0,6.532.417A4.661,4.661,0,0,0,10.56,4.059a6.147,6.147,0,0,0-2.022-3A6.531,6.531,0,0,0,4.441.044c-.321.012-.322.512,0,.5a6.848,6.848,0,0,1,3.3.61A4.883,4.883,0,0,1,9.745,3.375a4.386,4.386,0,0,1-.894,5.439,5.722,5.722,0,0,1-6.021.465A4.545,4.545,0,0,1,.584,4.418,5.046,5.046,0,0,1,5.01.5c.316-.036.319-.536,0-.5Z" fill="#1d1d1b"/>
    <path d="M5.273,1.463c-1.663.242-3.446,1.2-3.75,3.006a3.949,3.949,0,0,0,2,4.2A5,5,0,0,0,8.2,7.905a3.284,3.284,0,0,0,.6-4.231C7.885,2.082,6.037.9,4.182,1.6c-.149.056-.084.3.067.241C7.213.727,10.542,4.852,8.376,7.384A4.678,4.678,0,0,1,4.137,8.6a3.443,3.443,0,0,1-2.41-3.553c-.007-2,1.849-3.081,3.612-3.338.159-.023.091-.264-.066-.241Z" fill="#1d1d1b"/>
  </g>
</svg>
