<svg xmlns="http://www.w3.org/2000/svg" width="12.398mm" height="21.717mm" viewBox="0 0 35.145 61.559">
  <title>buy_stealthmode</title>
  <g>
    <path d="M.251,6.761c4.363.2,8.732.1,13.1.238,4.472.146,8.916.154,13.389-.009,2.632-.1,5.263-.206,7.9-.272l-.25-.25c.512,10.539.127,21.09.05,31.635-.021,2.92-.017,5.841.038,8.76l.25-.25q-13.384.579-26.786.187Q4.091,46.686.25,46.492l.25.25V6.511a.25.25,0,0,0-.5,0V46.742a.255.255,0,0,0,.25.25q13.38.674,26.784.376,3.845-.087,7.686-.255a.253.253,0,0,0,.25-.25c-.2-10.494.262-20.986.16-31.48-.028-2.973-.1-5.946-.248-8.915a.253.253,0,0,0-.25-.25c-4.58.114-9.156.374-13.737.426-4.4.05-8.795-.2-13.194-.236-2.484-.019-4.968-.036-7.45-.147-.322-.015-.321.486,0,.5Z" transform="translate(0 -0.011)" fill="#1d1d1b"/>
    <path d="M16.5,6.535c.045-1.152.08-2.3.077-3.451,0-.56-.007-1.12-.024-1.679A5.924,5.924,0,0,0,16.471.324L16.23.641,18.915.512l-.25-.25c.065,1.087.056,2.181.058,3.27s.012,2.183-.045,3.271c-.017.322.483.321.5,0,.057-1.088.046-2.181.045-3.271s.007-2.183-.058-3.27a.253.253,0,0,0-.25-.25L16.23.141a.253.253,0,0,0-.241.316,6.026,6.026,0,0,1,.066,1.012c.016.562.021,1.125.022,1.688,0,1.128-.033,2.25-.077,3.378-.013.321.487.321.5,0Z" transform="translate(0 -0.011)" fill="#1d1d1b"/>
    <path d="M15.853,47.232c.03,3.913.082,7.827.112,11.74a.25.25,0,0,0,.5,0c-.03-3.913-.082-7.827-.112-11.74a.25.25,0,0,0-.5,0Z" transform="translate(0 -0.011)" fill="#1d1d1b"/>
    <path d="M19.184,47.052a13.153,13.153,0,0,0-.159,3.311q.05,1.526.121,3.049c.088,1.882.179,3.764.238,5.647.01.321.51.323.5,0-.057-1.831-.144-3.661-.231-5.491q-.064-1.383-.113-2.767a14.342,14.342,0,0,1,.126-3.616c.07-.314-.412-.448-.482-.133Z" transform="translate(0 -0.011)" fill="#1d1d1b"/>
    <path d="M9.59,60.837a26.905,26.905,0,0,1,16.629-.146c.308.1.44-.385.133-.482a27.373,27.373,0,0,0-16.895.146c-.3.1-.173.585.133.482Z" transform="translate(0 -0.011)" fill="#1d1d1b"/>
    <path d="M9.463,57.056a10.227,10.227,0,0,1,2.34,4.159.125.125,0,0,0,.241-.066,10.5,10.5,0,0,0-2.4-4.27c-.109-.118-.286.059-.177.177Z" transform="translate(0 -0.011)" fill="#1d1d1b"/>
    <path d="M12.692,56.857a13.958,13.958,0,0,0,.6,4.626c.047.153.288.088.241-.066a13.751,13.751,0,0,1-.594-4.56c.006-.161-.244-.161-.25,0Z" transform="translate(0 -0.011)" fill="#1d1d1b"/>
    <g>
      <path d="M12.9,26.237q.065-2.7.127-5.41a7.939,7.939,0,0,1,1.1-4.6,5.037,5.037,0,0,1,7.628-.762,7.344,7.344,0,0,1,1.708,4.521,48.086,48.086,0,0,1,.105,5.22,5.369,5.369,0,0,1-.282,2.461,1.367,1.367,0,0,1-.831.7c-.552.157-.8-.143-1.136-.534a.854.854,0,0,0-1-.309c-.712.27-.945,1.571-1.833,1.243-.665-.246-.93-1.129-1.583-1.443a1.2,1.2,0,0,0-1.276.143c-.5.374-.831,1.27-1.536,1.285-1.407.029-1.234-1.9-1.094-2.764.051-.314-.431-.45-.482-.132-.2,1.21-.21,3.414,1.576,3.4a1.928,1.928,0,0,0,1.385-.908c.247-.3.5-.646.922-.628.509.021.826.53,1.131.882a1.552,1.552,0,0,0,1.646.683,1.449,1.449,0,0,0,.6-.507c.125-.162.253-.474.43-.579a1.34,1.34,0,0,1,.781.026c.06.036.082.141.137.19a1.4,1.4,0,0,0,1.539.412A1.952,1.952,0,0,0,23.892,27.5a8.488,8.488,0,0,0,.179-2.536c.007-1.07.033-2.14,0-3.21a12.064,12.064,0,0,0-1.127-5.53,5.442,5.442,0,0,0-7.814-1.691,6.135,6.135,0,0,0-2.5,4.419c-.284,2.394-.174,4.876-.231,7.285a.25.25,0,0,0,.5,0Z" transform="translate(0 -0.011)" fill="#1d1d1b"/>
      <path d="M18.036,21.91c-.339.244-.25.71-.219,1.068.035.4.12.857.54,1.024a.538.538,0,0,0,.515-.051.732.732,0,0,0,.259-.463,4.932,4.932,0,0,0,.08-.664,1.324,1.324,0,0,0-.1-.644.713.713,0,0,0-.449-.4.556.556,0,0,0-.564.165c-.1.123.075.3.177.176a.309.309,0,0,1,.321-.1.459.459,0,0,1,.286.259,1.823,1.823,0,0,1,.024,1.023c-.03.229-.12.564-.423.48-.318-.09-.386-.456-.413-.74-.017-.177-.039-.357-.039-.535a.45.45,0,0,1,.128-.382c.129-.093.005-.31-.126-.216Z" transform="translate(0 -0.011)" fill="#1d1d1b"/>
      <path d="M16.183,19.361a.669.669,0,0,0-.177.685.637.637,0,0,0,.567.43.609.609,0,0,0,.593-.334.635.635,0,0,0-.075-.7.647.647,0,0,0-.757-.147.125.125,0,1,0,.126.215s.037-.014.012-.006l.033-.01.033-.009s.041-.006.013,0a.544.544,0,0,1,.057,0l.035,0,.023,0c-.015,0-.014,0,0,0a.573.573,0,0,1,.056.014l.033.01c.035.011-.02-.01.013,0,.017.009.035.018.051.028l.029.018c.012.009.013.009,0,0l.017.014a.529.529,0,0,1,.041.041s.024.031.009.01l.02.029q.015.025.027.051c-.011-.024,0,.011,0,.014s.009.029.013.044l.006.034c0-.024,0,0,0,0,0,.023,0,.046,0,.069l0,.035c0-.029,0,.009,0,.012a.39.39,0,0,1-.018.067s-.014.038,0,.014l-.015.031a.5.5,0,0,1-.029.05s-.023.032-.008.012l-.022.026a.442.442,0,0,1-.05.047c.02-.016-.011.006-.013.008l-.03.018-.026.013c-.02.009.027-.008-.008,0s-.044.014-.067.019l-.013,0-.035,0c-.024,0-.047,0-.071,0s.023.005-.013,0l-.023,0a.373.373,0,0,1-.119-.042c-.019-.011-.037-.022-.054-.034.02.014-.01-.009-.012-.01l-.025-.024-.016-.017s-.025-.032-.01-.011a.527.527,0,0,1-.043-.072c-.011-.022,0-.008,0,0-.006-.015-.011-.03-.016-.045l-.008-.034,0-.024c0,.014,0,.013,0,0a.567.567,0,0,1,0-.071l0-.036q0-.023,0,0l0-.023a.364.364,0,0,1,.041-.121.559.559,0,0,1,.041-.066c-.015.02.01-.01.011-.011s.023-.023.034-.033a.125.125,0,0,0-.176-.177Z" transform="translate(0 -0.011)" fill="#1d1d1b"/>
      <path d="M19.642,19.317a.585.585,0,0,0-.376.472.541.541,0,0,0,.254.56.624.624,0,0,0,.611-.006.534.534,0,0,0,.21-.685.542.542,0,0,0-.666-.239.129.129,0,0,0-.087.154.126.126,0,0,0,.154.087.476.476,0,0,1,.057-.019l.029-.006c-.031.007,0,0,.007,0a.3.3,0,0,1,.06,0c.006,0,.038,0,.007,0a.27.27,0,0,1,.039.008.475.475,0,0,1,.057.018c-.028-.011,0,0,.007,0l.026.015.025.016c.026.017-.017-.017,0,0l.022.02s.03.038.012.012a.524.524,0,0,1,.03.051c.015.027,0-.024,0,.012l.009.036s0,.024,0,0c0,.012,0,.025,0,.037s0,.025,0,.037,0,.017,0,0l0,.025c0,.012-.006.024-.01.036s-.014.039,0,.017c-.01.022-.023.042-.035.063s.017-.018,0,0l-.019.021-.02.019-.014.012,0,0-.047.029-.025.012c.029-.014,0,0,0,0a.552.552,0,0,1-.054.016l-.027.006-.019,0c.018,0,.02,0,.006,0-.035,0-.069,0-.1,0,.034,0,0,0,0,0l-.027-.006a.448.448,0,0,1-.062-.02c.03.012,0,0,0,0l-.024-.013-.024-.015s-.027-.023,0,0a.483.483,0,0,1-.04-.038s-.023-.029,0,0a.211.211,0,0,1-.021-.031l-.013-.024c0-.006-.014-.034,0,0a.448.448,0,0,1-.016-.052c0-.011-.01-.053-.006-.02a.464.464,0,0,1,0-.064v-.046c0,.018,0,.019,0,0s.008-.042.014-.063l.009-.026.006-.018c-.007.016-.007.017,0,0a.518.518,0,0,1,.031-.057l.015-.023q.012-.017,0,0l.012-.014c.014-.016.03-.03.045-.045s-.022.014,0,0l.031-.019.024-.013c.013-.006.011-.006,0,0l.017-.006a.129.129,0,0,0,.087-.154.126.126,0,0,0-.153-.088Z" transform="translate(0 -0.011)" fill="#1d1d1b"/>
      <path d="M16.528,20.165l-.011-.012.02.025a.15.15,0,0,1-.019-.032l.013.03a.193.193,0,0,1-.013-.047l0,.033a.2.2,0,0,1,0-.06l-.005.033a.336.336,0,0,1,.018-.064l-.013.029a.4.4,0,0,1,.037-.063l-.019.026a.326.326,0,0,1,.052-.053l-.025.02A.263.263,0,0,1,16.627,20l-.03.013a.238.238,0,0,1,.058-.016l-.033,0a.2.2,0,0,1,.049,0l-.033,0A.2.2,0,0,1,16.68,20l-.03-.012a.131.131,0,0,1,.036.021l-.025-.02a.2.2,0,0,1,.036.036L16.678,20a.192.192,0,0,1,.025.044l-.012-.03a.236.236,0,0,1,.011.044l0-.033a.2.2,0,0,1,0,.035l0-.033a.189.189,0,0,1-.009.034l.012-.03a.112.112,0,0,1-.013.024.124.124,0,0,0,.045.171.128.128,0,0,0,.171-.045.27.27,0,0,0,.008-.267.3.3,0,0,0-.188-.161.384.384,0,0,0-.441.27.321.321,0,0,0,.063.317.126.126,0,0,0,.177,0,.129.129,0,0,0,0-.177Z" transform="translate(0 -0.011)" fill="#1d1d1b"/>
      <path d="M19.752,20.145l0,0,.019.025a.187.187,0,0,1-.022-.039l.012.03a.239.239,0,0,1-.015-.054l.005.033a.215.215,0,0,1,0-.062l-.005.034a.272.272,0,0,1,.013-.049l-.012.03a.209.209,0,0,1,.025-.044l-.02.025a.224.224,0,0,1,.035-.034l-.025.019a.213.213,0,0,1,.046-.027l-.029.013a.191.191,0,0,1,.052-.014l-.033,0a.233.233,0,0,1,.059,0l-.033,0a.2.2,0,0,1,.047.012l-.03-.012a.213.213,0,0,1,.046.027l-.025-.02a.272.272,0,0,1,.041.042l-.02-.026a.329.329,0,0,1,.037.066l-.013-.03a.4.4,0,0,1,.027.1l-.005-.033a.489.489,0,0,1,.005.066.126.126,0,0,0,.125.125.128.128,0,0,0,.125-.125.437.437,0,0,0-.215-.409.327.327,0,0,0-.144-.033.373.373,0,0,0-.143.033.32.32,0,0,0-.171.2.355.355,0,0,0,0,.162.329.329,0,0,0,.073.147.123.123,0,0,0,.176,0,.128.128,0,0,0,.037-.088.148.148,0,0,0-.037-.089Z" transform="translate(0 -0.011)" fill="#1d1d1b"/>
      <path d="M14.293,13.547a3.8,3.8,0,0,0-1.489,1.56,9.1,9.1,0,0,0-.988,2.141c-.049.153.193.219.241.066a8.826,8.826,0,0,1,.929-2.026,3.636,3.636,0,0,1,1.434-1.525c.147-.065.02-.28-.127-.216Z" transform="translate(0 -0.011)" fill="#1d1d1b"/>
      <path d="M12.273,13.736a4.018,4.018,0,0,0-.68,1.27c-.049.154.192.22.241.067a3.7,3.7,0,0,1,.616-1.161.128.128,0,0,0,0-.176.125.125,0,0,0-.177,0Z" transform="translate(0 -0.011)" fill="#1d1d1b"/>
      <path d="M25.19,25.89a5.433,5.433,0,0,1-.536,2.441.125.125,0,0,0,.216.127,5.716,5.716,0,0,0,.57-2.568c.009-.161-.241-.16-.25,0Z" transform="translate(0 -0.011)" fill="#1d1d1b"/>
      <path d="M26.3,26.977a5.12,5.12,0,0,1-.088.811.129.129,0,0,0,.088.154.124.124,0,0,0,.153-.087,5.63,5.63,0,0,0,.1-.878.125.125,0,0,0-.25,0Z" transform="translate(0 -0.011)" fill="#1d1d1b"/>
      <path d="M13.567,12.237a9.075,9.075,0,0,1,6.4-.943A10.519,10.519,0,0,1,25.6,14.148,11.172,11.172,0,0,1,27.94,25.973c-.063.147.152.274.216.127a11.022,11.022,0,0,0-.729-9.872,9.585,9.585,0,0,0-3.235-3.559,13.258,13.258,0,0,0-4.961-1.749,9.128,9.128,0,0,0-5.79,1.1.125.125,0,0,0,.126.216Z" transform="translate(0 -0.011)" fill="#1d1d1b"/>
      <path d="M10.142,14.712a10.748,10.748,0,0,0-1.474,11.2,9.007,9.007,0,0,0,4.021,4.517,12.767,12.767,0,0,0,6.136,1.458,12.353,12.353,0,0,0,6.42-2.241c.13-.092.006-.308-.126-.216a12.079,12.079,0,0,1-5.16,2.089,10.7,10.7,0,0,1-3.332.015,13.1,13.1,0,0,1-2.741-.869,7.9,7.9,0,0,1-2.635-1.5,11.277,11.277,0,0,1-1.853-2.4,10.369,10.369,0,0,1,.921-11.883c.1-.124-.076-.3-.177-.177Z" transform="translate(0 -0.011)" fill="#1d1d1b"/>
      <g>
        <path d="M7.867,39.855c-.273.24-.72.16-1.044.113-.292-.041-.168-.484.122-.443.2.027.361.072.524-.051s.122-.211.129-.418c0-.064.046-.285.012-.338-.064-.1-.232-.072-.327-.084-.26-.029-.483-.039-.566-.32A1.512,1.512,0,0,1,6.8,37.271c.217-.281.555-.119.836-.226s.4.337.122.443c-.242.094-.511-.025-.6.264a.406.406,0,0,0,.122.425c.06.034.253-.011.318-.005.333.035.45.23.469.546S8.137,39.611,7.867,39.855Z" transform="translate(0 -0.011)" fill="#1d1d1b"/>
        <path d="M9.371,37.517c-.069,0-.138-.011-.207-.017v.283c0,.144-.076,1.822.071,1.8.29-.039.414.4.122.443-.661.09-.7-.418-.679-.955.018-.58.023-1.16.023-1.738a.263.263,0,0,1-.016-.086.211.211,0,0,1,.016-.08c0-.334,0-.67,0-1.006a.23.23,0,0,1,.46,0c0,.291,0,.584,0,.877.072,0,.141.013.21.015C9.665,37.066,9.665,37.525,9.371,37.517Z" transform="translate(0 -0.011)" fill="#1d1d1b"/>
        <path d="M10.668,38.84c0,.048,0,.093,0,.14a.718.718,0,0,0,.258.6,2.193,2.193,0,0,0,.51-.045c.3-.026.293.433,0,.459-.32.027-.759.15-1.024-.1a1.144,1.144,0,0,1-.207-.914c.016-.517-.165-1.611.468-1.836a1.182,1.182,0,0,1,.846.045c.281.151.3.451.295.738,0,.227.018.7-.182.864S10.987,38.879,10.668,38.84Zm.027-.758c-.007.1-.009.2-.014.3a3.358,3.358,0,0,0,.626.031c.067-.26.117-.707-.051-.834-.091-.07-.329-.014-.409.037C10.67,37.72,10.711,37.888,10.7,38.082Z" transform="translate(0 -0.011)" fill="#1d1d1b"/>
        <path d="M13.6,40.072a.24.24,0,0,1-.039-.039.228.228,0,0,1-.12.012c-.333-.059-.683.187-.9-.2-.185-.322-.074-.871-.1-1.238a2.106,2.106,0,0,1,.136-1.3c.172-.254.506-.217.78-.242a.19.19,0,0,1,.112.021.237.237,0,0,1,.426.124c.019.437.023.873.007,1.31-.009.25-.205,1.035.03,1.223S13.835,40.257,13.6,40.072Zm-.232-.479a4.649,4.649,0,0,1,.039-.568,15.133,15.133,0,0,0,.03-1.521.3.3,0,0,1-.085.027c-.414.041-.483.225-.486.625,0,.273.044.547.06.822.016.26-.111.613.2.629A1.336,1.336,0,0,0,13.372,39.593Z" transform="translate(0 -0.011)" fill="#1d1d1b"/>
        <path d="M15.275,40.037c-.626.123-.679-.477-.672-.951.016-.981.081-1.965.058-2.946a.23.23,0,0,1,.46,0c.011.569-.014,1.137-.028,1.7a7.836,7.836,0,0,0,.06,1.748C15.443,39.537,15.567,39.978,15.275,40.037Z" transform="translate(0 -0.011)" fill="#1d1d1b"/>
        <path d="M16.729,37.517c-.069,0-.139-.011-.207-.017v.283c0,.144-.077,1.822.071,1.8.29-.039.414.4.122.443-.661.09-.7-.418-.679-.955.018-.58.023-1.16.023-1.738a.263.263,0,0,1-.016-.086.194.194,0,0,1,.016-.08c0-.334,0-.67,0-1.006a.23.23,0,0,1,.46,0c0,.291,0,.584,0,.877.071,0,.141.013.21.015C17.023,37.066,17.023,37.525,16.729,37.517Z" transform="translate(0 -0.011)" fill="#1d1d1b"/>
        <path d="M19.1,39.8c.016.3-.444.3-.46,0a10.458,10.458,0,0,1,0-1.3,3.084,3.084,0,0,0,.044-.559.308.308,0,0,0-.162-.375,1.1,1.1,0,0,0-.494-.047,21.65,21.65,0,0,0,.009,2.293c.023.3-.437.291-.46,0-.095-1.2.034-2.406,0-3.613-.009-.3.451-.295.46,0s.01.57,0,.855c.414-.039.971.038,1.086.45a3.568,3.568,0,0,1-.028,1.086A11.117,11.117,0,0,0,19.1,39.8Z" transform="translate(0 -0.011)" fill="#1d1d1b"/>
        <path d="M23.311,39.8c.018.3-.442.3-.461,0-.025-.408-.036-.818-.027-1.23a3.443,3.443,0,0,0,.025-.607c-.039-.231-.393-.733-.554-.225,0,.01-.012.018-.017.027.01.176,0,.356,0,.512.007.5,0,1,0,1.5a.23.23,0,0,1-.46,0c0-.4.007-.81,0-1.215a6.167,6.167,0,0,0-.009-.652c0-.051,0-.1-.007-.152-.005-.3-.148-.373-.428-.209l-.012.013c.007.742,0,1.487-.039,2.227-.014.3-.474.3-.46,0,.044-.852.055-1.7.039-2.555a.228.228,0,0,1,.368-.176.705.705,0,0,1,.847.184.719.719,0,0,1,1.008.074,1.351,1.351,0,0,1,.166.973C23.274,38.789,23.283,39.3,23.311,39.8Z" transform="translate(0 -0.011)" fill="#1d1d1b"/>
        <path d="M25.471,39.711c-.108.255-.334.293-.585.328-.835.113-.89-.33-.929-1.061a5.092,5.092,0,0,1,.014-1.525c.082-.317.343-.385.635-.463a.208.208,0,0,1,.23.076c.78-.146.7.951.69,1.447A3.523,3.523,0,0,1,25.471,39.711Zm-.405-1.01c0-.1.083-1.246-.175-1.178a.21.21,0,0,1-.219-.066c-.4.164-.29.767-.273,1.136.011.293-.062.918.248,1.012C25.2,39.771,25.059,39,25.066,38.7Z" transform="translate(0 -0.011)" fill="#1d1d1b"/>
        <path d="M27.842,39.845a.229.229,0,0,1-.363.18.205.205,0,0,1-.131.045c-.329,0-.863.064-1.061-.258a2.421,2.421,0,0,1-.111-1.183,2.956,2.956,0,0,1,.088-1.334c.209-.346.672-.172,1-.237a.258.258,0,0,1,.1,0c0-.31,0-.623-.007-.935a.231.231,0,0,1,.461,0Q27.827,37.983,27.842,39.845Zm-.494-.238a.214.214,0,0,1,.032.008c0-.7-.012-1.406-.016-2.109-.214.033-.614-.014-.718.169-.085.147-.007.586-.007.762a4.015,4.015,0,0,0,0,.813C26.727,39.644,27.012,39.611,27.348,39.607Z" transform="translate(0 -0.011)" fill="#1d1d1b"/>
        <path d="M28.917,38.84c0,.048,0,.093-.005.14a.718.718,0,0,0,.258.6,2.193,2.193,0,0,0,.51-.045c.3-.026.293.433,0,.459-.32.027-.759.15-1.024-.1a1.144,1.144,0,0,1-.207-.914c.016-.517-.165-1.611.468-1.836a1.182,1.182,0,0,1,.846.045c.281.151.3.451.295.738,0,.227.018.7-.182.864S29.236,38.879,28.917,38.84Zm.027-.758c-.007.1-.009.2-.014.3a3.358,3.358,0,0,0,.626.031c.067-.26.117-.707-.051-.834-.091-.07-.329-.014-.409.037C28.919,37.72,28.96,37.888,28.944,38.082Z" transform="translate(0 -0.011)" fill="#1d1d1b"/>
      </g>
    </g>
  </g>
</svg>
