<svg xmlns="http://www.w3.org/2000/svg" width="2.071mm" height="3.908mm" viewBox="0 0 5.872 11.079">
  <title>can</title>
  <g>
    <path d="M1.978.054A1.072,1.072,0,0,0,1.4.978a1.829,1.829,0,0,0,.436,1.164,6.207,6.207,0,0,0,2.012,1.7,4.064,4.064,0,0,0,1.134.487.686.686,0,0,0,.873-.466c.087-.425-.248-.864-.469-1.2A8.474,8.474,0,0,0,4.581,1.62a8.315,8.315,0,0,0-1.089-1c-.365-.282-.829-.7-1.324-.6-.314.069-.181.552.133.482.154-.033.323.111.442.189q.216.143.421.3a7.792,7.792,0,0,1,.774.678A7.829,7.829,0,0,1,5.211,3.324c.062.107.2.3.16.43s-.18.1-.278.082a3.141,3.141,0,0,1-.876-.37A6.152,6.152,0,0,1,2.583,2.254a2.526,2.526,0,0,1-.642-.963.647.647,0,0,1,.289-.8c.292-.136.038-.567-.252-.432Z" transform="translate(0 -0.008)" fill="#1d1d1b"/>
    <path d="M2.554,2.515a3.537,3.537,0,0,0-1.9.556,1.753,1.753,0,0,0-.652,1.46C-.01,5.358.014,6.187.02,7.014A18.586,18.586,0,0,0,.067,9.339a2.249,2.249,0,0,0,2.5,1.748c1.119,0,2.946-.418,3.181-1.722a13.284,13.284,0,0,0,.067-2.638c-.022-.932-.052-1.864,0-2.8.02-.322-.48-.321-.5,0-.1,1.655.092,3.314-.022,4.969a1.185,1.185,0,0,1-.533,1.073,3.882,3.882,0,0,1-.947.422,3.753,3.753,0,0,1-2.178.064,1.542,1.542,0,0,1-1.1-1.655C.516,8.024.521,7.242.516,6.462L.508,5.2A4.065,4.065,0,0,1,.563,4.022c.25-.829,1.269-.94,1.991-1.007.318-.029.321-.529,0-.5Z" transform="translate(0 -0.008)" fill="#1d1d1b"/>
    <path d="M.359,3.753C.285,4.924,1.848,5.123,2.708,5.107a7.273,7.273,0,0,0,1.635-.214,1.729,1.729,0,0,0,1.114-.719c.084-.138-.132-.263-.216-.126a1.518,1.518,0,0,1-1,.613,7.233,7.233,0,0,1-1.359.19c-.734.036-2.341-.037-2.274-1.1.01-.161-.24-.16-.25,0Z" transform="translate(0 -0.008)" fill="#1d1d1b"/>
    <path d="M.2,5.928c.88.994,2.3.961,3.5.81l-.125-.125L3.717,8.3a4.744,4.744,0,0,1,.057.806c-.024.249-.44.33-.643.383a3.105,3.105,0,0,1-2.61-.514C.392,8.883.267,9.1.4,9.2a3.345,3.345,0,0,0,2.91.509,1.192,1.192,0,0,0,.634-.324c.154-.219.071-.549.051-.794L3.828,6.613c0-.06-.054-.134-.125-.125-1.141.143-2.491.206-3.327-.737C.269,5.63.093,5.808.2,5.928Z" transform="translate(0 -0.008)" fill="#1d1d1b"/>
  </g>
</svg>
