<svg xmlns="http://www.w3.org/2000/svg" width="0.946mm" height="4.286mm" viewBox="0 0 2.68 12.148">
  <title>cone1</title>
  <g>
    <path d="M.745,1.916A2.622,2.622,0,0,1,.6.621a.477.477,0,0,0,0-.054C.6.6.627.494.619.52.617.527.606.541.6.542.621.529.626.526.611.532S.6.535.627.526A.756.756,0,0,1,.856.5,1.472,1.472,0,0,1,1,.507c-.036,0,0,0,.018.005l.059.014c.01,0,.068.026.028.008a.608.608,0,0,1,.061.033c.045.025-.024-.018.021.017s-.01-.021.019.022A.257.257,0,0,0,1.553.7a.251.251,0,0,0,.09-.342A.871.871,0,0,0,.906,0C.612-.007.265.045.148.357A1.41,1.41,0,0,0,.1.806C.09.952.087,1.1.094,1.242a2.312,2.312,0,0,0,.219.926.252.252,0,0,0,.342.09.255.255,0,0,0,.09-.342Z" fill="#1d1d1b"/>
    <path d="M1.716.791c.45-.028.565.1.343.378-.043.075-.083.151-.121.229a1.58,1.58,0,0,0-.157.505,5.736,5.736,0,0,0,.066,1.169q.126,1.5.192,3.012Q2.1,7.517,2.117,8.95c.01.892.215,2.246-.793,2.673-.3.125-.041.555.252.431,1.1-.463,1.053-1.77,1.044-2.773-.012-1.512-.058-3.024-.151-4.534C2.423,4,2.362,3.258,2.3,2.514a2.01,2.01,0,0,1,.23-1.168A1.1,1.1,0,0,0,2.677.76a.733.733,0,0,0-1.443-.1c-.1.307.384.439.482.133Z" fill="#1d1d1b"/>
    <path d="M1.412,11.667A2.36,2.36,0,0,1,.522,9.5c.034-.409.117-.809.125-1.221S.606,7.466.621,7.061c.015-.388.1-.766.135-1.152a9.878,9.878,0,0,0-.048-1.2A15.244,15.244,0,0,1,.9,2.1C.94,1.783.44,1.787.4,2.1A14.534,14.534,0,0,0,.232,5.063C.3,5.969.1,6.847.135,7.755a17.609,17.609,0,0,0-.084,2.623A2.833,2.833,0,0,0,1.159,12.1c.256.2.5-.239.253-.432Z" fill="#1d1d1b"/>
    <path d="M1.407.538a1.639,1.639,0,0,0-.189.4,1.764,1.764,0,0,0-.049.2c-.006.034-.012.068-.021.1a.461.461,0,0,1-.015.053l-.009.026c0-.009,0-.007-.005.007a.128.128,0,0,0,.045.171.126.126,0,0,0,.171-.045,2.45,2.45,0,0,0,.116-.423A1.225,1.225,0,0,1,1.518.852a1.5,1.5,0,0,1,.1-.188A.125.125,0,0,0,1.578.493a.127.127,0,0,0-.171.045Z" fill="#1d1d1b"/>
    <path d="M.72,2.853l.372.017a.125.125,0,0,0,0-.25L.72,2.6A.126.126,0,0,0,.6,2.728a.128.128,0,0,0,.125.125Z" fill="#1d1d1b"/>
    <path d="M1.664,4.033a.482.482,0,0,1,.093,0l-.033,0a.515.515,0,0,1,.128.034l-.03-.012.028.013a.134.134,0,0,0,.1.013.128.128,0,0,0,.075-.058.124.124,0,0,0,.013-.1.128.128,0,0,0-.058-.075.625.625,0,0,0-.312-.068.125.125,0,0,0-.088.036.13.13,0,0,0-.037.089A.122.122,0,0,0,1.576,4a.126.126,0,0,0,.088.037Z" fill="#1d1d1b"/>
    <path d="M.685,5.4l.032-.006-.033,0a.366.366,0,0,1,.081,0l-.033,0a.339.339,0,0,1,.083.022L.785,5.4a.35.35,0,0,1,.054.029.124.124,0,0,0,.1.013.13.13,0,0,0,.075-.057.127.127,0,0,0,.012-.1.135.135,0,0,0-.057-.074.465.465,0,0,0-.086-.044.358.358,0,0,0-.066-.019.453.453,0,0,0-.194,0A.125.125,0,1,0,.685,5.4Z" fill="#1d1d1b"/>
    <path d="M1.233,6.8a.906.906,0,0,0,.213.083.131.131,0,0,0,.1-.012A.127.127,0,0,0,1.6,6.8a.124.124,0,0,0-.013-.1.126.126,0,0,0-.074-.058A.815.815,0,0,1,1.4,6.6l.03.013c-.022-.01-.044-.02-.066-.032a.133.133,0,0,0-.1-.012.13.13,0,0,0-.075.057.126.126,0,0,0,.045.171Z" fill="#1d1d1b"/>
    <path d="M1.866,8.154l.339.077a.133.133,0,0,0,.1-.013.129.129,0,0,0,.058-.074.127.127,0,0,0-.087-.154l-.339-.077a.128.128,0,0,0-.1.012A.131.131,0,0,0,1.779,8a.128.128,0,0,0,.087.154Z" fill="#1d1d1b"/>
    <path d="M.517,8.78a2.228,2.228,0,0,1,.264.092L.752,8.86l.075.033a.137.137,0,0,0,.1.013A.125.125,0,0,0,1,8.849a.126.126,0,0,0-.044-.172,2.571,2.571,0,0,0-.37-.138.126.126,0,0,0-.154.087.129.129,0,0,0,.087.154Z" fill="#1d1d1b"/>
    <path d="M1.85,10.08a.84.84,0,0,1,.1.007l-.033,0a.755.755,0,0,1,.186.051l-.03-.012a.723.723,0,0,1,.1.049A.125.125,0,1,0,2.3,9.954.863.863,0,0,0,1.85,9.83a.125.125,0,1,0,0,.25Z" fill="#1d1d1b"/>
    <path d="M1.244,10.658l.2.036a.106.106,0,0,0,.05,0,.093.093,0,0,0,.046-.015.128.128,0,0,0,.058-.075.124.124,0,0,0-.013-.1.123.123,0,0,0-.074-.058l-.2-.035a.1.1,0,0,0-.05,0,.1.1,0,0,0-.047.015.131.131,0,0,0-.057.075.124.124,0,0,0,.013.1.123.123,0,0,0,.074.058Z" fill="#1d1d1b"/>
  </g>
</svg>
