<svg xmlns="http://www.w3.org/2000/svg" width="1.64mm" height="4.424mm" viewBox="0 0 4.648 12.541">
  <title>cone2</title>
  <g>
    <path d="M2.246,12.2a2.144,2.144,0,0,1-.792-1.265A5.7,5.7,0,0,1,1.532,9.24a5.389,5.389,0,0,0-.058-1.578,1.919,1.919,0,0,1,.007-.843,2.467,2.467,0,0,0,.087-.673c-.014-.32-.514-.322-.5,0a4.323,4.323,0,0,1-.132.844,2.325,2.325,0,0,0,.056.8,5.866,5.866,0,0,1,0,1.8,4.041,4.041,0,0,0,.036,1.686,2.617,2.617,0,0,0,.867,1.272c.248.2.6-.152.354-.354Z" transform="translate(-0.013 -0.074)" fill="#1d1d1b"/>
    <path d="M2.278,12.573A1.969,1.969,0,0,0,3.2,11.48a7.8,7.8,0,0,0,.189-1.642c.071-1.229,0-2.459-.048-3.688-.012-.321-.512-.322-.5,0,.043,1.072.106,2.147.069,3.22-.017.507-.053,1.015-.111,1.519a1.731,1.731,0,0,1-.224.782,1.915,1.915,0,0,1-.547.47c-.266.178-.016.611.252.432Z" transform="translate(-0.013 -0.074)" fill="#1d1d1b"/>
    <path d="M2.505,1.143,2.883.8,2.935.749,2.952.734c.022-.019.023-.021,0-.006a.171.171,0,0,1-.184.015l.016.009c.014.01.029.018.044.028s.047.035.016.011.016.014.022.019c.023.021.046.043.068.066s.048.043.056.065C2.973.914,2.971.91,2.987.932L3,.946l.03.044a1.762,1.762,0,0,1,.1.168c.029.056.056.112.081.17l.018.041c.023.051-.017-.042,0,.006l.04.1a.271.271,0,0,0,.115.149.254.254,0,0,0,.193.025.251.251,0,0,0,.174-.307A2.313,2.313,0,0,0,3.242.474,1.11,1.11,0,0,0,3.025.311.351.351,0,0,0,2.778.27.389.389,0,0,0,2.6.38c-.15.136-.3.273-.447.41a.25.25,0,0,0,0,.353.254.254,0,0,0,.353,0Z" transform="translate(-0.013 -0.074)" fill="#1d1d1b"/>
    <path d="M2.569.647a1.528,1.528,0,0,0-.381-.5.257.257,0,0,0-.353,0A5.219,5.219,0,0,0,.09,3.332a2.665,2.665,0,0,0,1.054,3c.285.149.538-.283.253-.432C.387,5.373.412,4.111.64,3.151A4.64,4.64,0,0,1,2.188.5H1.835a1.2,1.2,0,0,1,.3.4c.138.291.57.037.432-.252Z" transform="translate(-0.013 -0.074)" fill="#1d1d1b"/>
    <path d="M3.341,6.787A3.082,3.082,0,0,0,4.659,4.124a3.835,3.835,0,0,0-1.022-3c-.235-.219-.59.134-.353.353A3.3,3.3,0,0,1,4.16,4.025a2.623,2.623,0,0,1-1.071,2.33c-.275.168-.024.6.252.432Z" transform="translate(-0.013 -0.074)" fill="#1d1d1b"/>
    <path d="M1.624,1.8a1.756,1.756,0,0,1,.449-.524c.032-.025.114-.1.158-.1s.089.108.107.14l.142.247c.094.163.185.328.265.5a.125.125,0,0,0,.216-.126c-.092-.2-.2-.386-.308-.574-.091-.156-.184-.4-.39-.431a.382.382,0,0,0-.272.1,2.1,2.1,0,0,0-.226.185,1.978,1.978,0,0,0-.357.461.125.125,0,0,0,.216.126Z" transform="translate(-0.013 -0.074)" fill="#1d1d1b"/>
    <path d="M3.179,2.061a.613.613,0,0,1,.02-.07l.013-.038.006-.015c.009-.022-.008.017,0,0a1.118,1.118,0,0,1,.071-.132l.021-.03.009-.013c.011-.015.006-.007,0,0,.016-.018.031-.038.047-.056s.036-.037.055-.054l.027-.024c.008-.007.042-.033.013-.011a.144.144,0,0,0,.058-.075.128.128,0,0,0-.013-.1.127.127,0,0,0-.171-.045A1.058,1.058,0,0,0,2.937,2a.125.125,0,0,0,.242.066Z" transform="translate(-0.013 -0.074)" fill="#1d1d1b"/>
    <path d="M2.3,2.929a2.126,2.126,0,0,1,.323-.478c.108-.12.255-.3.436-.244a.839.839,0,0,1,.385.358,3.9,3.9,0,0,1,.261.5.126.126,0,0,0,.171.045.129.129,0,0,0,.045-.171A3.164,3.164,0,0,0,3.6,2.352a.928.928,0,0,0-.525-.4.658.658,0,0,0-.59.28,2.377,2.377,0,0,0-.4.57c-.072.143.143.27.215.126Z" transform="translate(-0.013 -0.074)" fill="#1d1d1b"/>
    <path d="M.844,2.56a1.752,1.752,0,0,1,.316-.381,1.68,1.68,0,0,1,.2-.155.6.6,0,0,0,.1-.062c.022-.011.011-.012-.032,0l.024.021.048.044a1.631,1.631,0,0,1,.465.847c.033.157.274.091.241-.067A1.843,1.843,0,0,0,1.6,1.773a.234.234,0,0,0-.311,0,2.06,2.06,0,0,0-.258.186,1.96,1.96,0,0,0-.4.475c-.084.137.132.263.216.126Z" transform="translate(-0.013 -0.074)" fill="#1d1d1b"/>
    <path d="M1.545,3.845a2.86,2.86,0,0,1,.336-.481c.062-.071.128-.139.2-.2.016-.015.035-.029.05-.046s.006-.026.025-.017c.035.015.075.076.1.1a4.286,4.286,0,0,1,.666.988c.072.144.287.018.216-.126a4.442,4.442,0,0,0-.366-.616q-.1-.149-.222-.288a1.794,1.794,0,0,0-.233-.252.242.242,0,0,0-.322,0,2.214,2.214,0,0,0-.25.244,3.178,3.178,0,0,0-.411.572.125.125,0,0,0,.216.126Z" transform="translate(-0.013 -0.074)" fill="#1d1d1b"/>
    <path d="M3.245,4.141a3.453,3.453,0,0,1,.406-.652c.039-.049.079-.1.121-.144.023-.026.046-.052.07-.077l.025-.027s-.039,0-.039,0,.051.041.061.05c.025.021.051.043.076.066.054.049.107.1.158.153.113.116.289-.061.177-.177-.056-.057-.114-.113-.174-.166a.983.983,0,0,0-.185-.149c-.175-.091-.31.106-.407.222a3.767,3.767,0,0,0-.5.775.127.127,0,0,0,.045.171.125.125,0,0,0,.171-.044Z" transform="translate(-0.013 -0.074)" fill="#1d1d1b"/>
    <path d="M1.372,3.93c.139-.085.059-.233,0-.342s-.125-.236-.192-.352a7.441,7.441,0,0,0-.435-.66.129.129,0,0,0-.171-.045A.126.126,0,0,0,.532,2.7q.2.27.374.558.084.14.162.282.042.075.081.153l.04.077.019.039a.047.047,0,0,1,0-.058l.045-.045-.009.006c-.137.084-.012.3.126.216Z" transform="translate(-0.013 -0.074)" fill="#1d1d1b"/>
    <path d="M.716,4.855a2.785,2.785,0,0,1,.352-.5c.068-.08.139-.159.21-.235.034-.037.1-.126.151-.077a1,1,0,0,1,.136.229c.05.09.1.18.144.272a2.252,2.252,0,0,1,.2.592.126.126,0,0,0,.154.087.128.128,0,0,0,.087-.154,2.594,2.594,0,0,0-.25-.7c-.058-.114-.12-.226-.184-.337a.5.5,0,0,0-.2-.232c-.246-.119-.446.169-.586.327A3.274,3.274,0,0,0,.5,4.729c-.076.142.14.268.216.126Z" transform="translate(-0.013 -0.074)" fill="#1d1d1b"/>
    <path d="M2.266,5.161a4.888,4.888,0,0,1,.424-.5c.075-.076.151-.149.23-.22a.431.431,0,0,1,.121-.1c.04-.014.077.011.112.03a1.34,1.34,0,0,1,.642.833.125.125,0,0,0,.241-.066A1.552,1.552,0,0,0,3.2,4.125c-.261-.111-.465.141-.632.307a5.14,5.14,0,0,0-.519.6.126.126,0,0,0,.044.171.127.127,0,0,0,.171-.045Z" transform="translate(-0.013 -0.074)" fill="#1d1d1b"/>
    <path d="M2.789,6.034a3.162,3.162,0,0,1,.645-.47A3.32,3.32,0,0,1,3.786,5.4l.1-.035c.009,0,.034-.007.041-.014s.012-.01-.022-.018-.036-.023-.026-.008a.284.284,0,0,0,.026.058.2.2,0,0,0,.074.072A.125.125,0,0,0,4.1,5.237c.033.019.013.02.01.007,0,.009-.013-.033-.017-.041a.2.2,0,0,0-.069-.078.243.243,0,0,0-.221,0,3.6,3.6,0,0,0-.436.191,3.426,3.426,0,0,0-.757.541c-.117.111.06.287.177.177Z" transform="translate(-0.013 -0.074)" fill="#1d1d1b"/>
    <path d="M2.935,6.133a3.418,3.418,0,0,0-.811-1,.272.272,0,0,0-.3-.075.942.942,0,0,0-.252.211,3.232,3.232,0,0,0-.42.526c-.087.135.129.261.216.126A2.923,2.923,0,0,1,1.7,5.5a1.537,1.537,0,0,1,.2-.19c.031-.022.027-.014.059.013s.073.064.109.1a3.258,3.258,0,0,1,.652.842c.076.142.292.015.216-.126Z" transform="translate(-0.013 -0.074)" fill="#1d1d1b"/>
    <path d="M1.316,6.261a8.523,8.523,0,0,0,.977.284,1.445,1.445,0,0,0,.48.051.916.916,0,0,0,.413-.155c.132-.091.007-.307-.126-.216a.673.673,0,0,1-.374.127,1.766,1.766,0,0,1-.426-.071,8.331,8.331,0,0,1-.877-.261c-.152-.054-.217.188-.067.241Z" transform="translate(-0.013 -0.074)" fill="#1d1d1b"/>
    <path d="M1.92,7.357a.783.783,0,0,0,.249.114.129.129,0,0,0,.1-.013.126.126,0,0,0,.045-.171.13.13,0,0,0-.075-.057C2.2,7.221,2.171,7.21,2.14,7.2l.03.012a.6.6,0,0,1-.124-.069.131.131,0,0,0-.1-.012.125.125,0,0,0-.074.057.126.126,0,0,0-.013.1l.013.03a.127.127,0,0,0,.045.044Z" transform="translate(-0.013 -0.074)" fill="#1d1d1b"/>
    <path d="M2.639,8.59a.647.647,0,0,0,.287.008A.121.121,0,0,0,3,8.541a.124.124,0,0,0-.045-.171l-.029-.013a.127.127,0,0,0-.067,0l-.028.005.033-.005a.486.486,0,0,1-.132,0l.034,0a.6.6,0,0,1-.061-.012.129.129,0,0,0-.1.013.126.126,0,0,0-.058.074.132.132,0,0,0,.013.1.13.13,0,0,0,.075.057Z" transform="translate(-0.013 -0.074)" fill="#1d1d1b"/>
    <path d="M1.511,9.275l.168.068a.1.1,0,0,0,.05,0,.093.093,0,0,0,.046-.015.128.128,0,0,0,.058-.075.124.124,0,0,0-.013-.1L1.8,9.135A.125.125,0,0,0,1.746,9.1l-.168-.068a.1.1,0,0,0-.05,0,.1.1,0,0,0-.047.015.127.127,0,0,0-.057.075.128.128,0,0,0,.012.1l.02.026a.133.133,0,0,0,.055.032Z" transform="translate(-0.013 -0.074)" fill="#1d1d1b"/>
    <path d="M2.5,10.494a.8.8,0,0,0,.254.014.089.089,0,0,0,.048-.011.087.087,0,0,0,.04-.026.123.123,0,0,0,0-.176.119.119,0,0,0-.088-.037.69.69,0,0,1-.17,0l.033,0a.437.437,0,0,1-.05-.009.138.138,0,0,0-.1.013.128.128,0,0,0-.058.075.124.124,0,0,0,.013.1.129.129,0,0,0,.074.058Z" transform="translate(-0.013 -0.074)" fill="#1d1d1b"/>
  </g>
</svg>
