<svg xmlns="http://www.w3.org/2000/svg" width="9.031mm" height="10.808mm" viewBox="0 0 25.6 30.638">
  <title>coneshooting</title>
  <g>
    <path d="M24.752,10.7l.314.351q.293.153.039.3a2.123,2.123,0,0,1-.559.588,4.327,4.327,0,0,1-1.6.84,10.272,10.272,0,0,1-3.461.25,20.009,20.009,0,0,1-3.576-.215,3.65,3.65,0,0,1-1.6-.7,4.426,4.426,0,0,1-.888-1.3c-.151-.284-.583-.032-.432.253A4.554,4.554,0,0,0,14.1,12.587a4.184,4.184,0,0,0,1.578.69,8.549,8.549,0,0,0,2.063.188c.854.009,1.705.083,2.559.1a7.423,7.423,0,0,0,3.917-.78A4.1,4.1,0,0,0,25.629,11.5c.29-.474-.226-.821-.523-1.153-.215-.241-.568.114-.354.353Z" transform="translate(-0.114 -0.024)" fill="#1d1d1b"/>
    <path d="M25.2,10.373a6.045,6.045,0,0,0-2.732-1.43,32.919,32.919,0,0,0-3.653-.22A7.856,7.856,0,0,0,15.13,8.9a3.722,3.722,0,0,0-2.094,1.85c-.138.289.293.543.432.252,1.048-2.186,3.547-1.945,5.565-1.759,1.032.094,2.1-.044,3.117.143a5.529,5.529,0,0,1,2.7,1.339c.239.214.593-.139.353-.354Z" transform="translate(-0.114 -0.024)" fill="#1d1d1b"/>
    <path d="M24.8,10.6a1.347,1.347,0,0,1-.176.272c-.078.092-.22.181-.158.32a.349.349,0,0,0,.114.121,1.124,1.124,0,0,1,.118.111,1.078,1.078,0,0,1,.171.254.125.125,0,0,0,.171.045.127.127,0,0,0,.044-.171,1.268,1.268,0,0,0-.164-.252,1.671,1.671,0,0,0-.225-.212c-.014-.012.008,0-.007-.007-.032-.017-.04.118,0,.085a.418.418,0,0,0,.052-.051,1.413,1.413,0,0,0,.1-.117,1.611,1.611,0,0,0,.174-.272.128.128,0,0,0-.045-.171.127.127,0,0,0-.171.045Z" transform="translate(-0.114 -0.024)" fill="#1d1d1b"/>
    <path d="M23.719,10.336a4.844,4.844,0,0,1,.423.4c.063.068.124.138.182.21a1.057,1.057,0,0,1,.166.224l-.017-.063v0l.033-.055a.956.956,0,0,1-.181.141c-.069.05-.14.1-.213.141a3.969,3.969,0,0,1-.452.238.127.127,0,0,0-.045.171.13.13,0,0,0,.171.045,3.956,3.956,0,0,0,.539-.293c.085-.055.169-.115.25-.177s.181-.133.138-.256a.984.984,0,0,0-.172-.241c-.063-.079-.129-.156-.2-.231a4.521,4.521,0,0,0-.448-.427.128.128,0,0,0-.177,0,.126.126,0,0,0,0,.176Z" transform="translate(-0.114 -0.024)" fill="#1d1d1b"/>
    <path d="M22.93,9.6a3.566,3.566,0,0,1,.457.383c.068.068.134.138.2.211.008.01.042.04.044.054,0-.014-.015.015-.018.02a1.1,1.1,0,0,1-.086.1,1.7,1.7,0,0,1-.9.483c-.158.031-.091.272.066.241a1.926,1.926,0,0,0,1.089-.633.277.277,0,0,0,.065-.332,1.532,1.532,0,0,0-.233-.269,3.75,3.75,0,0,0-.554-.468c-.132-.093-.257.124-.126.215Z" transform="translate(-0.114 -0.024)" fill="#1d1d1b"/>
    <path d="M22.645,11.086a2.7,2.7,0,0,1,.526.3,2.235,2.235,0,0,1,.229.194c.075.07.132.125.089.233a.911.911,0,0,1-.372.366l-.6.4c-.133.089-.008.306.126.216.226-.152.455-.3.678-.456a.952.952,0,0,0,.426-.516c.061-.263-.171-.44-.354-.585a2.787,2.787,0,0,0-.621-.37.129.129,0,0,0-.171.045.125.125,0,0,0,.045.171Z" transform="translate(-0.114 -0.024)" fill="#1d1d1b"/>
    <path d="M22.558,12.848l.024.01-.03-.013a.6.6,0,0,1,.129.076l-.025-.02a.625.625,0,0,1,.106.106l-.02-.025.01.013a.139.139,0,0,0,.075.058.126.126,0,0,0,.154-.088.12.12,0,0,0-.013-.1.725.725,0,0,0-.075-.091,1.04,1.04,0,0,0-.087-.075.731.731,0,0,0-.181-.1.126.126,0,0,0-.154.087.131.131,0,0,0,.012.1.142.142,0,0,0,.075.057Z" transform="translate(-0.114 -0.024)" fill="#1d1d1b"/>
    <path d="M22.812,9.325a2.485,2.485,0,0,1-1.251.725.125.125,0,0,0,.067.241A2.719,2.719,0,0,0,22.989,9.5a.125.125,0,1,0-.177-.177Z" transform="translate(-0.114 -0.024)" fill="#1d1d1b"/>
    <path d="M21.572,10.261a1.985,1.985,0,0,1,.924.714.129.129,0,0,0,.171.045.126.126,0,0,0,.045-.171,2.74,2.74,0,0,0-.472-.5,2.035,2.035,0,0,0-.6-.327.125.125,0,1,0-.066.241Z" transform="translate(-0.114 -0.024)" fill="#1d1d1b"/>
    <path d="M22.512,10.905l0-.036a.02.02,0,0,1-.009.015.118.118,0,0,0-.025.025l-.056.057c-.038.038-.076.076-.115.113-.081.079-.164.156-.252.228a1.62,1.62,0,0,1-.546.307c-.153.047-.088.288.066.241a1.967,1.967,0,0,0,.684-.394c.1-.083.192-.171.283-.262s.235-.2.208-.36a.126.126,0,0,0-.154-.088.129.129,0,0,0-.087.154Z" transform="translate(-0.114 -0.024)" fill="#1d1d1b"/>
    <path d="M21.406,11.837a3.489,3.489,0,0,0,.3.212,2.3,2.3,0,0,1,.256.218,6.665,6.665,0,0,1,.478.53.125.125,0,0,0,.176,0,.127.127,0,0,0,0-.177,6.652,6.652,0,0,0-.477-.53,3.122,3.122,0,0,0-.278-.236c-.09-.067-.193-.119-.276-.194a.129.129,0,0,0-.177,0,.127.127,0,0,0,0,.177Z" transform="translate(-0.114 -0.024)" fill="#1d1d1b"/>
    <path d="M22.379,12.567a3.217,3.217,0,0,1-.346.364.126.126,0,0,0,0,.177.128.128,0,0,0,.177,0,3.308,3.308,0,0,0,.346-.364.139.139,0,0,0,.036-.089.127.127,0,0,0-.036-.088.128.128,0,0,0-.089-.037.126.126,0,0,0-.088.037Z" transform="translate(-0.114 -0.024)" fill="#1d1d1b"/>
    <path d="M20.3,9.214a2.7,2.7,0,0,1,1.149,1.036.125.125,0,0,0,.215-.126A2.916,2.916,0,0,0,20.429,9a.128.128,0,0,0-.171.045.125.125,0,0,0,.045.171Z" transform="translate(-0.114 -0.024)" fill="#1d1d1b"/>
    <path d="M21.46,10.159a.638.638,0,0,1-.205.185c-.095.063-.192.123-.29.181a1.907,1.907,0,0,1-.615.25.125.125,0,0,0,.066.241,2.114,2.114,0,0,0,.693-.286,1.59,1.59,0,0,0,.567-.445c.086-.137-.13-.262-.216-.126Z" transform="translate(-0.114 -0.024)" fill="#1d1d1b"/>
    <path d="M20.413,11.049a2.933,2.933,0,0,1,.977.9.128.128,0,0,0,.171.044.125.125,0,0,0,.044-.171,3.2,3.2,0,0,0-1.066-.989.125.125,0,0,0-.126.216Z" transform="translate(-0.114 -0.024)" fill="#1d1d1b"/>
    <path d="M21.381,11.765a2.907,2.907,0,0,1-.982.814.125.125,0,1,0,.126.216,3.182,3.182,0,0,0,1.072-.9.126.126,0,0,0-.045-.171.129.129,0,0,0-.171.045Z" transform="translate(-0.114 -0.024)" fill="#1d1d1b"/>
    <path d="M20.424,12.831a1.362,1.362,0,0,1,.16.1l.04.029c.012.009-.019-.015,0,0l.021.017c.024.02.048.04.07.062a1.365,1.365,0,0,1,.127.137l.014.018c-.019-.027,0,0,0,0l.026.036c.019.027.036.055.053.083a.125.125,0,0,0,.216-.126,1.526,1.526,0,0,0-.6-.572.125.125,0,0,0-.126.216Z" transform="translate(-0.114 -0.024)" fill="#1d1d1b"/>
    <path d="M20.522,9.033a3.875,3.875,0,0,1-1.334.648.125.125,0,0,0,.066.241,4.055,4.055,0,0,0,1.395-.673.13.13,0,0,0,.044-.171.126.126,0,0,0-.171-.045Z" transform="translate(-0.114 -0.024)" fill="#1d1d1b"/>
    <path d="M19.2,9.977a2.685,2.685,0,0,1,1.035.963c.084.137.3.011.215-.126a2.925,2.925,0,0,0-1.124-1.053c-.142-.075-.269.141-.126.216Z" transform="translate(-0.114 -0.024)" fill="#1d1d1b"/>
    <path d="M20.318,10.791a2.459,2.459,0,0,1-1.234.92c-.152.051-.087.293.066.242a2.746,2.746,0,0,0,1.384-1.036.126.126,0,0,0-.045-.171.129.129,0,0,0-.171.045Z" transform="translate(-0.114 -0.024)" fill="#1d1d1b"/>
    <path d="M19.17,11.991a4.181,4.181,0,0,1,1.131.866c.112.115.289-.062.176-.177a4.357,4.357,0,0,0-1.181-.9.129.129,0,0,0-.171.045.126.126,0,0,0,.045.171Z" transform="translate(-0.114 -0.024)" fill="#1d1d1b"/>
    <path d="M20.3,12.676a1.875,1.875,0,0,1-.194.184l-.026.02c-.013.011,0,0,.008-.006l-.015.011-.053.039c-.037.026-.075.05-.114.073a.125.125,0,1,0,.126.216,1.98,1.98,0,0,0,.445-.36.125.125,0,0,0-.177-.177Z" transform="translate(-0.114 -0.024)" fill="#1d1d1b"/>
    <path d="M18.278,9.151a2.218,2.218,0,0,1,.235.128,2.251,2.251,0,0,1,.2.145,2.456,2.456,0,0,1,.192.176c.032.033.062.067.092.1l.04.048.021.026c-.011-.013.015.021.014.019a.129.129,0,0,0,.171.045.126.126,0,0,0,.044-.171,2.363,2.363,0,0,0-.887-.733.125.125,0,1,0-.126.215Z" transform="translate(-0.114 -0.024)" fill="#1d1d1b"/>
    <path d="M19.105,9.741a2.292,2.292,0,0,1-.682.6c-.133.084-.269.162-.4.242-.066.039-.132.078-.2.119a.421.421,0,0,0-.185.161.13.13,0,0,0,.045.171.127.127,0,0,0,.171-.045c.014-.032-.01,0,.018-.023.012-.009.026-.016.039-.024.035-.023.071-.045.107-.066.068-.042.138-.083.207-.124.135-.079.271-.159.4-.245a2.45,2.45,0,0,0,.7-.643c.091-.132-.125-.258-.216-.126Z" transform="translate(-0.114 -0.024)" fill="#1d1d1b"/>
    <path d="M17.752,11.037a2.949,2.949,0,0,1,1.183.772c.119.108.3-.068.177-.177a3.221,3.221,0,0,0-1.293-.836.125.125,0,0,0-.067.241Z" transform="translate(-0.114 -0.024)" fill="#1d1d1b"/>
    <path d="M19.056,11.741a1.864,1.864,0,0,1-.653.427,4.181,4.181,0,0,1-.8.267c-.156.037-.09.278.067.242a4.658,4.658,0,0,0,.862-.293,2.038,2.038,0,0,0,.7-.466c.106-.12-.07-.3-.177-.177Z" transform="translate(-0.114 -0.024)" fill="#1d1d1b"/>
    <path d="M17.67,12.7a1.793,1.793,0,0,1,.855.662.13.13,0,0,0,.171.045.128.128,0,0,0,.045-.172,2.073,2.073,0,0,0-1-.776.125.125,0,0,0-.067.241Z" transform="translate(-0.114 -0.024)" fill="#1d1d1b"/>
    <path d="M17.739,9.13l.01,0-.058-.075,0,.012V9.005c.006-.021,0,0-.013,0l-.033.031c-.023.02-.047.04-.071.058a1.694,1.694,0,0,1-.16.1,2.8,2.8,0,0,1-.34.164c-.118.049-.238.1-.36.139a.959.959,0,0,0-.37.149c-.121.105.056.281.177.177a.424.424,0,0,1,.178-.061,2.058,2.058,0,0,0,.229-.078c.141-.055.283-.111.421-.175a2.061,2.061,0,0,0,.378-.225.76.76,0,0,0,.18-.164.148.148,0,0,0-.044-.215c-.142-.075-.269.141-.126.216Z" transform="translate(-0.114 -0.024)" fill="#1d1d1b"/>
    <path d="M16.437,9.855a2.014,2.014,0,0,1,1.212,1.054c.088.133.3.008.216-.126A2.256,2.256,0,0,0,16.5,9.614a.129.129,0,0,0-.154.088.126.126,0,0,0,.087.153Z" transform="translate(-0.114 -0.024)" fill="#1d1d1b"/>
    <path d="M17.664,10.914l.011.009-.032-.055,0,.012v-.066c0,.024-.087.078-.113.1-.054.042-.11.082-.166.12a3.1,3.1,0,0,1-.357.207,2.9,2.9,0,0,1-.775.251.126.126,0,0,0-.087.154.128.128,0,0,0,.154.087,3.126,3.126,0,0,0,.945-.334,3.009,3.009,0,0,0,.41-.268c.1-.076.352-.254.183-.393a.129.129,0,0,0-.177,0,.127.127,0,0,0,0,.177Z" transform="translate(-0.114 -0.024)" fill="#1d1d1b"/>
    <path d="M16.34,11.734a2.549,2.549,0,0,1,1.15.86.129.129,0,0,0,.171.045.126.126,0,0,0,.044-.171,2.851,2.851,0,0,0-1.3-.975.126.126,0,0,0-.154.087.128.128,0,0,0,.088.154Z" transform="translate(-0.114 -0.024)" fill="#1d1d1b"/>
    <path d="M17.47,12.548c-.01.018-.02.035-.031.052l-.014.02c-.009.012.014-.016,0,0a.778.778,0,0,1-.075.077l-.022.019s-.03.023-.006.005l-.041.03c-.032.022-.065.042-.1.062a4.1,4.1,0,0,0-.392.239.129.129,0,0,0-.045.171.126.126,0,0,0,.171.045c.258-.2.608-.292.771-.6a.125.125,0,1,0-.216-.126Z" transform="translate(-0.114 -0.024)" fill="#1d1d1b"/>
    <path d="M15.346,9.271a2.365,2.365,0,0,1,.937.5.129.129,0,0,0,.177,0,.127.127,0,0,0,0-.177,2.646,2.646,0,0,0-1.048-.561.125.125,0,0,0-.066.241Z" transform="translate(-0.114 -0.024)" fill="#1d1d1b"/>
    <path d="M16.3,9.781c0,.01,0,0,0-.005s-.015.019-.02.025c-.024.024-.052.045-.078.067-.045.038-.092.075-.139.109a3.184,3.184,0,0,1-1.047.5.125.125,0,0,0,.067.241,3.383,3.383,0,0,0,1.233-.626c.11-.087.289-.217.221-.381a.13.13,0,0,0-.154-.087.126.126,0,0,0-.088.153Z" transform="translate(-0.114 -0.024)" fill="#1d1d1b"/>
    <path d="M14.994,10.731a3.284,3.284,0,0,1,1.133,1,.129.129,0,0,0,.171.045.126.126,0,0,0,.045-.171,3.549,3.549,0,0,0-1.223-1.091c-.142-.076-.268.139-.126.216Z" transform="translate(-0.114 -0.024)" fill="#1d1d1b"/>
    <path d="M16.122,11.637a1.431,1.431,0,0,1-.523.325c-.22.076-.457.078-.673.169a.125.125,0,0,0-.045.171.127.127,0,0,0,.171.045,1.484,1.484,0,0,1,.337-.076,1.668,1.668,0,0,0,.333-.088,1.713,1.713,0,0,0,.576-.37c.116-.112-.061-.289-.176-.176Z" transform="translate(-0.114 -0.024)" fill="#1d1d1b"/>
    <path d="M14.957,12.374a.906.906,0,0,1,.11.061.654.654,0,0,1,.085.065,1.61,1.61,0,0,1,.176.184l.041.05.016.021c-.012-.015.012.016.012.015l.072.1.183.251a.129.129,0,0,0,.171.045.127.127,0,0,0,.045-.171c-.119-.163-.234-.331-.363-.486a1.27,1.27,0,0,0-.422-.349.125.125,0,1,0-.126.216Z" transform="translate(-0.114 -0.024)" fill="#1d1d1b"/>
    <path d="M14.134,9.991a1.752,1.752,0,0,1,.212.117c.034.022.067.045.1.07.011.008-.01-.009.007,0l.022.018.049.042a1.464,1.464,0,0,1,.164.17l.019.022s.024.031.009.011l.034.047c.025.034.048.07.07.106a.125.125,0,1,0,.215-.126,1.779,1.779,0,0,0-.774-.7.128.128,0,0,0-.171.045.126.126,0,0,0,.045.171Z" transform="translate(-0.114 -0.024)" fill="#1d1d1b"/>
    <path d="M14.9,10.513a3.551,3.551,0,0,1-.536.459,3.007,3.007,0,0,1-.605.317.128.128,0,0,0-.087.154.125.125,0,0,0,.153.087,3.318,3.318,0,0,0,.665-.342,3.876,3.876,0,0,0,.587-.5c.113-.115-.064-.292-.177-.177Z" transform="translate(-0.114 -0.024)" fill="#1d1d1b"/>
    <path d="M13.662,11.493a1.258,1.258,0,0,0,.318.163,3.155,3.155,0,0,1,.328.179,2.972,2.972,0,0,1,.56.459c.111.116.288-.061.177-.177a3.255,3.255,0,0,0-.577-.476,3.168,3.168,0,0,0-.316-.179c-.057-.027-.114-.053-.172-.077a.511.511,0,0,1-.141-.068.125.125,0,0,0-.177.176Z" transform="translate(-0.114 -0.024)" fill="#1d1d1b"/>
    <path d="M14.86,12.209c-.012.018-.025.036-.038.053l.02-.025a.738.738,0,0,1-.128.128l.025-.02a.737.737,0,0,1-.15.09.126.126,0,0,0,.029.229l.034,0a.129.129,0,0,0,.063-.017.835.835,0,0,0,.36-.316.125.125,0,0,0-.044-.171.127.127,0,0,0-.171.045Z" transform="translate(-0.114 -0.024)" fill="#1d1d1b"/>
    <path d="M23.826,11.851a.067.067,0,0,1-.036.03c-.023.01-.029.014-.016.011l-.033.005h.01l-.033-.005c.014,0,.017.009-.01-.006a.046.046,0,0,1-.022-.019c-.007-.01-.008-.01,0,0s.011.03,0-.006l.011.028a.506.506,0,0,0,.038.073.823.823,0,0,0,.1.124c.033.033.066.064.1.1l.012.014s.015.019,0,0l0,0,.008.012c.007.01.013.021.019.031a.071.071,0,0,1,.007.016l-.007-.019,0,.012a.132.132,0,0,0,.057.074.125.125,0,0,0,.184-.141A.564.564,0,0,0,24.105,12c-.039-.043-.082-.081-.121-.123l-.028-.032-.007-.01.012.016a.085.085,0,0,1-.014-.019.271.271,0,0,1-.021-.037l-.008-.016c.026.052-.013-.029-.01-.024a.183.183,0,0,0-.119-.105.158.158,0,0,0-.179.072.125.125,0,0,0,.216.127Z" transform="translate(-0.114 -0.024)" fill="#1d1d1b"/>
    <path d="M.235,11.344c3.955,0,7.91.008,11.865-.018a.125.125,0,0,0,0-.25c-3.955.026-7.91.018-11.865.018a.125.125,0,0,0,0,.25Z" transform="translate(-0.114 -0.024)" fill="#1d1d1b"/>
    <path d="M4.008,12.173c.853.035,1.709.022,2.563.025a.125.125,0,0,0,0-.25c-.854,0-1.71.01-2.563-.025-.161-.007-.161.243,0,.25Z" transform="translate(-0.114 -0.024)" fill="#1d1d1b"/>
    <path d="M7.785,10.355l3.776-.075a.125.125,0,0,0,0-.25l-3.776.075a.125.125,0,0,0,0,.25Z" transform="translate(-0.114 -0.024)" fill="#1d1d1b"/>
    <path d="M10.482,9.433a25.675,25.675,0,0,0,3.1-.065c.159-.013.16-.263,0-.25a25.675,25.675,0,0,1-3.1.065c-.161-.006-.161.244,0,.25Z" transform="translate(-0.114 -0.024)" fill="#1d1d1b"/>
    <path d="M3.127,9.421A10.326,10.326,0,0,1,12.139.291a10.584,10.584,0,0,1,3.6.355,15,15,0,0,1,1.778.515,7.037,7.037,0,0,1,1.816,1.147c1.874,1.5,3.741,3.259,4.089,5.754.023.159.263.092.241-.066A8.252,8.252,0,0,0,20.7,3.129a14.018,14.018,0,0,0-2.466-1.911,11.393,11.393,0,0,0-3.01-.953A10.033,10.033,0,0,0,5.155,3.88,11.319,11.319,0,0,0,2.877,9.421c-.02.159.23.158.25,0Z" transform="translate(-0.114 -0.024)" fill="#1d1d1b"/>
    <path d="M3.083,13.878c1.595,3.04,3.837,6.12,7.33,7.045a10.376,10.376,0,0,0,5.616.091,13.081,13.081,0,0,0,4.15-2.252,9.988,9.988,0,0,0,3.065-4.081c.059-.15-.182-.215-.241-.067a10.005,10.005,0,0,1-3.65,4.458,9.7,9.7,0,0,1-5.863,2A10.1,10.1,0,0,1,7.137,18.9,16.543,16.543,0,0,1,3.3,13.752c-.075-.143-.29-.016-.216.126Z" transform="translate(-0.114 -0.024)" fill="#1d1d1b"/>
    <g>
      <path d="M1.461,29.355c-.3-.013-.792.07-1.013-.191C.2,28.879.322,28.306.333,27.97.348,27.569.2,27,.4,26.636c.189-.35.559-.272.9-.251.294.018.3.478,0,.46-.219-.014-.307-.074-.436.1-.1.138-.073.233-.068.393.009.242.007.481,0,.722,0,.134-.094.7.037.806.09.073.513.024.635.03C1.76,28.909,1.76,29.369,1.461,29.355Z" transform="translate(-0.114 -0.024)" fill="#1d1d1b"/>
      <path d="M3.841,29.049c-.108.256-.333.293-.584.327-.835.113-.891-.329-.93-1.061a5.16,5.16,0,0,1,.014-1.525c.083-.316.343-.385.635-.463a.208.208,0,0,1,.23.076c.78-.145.695.952.69,1.447A3.529,3.529,0,0,1,3.841,29.049Zm-.4-1.01c0-.1.083-1.247-.175-1.178a.206.206,0,0,1-.219-.067c-.4.164-.29.768-.274,1.137.011.293-.062.918.249,1.012C3.574,29.109,3.43,28.338,3.437,28.039Z" transform="translate(-0.114 -0.024)" fill="#1d1d1b"/>
      <path d="M6.132,27.618c-.01.511-.024,1.02-.035,1.53a.23.23,0,0,1-.46,0c.011-.446.02-.892.032-1.339a2.868,2.868,0,0,0,.012-.578c-.085-.419-.348-.57-.675-.186-.007.007-.014.01-.021.016q-.027,1.05.021,2.1c.015.3-.446.294-.46,0-.041-.889-.041-1.776,0-2.667A.23.23,0,0,1,5,26.473a.769.769,0,0,1,1.012.105A1.791,1.791,0,0,1,6.132,27.618Z" transform="translate(-0.114 -0.024)" fill="#1d1d1b"/>
      <path d="M7.223,28.177c0,.048,0,.094,0,.14a.719.719,0,0,0,.258.6,2.2,2.2,0,0,0,.51-.046c.294-.025.292.435,0,.46-.32.027-.759.149-1.024-.1a1.144,1.144,0,0,1-.207-.914c.016-.517-.165-1.61.468-1.836a1.182,1.182,0,0,1,.846.046c.281.15.3.451.294.739,0,.225.019.7-.181.863S7.542,28.217,7.223,28.177Zm.027-.757c-.007.1-.01.2-.014.3a3.355,3.355,0,0,0,.626.03c.067-.26.117-.706-.05-.833-.092-.071-.33-.014-.411.037C7.225,27.058,7.266,27.226,7.25,27.42Z" transform="translate(-0.114 -0.024)" fill="#1d1d1b"/>
      <path d="M11.283,29.192c-.273.241-.72.16-1.045.115-.292-.041-.168-.486.122-.444.2.028.362.071.525-.051s.122-.212.129-.419c0-.064.046-.285.011-.337-.064-.1-.232-.072-.326-.083-.261-.031-.483-.04-.566-.321a1.509,1.509,0,0,1,.087-1.044c.217-.281.554-.118.836-.225s.4.338.122.443c-.242.093-.511-.025-.6.263a.4.4,0,0,0,.122.426c.06.034.253-.012.318,0,.333.035.45.23.468.546S11.553,28.948,11.283,29.192Z" transform="translate(-0.114 -0.024)" fill="#1d1d1b"/>
      <path d="M13.649,29.132c.017.3-.444.295-.46,0a10.843,10.843,0,0,1,0-1.3,3.014,3.014,0,0,0,.044-.56.307.307,0,0,0-.161-.375,1.091,1.091,0,0,0-.495-.046,21.632,21.632,0,0,0,.01,2.292c.022.3-.438.292-.461,0-.094-1.2.035-2.406,0-3.612-.01-.3.45-.295.46,0s.009.57,0,.856c.414-.039.971.037,1.086.449a3.6,3.6,0,0,1-.028,1.086A11.358,11.358,0,0,0,13.649,29.132Z" transform="translate(-0.114 -0.024)" fill="#1d1d1b"/>
      <path d="M15.867,29.049c-.107.256-.333.293-.584.327-.835.113-.89-.329-.929-1.061a5.126,5.126,0,0,1,.013-1.525c.083-.316.343-.385.635-.463a.207.207,0,0,1,.23.076c.781-.145.7.952.691,1.447A3.529,3.529,0,0,1,15.867,29.049Zm-.4-1.01c0-.1.083-1.247-.175-1.178a.206.206,0,0,1-.219-.067c-.4.164-.29.768-.274,1.137.012.293-.062.918.249,1.012C15.6,29.109,15.456,28.338,15.463,28.039Z" transform="translate(-0.114 -0.024)" fill="#1d1d1b"/>
      <path d="M18.107,29.049c-.108.256-.334.293-.585.327-.834.113-.889-.329-.928-1.061a5.061,5.061,0,0,1,.013-1.525c.083-.316.343-.385.635-.463a.21.21,0,0,1,.231.076c.779-.145.694.952.689,1.447A3.5,3.5,0,0,1,18.107,29.049Zm-.4-1.01c0-.1.083-1.247-.175-1.178a.205.205,0,0,1-.218-.067c-.4.164-.29.768-.274,1.137.012.293-.062.918.248,1.012C17.841,29.109,17.7,28.338,17.7,28.039Z" transform="translate(-0.114 -0.024)" fill="#1d1d1b"/>
      <path d="M19.477,26.854c-.069,0-.138-.011-.207-.016v.283c0,.145-.077,1.822.071,1.8.29-.039.414.405.122.444-.66.09-.7-.419-.679-.955.019-.58.024-1.16.024-1.739a.235.235,0,0,1-.017-.086.2.2,0,0,1,.017-.08c0-.334,0-.67,0-1.006a.23.23,0,0,1,.46,0c0,.292,0,.585,0,.877.071,0,.14.013.209.015C19.771,26.4,19.771,26.863,19.477,26.854Z" transform="translate(-0.114 -0.024)" fill="#1d1d1b"/>
      <path d="M20.771,26.6q-.03,1.272-.008,2.544a.23.23,0,0,1-.46,0q-.023-1.273.009-2.544A.23.23,0,0,1,20.771,26.6Zm-.409-.871a.61.61,0,0,1-.013-.2.23.23,0,0,1,.46,0,.18.18,0,0,0,0,.083.238.238,0,0,1-.161.284A.234.234,0,0,1,20.362,25.726Z" transform="translate(-0.114 -0.024)" fill="#1d1d1b"/>
      <path d="M23.021,27.618c-.009.511-.023,1.02-.035,1.53a.23.23,0,0,1-.46,0c.012-.446.021-.892.033-1.339a2.942,2.942,0,0,0,.011-.578c-.085-.419-.347-.57-.674-.186-.007.007-.014.01-.021.016q-.028,1.05.021,2.1c.014.3-.447.294-.46,0-.041-.889-.041-1.776,0-2.667a.23.23,0,0,1,.458-.02.768.768,0,0,1,1.011.105A1.783,1.783,0,0,1,23.021,27.618Z" transform="translate(-0.114 -0.024)" fill="#1d1d1b"/>
      <path d="M25.362,30.024c-.078.843-.8.631-1.456.565-.292-.031-.295-.49,0-.46l.548.054c.228.021.246.067.382-.122a1.229,1.229,0,0,0,.119-.692c-.353-.009-.973.1-1.2-.23-.216-.313-.078-.8-.053-1.151.028-.393-.117-.977.119-1.327.2-.3.733-.246,1.047-.278a.272.272,0,0,1,.088.008.242.242,0,0,1,.4.162A23.382,23.382,0,0,1,25.362,30.024Zm-.418-1.111v0c.014-.692,0-1.383-.037-2.076a.308.308,0,0,1-.042.012c-.133.016-.273.02-.407.044-.282.047-.287.1-.3.375-.009.244.017.485,0,.729-.018.263-.14.592.056.789C24.392,28.962,24.7,28.909,24.944,28.913Z" transform="translate(-0.114 -0.024)" fill="#1d1d1b"/>
    </g>
  </g>
</svg>
