<svg xmlns="http://www.w3.org/2000/svg" width="8.823mm" height="10.945mm" viewBox="0 0 25.009 31.024">
  <title>fire1</title>
  <g>
    <path d="M3.88,14.879c-.371,1.2-.242,3.189,1.115,3.762s2.14-1.092,2.432-2.119c.515-1.808.549-3.738,1.61-5.355A30.781,30.781,0,0,1,12.7,7.289c1.187-1.264,2.72-2.851,2.474-4.735-.041-.314-.542-.318-.5,0C14.931,4.513,13.068,6.239,11.8,7.5a19.042,19.042,0,0,0-3.408,3.762c-.908,1.578-.957,3.414-1.447,5.128-.231.808-.981,2.578-2.072,1.58a2.951,2.951,0,0,1-.51-2.958c.095-.308-.387-.439-.483-.132Z" fill="#1d1d1b"/>
    <path d="M14.709,2.68a5.537,5.537,0,0,1,.835,3.489c-.1,1.141-.352,2.252-.368,3.4a6.6,6.6,0,0,0,2.071,5.274c.244.206.6-.145.353-.353C15.829,13,15.526,10.639,15.742,8.459A19.941,19.941,0,0,0,16.06,5.2a5.951,5.951,0,0,0-.919-2.774c-.171-.272-.6-.021-.432.252Z" fill="#1d1d1b"/>
    <path d="M17.626,14.67a7.925,7.925,0,0,1,1.3-5.269c.18-.268-.253-.519-.432-.253a8.366,8.366,0,0,0-1.364,5.522c.034.317.535.32.5,0Z" fill="#1d1d1b"/>
    <path d="M3.764,14.767c-.384,1.678-1.459,3.143-1.592,4.887a9.652,9.652,0,0,0,.27,2.621,18.978,18.978,0,0,0,.78,2.869,7.649,7.649,0,0,0,3.116,3.545,12.412,12.412,0,0,0,4.7,2.116,10.8,10.8,0,0,0,8.939-2.137,9.875,9.875,0,0,0,3.65-8.423,11.021,11.021,0,0,0-1.985-5.186c-1.148-1.754-2.486-3.516-2.618-5.688-.02-.319-.52-.322-.5,0,.2,3.341,2.964,5.533,4.079,8.519A9.266,9.266,0,0,1,20.975,27,10.136,10.136,0,0,1,12.8,30.521a10.907,10.907,0,0,1-4.753-1.34,10.52,10.52,0,0,1-3.827-3.1A9.583,9.583,0,0,1,3.189,23.3a14.806,14.806,0,0,1-.523-2.948c-.09-1.986,1.152-3.582,1.581-5.452.071-.313-.411-.447-.483-.133Z" fill="#1d1d1b"/>
    <path d="M3.878,19.531c.339,1.175,1.564,2.876,3,2.464,1.673-.48,1.689-3.006,1.781-4.378a15.915,15.915,0,0,1,.44-3.391,8.414,8.414,0,0,1,1.272-2.551A22.1,22.1,0,0,1,14.411,7.7c.124-.1-.054-.278-.177-.176-2.309,1.906-4.8,4.03-5.492,7.086-.409,1.8-.193,3.684-.659,5.471C7.8,21.152,6.968,22.239,5.751,21.6a3.475,3.475,0,0,1-1.632-2.131.125.125,0,0,0-.241.066Z" fill="#1d1d1b"/>
    <path d="M14.031,7.693a7.065,7.065,0,0,0,.266,5.973c1.113,2.1,3.461,3.882,3.105,6.5-.021.158.219.226.241.067.3-2.233-1.259-3.918-2.45-5.613a7.038,7.038,0,0,1-.921-6.865c.061-.148-.181-.213-.241-.066Z" fill="#1d1d1b"/>
    <path d="M17.663,20.284c1.446-1.388,2.462-3.431,1.757-5.442-.053-.151-.294-.086-.241.066.677,1.932-.307,3.869-1.692,5.2-.117.112.06.288.176.177Z" fill="#1d1d1b"/>
    <path d="M3.863,19.535c-.031,2.349.35,5.135,2.356,6.625s4.084,3.178,6.72,3.183a8.913,8.913,0,0,0,8.669-7.649,8.667,8.667,0,0,0-2.077-6.725c-.106-.121-.283.056-.176.177a8.373,8.373,0,0,1-.2,11.172A8.787,8.787,0,0,1,14.1,29.009a6.861,6.861,0,0,1-3.758-.439,17.349,17.349,0,0,1-2.9-1.845,6.1,6.1,0,0,1-2.7-2.983,12.361,12.361,0,0,1-.629-4.207.125.125,0,0,0-.25,0Z" fill="#1d1d1b"/>
    <path d="M6.82,23.7a3.1,3.1,0,0,0,2.9,1.347,3.167,3.167,0,0,0,2.534-2.133c1.316-3.383-1.794-6.863-.243-10.2.068-.145-.148-.273-.216-.127-1.3,2.8.553,5.608.548,8.451A3.867,3.867,0,0,1,10.6,24.525a2.82,2.82,0,0,1-3.567-.95c-.089-.133-.306-.008-.216.126Z" fill="#1d1d1b"/>
    <path d="M11.766,12.7c-.47,4.712,5.3,7.608,4.361,12.349-.032.157.209.224.241.066.955-4.811-4.823-7.694-4.352-12.415.016-.16-.234-.158-.25,0Z" fill="#1d1d1b"/>
    <path d="M16.239,25.265a7.08,7.08,0,0,0,3.225-3.9.125.125,0,0,0-.241-.066,6.822,6.822,0,0,1-3.11,3.748c-.134.089-.008.3.126.216Z" fill="#1d1d1b"/>
    <path d="M6.945,23.913a6.487,6.487,0,0,0,12.466-2.405.125.125,0,0,0-.25,0,6.238,6.238,0,0,1-12,2.279c-.064-.147-.279-.02-.216.126Z" fill="#1d1d1b"/>
    <path d="M.911,20.323a9.665,9.665,0,0,1,.333-1.882,5.419,5.419,0,0,1,.811-1.576c.1-.13-.121-.255-.216-.127A5.616,5.616,0,0,0,1,18.374a9.972,9.972,0,0,0-.342,1.949c-.017.16.233.159.25,0Z" fill="#1d1d1b"/>
    <path d="M.246,18.331c.021-.061.043-.122.068-.183l.009-.024q-.006.015,0-.006l.021-.047c.013-.03.027-.059.042-.088a3,3,0,0,1,.2-.344.126.126,0,0,0-.045-.171.129.129,0,0,0-.171.045,3.228,3.228,0,0,0-.365.752.126.126,0,0,0,.087.154.129.129,0,0,0,.154-.088Z" fill="#1d1d1b"/>
    <path d="M15.321.21A6.263,6.263,0,0,1,16.85,3.187c.047.154.288.088.241-.066A6.5,6.5,0,0,0,15.5.034c-.119-.108-.3.068-.177.176Z" fill="#1d1d1b"/>
    <path d="M17.354.39a1.536,1.536,0,0,1,.372.874.128.128,0,0,0,.125.125.126.126,0,0,0,.125-.125A1.817,1.817,0,0,0,17.531.213a.128.128,0,0,0-.177,0,.129.129,0,0,0,0,.177Z" fill="#1d1d1b"/>
    <path d="M24.638,18.957a7,7,0,0,1-.129,3.163.125.125,0,0,0,.241.066,7.3,7.3,0,0,0,.129-3.3c-.03-.158-.271-.092-.241.066Z" fill="#1d1d1b"/>
  </g>
</svg>
