<svg xmlns="http://www.w3.org/2000/svg" width="3.847mm" height="3.852mm" viewBox="0 0 10.904 10.918">
  <title>fish</title>
  <g>
    <path d="M.871,5.842A10.02,10.02,0,0,0,.043,8.417,4.318,4.318,0,0,0,.056,9.691a1.694,1.694,0,0,0,.438,1.043,1.874,1.874,0,0,0,1.1.18,6.227,6.227,0,0,0,1.224-.136,6.085,6.085,0,0,0,2.25-.99.255.255,0,0,0,.115-.283,2.026,2.026,0,0,0-.728-.83c-.368-.278-.73-.565-1.079-.867A19.349,19.349,0,0,1,1.457,5.893c-.212-.243-.564.112-.354.354a19.684,19.684,0,0,0,1.791,1.8q.466.409.957.79c.288.223.7.445.847.8l.115-.282a5.717,5.717,0,0,1-1.9.887,5.526,5.526,0,0,1-1.046.162c-.169.01-.337.012-.506.007a1.544,1.544,0,0,1-.508-.049c-.142-.064-.18-.277-.221-.415a2.923,2.923,0,0,1-.1-.483A3.94,3.94,0,0,1,.559,8.323,10.122,10.122,0,0,1,1.3,6.094C1.427,5.8,1,5.546.871,5.842Z" transform="translate(-0.002)" fill="#1d1d1b"/>
    <path d="M7.046.05A2.838,2.838,0,0,0,5.885,2.361,2.781,2.781,0,0,0,7.126,4.579a2.765,2.765,0,0,0,3.6-.531.578.578,0,0,0,.158-.541,1.354,1.354,0,0,0-.4-.538A2.294,2.294,0,0,0,7.9,2.636l.377.216A3.847,3.847,0,0,0,7.429.086c-.2-.251-.552.1-.353.353a3.36,3.36,0,0,1,.7,2.413.252.252,0,0,0,.376.216,1.779,1.779,0,0,1,1.774.095,1.616,1.616,0,0,1,.336.287c.033.036.143.14.143.192s-.12.159-.16.2a2.26,2.26,0,0,1-.881.556,2.216,2.216,0,0,1-1.931-.215A2.271,2.271,0,0,1,6.394,2.525,2.318,2.318,0,0,1,7.3.482c.256-.189.007-.623-.252-.432Z" transform="translate(-0.002)" fill="#1d1d1b"/>
    <path d="M3.14,7.862Q4.952,6.011,6.9,4.3c.242-.212-.113-.565-.354-.354Q4.6,5.656,2.787,7.509c-.226.23.128.584.353.353Z" transform="translate(-0.002)" fill="#1d1d1b"/>
    <path d="M2.618,5.7a9.234,9.234,0,0,0,2.316,2.37.258.258,0,0,0,.354,0,.253.253,0,0,0,0-.354A8.884,8.884,0,0,1,3.05,5.444a.25.25,0,0,0-.432.252Z" transform="translate(-0.002)" fill="#1d1d1b"/>
    <path d="M3.973,4.935q.768.891,1.6,1.722A.25.25,0,0,0,5.928,6.3q-.834-.831-1.6-1.723a.251.251,0,0,0-.353,0,.255.255,0,0,0,0,.354Z" transform="translate(-0.002)" fill="#1d1d1b"/>
    <path d="M5.22,4a9.025,9.025,0,0,1,.71.714,8.089,8.089,0,0,1,.6.762.25.25,0,0,0,.432-.253A9.445,9.445,0,0,0,5.574,3.646.25.25,0,0,0,5.22,4Z" transform="translate(-0.002)" fill="#1d1d1b"/>
    <path d="M1.306,7.9a.827.827,0,0,0-.113.686.523.523,0,0,0,.576.316.593.593,0,0,0,.464-.449.632.632,0,0,0-.193-.633.514.514,0,0,0-.7.033.13.13,0,0,0,0,.177.128.128,0,0,0,.177,0l.025-.026s.018-.016,0,0a.519.519,0,0,1,.05-.031s.022-.009,0,0l.022-.007.035-.009c.005,0,.039,0,.014,0a.469.469,0,0,1,.053,0l.03,0c-.022,0,0,0,0,0s.038.01.057.017c-.019-.007,0,0,0,0l.033.018s.034.023.016.01l.019.016a.389.389,0,0,1,.044.047c0-.005-.01-.016,0,0l.017.027.016.028s.016.035.009.017A.475.475,0,0,1,2,8.252c0-.025,0,.017,0,.018V8.3c0,.008,0,.017,0,.025l0,.026c0-.01,0-.01,0,0a.559.559,0,0,1-.012.056l-.01.031s-.011.029,0,.012a.306.306,0,0,1-.026.051l-.017.028s-.023.03-.011.015a.479.479,0,0,1-.043.047L1.859,8.6c.014-.012-.007,0-.011.007s-.032.02-.049.029c-.035.018.011,0-.01,0l-.034.011c-.007,0-.055.009-.032.007a.4.4,0,0,1-.06,0l-.024,0c.027,0-.011,0-.014,0a.532.532,0,0,1-.057-.016c-.036-.012.011.006-.009,0l-.026-.013-.021-.013c-.031-.017.009.008-.007,0a.451.451,0,0,1-.039-.037c-.025-.026.007.011-.006-.008a.423.423,0,0,1-.024-.04s-.011-.022,0-.006A.265.265,0,0,1,1.42,8.48l-.008-.032,0-.019c0,.012,0,.01,0-.006a.485.485,0,0,1,0-.066l0-.033c0-.009,0-.009,0,0l0-.02a.846.846,0,0,1,.107-.274.129.129,0,0,0-.045-.171.126.126,0,0,0-.171.045Z" transform="translate(-0.002)" fill="#1d1d1b"/>
  </g>
</svg>
