<svg xmlns="http://www.w3.org/2000/svg" width="1.782mm" height="2.546mm" viewBox="0 0 5.051 7.217">
  <title>flower3</title>
  <g>
    <path d="M2.538,2.44a1.277,1.277,0,0,1,.4-.94,2.026,2.026,0,0,1,.469-.254A1.216,1.216,0,0,1,4,1.139a.125.125,0,0,0,.125-.125A.129.129,0,0,0,4,.889a1.385,1.385,0,0,0-.671.121,2.342,2.342,0,0,0-.561.309,1.541,1.541,0,0,0-.48,1.121.126.126,0,0,0,.125.125.128.128,0,0,0,.125-.125Z" fill="#1d1d1b"/>
    <path d="M2.466,2.673a1.773,1.773,0,0,0,1.2-.423,2.024,2.024,0,0,0,.449-.5,1,1,0,0,0,.128-.721c-.031-.158-.272-.091-.242.066a1.093,1.093,0,0,1-.532.995,1.515,1.515,0,0,1-1.007.334c-.161-.009-.161.241,0,.25Z" fill="#1d1d1b"/>
    <path d="M1.2.844A1.8,1.8,0,0,0,2.413,2.659c.152.052.218-.189.066-.241A1.543,1.543,0,0,1,1.454.844c.012-.161-.238-.16-.25,0Z" fill="#1d1d1b"/>
    <path d="M1.493.685,1.485.675l.037.089V.75L1.505.813,1.513.8,1.468.847,1.481.841,1.418.859a.945.945,0,0,1,.35.069,1.613,1.613,0,0,1,.352.158.905.905,0,0,1,.436.484A.125.125,0,0,0,2.8,1.5,1.221,1.221,0,0,0,2.14.812,1.91,1.91,0,0,0,1.653.639.648.648,0,0,0,1.384.613a.15.15,0,0,0-.068.249A.125.125,0,1,0,1.493.685Z" fill="#1d1d1b"/>
    <path d="M2.289.913c.015-.048.027-.1.04-.144.006-.024.013-.048.02-.072L2.36.665c.013-.037-.007.013.007-.018a.767.767,0,0,1,.06-.1c.008-.012-.011.012,0-.005L2.452.518C2.466.5,2.48.489,2.5.475l.046-.04c.018-.014-.006,0,.006,0L2.57.414c.034-.024.069-.046.1-.067C2.747.305,2.822.268,2.9.231A.126.126,0,0,0,2.943.06.129.129,0,0,0,2.772.015,1.75,1.75,0,0,0,2.31.306a.757.757,0,0,0-.161.22,2.97,2.97,0,0,0-.1.32A.126.126,0,0,0,2.135,1,.128.128,0,0,0,2.289.913Z" fill="#1d1d1b"/>
    <path d="M2.745.212A1.254,1.254,0,0,1,3.23,1.1a.128.128,0,0,0,.125.125A.126.126,0,0,0,3.48,1.1,1.49,1.49,0,0,0,2.921.035a.128.128,0,0,0-.176,0,.126.126,0,0,0,0,.177Z" fill="#1d1d1b"/>
    <path d="M2.284,2.508a10.179,10.179,0,0,0,.313,4.3c.036.157.277.091.241-.066a9.888,9.888,0,0,1-.313-4.168c.031-.157-.21-.224-.241-.066Z" fill="#1d1d1b"/>
    <path d="M1.2,4.466a.98.98,0,0,1,.641.2,2.31,2.31,0,0,1,.467.606c.088.134.3.009.216-.126a2.527,2.527,0,0,0-.552-.692A1.214,1.214,0,0,0,1.2,4.216c-.16.007-.161.257,0,.25Z" fill="#1d1d1b"/>
    <path d="M1.032,4.442a4.257,4.257,0,0,1,.194.652,1.725,1.725,0,0,0,.279.521,1.764,1.764,0,0,0,.964.633.125.125,0,0,0,.066-.241A1.508,1.508,0,0,1,1.442,4.945a3.073,3.073,0,0,0-.194-.629c-.074-.143-.289-.017-.216.126Z" fill="#1d1d1b"/>
    <path d="M2.744,6.637l-.01.008.1-.013-.014-.006.087.088L2.9,6.7l-.012.1c-.02.032.016,0,.033-.01s.038-.021.057-.033a1.12,1.12,0,0,0,.12-.084,1.293,1.293,0,0,0,.212-.206A1.673,1.673,0,0,0,3.6,5.926,2.568,2.568,0,0,0,3.581,4.5a.125.125,0,0,0-.241.067,2.107,2.107,0,0,1-.072,1.508,1.192,1.192,0,0,1-.432.47c-.085.05-.207.1-.179.22a.141.141,0,0,0,.213.087c.127-.1,0-.314-.126-.216Z" fill="#1d1d1b"/>
    <path d="M2.672,5.75a1.3,1.3,0,0,1,.789-1.108.129.129,0,0,0,.088-.154A.127.127,0,0,0,3.4,4.4a1.391,1.391,0,0,0-.685.528,1.872,1.872,0,0,0-.288.822c-.009.067.064.125.125.125a.128.128,0,0,0,.125-.125Z" fill="#1d1d1b"/>
    <path d="M4.2,7.079a3.985,3.985,0,0,1,.253-1.5.125.125,0,0,0-.241-.067,4.2,4.2,0,0,0-.262,1.568.125.125,0,0,0,.25,0Z" fill="#1d1d1b"/>
    <path d="M4.193,7.16A1.631,1.631,0,0,0,4.345,6.8a1.346,1.346,0,0,1,.168-.318,3.006,3.006,0,0,1,.5-.525.125.125,0,0,0-.177-.177,3.379,3.379,0,0,0-.53.559,1.606,1.606,0,0,0-.182.336,1.941,1.941,0,0,1-.149.362c-.088.135.128.26.216.126Z" fill="#1d1d1b"/>
    <path d="M.089,5.551a.6.6,0,0,1,.281.211,3.733,3.733,0,0,1,.252.323,4.126,4.126,0,0,1,.4.731A.126.126,0,0,0,1.2,6.86a.129.129,0,0,0,.045-.171A4.091,4.091,0,0,0,.8,5.9a3.9,3.9,0,0,0-.279-.348A.758.758,0,0,0,.155,5.31a.125.125,0,0,0-.066.241Z" fill="#1d1d1b"/>
    <path d="M.567,5.013a9.129,9.129,0,0,1,.33.928,2.331,2.331,0,0,1,.174.952c-.019.16.231.158.25,0a2.517,2.517,0,0,0-.183-1.019,9.589,9.589,0,0,0-.355-.987.127.127,0,0,0-.171-.045.128.128,0,0,0-.045.171Z" fill="#1d1d1b"/>
  </g>
</svg>
