<svg xmlns="http://www.w3.org/2000/svg" width="1.709mm" height="2.807mm" viewBox="0 0 4.845 7.956">
  <title>flower1</title>
  <g>
    <path d="M2.386,2.354A31.647,31.647,0,0,1,2.3,7.569c-.016.16.235.159.25,0a31.647,31.647,0,0,0,.088-5.215c-.011-.16-.261-.161-.25,0Z" fill="#1d1d1b"/>
    <path d="M.26,4.767A11.027,11.027,0,0,1,1.7,7.6c.051.151.293.086.241-.067A11.293,11.293,0,0,0,.476,4.641C.384,4.51.167,4.635.26,4.767Z" fill="#1d1d1b"/>
    <path d="M3.511,7.866A5.887,5.887,0,0,1,4.623,5.388c.1-.128-.119-.253-.216-.127A6.05,6.05,0,0,0,3.27,7.8c-.03.157.21.225.241.067Z" fill="#1d1d1b"/>
    <path d="M2.408,1.372a.73.73,0,0,0-.447.291.217.217,0,0,0,.021.293.457.457,0,0,0,.266.092,1.3,1.3,0,0,0,1.017-.32.124.124,0,0,0,.02-.151.676.676,0,0,0-.743-.246c-.152.05-.087.291.067.241a.422.422,0,0,1,.46.131l.019-.152a1.046,1.046,0,0,1-.7.257.927.927,0,0,1-.182-.017c-.007,0-.068-.014-.065-.022s.034.063.013.051l.02-.032a.488.488,0,0,1,.3-.175.126.126,0,0,0,.087-.153.128.128,0,0,0-.154-.088Z" fill="#1d1d1b"/>
    <path d="M1.87,1.829a3.4,3.4,0,0,0-.547.715.989.989,0,0,0-.178.849.448.448,0,0,0,.282.261.485.485,0,0,0,.406-.1,2.246,2.246,0,0,0,.57-.631,2.527,2.527,0,0,0,.346-.892c.028-.158-.213-.225-.241-.067a2.306,2.306,0,0,1-.621,1.212c-.114.115-.358.37-.5.15-.125-.2.043-.471.141-.646a3.085,3.085,0,0,1,.515-.676.125.125,0,0,0-.177-.177Z" fill="#1d1d1b"/>
    <path d="M2.5,2a3.107,3.107,0,0,0,.087,1.056.892.892,0,0,0,.54.687A.556.556,0,0,0,3.792,3.4a1.289,1.289,0,0,0-.074-.938,1.523,1.523,0,0,0-.561-.773c-.135-.089-.26.127-.127.216a1.293,1.293,0,0,1,.47.689c.089.261.209.662-.055.867a.291.291,0,0,1-.346,0,.692.692,0,0,1-.249-.392A2.83,2.83,0,0,1,2.751,2c.014-.16-.236-.159-.25,0Z" fill="#1d1d1b"/>
    <path d="M3.524,2.4a.735.735,0,0,0,.66.126.893.893,0,0,0,.609-.369.576.576,0,0,0-.14-.657,1.238,1.238,0,0,0-.678-.314A1.551,1.551,0,0,0,3.1,1.3a.126.126,0,0,0-.045.171.128.128,0,0,0,.171.045,1.256,1.256,0,0,1,.746-.08.843.843,0,0,1,.583.34.289.289,0,0,1,.014.272.516.516,0,0,1-.267.178.605.605,0,0,1-.6-.005c-.122-.1-.3.073-.177.177Z" fill="#1d1d1b"/>
    <path d="M4.171,1.382c.236-.181.513-.429.461-.759a.621.621,0,0,0-.7-.461,1.814,1.814,0,0,0-.892.41,2.294,2.294,0,0,0-.613.736c-.075.142.141.268.216.126A2.032,2.032,0,0,1,3.73.463c.2-.071.524-.105.636.135s-.165.448-.322.568c-.126.1,0,.313.127.216Z" fill="#1d1d1b"/>
    <path d="M3.3.433A.926.926,0,0,0,2.191.043.791.791,0,0,0,1.609,1c.076.236.291.369.409.577a.125.125,0,0,0,.216-.126,1.518,1.518,0,0,0-.208-.265A.783.783,0,0,1,1.853.938.5.5,0,0,1,1.992.432.753.753,0,0,1,2.581.255c.164.013.406.073.477.244a.129.129,0,0,0,.153.088A.127.127,0,0,0,3.3.433Z" fill="#1d1d1b"/>
    <path d="M1.664.773a1.142,1.142,0,0,0-1.214.4.454.454,0,0,0,.062.582,1.006,1.006,0,0,0,.581.205,2.355,2.355,0,0,0,.844-.067.125.125,0,0,0-.066-.241,2.167,2.167,0,0,1-.765.059C.955,1.7.7,1.666.631,1.5c-.075-.189.17-.357.31-.423A1,1,0,0,1,1.6,1.014c.156.038.223-.2.066-.241Z" fill="#1d1d1b"/>
    <path d="M.571,1.782A.958.958,0,0,0,0,2.56a.367.367,0,0,0,.266.361A1.27,1.27,0,0,0,.844,2.9a1.712,1.712,0,0,0,.589-.248c.134-.089.008-.3-.126-.216a1.531,1.531,0,0,1-.53.223,1.38,1.38,0,0,1-.28.03.8.8,0,0,1-.138-.005A.142.142,0,0,1,.28,2.651.127.127,0,0,1,.255,2.6a.211.211,0,0,1,0-.082.5.5,0,0,1,.06-.172A.956.956,0,0,1,.7,2c.142-.074.016-.29-.126-.215Z" fill="#1d1d1b"/>
  </g>
</svg>
