<svg xmlns="http://www.w3.org/2000/svg" width="1.632mm" height="2.303mm" viewBox="0 0 4.626 6.529">
  <title>flower2</title>
  <g>
    <path d="M1.581.059a2.7,2.7,0,0,0-.394,1.448L1.375,1.4a5.9,5.9,0,0,0-.908-.312C.236,1.029,0,1.082,0,1.365a.862.862,0,0,0,.323.584,1.161,1.161,0,0,0,.687.286L.9,2.047a1.548,1.548,0,0,0-.177.695c0,.169,0,.51.183.6s.421-.166.528-.3a1.409,1.409,0,0,0,.3-.636l-.184.075a2.184,2.184,0,0,0,1.283.45A.127.127,0,0,0,2.955,2.8a1.071,1.071,0,0,0-.77-1.024v.241a1.692,1.692,0,0,0,1-.859A.13.13,0,0,0,3.143.991c-.423-.3-.9-.015-1.253.254l.184.142A1.762,1.762,0,0,0,1.9.175C1.818.034,1.6.16,1.679.3A1.487,1.487,0,0,1,1.833,1.32c-.02.094.089.214.183.141.276-.212.657-.5,1-.254l-.045-.171a1.444,1.444,0,0,1-.852.744.126.126,0,0,0,0,.241.815.815,0,0,1,.586.783l.125-.125a1.962,1.962,0,0,1-1.157-.416.125.125,0,0,0-.183.075,1.226,1.226,0,0,1-.154.414,1.13,1.13,0,0,1-.156.2,1.119,1.119,0,0,1-.155.146,1.026,1.026,0,0,1-.043-.2,1.239,1.239,0,0,1,0-.228,1.253,1.253,0,0,1,.14-.493.127.127,0,0,0-.108-.188.866.866,0,0,1-.744-.538A.2.2,0,0,1,.25,1.365c.013-.074.087-.049.151-.037a2.17,2.17,0,0,1,.251.07,5.75,5.75,0,0,1,.6.217.127.127,0,0,0,.188-.108A2.449,2.449,0,0,1,1.8.186.125.125,0,0,0,1.581.059Z" transform="translate(0)" fill="#1d1d1b"/>
    <path d="M2.013,2.763a2.175,2.175,0,0,1,.354,1.292,6.96,6.96,0,0,1-.042,1.513c-.022.157.219.225.241.066a7.247,7.247,0,0,0,.041-1.691A2.267,2.267,0,0,0,2.19,2.586c-.11-.117-.287.06-.177.177Z" transform="translate(0)" fill="#1d1d1b"/>
    <path d="M2.653,4.589a.893.893,0,0,1,.609-.763L3.1,3.705a2.013,2.013,0,0,1-.619,1.517c-.116.111.061.288.177.176a2.26,2.26,0,0,0,.692-1.693A.126.126,0,0,0,3.2,3.584,1.154,1.154,0,0,0,2.4,4.589c-.013.16.237.16.25,0Z" transform="translate(0)" fill="#1d1d1b"/>
    <path d="M2.538,4.182c.194-.441-.338-.79-.663-.969a.127.127,0,0,0-.184.075,1.12,1.12,0,0,0,.065.968,1.132,1.132,0,0,0,.7.527.125.125,0,0,0,.066-.241.861.861,0,0,1-.591-1.188l-.183.075a2.057,2.057,0,0,1,.413.286c.08.074.214.218.16.341a.129.129,0,0,0,.045.171.126.126,0,0,0,.171-.045Z" transform="translate(0)" fill="#1d1d1b"/>
    <path d="M.924,5.05s-.053.037-.056.023L.9,5.081a.5.5,0,0,1,.061.043A1.734,1.734,0,0,1,1.1,5.25a1.858,1.858,0,0,1,.25.295,1.893,1.893,0,0,1,.3.732.125.125,0,0,0,.154.087.127.127,0,0,0,.087-.153A2.09,2.09,0,0,0,1.485,5.3a2.022,2.022,0,0,0-.346-.352.505.505,0,0,0-.2-.119.194.194,0,0,0-.226.091.129.129,0,0,0,.045.171A.126.126,0,0,0,.924,5.05Z" transform="translate(0)" fill="#1d1d1b"/>
    <path d="M1.718,5.2,1.691,6.409a.125.125,0,0,0,.25,0L1.968,5.2a.125.125,0,0,0-.25,0Z" transform="translate(0)" fill="#1d1d1b"/>
    <path d="M3.58,4.151a1.731,1.731,0,0,1,.078.945.125.125,0,1,0,.241.066,1.976,1.976,0,0,0-.078-1.077A.129.129,0,0,0,3.667,4a.125.125,0,0,0-.087.153Z" transform="translate(0)" fill="#1d1d1b"/>
    <path d="M3.916,5.167a1.2,1.2,0,0,1,.043-.132s.015-.036.006-.016l.013-.029c.01-.021.02-.042.031-.062.021-.039.044-.077.068-.114.013-.019.026-.038.04-.056l.032-.039a1.162,1.162,0,0,1,.09-.1l.051-.047.024-.02.015-.012A1.207,1.207,0,0,1,4.565,4.4a.125.125,0,0,0-.126-.216,1.442,1.442,0,0,0-.765.915.126.126,0,0,0,.242.067Z" transform="translate(0)" fill="#1d1d1b"/>
    <path d="M1.489,1.52a.328.328,0,0,0-.314.312.373.373,0,0,0,.245.349.464.464,0,0,0,.45-.087A.389.389,0,0,0,2,1.908a.333.333,0,0,0-.024-.242A.368.368,0,0,0,1.522,1.5a.128.128,0,0,0-.087.154.126.126,0,0,0,.154.087l.034-.011.018,0s-.031,0-.007,0h.049c.016,0-.024-.007,0,0l.034.01s-.026-.013-.005,0l.011.006.015.01c.015.009-.016-.016,0,0l.009.009.009.009-.007-.009c.005,0,.013.021.015.025.015.027,0-.02,0,.009,0,.009,0,.02.007.029-.009-.019,0-.021,0-.009a.1.1,0,0,0,0,.025s0-.025,0-.013l0,.017s-.009.021,0,.006,0,0,0,0l-.01.016c-.013.023,0,0,0,0s-.026.027-.029.031L1.711,1.9s-.019.015-.005.005,0,0,0,0l-.016.011-.033.018s-.021.012.005,0l-.022.008-.032.009-.018,0c-.025,0,.005,0,.005,0s-.029,0-.037,0H1.537s.026.005.005,0a.3.3,0,0,1-.032-.009l-.016,0s.029.015.008,0l-.028-.017s-.014-.01,0,0,0,0-.006-.006S1.45,1.9,1.444,1.9s.017.025.005.006L1.44,1.892l-.006-.011,0,0h0l0,.008,0-.012-.006-.019c-.005-.018.008,0,0,.009v-.02c0-.006,0-.023,0,0s0-.005,0-.007l.005-.016c0-.017,0,0,0,.007a.155.155,0,0,0,.021-.035s-.016.018-.007.01l.014-.015c.013-.015,0,0-.007,0a.1.1,0,0,0,.017-.011l.014-.007c.013-.007-.025.007,0,0l.016,0s-.033,0,0,0a.126.126,0,0,0,.125-.125.128.128,0,0,0-.125-.125Z" transform="translate(0)" fill="#1d1d1b"/>
  </g>
</svg>
