<svg xmlns="http://www.w3.org/2000/svg" width="2.222mm" height="3.636mm" viewBox="0 0 6.298 10.308">
  <title>glas</title>
  <g>
    <path d="M1.057.583l4-.083a.25.25,0,0,0,0-.5l-4,.083a.25.25,0,0,0,0,.5Z" fill="#1d1d1b"/>
    <path d="M.7.335A6.789,6.789,0,0,0,.026,3.672,2.8,2.8,0,0,0,1.6,5.892a4.018,4.018,0,0,0,2.827.291A2.592,2.592,0,0,0,6.254,4,7.2,7.2,0,0,0,5.461.163C5.33-.131,4.9.123,5.029.415,5.68,1.877,6.563,4.673,4.62,5.581,3.153,6.267.9,5.532.556,3.843A5.785,5.785,0,0,1,1.133.587C1.258.294.828.039.7.335Z" fill="#1d1d1b"/>
    <path d="M2.98,6.185a4.15,4.15,0,0,1-.018.951,8.2,8.2,0,0,0,.056.858,4.1,4.1,0,0,1-.063,1.74c-.1.306.381.437.482.133a4.413,4.413,0,0,0,.081-1.873,7.687,7.687,0,0,1-.056-.923,3.942,3.942,0,0,0,0-1.018c-.074-.313-.557-.181-.482.132Z" fill="#1d1d1b"/>
    <path d="M1.461,10.259q1.82.072,3.642.039a.25.25,0,0,0,0-.5q-1.821.033-3.642-.039c-.322-.013-.321.487,0,.5Z" fill="#1d1d1b"/>
    <path d="M3.452.336a10.528,10.528,0,0,0-.535,2.051c-.032.225.046.324.275.335.382.019.766.018,1.149.026L4.22,2.59,3.487,5.052a.125.125,0,0,0,.241.066l.734-2.461A.128.128,0,0,0,4.341,2.5l-.873-.02a1.465,1.465,0,0,1-.23-.005c-.106-.02-.062.022-.073-.062a1.639,1.639,0,0,1,.079-.426A11.6,11.6,0,0,1,3.693.4C3.747.251,3.506.185,3.452.336Z" fill="#1d1d1b"/>
    <path d="M4.082,3.68l.474.428a.125.125,0,0,0,.176-.177L4.259,3.5a.125.125,0,0,0-.177.176Z" fill="#1d1d1b"/>
    <path d="M3.107,1.52l-.944.494a.125.125,0,1,0,.126.216l.944-.494a.125.125,0,0,0-.126-.216Z" fill="#1d1d1b"/>
  </g>
</svg>
