<svg xmlns="http://www.w3.org/2000/svg" width="12.147mm" height="19.079mm" viewBox="0 0 34.431 54.083">
  <title>greta</title>
  <g>
    <path d="M20.9,33.154a6.8,6.8,0,0,1-.76.69,1.841,1.841,0,0,1-.943.262,2.083,2.083,0,0,1-1.647-.862c-.189-.256-.624-.007-.432.252a2.621,2.621,0,0,0,2.02,1.11,2.37,2.37,0,0,0,1.152-.273,5.921,5.921,0,0,0,.964-.825c.247-.207-.108-.559-.354-.354Z" transform="translate(-0.261)" fill="#1d1d1b"/>
    <path d="M24.134,25.948a5.314,5.314,0,0,0,.309,2.354,3.461,3.461,0,0,1,.218,2.372c-.467,1.512-1.9,2.987-3.6,2.672-.314-.058-.449.423-.132.482a3.814,3.814,0,0,0,4.009-2.478,3.55,3.55,0,0,0,.253-2.445c-.135-.467-.349-.905-.462-1.38a4.805,4.805,0,0,1-.092-1.577c.03-.32-.47-.318-.5,0Z" transform="translate(-0.261)" fill="#1d1d1b"/>
    <path d="M17.4,33.4a2.447,2.447,0,0,1-2.256-.661A4.885,4.885,0,0,1,13.8,30.964a2.967,2.967,0,0,1-.25-2.364c.152-.36.354-.7.49-1.066a3.566,3.566,0,0,0,.205-1.283.25.25,0,0,0-.5,0,3.386,3.386,0,0,1-.383,1.587,4.094,4.094,0,0,0-.464,1.227,4.341,4.341,0,0,0,.614,2.443A5.183,5.183,0,0,0,15.1,33.326a2.732,2.732,0,0,0,2.438.557c.3-.115.168-.6-.133-.482Z" transform="translate(-0.261)" fill="#1d1d1b"/>
    <path d="M13.851,27.229c-.377-.333-1.206-.627-1.444.016a1.239,1.239,0,0,0,.066.832,6.345,6.345,0,0,0,.338.8.25.25,0,0,0,.432-.252A4.926,4.926,0,0,1,13,28.059a1.377,1.377,0,0,1-.136-.579l.009-.044c0-.006.021-.064.011-.039s.016-.028.02-.033c-.028.038.032-.015,0,.007s.009,0,.023-.007.017,0,0,0h.026c.027,0,.053,0,.079,0-.034,0,.014,0,.026,0a1.344,1.344,0,0,1,.142.037l.051.018c.07.026-.028-.018.039.017a1.149,1.149,0,0,1,.214.141.257.257,0,0,0,.354,0,.253.253,0,0,0,0-.354Z" transform="translate(-0.261)" fill="#1d1d1b"/>
    <path d="M24.565,27.571a2.819,2.819,0,0,1,.657-.091.267.267,0,0,1,.04,0c-.018,0-.019,0,0,0a.254.254,0,0,1,.037.01c-.018-.006-.019,0,0,0a.162.162,0,0,1,.041.046c0,.006.034.067.018.028a.448.448,0,0,1,.022.071s.012.078.008.031q0,.038,0,.075c0,.025,0,.05,0,.076,0,.051.007-.021,0,.034s-.02.091-.034.136a1.323,1.323,0,0,1-.048.133c.016-.038-.014.027-.017.034-.011.023-.023.045-.035.068q-.037.067-.081.132c-.014.021-.029.042-.045.062.023-.03-.025.031-.025.03a1.72,1.72,0,0,1-.221.214.252.252,0,0,0,0,.354.255.255,0,0,0,.353,0,1.817,1.817,0,0,0,.486-.608,1.43,1.43,0,0,0,.169-.765.7.7,0,0,0-.525-.653,1.645,1.645,0,0,0-.443.014,4.3,4.3,0,0,0-.48.085.25.25,0,1,0,.133.482Z" transform="translate(-0.261)" fill="#1d1d1b"/>
    <path d="M19.747,29.754c-.042.039-.068.091-.107.132a.6.6,0,0,1-.127.1.556.556,0,0,1-.8-.233c-.074-.143-.29-.017-.216.126a.828.828,0,0,0,.692.44.82.82,0,0,0,.422-.1.855.855,0,0,0,.169-.124c.053-.05.087-.117.14-.166.118-.109-.059-.286-.177-.176Z" transform="translate(-0.261)" fill="#1d1d1b"/>
    <path d="M20.285,31.537a1.738,1.738,0,0,1-1.159.192c-.208-.026-.415-.067-.62-.111a1.364,1.364,0,0,1-.518-.2c-.131-.092-.256.124-.126.216a1.547,1.547,0,0,0,.578.227c.226.049.455.092.686.12a1.945,1.945,0,0,0,1.285-.226c.136-.086.011-.3-.126-.216Z" transform="translate(-0.261)" fill="#1d1d1b"/>
    <path d="M20.258,31.5a3.687,3.687,0,0,0,.222.372.132.132,0,0,0,.074.057.125.125,0,0,0,.142-.183,3.51,3.51,0,0,1-.222-.372.125.125,0,0,0-.171-.045.127.127,0,0,0-.045.171Z" transform="translate(-0.261)" fill="#1d1d1b"/>
    <path d="M17.905,31.306l-.273.254a.126.126,0,0,0-.037.088.125.125,0,0,0,.213.089l.274-.255a.123.123,0,0,0,0-.176.128.128,0,0,0-.177,0Z" transform="translate(-0.261)" fill="#1d1d1b"/>
    <path d="M19.479,32.449a.906.906,0,0,0-.759-.013.125.125,0,1,0,.067.241c.057-.013.115-.029.172-.043.029-.007.058-.014.087-.019l.025,0c.014,0,.017,0,.009,0h.009l.021,0a.642.642,0,0,1,.076,0l.032,0c-.031,0,.014,0,.02,0l.031.008c.005,0,.047.017.02.005a.372.372,0,0,1,.064.038.125.125,0,0,0,.171-.045.128.128,0,0,0-.045-.171Z" transform="translate(-0.261)" fill="#1d1d1b"/>
    <path d="M21.608,27.588a.173.173,0,0,1,.075.051.276.276,0,0,1,.048.081.472.472,0,0,1,0,.276.565.565,0,0,1-.042.122.2.2,0,0,1-.094.069.585.585,0,0,1-.266.06.368.368,0,0,1-.228-.675.555.555,0,0,1,.233-.1.329.329,0,0,1,.115,0l.033.01c-.013-.005.01.006.013.008a.115.115,0,0,1,.03.023.129.129,0,0,0,.171.045.126.126,0,0,0,.045-.171.528.528,0,0,0-.7-.073.671.671,0,0,0-.342.693.629.629,0,0,0,.551.485.8.8,0,0,0,.394-.054.676.676,0,0,0,.191-.106.412.412,0,0,0,.112-.188.763.763,0,0,0,.028-.49.476.476,0,0,0-.3-.306.125.125,0,1,0-.066.241Z" transform="translate(-0.261)" fill="#1d1d1b"/>
    <path d="M17.1,27.57a.554.554,0,0,1,.238.113.267.267,0,0,1,.064.083c.017.031,0-.018.007.016l.007.023.008.03,0,.019c0-.013,0-.012,0,0s0,.042,0,.063l0,.025c0-.022,0,0,0,.01a.547.547,0,0,1-.013.055.362.362,0,0,1-.013.035c.008-.019-.008.014-.009.016a.584.584,0,0,1-.033.053c.011-.015,0,0,0,0l-.027.027a.146.146,0,0,1-.032.026.554.554,0,0,1-.062.036.434.434,0,0,1-.229.032c-.024,0,.028.006-.013,0l-.026,0c-.021,0-.043-.012-.064-.019-.036-.013.016.009-.019-.009l-.024-.012-.029-.018s-.035-.023-.025-.016a.391.391,0,0,1-.139-.185.367.367,0,0,1,.008-.258.318.318,0,0,1,.038-.064l0,0,.03-.032a.33.33,0,0,1,.1-.068l0,0,.041-.013.03-.007c.033-.007-.019,0,.015,0a.217.217,0,0,1,.036,0s.04,0,.015,0a.438.438,0,0,1,.071.019.126.126,0,0,0,.154-.087.128.128,0,0,0-.087-.154.563.563,0,0,0-.63.225.61.61,0,0,0,.072.755.685.685,0,0,0,.688.184.591.591,0,0,0,.425-.544.545.545,0,0,0-.129-.377.739.739,0,0,0-.384-.214.128.128,0,0,0-.154.087.127.127,0,0,0,.088.154Z" transform="translate(-0.261)" fill="#1d1d1b"/>
    <path d="M22,26.748a.265.265,0,0,1-.1-.058c-.046-.039-.093-.078-.141-.114a.742.742,0,0,0-.3-.172.4.4,0,0,0-.308.116,1.865,1.865,0,0,1-.289.177.126.126,0,0,0-.045.171.128.128,0,0,0,.171.044,1.743,1.743,0,0,0,.26-.154c.043-.031.129-.124.18-.105a.576.576,0,0,1,.126.081c.039.027.077.056.114.086a.742.742,0,0,0,.263.169A.125.125,0,0,0,22,26.748Z" transform="translate(-0.261)" fill="#1d1d1b"/>
    <path d="M17.739,26.723c-.106-.083-.215-.165-.326-.243s-.226-.186-.368-.138a1.713,1.713,0,0,0-.637.353c-.117.112.06.288.177.177a1.478,1.478,0,0,1,.493-.276l.033-.013c.021,0,.022-.007,0-.006a.34.34,0,0,1,.059.04l.124.085c.09.064.179.13.266.2a.129.129,0,0,0,.177,0,.125.125,0,0,0,0-.177Z" transform="translate(-0.261)" fill="#1d1d1b"/>
    <path d="M17.326,28.333a.378.378,0,0,0,.081-.158.405.405,0,0,0,0-.18.369.369,0,0,0-.2-.247.382.382,0,0,0-.176-.04.535.535,0,0,0-.2.05.328.328,0,0,0-.194.234.34.34,0,0,0,.1.322.136.136,0,0,0,.088.036.125.125,0,0,0,.088-.213.272.272,0,0,0-.024-.024c.025.021.013.018.006.007l-.01-.017c-.013-.022.007.021,0,.009l-.006-.016c0-.012-.006-.024-.008-.036l.005.033a.271.271,0,0,1,0-.057l0,.033a.191.191,0,0,1,.006-.033l.006-.016s-.016.033,0,.009l.009-.015s.013-.019,0,0,0,0,0,0L16.914,28c.01-.01-.024.015-.005,0l.019-.012.02-.01c.024-.012-.028.01,0,0a.392.392,0,0,1,.095-.025l-.033,0a.318.318,0,0,1,.069,0l-.033,0,.038.008.016.006c.014.005-.027-.014-.009,0a.233.233,0,0,1,.034.02c.018.011-.018-.016-.007-.006l.015.013.011.012c.01.01.01.02,0,0,0,.011.013.02.019.031l.007.015c-.016-.026-.007-.017,0,0a.274.274,0,0,1,.009.039l0-.033a.309.309,0,0,1,0,.068l0-.034a.444.444,0,0,1-.015.063c0,.014.012-.025,0-.012l-.008.015c-.005.01-.027.04,0,.008a.139.139,0,0,0-.036.089.125.125,0,0,0,.213.088Z" transform="translate(-0.261)" fill="#1d1d1b"/>
    <path d="M21.6,28.36c.03-.049.061-.1.09-.148a.379.379,0,0,0,.064-.191.413.413,0,0,0-.211-.311.384.384,0,0,0-.157-.067.349.349,0,0,0-.2.029.4.4,0,0,0-.21.257.627.627,0,0,0,.059.425.125.125,0,0,0,.171.045.128.128,0,0,0,.044-.171l-.007-.017,0,.008-.011-.031a.383.383,0,0,1-.018-.064l-.007-.033c0-.014,0,.01,0,.01l0-.018c0-.011,0-.022,0-.033l0-.033s0,.025,0,.006l0-.014.008-.03.005-.014s-.011.023-.005.012l.016-.028.006-.009c0-.009.013-.01-.006.006a.137.137,0,0,0,.016-.018l.02-.018c.008-.01-.01.007-.011.007l.016-.011.023-.013c.019-.011-.023.007,0,0l.026-.007c.015,0-.028,0-.011,0h.015a.075.075,0,0,0,.015,0c.013,0-.012,0-.013,0a.146.146,0,0,0,.03.007l.012,0s-.027-.014-.006,0l.027.015.025.017c.012.008,0,.009,0,0l.011.008c.016.014.033.028.048.043l.018.019.011.013s-.014-.021-.007-.008l.014.025s-.007-.025,0-.011,0,0,0,0v.014c0,.027,0,0,0,0l0,.013,0,.008c0,.009,0,.006,0-.008l-.033.061c-.029.047-.058.094-.086.141a.125.125,0,1,0,.216.126Z" transform="translate(-0.261)" fill="#1d1d1b"/>
    <path d="M18.981.173A76.156,76.156,0,0,1,8.561,20.635a.253.253,0,0,0,.039.3c.351.392.849.179,1.212-.093.8-.6,1.552-1.288,2.322-1.928l-.417-.111.594,2.574a.252.252,0,0,0,.418.111,21.988,21.988,0,0,1,1.736-1.907c.29-.251.223-.145.418.113a.639.639,0,0,0,.38.269.248.248,0,0,0,.243-.065l.637-.815c.2-.251-.155-.607-.353-.354l-.638.816.244-.064c-.208-.052-.261-.451-.453-.569a.482.482,0,0,0-.53.011,5.239,5.239,0,0,0-.933,1l-1.105,1.213.418.11L12.2,18.673a.253.253,0,0,0-.418-.11c-.322.267-2.532,2.351-2.828,2.022l.04.3A76.62,76.62,0,0,0,19.463.306c.1-.306-.381-.438-.482-.133Z" transform="translate(-0.261)" fill="#1d1d1b"/>
    <path d="M19.044.308a100.212,100.212,0,0,0,3.968,10.434,26.868,26.868,0,0,0,2.876,4.729c1.077,1.4,2.658,2.773,2.665,4.673l.317-.241q-1.3-.428-2.6-.875a.253.253,0,0,0-.316.241c-.036.288-.07.577-.109.865-.081.6-.436.228-.749-.015-.485-.378-.952-.781-1.412-1.188-.24-.213-.595.139-.354.353.461.408.93.806,1.413,1.188.265.21.582.538.946.546.8.018.7-1.216.765-1.749l-.316.241q1.293.447,2.594.875a.251.251,0,0,0,.316-.241c-.006-1.677-1.113-2.962-2.131-4.184a25.953,25.953,0,0,1-3.2-4.907A89.952,89.952,0,0,1,19.526.175c-.107-.3-.59-.171-.482.133Z" transform="translate(-0.261)" fill="#1d1d1b"/>
    <path d="M11.047,19.183a53.639,53.639,0,0,1-1.79,7,20.764,20.764,0,0,1-1.483,3.311c-.6,1.063-1.337,2.044-1.847,3.159a.252.252,0,0,0,.342.342L8.61,31.748c.229-.122.367-.253.637-.179s.265.16.374.4c.193.431.381.864.572,1.3a.251.251,0,0,0,.392.05c.216-.19.546-.613.815-.72.508-.2.807.458,1.046.777a.263.263,0,0,0,.283.115,1.146,1.146,0,0,0,.766-.565.25.25,0,0,0-.432-.253.571.571,0,0,1-.467.336l.282.115c-.256-.341-.659-1.205-1.153-1.248-.517-.045-1.154.79-1.493,1.09l.392.05a15.744,15.744,0,0,0-.734-1.652.714.714,0,0,0-.721-.42,4.636,4.636,0,0,0-1.343.655l-1.809.961.342.342c.51-1.114,1.246-2.1,1.846-3.159a21.358,21.358,0,0,0,1.461-3.225,52.168,52.168,0,0,0,1.863-7.2c.066-.314-.416-.448-.482-.132Z" transform="translate(-0.261)" fill="#1d1d1b"/>
    <path d="M26.065,19.513a23.4,23.4,0,0,0,1.954,6.51c.488,1.1,1.024,2.171,1.567,3.242l.408.8.2.4q.072.357-.243.153a3.45,3.45,0,0,1-.886-.243l-.887-.244a.252.252,0,0,0-.316.241c0,.315.125,1.624-.127,1.76-.268.144-1.229-.367-1.526-.471s-.435.375-.133.482c.445.156.889.33,1.339.471a.753.753,0,0,0,.673.014.683.683,0,0,0,.232-.532,15.727,15.727,0,0,0,.042-1.724l-.317.241a21.3,21.3,0,0,0,2.061.562c.258.043.572.026.688-.256.159-.388-.316-1-.474-1.307-.324-.635-.647-1.27-.962-1.909a26.355,26.355,0,0,1-2.8-8.191c-.04-.315-.541-.319-.5,0Z" transform="translate(-0.261)" fill="#1d1d1b"/>
    <path d="M11.84,25.393l.733.866c.143.169.289.408.526.451.458.085.769-.525.931-.854.139-.281.294-.7.631-.794.281-.08.553.2.848.18a1.219,1.219,0,0,0,.944-.815,5.329,5.329,0,0,0,.2-.746c.032-.126.078-.44.2-.508-.029-.08-.026-.091.008-.032a.952.952,0,0,0,.065.088c.375.251.7.057.952-.28.874-1.178,1.673-2.422,2.507-3.629.184-.266-.25-.516-.431-.253L17.8,22.178c-.076.111-.39.692-.537.674-.009,0-.117-.159-.151-.182a.355.355,0,0,0-.177-.073c-.4-.056-.621.468-.716.771-.13.416-.17,1.346-.766,1.363-.237.006-.438-.192-.691-.188a.969.969,0,0,0-.53.189,3.131,3.131,0,0,0-.777,1.145c-.243.406-.32.276-.582-.033l-.68-.8c-.208-.246-.56.109-.354.353Z" transform="translate(-0.261)" fill="#1d1d1b"/>
    <path d="M18.758,21.22a16.168,16.168,0,0,1,1.973,3.235.252.252,0,0,0,.431,0l.264-.4a1.851,1.851,0,0,1,.2-.3c-.157.03.172.282.2.3.1.093.206.19.3.288a8.588,8.588,0,0,1,1.094,1.342.251.251,0,0,0,.457-.193.429.429,0,0,1,.134-.386h-.354l2,2.265a.256.256,0,0,0,.354,0,.869.869,0,0,0,.3-.444c.1-.306-.381-.437-.482-.133a.366.366,0,0,1-.172.223H25.8l-2-2.265a.254.254,0,0,0-.354,0,.963.963,0,0,0-.262.873l.457-.192a9.093,9.093,0,0,0-1.567-1.812c-.2-.173-.457-.451-.739-.279-.265.161-.446.608-.612.863h.431a16.6,16.6,0,0,0-2.05-3.336c-.2-.253-.551.1-.354.353Z" transform="translate(-0.261)" fill="#1d1d1b"/>
    <path d="M7.905,31.509,3.539,40.418a.253.253,0,0,0,.282.367,6.877,6.877,0,0,0,2.9-1.753l-.393-.051.7,1.533c.119.261.244.757.624.72.321-.03.337-.376.539-.545.582-.484.944.63,1.035,1a.251.251,0,0,0,.367.149,11.472,11.472,0,0,0,1.957-1.8c.209-.243-.143-.6-.353-.354a10.885,10.885,0,0,1-1.856,1.72l.367.15c-.174-.71-.6-1.669-1.518-1.418a.783.783,0,0,0-.388.243,2.091,2.091,0,0,0-.129.193c-.084.12.031.183-.049.049a19.364,19.364,0,0,1-.861-1.894.252.252,0,0,0-.393-.051A6.342,6.342,0,0,1,3.688,40.3l.282.367,4.367-8.908c.141-.288-.29-.542-.432-.253Z" transform="translate(-0.261)" fill="#1d1d1b"/>
    <path d="M27.948,31.076c-.5.414-.091,1.08.138,1.521l1.4,2.684,2.841,5.461.283-.367a17.258,17.258,0,0,0-2.115-.737c-.444-.092-.639.175-.757.573a3.155,3.155,0,0,1-.3.966c-.3.436-.843.134-1.206-.1A6.025,6.025,0,0,1,26.7,39.661c-.2-.253-.549.1-.354.354a6.468,6.468,0,0,0,1.5,1.406c.457.308,1.067.72,1.624.419s.6-.959.755-1.5c.078-.267.136-.212.392-.14.188.052.376.132.559.2l1.3.457c.218.077.376-.187.282-.367L30.4,35.955,29.24,33.733l-.578-1.11c-.11-.212-.647-.955-.361-1.193.248-.206-.107-.558-.353-.354Z" transform="translate(-0.261)" fill="#1d1d1b"/>
    <path d="M5.276,39.519A47.413,47.413,0,0,1,.3,49.872a.253.253,0,0,0,.283.367c.382-.09,1.831-.654,2.068-.228a2.985,2.985,0,0,1,.077.913l.1,1.142a.254.254,0,0,0,.427.177q2.093-1.71,4.013-3.614l-.418-.11c.429,1.333-.531,2.649-.357,4.009a.254.254,0,0,0,.376.216l1.076-.552c.181-.093.891-.606,1.075-.552s.108.279.207.429a.62.62,0,0,0,.4.252,1.087,1.087,0,0,0,.987-.377c.222-.237.33-.521.668-.608.486-.124.729.38.92.764a.251.251,0,0,0,.392.051l1.2-1.315h-.354a12.727,12.727,0,0,1,1.49,1.632.256.256,0,0,0,.393.051,16.112,16.112,0,0,1,1.289-1.15c.432-.31.255.142.594.3a.509.509,0,0,0,.561-.124,11.017,11.017,0,0,0,1.185-1.273c.218-.236-.135-.591-.354-.354-.164.178-.986,1.288-1.2,1.244-.081-.016-.214-.41-.367-.473-.232-.1-.407.024-.587.159-.519.391-.988.881-1.473,1.314l.393.051a13.491,13.491,0,0,0-1.568-1.733.254.254,0,0,0-.354,0l-1.2,1.314.393.051c-.236-.475-.59-1.047-1.179-1.091-.653-.049-.831.539-1.245.892-.126.174-.266.2-.418.09-.156,0-.218-.08-.185-.225-.056-.1-.016-.141-.106-.251a.465.465,0,0,0-.4-.16,2.749,2.749,0,0,0-.977.436l-1.505.773.376.216c-.181-1.414.793-2.732.339-4.142a.252.252,0,0,0-.417-.111q-1.92,1.9-4.014,3.614l.427.177-.135-1.6c-.027-.317.01-.759-.237-1.005-.232-.23-.514-.167-.807-.106-.568.119-1.131.267-1.7.4l.282.367A47.908,47.908,0,0,0,5.758,39.652a.25.25,0,0,0-.482-.133Z" transform="translate(-0.261)" fill="#1d1d1b"/>
    <path d="M17.37,47.971,19.682,51.4a.253.253,0,0,0,.431,0c.076-.138.307-.753.443-.8.233-.088.379.173.553.332l1.27,1.164a.253.253,0,0,0,.418-.111,5.073,5.073,0,0,1,.272-.869c.189-.344.273-.38.626-.089.42.346.833.7,1.249,1.052.355.3.98,1.036,1.456.507a2.789,2.789,0,0,0,.386-1.095c.051-.18.127-.835.267-.945.31-.245.638-.034.9.125l2.87,1.7a.253.253,0,0,0,.376-.216,5.993,5.993,0,0,1,0-1.46c.074-.26.067-.3.382-.182a5.026,5.026,0,0,1,.576.34,11.388,11.388,0,0,0,2.217.918.253.253,0,0,0,.283-.367,64.685,64.685,0,0,1-4.532-10.21c-.1-.3-.587-.173-.482.133a65.466,65.466,0,0,0,4.582,10.33l.282-.368a10.775,10.775,0,0,1-1.9-.762c-.379-.2-.916-.721-1.375-.668-.847.1-.531,1.774-.531,2.3l.376-.216L29.338,50.9a17.424,17.424,0,0,0-1.7-1c-1.01-.451-1.141.751-1.337,1.447-.054.189-.132.855-.394.876-.149.012-.66-.549-.791-.659-.45-.379-.887-.811-1.372-1.145-1.012-.7-1.216.733-1.432,1.422l.418-.11-1.1-1.008a3.21,3.21,0,0,0-.822-.7c-.619-.242-.92.742-1.127,1.119h.431L17.8,47.719c-.179-.265-.613-.015-.432.252Z" transform="translate(-0.261)" fill="#1d1d1b"/>
    <path d="M11.734,51.224a2.045,2.045,0,0,0-.258,2.226,1.749,1.749,0,0,0,2.014.542A6.8,6.8,0,0,0,17.4,51.4c.192-.258-.242-.508-.432-.252a6.275,6.275,0,0,1-3.1,2.22c-.541.174-1.392.444-1.852-.033-.519-.538-.211-1.334.149-1.859.182-.267-.251-.517-.432-.253Z" transform="translate(-0.261)" fill="#1d1d1b"/>
    <path d="M22.505,52.078a2.732,2.732,0,0,1,1.034.563,6.481,6.481,0,0,0,1.007.592,3.59,3.59,0,0,0,2.144.33,2.28,2.28,0,0,0,1.609-1.09,1.9,1.9,0,0,0,.058-1.792c-.147-.286-.579-.034-.432.253a1.425,1.425,0,0,1-.212,1.518,2.027,2.027,0,0,1-1.606.663,3.683,3.683,0,0,1-1.825-.587,5.432,5.432,0,0,0-1.644-.932c-.315-.059-.45.423-.133.482Z" transform="translate(-0.261)" fill="#1d1d1b"/>
    <path d="M16.537,23.938a7.945,7.945,0,0,0,3.847-.513c.148-.059.084-.3-.066-.241a7.8,7.8,0,0,1-3.781.5c-.16-.019-.158.231,0,.25Z" transform="translate(-0.261)" fill="#1d1d1b"/>
    <path d="M6.172,43.9a12.436,12.436,0,0,1-.431,2.009c-.092.3-.2.594-.308.891a.8.8,0,0,0-.013.678c.268.473.748.111,1.038-.133.068-.056.1-.117.194-.107.111.011.114.1.147.193a4.429,4.429,0,0,1,.128.454,5.334,5.334,0,0,1,.132,1.09.125.125,0,0,0,.25,0,4.638,4.638,0,0,0-.326-1.765.38.38,0,0,0-.368-.272.408.408,0,0,0-.206.117A3.553,3.553,0,0,1,6,47.375c-.245.157-.428-.007-.39-.274a2.253,2.253,0,0,1,.147-.452q.165-.447.294-.9A12.912,12.912,0,0,0,6.422,43.9c.021-.16-.229-.158-.25,0Z" transform="translate(-0.261)" fill="#1d1d1b"/>
    <path d="M25.055,46.494l0-.011L24.9,46.4q.3.709.572,1.427c.1.251.254.808.64.6.126-.068.285-.361.426-.165a.921.921,0,0,1,.1.332c.026.119.056.237.09.353a5.229,5.229,0,0,0,.564,1.264c.084.137.3.011.216-.126a4.98,4.98,0,0,1-.566-1.3c-.079-.29-.1-.861-.527-.849a.5.5,0,0,0-.326.192c-.1.1-.163.1-.238-.027a2.549,2.549,0,0,1-.133-.34q-.276-.718-.572-1.427a.129.129,0,0,0-.154-.088.234.234,0,0,0-.181.252c.013.16.263.161.25,0Z" transform="translate(-0.261)" fill="#1d1d1b"/>
    <path d="M19.992,14.222a15.079,15.079,0,0,0,.743,1.991c.049.107.2.06.229-.03l.105-.285c.017-.046.039-.094.052-.142a.125.125,0,0,0,.017-.092l.036.017c.037.007.083.058.115.081l.128.092.278.2c.348.251.7.5,1.044.756.131.1.256-.122.127-.216q-.661-.479-1.323-.955c-.132-.095-.349-.315-.528-.191a.571.571,0,0,0-.152.289l-.141.379.229-.03a14.438,14.438,0,0,1-.717-1.931.126.126,0,0,0-.242.067Z" transform="translate(-0.261)" fill="#1d1d1b"/>
    <path d="M18.974,40.334q.627.954,1.179,1.951a.128.128,0,0,0,.141.058.346.346,0,0,0,.232-.2,1.058,1.058,0,0,0,.058-.154c.02-.065.055-.2.136-.12a1.057,1.057,0,0,1,.128.207l.143.23q.135.219.271.438c.056.09.115.186.23.2a.241.241,0,0,0,.241-.161,4.868,4.868,0,0,0,.3-.971c.037-.156-.2-.223-.241-.066a6.138,6.138,0,0,1-.269.9c-.009.022-.041.06-.01.054s-.022-.065-.033-.081l-.114-.185-.256-.414c-.106-.171-.239-.519-.5-.434a.418.418,0,0,0-.228.235c-.038.084-.048.258-.152.283l.141.057q-.552-1-1.178-1.951c-.088-.134-.3-.009-.216.126Z" transform="translate(-0.261)" fill="#1d1d1b"/>
    <path d="M13.939,32.341c-.049,2.022.271,4.034.178,6.056-.015.322.485.321.5,0,.093-2.022-.227-4.034-.178-6.056a.25.25,0,0,0-.5,0Z" transform="translate(-0.261)" fill="#1d1d1b"/>
    <path d="M23.935,32.079a7.81,7.81,0,0,0-.161,1.455l-.092,1.6-.183,3.2c-.019.322.481.321.5,0l.176-3.073.085-1.475a8.49,8.49,0,0,1,.157-1.568.25.25,0,0,0-.482-.133Z" transform="translate(-0.261)" fill="#1d1d1b"/>
    <path d="M14.254,39.428q-.014.311-.046.619l-.018.158-.009.072c.005-.044,0,.02,0,.03-.014.1-.031.209-.049.313a.257.257,0,0,0,.175.308.253.253,0,0,0,.307-.175,10.344,10.344,0,0,0,.145-1.325.251.251,0,0,0-.25-.25.255.255,0,0,0-.25.25Z" transform="translate(-0.261)" fill="#1d1d1b"/>
    <path d="M14.967,33.36a43.023,43.023,0,0,1-.825,4.916c-.071.314.411.447.482.133a44.2,44.2,0,0,0,.843-5.049c.034-.319-.466-.317-.5,0Z" transform="translate(-0.261)" fill="#1d1d1b"/>
    <path d="M23.021,33.117q.2,2.605.391,5.21c.024.319.524.322.5,0q-.2-2.605-.391-5.21c-.024-.319-.524-.322-.5,0Z" transform="translate(-0.261)" fill="#1d1d1b"/>
    <path d="M23.617,39.517l-.1,1.595a.251.251,0,0,0,.25.25.255.255,0,0,0,.25-.25l.1-1.595a.253.253,0,0,0-.25-.25.256.256,0,0,0-.25.25Z" transform="translate(-0.261)" fill="#1d1d1b"/>
    <path d="M14.377,38.63a.733.733,0,0,1,.1.057c.023.014-.019-.014-.019-.015a.171.171,0,0,0,.024.021c.017.016.032.034.048.052s-.015-.019-.015-.019a.135.135,0,0,0,.018.026c.011.018.021.036.031.055s.014.033,0,0,0,0,0,.007.013.046.018.069.006.049,0,.012,0,0,0,.012,0,.042,0,.063l0,.037s.009-.049,0-.021-.011.053-.019.08l-.011.034c0,.007-.015.034,0,0s-.011.022-.015.029-.022.036-.033.054-.019.005.01-.013a.114.114,0,0,0-.02.023l-.023.021c-.025.026,0-.016.015-.01l-.047.027c-.027.016.049-.013.017-.007l-.024.007c-.05.014.016-.005.014,0s-.039,0-.043,0c-.034,0,.047.011.014,0l-.026,0a.6.6,0,0,0-.069-.022s.044.021.019.008l-.033-.016c-.023-.012-.046-.026-.069-.041-.008,0-.061-.042-.03-.02s0,0,0,0l-.025-.023c-.012-.011-.032-.043-.047-.049,0,0,.027.04.014.017s-.016-.024-.023-.036a.14.14,0,0,0-.015-.03s.015.047.01.022a.28.28,0,0,0-.009-.031c0-.011-.006-.046,0-.007s0-.02,0-.032,0-.022,0-.033c0-.036,0,.009,0,.018a.323.323,0,0,0,.02-.071c.009-.032-.024.042-.006.015l.021-.036c0-.006.021-.029,0,0s.005,0,.011-.01l.023-.022c.031-.031-.032.019-.007.005l.055-.031c.029-.016-.047.016-.015.007l.037-.011a.141.141,0,0,0,.031-.007c-.009,0-.055,0-.019,0a.7.7,0,0,1,.079,0,.252.252,0,0,0,.177-.073.25.25,0,0,0-.177-.427.674.674,0,0,0-.682.429.687.687,0,0,0,.207.77.753.753,0,0,0,.844.162.828.828,0,0,0,.378-.726.814.814,0,0,0-.461-.735.281.281,0,0,0-.193-.025.251.251,0,0,0-.06.457Z" transform="translate(-0.261)" fill="#1d1d1b"/>
    <path d="M23.741,38.6c.021.005.041.01.062.017l.03.011c.041.014-.011,0-.015-.007a.289.289,0,0,0,.058.03c.023.014.044.033.067.045-.006,0-.043-.037-.013-.009l.018.016c.016.015.031.03.045.046.04.046-.025-.038.008.012.013.02.024.04.035.061.02.037-.007-.012-.007-.018a.132.132,0,0,0,.01.03l.008.029c.012.039,0-.014,0-.021,0,.02,0,.041,0,.062l0,.032c0-.033,0-.04,0-.021l-.007.028c0,.013-.012.063-.024.071s.026-.055,0-.008L24,39.041a.362.362,0,0,1-.072.114c.031-.021.024-.029.008-.012l-.023.025c-.006.006-.04.046-.048.044s.044-.029.011-.01l-.028.017c-.033.022.007,0,.016-.005a.411.411,0,0,0-.046.015c-.027.008-.006.013.013,0a.15.15,0,0,1-.036,0l-.037,0c0-.005.059.014.011,0a.424.424,0,0,1-.071-.022s.055.029.009,0l-.04-.022-.028-.019c-.028-.016.036.031.011.009s-.03-.025-.044-.039-.045-.039-.045-.049c0,.008.028.04.009.01a.494.494,0,0,1-.027-.042.377.377,0,0,0-.031-.06c0,.005.019.055.006.013l-.011-.031c0-.013-.007-.061-.016-.069s0,.061,0,.013c0-.015,0-.03,0-.045s0-.024,0-.036c0-.047.01-.009,0,0a.373.373,0,0,0,.022-.086c.01-.032-.007-.007,0,.01,0-.01.017-.032.021-.04l.019-.028c.015-.025-.041.041,0,.005l.023-.024c.009-.008.045-.028.013-.012s0,0,.009,0,.024-.014.036-.021c.038-.022-.008.006-.014.006a.318.318,0,0,0,.047-.015c.037-.011-.011.012-.018,0l.05,0a.25.25,0,0,0,0-.5.706.706,0,0,0-.679.56.868.868,0,0,0,.279.829.812.812,0,0,0,.468.2.644.644,0,0,0,.46-.163.893.893,0,0,0,.31-.824.872.872,0,0,0-.656-.62.25.25,0,1,0-.133.482Z" transform="translate(-0.261)" fill="#1d1d1b"/>
  </g>
</svg>
