<svg xmlns="http://www.w3.org/2000/svg" width="8.354mm" height="10.767mm" viewBox="0 0 23.682 30.521">
  <title>healthpoints</title>
  <g>
    <path d="M11.7,5.428l.351-.313c.1-.2.2-.209.305-.039a2.092,2.092,0,0,1,.587.559,4.308,4.308,0,0,1,.84,1.6,10.279,10.279,0,0,1,.25,3.462,20.014,20.014,0,0,1-.215,3.576,3.641,3.641,0,0,1-.7,1.6,4.41,4.41,0,0,1-1.3.889c-.284.151-.032.583.253.432a4.568,4.568,0,0,0,1.518-1.107,4.184,4.184,0,0,0,.69-1.578,8.558,8.558,0,0,0,.188-2.063c.009-.854.083-1.706.1-2.559a7.432,7.432,0,0,0-.779-3.917A4.117,4.117,0,0,0,12.5,4.552c-.474-.29-.821.225-1.153.523-.241.215.114.567.353.353Z" transform="translate(-0.295 -0.007)" fill="#1d1d1b"/>
    <path d="M11.366,4.982a6.05,6.05,0,0,0-1.43,2.732,32.89,32.89,0,0,0-.22,3.653A7.869,7.869,0,0,0,9.9,15.051a3.723,3.723,0,0,0,1.85,2.093c.289.139.543-.292.252-.431-2.186-1.048-1.944-3.548-1.759-5.566.1-1.032-.044-2.1.143-3.117A5.526,5.526,0,0,1,11.72,5.335c.214-.239-.138-.594-.354-.353Z" transform="translate(-0.295 -0.007)" fill="#1d1d1b"/>
    <path d="M11.6,5.378a1.347,1.347,0,0,1,.272.176c.092.078.181.219.32.158a.349.349,0,0,0,.121-.114,1.033,1.033,0,0,1,.111-.118,1.064,1.064,0,0,1,.255-.171.127.127,0,0,0,.045-.171.13.13,0,0,0-.172-.045,1.314,1.314,0,0,0-.252.164,1.679,1.679,0,0,0-.212.226c-.012.014,0-.008-.006.006-.018.033.117.041.084,0a.418.418,0,0,0-.051-.052,1.413,1.413,0,0,0-.117-.1,1.551,1.551,0,0,0-.272-.174.125.125,0,1,0-.126.216Z" transform="translate(-0.295 -0.007)" fill="#1d1d1b"/>
    <path d="M11.33,6.462a4.557,4.557,0,0,1,.4-.423q.1-.095.21-.183a1.1,1.1,0,0,1,.225-.166l-.064.017h0l-.055-.032a.949.949,0,0,1,.141.18c.05.07.1.141.141.214a4.041,4.041,0,0,1,.238.451.125.125,0,0,0,.171.045.129.129,0,0,0,.045-.171,3.944,3.944,0,0,0-.293-.538c-.055-.086-.114-.169-.177-.25s-.133-.181-.256-.138a.96.96,0,0,0-.24.172c-.08.063-.157.128-.232.2a4.521,4.521,0,0,0-.427.448.129.129,0,0,0,0,.177.127.127,0,0,0,.177,0Z" transform="translate(-0.295 -0.007)" fill="#1d1d1b"/>
    <path d="M10.6,7.251a3.415,3.415,0,0,1,.382-.457c.068-.069.138-.134.211-.2.01-.009.04-.042.055-.044-.015,0,.015.014.019.018a1.106,1.106,0,0,1,.095.085,1.719,1.719,0,0,1,.484.9c.031.158.272.091.241-.066A1.921,1.921,0,0,0,11.451,6.4a.275.275,0,0,0-.332-.065,1.526,1.526,0,0,0-.269.233,3.858,3.858,0,0,0-.468.553c-.093.132.124.257.216.127Z" transform="translate(-0.295 -0.007)" fill="#1d1d1b"/>
    <path d="M12.079,7.536a2.653,2.653,0,0,1,.3-.526,2.35,2.35,0,0,1,.193-.23c.071-.074.126-.132.233-.088a.911.911,0,0,1,.366.372l.4.6c.09.133.306.008.216-.126-.152-.226-.3-.455-.456-.678a.947.947,0,0,0-.515-.426c-.264-.061-.44.17-.585.354a2.753,2.753,0,0,0-.371.621.13.13,0,0,0,.045.171.126.126,0,0,0,.171-.045Z" transform="translate(-0.295 -0.007)" fill="#1d1d1b"/>
    <path d="M13.841,7.623l.01-.024-.013.03a.554.554,0,0,1,.076-.129l-.02.025A.591.591,0,0,1,14,7.419l-.025.02.013-.011a.129.129,0,0,0,.058-.074.132.132,0,0,0-.013-.1.128.128,0,0,0-.074-.057.122.122,0,0,0-.1.013.907.907,0,0,0-.09.074.7.7,0,0,0-.075.088.717.717,0,0,0-.1.181.126.126,0,0,0,.088.154.124.124,0,0,0,.1-.013.136.136,0,0,0,.057-.074Z" transform="translate(-0.295 -0.007)" fill="#1d1d1b"/>
    <path d="M10.319,7.368a2.487,2.487,0,0,1,.724,1.251.125.125,0,0,0,.241-.066A2.726,2.726,0,0,0,10.5,7.191a.128.128,0,0,0-.176,0,.126.126,0,0,0,0,.177Z" transform="translate(-0.295 -0.007)" fill="#1d1d1b"/>
    <path d="M11.254,8.609a1.98,1.98,0,0,1,.715-.924.13.13,0,0,0,.044-.171.126.126,0,0,0-.171-.045,2.706,2.706,0,0,0-.5.472,2.035,2.035,0,0,0-.327.6A.125.125,0,0,0,11.1,8.7a.127.127,0,0,0,.154-.087Z" transform="translate(-0.295 -0.007)" fill="#1d1d1b"/>
    <path d="M11.9,7.669l-.036,0a.024.024,0,0,1,.015.01A.2.2,0,0,0,11.9,7.7l.057.056.113.114c.079.082.156.165.228.253a1.62,1.62,0,0,1,.307.546c.047.153.288.088.241-.067a1.969,1.969,0,0,0-.394-.684c-.083-.1-.171-.191-.262-.282s-.2-.236-.36-.208a.126.126,0,0,0-.088.153.129.129,0,0,0,.154.088Z" transform="translate(-0.295 -0.007)" fill="#1d1d1b"/>
    <path d="M12.83,8.774a3.132,3.132,0,0,0,.212-.3,2.416,2.416,0,0,1,.218-.256,6.665,6.665,0,0,1,.53-.478.126.126,0,0,0,0-.177.127.127,0,0,0-.176,0,6.508,6.508,0,0,0-.531.478,2.986,2.986,0,0,0-.236.278c-.067.089-.118.193-.194.276a.125.125,0,0,0,.177.176Z" transform="translate(-0.295 -0.007)" fill="#1d1d1b"/>
    <path d="M13.56,7.8a3.131,3.131,0,0,1,.364.346.126.126,0,0,0,.177,0,.128.128,0,0,0,0-.177,3.131,3.131,0,0,0-.364-.346.135.135,0,0,0-.089-.037.125.125,0,0,0-.088.214Z" transform="translate(-0.295 -0.007)" fill="#1d1d1b"/>
    <path d="M10.207,9.878a2.69,2.69,0,0,1,1.036-1.149.125.125,0,0,0-.126-.216A2.922,2.922,0,0,0,9.992,9.752a.129.129,0,0,0,.044.171.126.126,0,0,0,.171-.045Z" transform="translate(-0.295 -0.007)" fill="#1d1d1b"/>
    <path d="M11.152,8.721a.653.653,0,0,1,.186.205c.062.1.122.192.18.29a1.887,1.887,0,0,1,.251.615.125.125,0,0,0,.153.087.128.128,0,0,0,.088-.154,2.133,2.133,0,0,0-.287-.692,1.57,1.57,0,0,0-.445-.567c-.137-.086-.262.13-.126.216Z" transform="translate(-0.295 -0.007)" fill="#1d1d1b"/>
    <path d="M12.042,9.768a2.944,2.944,0,0,1,.9-.977.129.129,0,0,0,.045-.171.127.127,0,0,0-.171-.045,3.22,3.22,0,0,0-.99,1.067.125.125,0,0,0,.216.126Z" transform="translate(-0.295 -0.007)" fill="#1d1d1b"/>
    <path d="M12.758,8.8a2.886,2.886,0,0,1,.814.982.125.125,0,1,0,.216-.127,3.176,3.176,0,0,0-.9-1.071.125.125,0,0,0-.171.045.129.129,0,0,0,.045.171Z" transform="translate(-0.295 -0.007)" fill="#1d1d1b"/>
    <path d="M13.824,9.756a1.449,1.449,0,0,1,.1-.16l.029-.039h0l.017-.02c.02-.025.04-.048.062-.071a1.516,1.516,0,0,1,.138-.127l.017-.014c-.027.019,0,0,0,0l.037-.025c.027-.019.054-.037.082-.053a.125.125,0,0,0-.126-.216,1.53,1.53,0,0,0-.572.6.125.125,0,0,0,.216.126Z" transform="translate(-0.295 -0.007)" fill="#1d1d1b"/>
    <path d="M10.026,9.658a3.873,3.873,0,0,1,.649,1.335.125.125,0,0,0,.241-.066,4.057,4.057,0,0,0-.674-1.395.129.129,0,0,0-.171-.045.126.126,0,0,0-.045.171Z" transform="translate(-0.295 -0.007)" fill="#1d1d1b"/>
    <path d="M10.97,10.976a2.685,2.685,0,0,1,.963-1.035c.137-.084.011-.3-.126-.216a2.935,2.935,0,0,0-1.053,1.125c-.074.142.141.268.216.126Z" transform="translate(-0.295 -0.007)" fill="#1d1d1b"/>
    <path d="M11.784,9.862a2.468,2.468,0,0,1,.921,1.235c.05.152.292.087.241-.067a2.748,2.748,0,0,0-1.035-1.383.125.125,0,0,0-.127.215Z" transform="translate(-0.295 -0.007)" fill="#1d1d1b"/>
    <path d="M12.984,11.011A4.165,4.165,0,0,1,13.85,9.88c.115-.112-.062-.289-.177-.177a4.377,4.377,0,0,0-.9,1.182.129.129,0,0,0,.045.171.126.126,0,0,0,.171-.045Z" transform="translate(-0.295 -0.007)" fill="#1d1d1b"/>
    <path d="M13.669,9.886a1.875,1.875,0,0,1,.184.194l.02.026c.011.013,0,0-.006-.008l.011.014c.014.018.026.036.039.054.026.037.05.075.073.114a.125.125,0,1,0,.216-.126,1.932,1.932,0,0,0-.36-.445.125.125,0,0,0-.177.177Z" transform="translate(-0.295 -0.007)" fill="#1d1d1b"/>
    <path d="M10.145,11.9a2.328,2.328,0,0,1,.127-.236,2.229,2.229,0,0,1,.145-.2,2.288,2.288,0,0,1,.176-.192c.033-.032.067-.063.1-.092l.048-.04.027-.021.018-.014a.129.129,0,0,0,.045-.171.127.127,0,0,0-.171-.045,2.379,2.379,0,0,0-.733.887.128.128,0,0,0,.045.171.126.126,0,0,0,.171-.044Z" transform="translate(-0.295 -0.007)" fill="#1d1d1b"/>
    <path d="M10.734,11.076a2.278,2.278,0,0,1,.6.682c.084.133.163.269.242.4.039.066.079.132.119.2a.418.418,0,0,0,.161.186.13.13,0,0,0,.171-.045.126.126,0,0,0-.045-.171c-.032-.014,0,.009-.023-.019-.009-.012-.016-.025-.024-.038l-.066-.107q-.063-.1-.123-.207c-.08-.135-.159-.271-.246-.4a2.45,2.45,0,0,0-.643-.7c-.132-.091-.257.125-.126.216Z" transform="translate(-0.295 -0.007)" fill="#1d1d1b"/>
    <path d="M12.03,12.429a2.959,2.959,0,0,1,.772-1.184c.108-.118-.068-.3-.177-.176a3.215,3.215,0,0,0-.836,1.293.125.125,0,0,0,.241.067Z" transform="translate(-0.295 -0.007)" fill="#1d1d1b"/>
    <path d="M12.735,11.125a1.866,1.866,0,0,1,.426.653,4.269,4.269,0,0,1,.268.8c.036.157.277.091.241-.066a4.619,4.619,0,0,0-.293-.863,2.034,2.034,0,0,0-.466-.7c-.12-.106-.3.07-.176.177Z" transform="translate(-0.295 -0.007)" fill="#1d1d1b"/>
    <path d="M13.691,12.511a1.791,1.791,0,0,1,.661-.855.129.129,0,0,0,.045-.171.127.127,0,0,0-.171-.045,2.069,2.069,0,0,0-.777,1,.127.127,0,0,0,.088.154.129.129,0,0,0,.154-.087Z" transform="translate(-0.295 -0.007)" fill="#1d1d1b"/>
    <path d="M10.123,12.442l.005-.01-.075.058.012,0H10c-.022-.007,0,0,0,.013l.031.033c.02.023.04.046.058.071a1.694,1.694,0,0,1,.105.16,2.859,2.859,0,0,1,.164.339c.05.119.1.239.139.361a.97.97,0,0,0,.149.369c.105.122.282-.055.177-.176a.429.429,0,0,1-.061-.178,1.872,1.872,0,0,0-.078-.229c-.055-.142-.111-.283-.175-.421a2.114,2.114,0,0,0-.224-.378.745.745,0,0,0-.165-.18.147.147,0,0,0-.215.044c-.075.142.141.268.216.126Z" transform="translate(-0.295 -0.007)" fill="#1d1d1b"/>
    <path d="M10.849,13.743A2.008,2.008,0,0,1,11.9,12.532c.134-.089.009-.3-.126-.216a2.256,2.256,0,0,0-1.169,1.361.13.13,0,0,0,.088.154.127.127,0,0,0,.154-.088Z" transform="translate(-0.295 -0.007)" fill="#1d1d1b"/>
    <path d="M11.907,12.516l.009-.01-.055.032.012,0h-.066c.024,0,.078.087.1.113.042.054.082.109.121.166a2.926,2.926,0,0,1,.457,1.132.125.125,0,0,0,.241-.067,3.141,3.141,0,0,0-.333-.945,3.191,3.191,0,0,0-.269-.411c-.076-.1-.254-.351-.393-.182a.127.127,0,0,0,0,.176.125.125,0,0,0,.177,0Z" transform="translate(-0.295 -0.007)" fill="#1d1d1b"/>
    <path d="M12.727,13.841a2.551,2.551,0,0,1,.86-1.15.129.129,0,0,0,.045-.171.127.127,0,0,0-.171-.045,2.853,2.853,0,0,0-.975,1.3.125.125,0,0,0,.241.066Z" transform="translate(-0.295 -0.007)" fill="#1d1d1b"/>
    <path d="M13.541,12.711a.548.548,0,0,1,.052.031l.02.014c.013.008-.016-.014,0,0a.778.778,0,0,1,.077.075l.019.022s.023.03,0,.006l.03.041c.022.032.043.065.063.1a4.011,4.011,0,0,0,.238.392.129.129,0,0,0,.171.044.126.126,0,0,0,.045-.171c-.2-.257-.292-.607-.6-.77a.125.125,0,1,0-.127.216Z" transform="translate(-0.295 -0.007)" fill="#1d1d1b"/>
    <path d="M10.264,14.835a2.365,2.365,0,0,1,.5-.937.125.125,0,0,0-.177-.177,2.659,2.659,0,0,0-.561,1.048.125.125,0,0,0,.241.066Z" transform="translate(-0.295 -0.007)" fill="#1d1d1b"/>
    <path d="M10.775,13.88c.009,0,0,0-.006,0s.019.014.025.02c.024.024.045.051.067.077.038.046.075.092.11.14a3.237,3.237,0,0,1,.213.333,3.177,3.177,0,0,1,.29.713.125.125,0,0,0,.241-.066,3.414,3.414,0,0,0-.361-.853,3.583,3.583,0,0,0-.265-.38c-.087-.11-.217-.289-.381-.221a.129.129,0,0,0-.087.154.126.126,0,0,0,.154.087Z" transform="translate(-0.295 -0.007)" fill="#1d1d1b"/>
    <path d="M11.724,15.187a3.3,3.3,0,0,1,1-1.134.125.125,0,0,0-.126-.216,3.563,3.563,0,0,0-1.091,1.224c-.076.141.14.268.216.126Z" transform="translate(-0.295 -0.007)" fill="#1d1d1b"/>
    <path d="M12.63,14.059a1.406,1.406,0,0,1,.325.522c.077.221.078.458.169.674a.125.125,0,1,0,.216-.126,1.552,1.552,0,0,1-.076-.337,1.668,1.668,0,0,0-.088-.333,1.72,1.72,0,0,0-.369-.577c-.113-.115-.289.062-.177.177Z" transform="translate(-0.295 -0.007)" fill="#1d1d1b"/>
    <path d="M13.367,15.224a.794.794,0,0,1,.062-.11.589.589,0,0,1,.064-.085,1.71,1.71,0,0,1,.184-.177l.05-.04.021-.016.015-.012.1-.073.251-.182a.125.125,0,0,0-.126-.216c-.163.119-.33.234-.485.363a1.273,1.273,0,0,0-.35.422.125.125,0,0,0,.216.126Z" transform="translate(-0.295 -0.007)" fill="#1d1d1b"/>
    <path d="M10.984,16.047a1.679,1.679,0,0,1,.117-.212c.022-.034.046-.067.07-.1.008-.011-.009.011.005-.006l.018-.023.042-.048a1.764,1.764,0,0,1,.17-.165l.022-.018s.031-.024.011-.009l.047-.034c.035-.025.07-.048.107-.07a.125.125,0,0,0-.127-.216,1.787,1.787,0,0,0-.7.775.128.128,0,0,0,.045.171.126.126,0,0,0,.171-.045Z" transform="translate(-0.295 -0.007)" fill="#1d1d1b"/>
    <path d="M11.506,15.283a3.616,3.616,0,0,1,.46.536,3.055,3.055,0,0,1,.316.6.129.129,0,0,0,.154.087.126.126,0,0,0,.087-.154,3.31,3.31,0,0,0-.342-.664,3.876,3.876,0,0,0-.5-.587.125.125,0,0,0-.177.177Z" transform="translate(-0.295 -0.007)" fill="#1d1d1b"/>
    <path d="M12.487,16.518a1.268,1.268,0,0,0,.163-.317,2.883,2.883,0,0,1,.178-.328,2.979,2.979,0,0,1,.459-.56c.117-.112-.06-.288-.177-.177a3.255,3.255,0,0,0-.476.577,2.877,2.877,0,0,0-.178.316c-.028.056-.053.114-.078.171a.511.511,0,0,1-.068.141.128.128,0,0,0,0,.177.126.126,0,0,0,.177,0Z" transform="translate(-0.295 -0.007)" fill="#1d1d1b"/>
    <path d="M13.2,15.321a.642.642,0,0,1,.053.038l-.025-.02a.705.705,0,0,1,.128.128l-.02-.026a.7.7,0,0,1,.09.151.124.124,0,0,0,.171.045.125.125,0,0,0,.058-.075l0-.033a.115.115,0,0,0-.017-.063.837.837,0,0,0-.316-.361.125.125,0,1,0-.126.216Z" transform="translate(-0.295 -0.007)" fill="#1d1d1b"/>
    <path d="M12.844,6.355a.069.069,0,0,1,.03.035c.011.024.015.029.011.017l.005.033V6.43l-.005.033c0-.014.01-.017-.006.01a.051.051,0,0,1-.019.022c-.009.007-.01.008,0,0s.03-.01-.005,0l.027-.011a.459.459,0,0,0,.073-.038.775.775,0,0,0,.124-.105c.033-.032.065-.066.1-.1l.014-.012s.019-.015,0,0l0,0,.013-.009.03-.018c.005,0,.012-.008.016-.008l-.018.008.011,0a.139.139,0,0,0,.075-.058.128.128,0,0,0,.012-.1.126.126,0,0,0-.154-.087A.575.575,0,0,0,13,6.076c-.043.038-.081.081-.123.12l-.032.028-.009.008.015-.012a.133.133,0,0,1-.019.014.335.335,0,0,1-.036.021l-.017.008c.052-.026-.029.012-.024.01a.182.182,0,0,0-.105.118.16.16,0,0,0,.073.18.125.125,0,1,0,.126-.216Z" transform="translate(-0.295 -0.007)" fill="#1d1d1b"/>
    <path d="M15.685,9.262a2.458,2.458,0,0,1,.289,3.244c-.1.125.077.3.176.177a2.709,2.709,0,0,0-.289-3.6c-.119-.108-.3.068-.176.177Z" transform="translate(-0.295 -0.007)" fill="#1d1d1b"/>
    <path d="M16.407,6.681a6.649,6.649,0,0,1,1.58,1.838A4.147,4.147,0,0,1,18.7,10.88a7.361,7.361,0,0,1-1.522,4.286c-.1.129.121.254.216.127a7.453,7.453,0,0,0,1.55-4.72,4.393,4.393,0,0,0-.778-2.242,6.909,6.909,0,0,0-1.628-1.866c-.133-.092-.258.125-.126.216Z" transform="translate(-0.295 -0.007)" fill="#1d1d1b"/>
    <path d="M8.313,12.541A2.456,2.456,0,0,1,8.024,9.3c.1-.125-.077-.3-.177-.177a2.71,2.71,0,0,0,.289,3.6c.119.108.3-.069.177-.177Z" transform="translate(-0.295 -0.007)" fill="#1d1d1b"/>
    <path d="M7.591,15.122A6.642,6.642,0,0,1,6.01,13.283,4.152,4.152,0,0,1,5.3,10.922,7.372,7.372,0,0,1,6.824,6.636c.1-.129-.12-.253-.216-.126a7.445,7.445,0,0,0-1.549,4.72,4.392,4.392,0,0,0,.777,2.242,6.912,6.912,0,0,0,1.629,1.866c.132.091.257-.125.126-.216Z" transform="translate(-0.295 -0.007)" fill="#1d1d1b"/>
    <path d="M12.747.037A10.2,10.2,0,0,0,5.964,2.048a10.818,10.818,0,0,0-4.1,5.113A11.364,11.364,0,0,0,5.921,18.825a10.324,10.324,0,0,0,6.032,2.094,13.5,13.5,0,0,0,3.66-.578,9.044,9.044,0,0,0,3.243-1.45A10.782,10.782,0,0,0,22.387,7.94a10.856,10.856,0,0,0-9.872-7.9c-.161-.008-.161.242,0,.25a10.691,10.691,0,0,1,9.1,6.18,10.638,10.638,0,0,1-1.694,11.065A9.911,9.911,0,0,1,13.9,20.488a9.869,9.869,0,0,1-6.364-.945A11.044,11.044,0,0,1,1.815,9.254,6.89,6.89,0,0,1,3.069,5.366a13.884,13.884,0,0,1,2.4-2.618A10.141,10.141,0,0,1,12.747.287c.16.012.16-.238,0-.25Z" transform="translate(-0.295 -0.007)" fill="#1d1d1b"/>
    <g>
      <path d="M1.854,29.034c.016.3-.445.294-.46,0a10.442,10.442,0,0,1,0-1.3,3.2,3.2,0,0,0,.044-.56.309.309,0,0,0-.162-.375,1.077,1.077,0,0,0-.495-.046,21.632,21.632,0,0,0,.01,2.292c.022.3-.437.292-.461,0-.094-1.2.035-2.406,0-3.612-.01-.3.45-.295.46,0s.009.57.005.855c.414-.039.971.038,1.086.45a3.6,3.6,0,0,1-.028,1.086A11.1,11.1,0,0,0,1.854,29.034Z" transform="translate(-0.295 -0.007)" fill="#1d1d1b"/>
      <path d="M2.985,28.078c0,.049,0,.095,0,.141a.725.725,0,0,0,.258.6,2.2,2.2,0,0,0,.511-.046c.294-.026.292.434,0,.46-.32.027-.76.149-1.024-.1a1.144,1.144,0,0,1-.207-.914c.016-.517-.165-1.61.467-1.836a1.184,1.184,0,0,1,.847.046c.28.149.3.451.294.738,0,.226.019.7-.182.864S3.305,28.118,2.985,28.078Zm.028-.756c-.007.1-.01.2-.014.3a3.274,3.274,0,0,0,.626.031c.066-.26.117-.706-.051-.833-.092-.072-.329-.014-.41.037C2.987,26.96,3.028,27.128,3.013,27.322Z" transform="translate(-0.295 -0.007)" fill="#1d1d1b"/>
      <path d="M5.922,29.312a.24.24,0,0,1-.039-.039.251.251,0,0,1-.12.012c-.333-.06-.683.186-.9-.2-.184-.322-.074-.872-.1-1.238a2.1,2.1,0,0,1,.136-1.3c.171-.253.5-.217.779-.241a.192.192,0,0,1,.113.02.237.237,0,0,1,.426.124c.018.438.022.873.007,1.31-.01.251-.205,1.035.029,1.224S6.152,29.5,5.922,29.312Zm-.233-.479a4.862,4.862,0,0,1,.04-.568c.037-.506.043-1.015.03-1.522a.289.289,0,0,1-.086.027c-.414.041-.483.225-.485.626,0,.273.043.547.06.821s-.111.614.2.63A1.544,1.544,0,0,0,5.689,28.833Z" transform="translate(-0.295 -0.007)" fill="#1d1d1b"/>
      <path d="M7.593,29.276c-.626.124-.679-.477-.672-.95.016-.981.08-1.966.058-2.946a.23.23,0,0,1,.459,0c.012.569-.013,1.137-.027,1.7a7.783,7.783,0,0,0,.06,1.749C7.761,28.776,7.885,29.218,7.593,29.276Z" transform="translate(-0.295 -0.007)" fill="#1d1d1b"/>
      <path d="M9.046,26.756c-.069,0-.139-.012-.207-.016v.283c0,.144-.076,1.822.071,1.8.29-.04.414.405.122.444-.661.09-.7-.419-.679-.955.018-.58.023-1.16.023-1.739a.258.258,0,0,1-.016-.086.194.194,0,0,1,.016-.08c0-.334,0-.67,0-1.006a.23.23,0,0,1,.46,0c0,.292,0,.585,0,.877.071,0,.141.013.21.015C9.34,26.305,9.34,26.765,9.046,26.756Z" transform="translate(-0.295 -0.007)" fill="#1d1d1b"/>
      <path d="M11.422,29.034c.016.3-.444.294-.461,0a10.843,10.843,0,0,1,0-1.3,3.014,3.014,0,0,0,.044-.56.306.306,0,0,0-.161-.375,1.073,1.073,0,0,0-.494-.046,21.632,21.632,0,0,0,.008,2.292c.024.3-.437.292-.46,0-.094-1.2.035-2.406,0-3.612-.009-.3.451-.295.46,0s.009.57,0,.855c.414-.039.971.038,1.086.45a3.567,3.567,0,0,1-.027,1.086A10.854,10.854,0,0,0,11.422,29.034Z" transform="translate(-0.295 -0.007)" fill="#1d1d1b"/>
      <path d="M14.837,27.593c-.028.293-.065.58-.083.875a.988.988,0,0,1-.09.437.9.9,0,0,1-.948.322.411.411,0,0,1-.062-.021c0,.367.014.735.028,1.1.011.3-.45.295-.46,0-.049-1.281-.049-2.565-.007-3.847a.235.235,0,0,1,.372-.179,1.786,1.786,0,0,1,1.033.232A1.316,1.316,0,0,1,14.837,27.593Zm-.709-.794a1.3,1.3,0,0,0-.46-.056q-.029,1.012-.019,2.029a.18.18,0,0,1,.067-.007c.679.073.6-.59.651-1.084C14.4,27.382,14.491,26.975,14.128,26.8Z" transform="translate(-0.295 -0.007)" fill="#1d1d1b"/>
      <path d="M17.02,28.951c-.108.255-.333.292-.584.327-.835.113-.891-.329-.93-1.061a5.16,5.16,0,0,1,.014-1.525c.083-.316.342-.385.634-.463a.209.209,0,0,1,.231.076c.78-.145.695.952.69,1.447A3.556,3.556,0,0,1,17.02,28.951Zm-.405-1.01c0-.1.083-1.247-.175-1.178a.206.206,0,0,1-.218-.067c-.4.164-.29.768-.275,1.136.012.293-.061.918.249,1.013C16.753,29.011,16.608,28.24,16.615,27.941Z" transform="translate(-0.295 -0.007)" fill="#1d1d1b"/>
      <path d="M18.171,26.5q-.032,1.274-.009,2.545a.23.23,0,0,1-.46,0q-.021-1.273.009-2.545A.23.23,0,0,1,18.171,26.5Zm-.409-.87a.586.586,0,0,1-.014-.205.234.234,0,0,1,.23-.229.23.23,0,0,1,.23.229.18.18,0,0,0,0,.083.236.236,0,0,1-.161.283A.232.232,0,0,1,17.762,25.628Z" transform="translate(-0.295 -0.007)" fill="#1d1d1b"/>
      <path d="M20.421,27.52c-.01.511-.024,1.019-.035,1.53a.23.23,0,0,1-.46,0c.012-.446.02-.892.032-1.339a2.868,2.868,0,0,0,.012-.578c-.085-.419-.348-.57-.675-.186-.007.006-.014.009-.021.016q-.027,1.048.021,2.1c.015.3-.446.294-.46,0q-.062-1.334,0-2.667a.23.23,0,0,1,.458-.021.77.77,0,0,1,1.012.106A1.79,1.79,0,0,1,20.421,27.52Z" transform="translate(-0.295 -0.007)" fill="#1d1d1b"/>
      <path d="M21.728,26.756c-.069,0-.138-.012-.207-.016v.283c0,.144-.077,1.822.071,1.8.29-.04.414.405.122.444-.66.09-.7-.419-.679-.955.019-.58.024-1.16.024-1.739a.235.235,0,0,1-.017-.086.2.2,0,0,1,.017-.08c0-.334,0-.67,0-1.006a.23.23,0,0,1,.46,0c0,.292,0,.585,0,.877.071,0,.14.013.209.015C22.022,26.305,22.022,26.765,21.728,26.756Z" transform="translate(-0.295 -0.007)" fill="#1d1d1b"/>
      <path d="M23.759,29.094c-.274.241-.721.16-1.045.114-.292-.041-.168-.485.122-.443.2.027.361.071.524-.051s.122-.212.129-.419c0-.064.046-.285.012-.338-.064-.1-.232-.071-.326-.083-.261-.03-.484-.039-.567-.32A1.515,1.515,0,0,1,22.7,26.51c.217-.281.555-.118.836-.225s.4.337.122.443c-.242.093-.51-.026-.6.263a.4.4,0,0,0,.122.425c.059.035.253-.011.317,0,.333.036.45.231.469.546S24.028,28.85,23.759,29.094Z" transform="translate(-0.295 -0.007)" fill="#1d1d1b"/>
    </g>
  </g>
</svg>
