<svg xmlns="http://www.w3.org/2000/svg" width="13.185mm" height="18.221mm" viewBox="0 0 37.374 51.65">
  <title>lumberjack</title>
  <g>
    <path d="M10.635,16.02a11.535,11.535,0,0,1-2.663.9q-1.46.378-2.9.8-1.356.4-2.7.841c-.468.154-1.45.314-1.464.978-.015.742.861.72,1.35.584.932-.26,1.855-.563,2.78-.846Q8,18.38,10.964,17.47c.307-.094.176-.577-.132-.482q-2.409.74-4.818,1.474L3.605,19.2l-1.3.395a1.874,1.874,0,0,1-.59.145c-.664-.2.06-.443.16-.479,1.535-.547,3.111-1,4.681-1.438a20.284,20.284,0,0,0,4.329-1.368c.283-.153.031-.585-.252-.431Z" fill="#1d1d1b"/>
    <path d="M9.568,16.609c-.315-1.647,1.884-2.578,3.168-2.836a3.191,3.191,0,0,1,1.269-.028,1.691,1.691,0,0,1,.465.152c.316.17.316.316.354.661a5.363,5.363,0,0,1,.044,2.59,4.451,4.451,0,0,1-1.393,1.6c-.495.333-.745.475-.781,1.107a45.8,45.8,0,0,0,.08,5.012c.018.32.518.322.5,0q-.088-1.634-.1-3.268c0-.509,0-1.018.012-1.526a.873.873,0,0,1,.392-.8c.105-.083.23-.145.337-.228A4.719,4.719,0,0,0,15.4,17.18a6.7,6.7,0,0,0-.093-2.837c-.191-1.627-2.614-1.169-3.656-.761-1.334.521-2.877,1.5-2.56,3.16.06.316.542.182.482-.133Z" fill="#1d1d1b"/>
    <path d="M9.047,18.086a.453.453,0,0,1,.03.046c0,.006.035.071.019.035s.008.023.01.03l.019.052a1.441,1.441,0,0,0,.1.243,1.127,1.127,0,0,0,.315.341,2.463,2.463,0,0,0,.752.342A.253.253,0,0,0,10.6,19a.256.256,0,0,0-.175-.308c-.06-.019-.12-.038-.18-.059l-.083-.031-.044-.017c-.04-.016-.005-.01.008,0a.363.363,0,0,0-.087-.04c-.029-.013-.057-.028-.085-.043a1.586,1.586,0,0,1-.15-.1c-.025-.017.042.036.009.007l-.034-.03a.773.773,0,0,1-.064-.064c-.008-.009-.019-.03-.029-.034l.02.027-.017-.025a.659.659,0,0,1-.044-.072l-.017-.034c-.025-.05.014.04,0-.008s-.024-.07-.036-.1a.988.988,0,0,0-.113-.239.25.25,0,0,0-.432.252Z" fill="#1d1d1b"/>
    <path d="M9.459,18.77a19.692,19.692,0,0,0-.573,4.108c-.032.711-.04,1.423-.04,2.135a4.777,4.777,0,0,0,.132,1.749c.4.993,1.773,1.12,2.69,1.023a7.632,7.632,0,0,0,3.373-1.37c.266-.178.016-.611-.252-.432a7.527,7.527,0,0,1-2.9,1.271,3.694,3.694,0,0,1-1.689-.082A1.16,1.16,0,0,1,9.35,25.9a25.985,25.985,0,0,1,.591-7,.25.25,0,0,0-.482-.133Z" fill="#1d1d1b"/>
    <path d="M14.972,20.118A10.993,10.993,0,0,0,14.8,26.4a14.838,14.838,0,0,0,1.127,2.974c.366.732.716,1.2,1.574.839a10.184,10.184,0,0,1,1.558-.618,5.877,5.877,0,0,1,2.015-.045,29.459,29.459,0,0,0,3.538.24c.959-.011,4.244.072,3.32-1.832-.14-.29-.572-.036-.432.252.554,1.141-1.817,1.055-2.294,1.068a23.412,23.412,0,0,1-2.727-.06,20.968,20.968,0,0,0-2.574-.233,5.63,5.63,0,0,0-2.185.575,2.363,2.363,0,0,1-.589.262c-.448.054-.523-.217-.671-.5-.2-.386-.385-.782-.552-1.184a13.455,13.455,0,0,1-.774-2.521,10.3,10.3,0,0,1,.321-5.364c.1-.3-.378-.436-.482-.133Z" fill="#1d1d1b"/>
    <path d="M17.168,30.184a19.683,19.683,0,0,0,.747,4.524c.326,1.684.617,3.377.827,5.08a36.616,36.616,0,0,1,.018,9.9c-.018.121.029.284.175.307a4.1,4.1,0,0,0,1.913.067c.473-.2.406-.848.455-1.276q.285-2.487.406-4.99a76.762,76.762,0,0,0-.188-10.128c-.027-.318-.527-.321-.5,0a77.065,77.065,0,0,1,.245,8.663q-.063,2.137-.244,4.268-.088,1.033-.2,2.066a5.135,5.135,0,0,1-.071.606c-.076.313-.095.269-.348.337a3.88,3.88,0,0,1-1.33-.095l.174.308a36.767,36.767,0,0,0,.029-9.791c-.189-1.587-.445-3.166-.738-4.738-.148-.794-.306-1.587-.469-2.379a10.984,10.984,0,0,1-.4-2.727c.015-.321-.485-.321-.5,0Z" fill="#1d1d1b"/>
    <path d="M20.65,33.657a3.93,3.93,0,0,0,1.14.224c.257.009.471-.078.674.139a3.807,3.807,0,0,1,.323.781q.5,1.267.875,2.578A41.137,41.137,0,0,1,24.787,42.6c.281,1.825.47,3.663.633,5.5.041.455.075.911.117,1.365a1.217,1.217,0,0,0,.146.645c.343.448,1.389.187,1.861.173a.258.258,0,0,0,.25-.25,12.315,12.315,0,0,0-.08-2.581c-.078-.882-.156-1.763-.24-2.644-.169-1.773-.358-3.543-.6-5.308-.233-1.722-.513-3.439-.87-5.14-.09-.433-.2-.862-.287-1.3a1.665,1.665,0,0,1,.433-1.342,7.578,7.578,0,0,0,.89-2.084.25.25,0,0,0-.482-.132,7.69,7.69,0,0,1-1.068,2.306,2.041,2.041,0,0,0-.147,1.855c.4,1.763.707,3.546.961,5.335.263,1.849.464,3.706.643,5.565.085.881.164,1.762.242,2.644a13.521,13.521,0,0,1,.1,2.821l.25-.25-.675.019a2.849,2.849,0,0,1-.675.02c-.3-.166-.207-.951-.234-1.266-.076-.874-.156-1.748-.248-2.62-.183-1.726-.409-3.45-.731-5.156a35.451,35.451,0,0,0-1.318-5.049q-.224-.643-.478-1.276a3.09,3.09,0,0,0-.406-.89.635.635,0,0,0-.55-.2,4.483,4.483,0,0,1-1.446-.194c-.3-.1-.436.379-.133.482Z" fill="#1d1d1b"/>
    <path d="M18.87,49.607l-1.451.405a3.762,3.762,0,0,0-1.089.386.757.757,0,0,0-.368.9c.161.328.555.333.87.329.969-.013,1.939-.029,2.9-.13.393-.041.777-.053,1.026-.4a3.659,3.659,0,0,0,.525-1.224.25.25,0,0,0-.482-.133,3.489,3.489,0,0,1-.4.989c-.176.285-.5.253-.808.282-.732.071-1.467.095-2.2.108l-.516.007c-.1,0-.333.045-.424-.022-.207-.153.375-.4.477-.437.681-.219,1.382-.389,2.071-.581a.25.25,0,0,0-.133-.482Z" fill="#1d1d1b"/>
    <path d="M25.617,50.176a1.2,1.2,0,0,0,.007,1.076c.223.346.662.339,1.029.365a13.568,13.568,0,0,0,2.65-.073c.347-.043.8-.05,1.021-.367a.537.537,0,0,0-.162-.78,3.627,3.627,0,0,0-1.139-.307l-1.366-.3c-.314-.068-.448.414-.133.482l1.922.42c.1.021.688.105.382.258a1.167,1.167,0,0,1-.337.068c-.176.025-.352.046-.529.064a13.591,13.591,0,0,1-1.882.057q-.256-.01-.513-.03a1.5,1.5,0,0,1-.4-.046c-.309-.117-.143-.534-.067-.755.106-.3-.377-.435-.482-.133Z" fill="#1d1d1b"/>
    <path d="M27.439,21.245a10.512,10.512,0,0,0,1.268,5.305,3.278,3.278,0,0,1,.2,1.37,3.853,3.853,0,0,0,.243,1.09,2.919,2.919,0,0,0,1.357,1.571c.285.148.538-.283.252-.432a2.572,2.572,0,0,1-1.282-1.775,7.729,7.729,0,0,0-.343-2.077,9.884,9.884,0,0,1-1.2-5.052c.013-.322-.487-.321-.5,0Z" fill="#1d1d1b"/>
    <path d="M30.4,30.433a33.5,33.5,0,0,0,.871,3.517c.094.306.576.176.482-.133a33.5,33.5,0,0,1-.871-3.517c-.06-.316-.542-.182-.482.133Z" fill="#1d1d1b"/>
    <path d="M31.925,33.583a2.227,2.227,0,0,0-1.278.71A6.4,6.4,0,0,0,29.3,35.659c-.259.476,0,1.178.091,1.666a1.375,1.375,0,0,0,.207.688c.068.078.559.335.627.205a.252.252,0,0,0,.216.376c.583-.031,1.161.13,1.743.07A2.777,2.777,0,0,0,33.5,38.1a3.421,3.421,0,0,0,1.027-.947,2.355,2.355,0,0,0,.24-1.382A8.7,8.7,0,0,1,34.654,34a7.4,7.4,0,0,1,.406-1.548,6.838,6.838,0,0,0,.592-3.014c-.036-.316-.537-.32-.5,0,.217,1.863-1.174,3.471-1.007,5.341a9.1,9.1,0,0,1,.134,1.489,1.72,1.72,0,0,1-.852,1.277,2.581,2.581,0,0,1-1.4.634c-.531.028-1.054-.109-1.586-.081l.215.376a.471.471,0,0,0-.2-.654c-.2-.12-.411-.024-.523-.272a4.042,4.042,0,0,1-.155-.88c-.021-.116-.049-.234-.062-.352a.674.674,0,0,1,.243-.674c.17-.186.363-.355.546-.529.384-.366.852-.963,1.415-1.026.316-.035.319-.535,0-.5Z" fill="#1d1d1b"/>
    <path d="M25.169,14.59c1.522.475,3.061.893,4.573,1.4.711.239,1.713.444,2.164,1.085a8.857,8.857,0,0,1,.879,2.618c.5,1.773.864,3.565,1.273,5.357a1.592,1.592,0,0,0,.274.688c.237.287.5.411.654.79.187.456.383.91.556,1.371a1.258,1.258,0,0,1-.281,1.339c-.2.255.239.5.432.252a1.726,1.726,0,0,0,.192-2.067c-.177-.437-.339-.886-.534-1.316-.176-.386-.552-.512-.731-.869a5.427,5.427,0,0,1-.27-1.259q-.173-.821-.366-1.636-.357-1.515-.782-3.013a8.9,8.9,0,0,0-.874-2.539,3.214,3.214,0,0,0-1.7-1.018c-1.749-.64-3.555-1.111-5.332-1.666-.307-.1-.439.387-.132.483Z" fill="#1d1d1b"/>
    <path d="M19.156,9.553q-.345.532-.688,1.065a2.627,2.627,0,0,0-.432.884,8.495,8.495,0,0,0,.083,2.169,5.292,5.292,0,0,0,.409,2.057,6.386,6.386,0,0,0,1.21,1.619c.5.5,1.293.28,1.935.244l1.194-.068a1.312,1.312,0,0,0,.832-.21,3.254,3.254,0,0,0,.55-.762c.226-.354.439-.717.648-1.08a5.8,5.8,0,0,0,.861-1.929,7.918,7.918,0,0,0-.044-2.3,4.275,4.275,0,0,0-.79-2.039c-.193-.251-.627,0-.431.253a5.18,5.18,0,0,1,.815,3.211,3.587,3.587,0,0,1-.448,1.859c-.294.535-.6,1.065-.925,1.584a2.947,2.947,0,0,1-.554.782c-.259.205-.741.144-1.071.163l-1.035.058c-.288.016-.784.139-1.05,0a2.561,2.561,0,0,1-.574-.621,5.949,5.949,0,0,1-.562-.777,3.923,3.923,0,0,1-.454-1.814,14.569,14.569,0,0,1-.129-2.135,2.113,2.113,0,0,1,.437-.96l.644-1c.175-.271-.257-.522-.431-.252Z" fill="#1d1d1b"/>
    <path d="M15.276,15.188q1.472-.586,2.973-1.089c.3-.1.174-.585-.133-.482q-1.5.5-2.973,1.089a.257.257,0,0,0-.174.307.252.252,0,0,0,.307.175Z" fill="#1d1d1b"/>
    <path d="M15.451,16.325l3.08-1.022c.3-.1.174-.584-.133-.482l-3.08,1.022c-.3.1-.174.584.133.482Z" fill="#1d1d1b"/>
    <path d="M25.672,12.036l2.948-.987c.3-.1.173-.585-.133-.483l-2.948.988c-.3.1-.174.585.133.482Z" fill="#1d1d1b"/>
    <path d="M25.708,13.271l5.227-1.623c.6-.187,1.482-.318,1.747-.987a.706.706,0,0,0-.813-.98c-.307.1-.176.578.133.483.239-.074.275.212.19.37a.72.72,0,0,1-.3.266,4.584,4.584,0,0,1-.829.285l-1.83.568-3.659,1.136c-.307.1-.176.578.133.482Z" fill="#1d1d1b"/>
    <path d="M28.9,10.742c.021-2.208-1.1-4.177-2.193-6.02a.25.25,0,0,0-.431.253c1.046,1.765,2.144,3.65,2.124,5.767a.25.25,0,0,0,.5,0Z" fill="#1d1d1b"/>
    <path d="M26.623,4.953a14.627,14.627,0,0,1,3.042-1.692,3.513,3.513,0,0,1,3.061-.2.25.25,0,0,0,.252-.432,3.745,3.745,0,0,0-3.233.061A15.051,15.051,0,0,0,26.37,4.521c-.259.186-.01.62.253.432Z" fill="#1d1d1b"/>
    <path d="M32.671,2.906A51.962,51.962,0,0,1,31.6,9.846c-.07.313.412.447.482.133a52.975,52.975,0,0,0,1.087-7.073c.028-.321-.472-.319-.5,0Z" fill="#1d1d1b"/>
    <path d="M18.57,7.382c.136.369.249.747.367,1.123l.176.557c.032.1.131.29.065.386a.25.25,0,0,0,.432.253.685.685,0,0,0,.043-.588c-.06-.206-.129-.409-.193-.613-.132-.418-.257-.839-.408-1.251a.257.257,0,0,0-.308-.175.252.252,0,0,0-.174.308Z" fill="#1d1d1b"/>
    <path d="M25.035,7.18a1.9,1.9,0,0,1,.181-.14.46.46,0,0,0,.094-.061c.044-.019.041-.025-.01-.019s-.054,0-.008.021a1.812,1.812,0,0,1,.222.249.943.943,0,0,1,.119.732,1.06,1.06,0,0,1-.426.6,1.958,1.958,0,0,0-.605.576.25.25,0,0,0,.432.253c.16-.284.5-.412.72-.642a1.451,1.451,0,0,0-.013-2.029.587.587,0,0,0-.528-.236,1.447,1.447,0,0,0-.532.347.253.253,0,0,0,0,.354.257.257,0,0,0,.354,0Z" fill="#1d1d1b"/>
    <path d="M25.882,7.1a2.171,2.171,0,0,0,.207-1.085,1.136,1.136,0,0,0-.446-.91.25.25,0,1,0-.252.432c.024.016.027.017.007,0l.035.032c.011.011.021.023.032.035q-.023-.03,0,.006c.014.024.029.048.041.073l.016.033c-.01-.023-.009-.02,0,.008a1.374,1.374,0,0,1,.066.347,1.638,1.638,0,0,1-.143.775.258.258,0,0,0,.09.342.252.252,0,0,0,.342-.09Z" fill="#1d1d1b"/>
    <path d="M18.594,7.038c-.074.033.043-.014-.034.014l-.06.022c-.045.015-.089.028-.135.04s-.083.019-.124.028c-.075.016.042,0-.03,0-.007,0-.069,0-.038,0s-.04-.009.006,0c-.021-.013-.024-.015-.009,0s.013.008-.005-.008c-.028-.038.007.018-.007-.009s-.02-.03-.029-.045c-.051-.085-.1-.172-.152-.257l-.145-.246c-.023-.04-.044-.081-.066-.122l-.011-.023c.007.017.007.018,0,0s-.014-.039-.02-.059a.6.6,0,0,1-.017-.073c0,.033,0,.015,0-.008s0-.033,0-.05c0,.055,0,.007,0-.012s.023-.057.007-.026.011-.015.014-.022c.033-.056-.025.046.01-.008l-.021.014a.263.263,0,0,1,.033-.02.25.25,0,0,0-.252-.432.64.64,0,0,0-.285.672,1.976,1.976,0,0,0,.312.665c.125.211.241.489.5.552a.907.907,0,0,0,.423-.03,2.342,2.342,0,0,0,.374-.133.251.251,0,0,0,.09-.342.259.259,0,0,0-.343-.09Z" fill="#1d1d1b"/>
    <path d="M17.93,6.032c.16-.446.193-.916.315-1.37a2.725,2.725,0,0,1,.586-1.091,3.149,3.149,0,0,1,2.212-1.057,4.15,4.15,0,0,1,4.03,2.833c.105.3.588.172.482-.133a4.66,4.66,0,0,0-4.512-3.2,3.673,3.673,0,0,0-2.492,1.122,3.359,3.359,0,0,0-.7,1.12c-.2.532-.209,1.109-.4,1.643-.109.3.374.434.483.133Z" fill="#1d1d1b"/>
    <path d="M27.232,5.875c1.53-1.156,3.352-2.216,5.348-1.909.157.024.225-.217.066-.241-2.07-.318-3.946.73-5.541,1.935-.126.095,0,.313.127.215Z" fill="#1d1d1b"/>
    <path d="M28.789,10.827a3.774,3.774,0,0,0,1.586-.163,9.842,9.842,0,0,0,1.5-.578c.145-.07.019-.285-.126-.216a9.4,9.4,0,0,1-1.44.553,3.611,3.611,0,0,1-1.52.154c-.159-.021-.157.229,0,.25Z" fill="#1d1d1b"/>
    <path d="M31.712,9.974a1.127,1.127,0,0,0,.061.544,2.521,2.521,0,0,1-.056.538c0,.161.245.161.25,0a3.426,3.426,0,0,0,.057-.544,2.226,2.226,0,0,0-.059-.254.392.392,0,0,1-.012-.217.125.125,0,0,0-.241-.067Z" fill="#1d1d1b"/>
    <path d="M28.672,10.957c.139.044.167.23.179.358.018.2.033.4.05.606a.125.125,0,1,0,.25,0c-.02-.237-.03-.477-.062-.712a.556.556,0,0,0-.35-.493c-.154-.049-.22.192-.067.241Z" fill="#1d1d1b"/>
    <path d="M15.233,16.033a6.75,6.75,0,0,0-1.2-.185q-.306-.019-.613-.009a.759.759,0,0,0-.456.1c-.141.111-.121.294-.147.455a.994.994,0,0,0,0,.522,1.1,1.1,0,0,0,.774.566c.153.05.219-.191.066-.241-.235-.077-.554-.18-.619-.454a1.229,1.229,0,0,1,.033-.439c.007-.057,0-.16.034-.2a.23.23,0,0,1,.149-.049,5.685,5.685,0,0,1,1.908.177.125.125,0,0,0,.066-.241Z" fill="#1d1d1b"/>
    <path d="M13.632,14.16a.618.618,0,0,1,.555.6,6.236,6.236,0,0,1,.019,1.135c-.009.161.241.16.25,0q.02-.345.009-.69a3.25,3.25,0,0,0-.058-.631.836.836,0,0,0-.775-.668c-.161-.009-.161.241,0,.25Z" fill="#1d1d1b"/>
    <path d="M12.635,14.424a.925.925,0,0,1,.644.448,1.507,1.507,0,0,1,.071.477l.049.578c.013.159.263.161.25,0l-.054-.64a1.487,1.487,0,0,0-.11-.561,1.188,1.188,0,0,0-.783-.544.126.126,0,0,0-.067.242Z" fill="#1d1d1b"/>
    <path d="M11.533,15.027c.488.047.52.691.539,1.054.013.244.029.487.039.73,0,.092.013.182-.063.245a1.31,1.31,0,0,1-.3.158,2.218,2.218,0,0,1-.353.127c-.121.029-.173-.034-.229-.132a1.7,1.7,0,0,1-.206-.648c-.02-.192.02-.395-.147-.531a1.142,1.142,0,0,0-.6-.21c-.16-.017-.159.233,0,.25a1.04,1.04,0,0,1,.305.079c.1.044.172.082.178.2a2.406,2.406,0,0,0,.091.614,1.413,1.413,0,0,0,.249.505.438.438,0,0,0,.507.09,2.932,2.932,0,0,0,.572-.249.441.441,0,0,0,.247-.384,6.266,6.266,0,0,0-.031-.671,6.125,6.125,0,0,0-.049-.635.907.907,0,0,0-.749-.84c-.16-.015-.159.235,0,.25Z" fill="#1d1d1b"/>
    <path d="M12.239,17.1a.866.866,0,0,0,.783.078.129.129,0,0,0,.087-.154.127.127,0,0,0-.154-.087.757.757,0,0,1-.169.047c.03,0-.017,0-.022,0l-.033,0a.647.647,0,0,1-.088,0l-.022,0h0l-.043-.008c-.025-.006-.05-.013-.074-.021l-.042-.015c.026.01-.016-.007-.02-.01a.722.722,0,0,1-.077-.043.125.125,0,1,0-.126.215Z" fill="#1d1d1b"/>
    <path d="M12.02,18.979a5.852,5.852,0,0,0,.849.5A.125.125,0,0,0,13,19.266a5.906,5.906,0,0,1-.849-.5.127.127,0,0,0-.171.045.128.128,0,0,0,.045.171Z" fill="#1d1d1b"/>
    <path d="M9.049,26.169c.436.887,1.666.669,2.432.45a2.153,2.153,0,0,0,1.706-1.7c.018-.16-.232-.158-.25,0a1.913,1.913,0,0,1-1.522,1.464c-.654.187-1.771.435-2.15-.335-.071-.145-.287-.018-.216.126Z" fill="#1d1d1b"/>
    <path d="M13.008,20.878c1.14.334.536,1.982.635,2.792.069.559.348,1.071.367,1.639a2.319,2.319,0,0,1-.523,1.534c-.1.124.075.3.177.177a2.613,2.613,0,0,0,.6-1.517,17.13,17.13,0,0,0-.38-1.981c-.059-.922.464-2.513-.8-2.885a.125.125,0,0,0-.067.241Z" fill="#1d1d1b"/>
    <path d="M16.786,16.539a11.664,11.664,0,0,0-1.737,3.883c-.037.156.2.223.242.066A11.436,11.436,0,0,1,17,16.665c.092-.132-.125-.257-.216-.126Z" fill="#1d1d1b"/>
    <path d="M20.716,17.405a10.405,10.405,0,0,0-1.472,5.537,18.294,18.294,0,0,0,.5,6.232c.048.153.289.087.241-.067a17.733,17.733,0,0,1-.5-5.944,10.42,10.42,0,0,1,1.446-5.632c.091-.134-.126-.259-.216-.126Z" fill="#1d1d1b"/>
    <path d="M19.223,29.315a1.706,1.706,0,0,0-.073.809,1.466,1.466,0,0,0,.16.662.793.793,0,0,0,.508.311,4.6,4.6,0,0,0,.811.1,5.5,5.5,0,0,0,.88-.024,1.153,1.153,0,0,0,.611-.19c.392-.309.264-.972.185-1.391-.03-.157-.271-.091-.241.067a3.357,3.357,0,0,1,.064.686.51.51,0,0,1-.234.488,1.539,1.539,0,0,1-.583.108,5.543,5.543,0,0,1-.682.006,4.729,4.729,0,0,1-.66-.075.617.617,0,0,1-.467-.252,1.546,1.546,0,0,1-.112-.6,1.421,1.421,0,0,1,.074-.637c.059-.149-.182-.214-.241-.066Z" fill="#1d1d1b"/>
    <path d="M19.811,29.39a.979.979,0,0,0,.049.93,1.131,1.131,0,0,0,.857.266,3.9,3.9,0,0,0,.551,0,.589.589,0,0,0,.4-.162.934.934,0,0,0,.092-.92.125.125,0,0,0-.241.067c.057.21.145.508-.037.685a.471.471,0,0,1-.326.087,4.325,4.325,0,0,1-.441,0c-.2-.011-.517,0-.663-.171-.165-.2-.068-.492,0-.709.047-.154-.194-.22-.241-.066Z" fill="#1d1d1b"/>
    <path d="M17.342,30.443a6.615,6.615,0,0,0,1.97.3.125.125,0,0,0,0-.25,6.373,6.373,0,0,1-1.9-.3c-.154-.049-.219.193-.066.241Z" fill="#1d1d1b"/>
    <path d="M22.165,30.825a35.948,35.948,0,0,0,4.224-.3c.157-.021.159-.271,0-.25a35.948,35.948,0,0,1-4.224.3.125.125,0,0,0,0,.25Z" fill="#1d1d1b"/>
    <path d="M20.463,31.157c.017.2,0,.4.023.6a2.44,2.44,0,0,0,.113.527,2.524,2.524,0,0,0,.548.917c.11.117.287-.06.177-.177a2.242,2.242,0,0,1-.592-1.3c-.017-.188,0-.378-.019-.566-.014-.159-.264-.16-.25,0Z" fill="#1d1d1b"/>
    <path d="M19.459,33.069c.475.2.953.374,1.436.548a.125.125,0,0,0,.153-.087.127.127,0,0,0-.087-.154c-.483-.174-.961-.353-1.435-.548a.126.126,0,0,0-.154.087.128.128,0,0,0,.087.154Z" fill="#1d1d1b"/>
    <path d="M19.281,48.819q.857.172,1.725.273a.127.127,0,0,0,.125-.125.128.128,0,0,0-.125-.125c-.557-.063-1.109-.154-1.659-.264-.157-.032-.224.209-.066.241Z" fill="#1d1d1b"/>
    <path d="M25.852,49.127a10.931,10.931,0,0,1,1.588-.007c.161.01.16-.24,0-.25a10.931,10.931,0,0,0-1.588.007c-.16.012-.161.262,0,.25Z" fill="#1d1d1b"/>
    <path d="M17.484,50.568c.06,0,.1.173.128.217a.32.32,0,0,0,.263.169,1.724,1.724,0,0,0,.388-.067l.412-.084c.138-.028.276-.054.413-.084a.389.389,0,0,0,.258-.145.364.364,0,0,0,.008-.316l-.115-.4a.125.125,0,0,0-.241.066l.092.319a.871.871,0,0,1,.046.164c0,.033,0,.034-.035.048a1.724,1.724,0,0,1-.3.067l-.361.073-.344.07c-.065.013-.2.072-.252.012s-.071-.162-.123-.232a.3.3,0,0,0-.234-.129c-.161-.011-.16.239,0,.25Z" fill="#1d1d1b"/>
    <path d="M27.311,50.1a2.954,2.954,0,0,0-.143.539.127.127,0,0,0,.12.158l.954.042.227.01a.3.3,0,0,0,.2-.035c.059-.04.072-.1.105-.16a.291.291,0,0,1,.124-.114c.143-.074.017-.29-.126-.215a.517.517,0,0,0-.155.12c-.027.032-.1.111-.092.155-.009.016,0,.017.023,0l-.053,0-.091,0-.227-.01-.893-.04.121.158a3.026,3.026,0,0,1,.143-.538c.056-.151-.186-.217-.241-.067Z" fill="#1d1d1b"/>
    <path d="M30.541,38.268a.936.936,0,0,0,.428-.684c.059-.312.093-.631.137-.946l-.087.088a4.892,4.892,0,0,1,.672-.06.125.125,0,0,0,0-.25,5.533,5.533,0,0,0-.738.069.121.121,0,0,0-.088.087c-.04.286-.077.572-.122.857a.788.788,0,0,1-.329.623c-.141.076-.015.292.127.216Z" fill="#1d1d1b"/>
    <path d="M31.211,38.391a5,5,0,0,1,.483-.149,1.635,1.635,0,0,0,.4-.213,1.674,1.674,0,0,0,.556-.711.126.126,0,0,0-.088-.153.128.128,0,0,0-.154.087,1.379,1.379,0,0,1-.49.6,1.364,1.364,0,0,1-.346.172,3.445,3.445,0,0,0-.484.154c-.144.07-.018.286.126.216Z" fill="#1d1d1b"/>
    <path d="M33.326,37.093c-.227.343-.439.695-.633,1.057-.077.142.139.268.215.126q.293-.542.634-1.057a.127.127,0,0,0-.045-.171.129.129,0,0,0-.171.045Z" fill="#1d1d1b"/>
    <path d="M30.7,30.4A13.318,13.318,0,0,1,33,29.335a4.182,4.182,0,0,1,1.242-.32,1.149,1.149,0,0,1,1.021.574.125.125,0,0,0,.216-.126,1.408,1.408,0,0,0-.853-.655,2.5,2.5,0,0,0-1.368.177,13.643,13.643,0,0,0-2.681,1.2.125.125,0,0,0,.127.216Z" fill="#1d1d1b"/>
    <path d="M29.334,28.422a16.792,16.792,0,0,1,2.411-1.671Q32.362,26.4,33,26.1c.343-.158,1.009-.576,1.371-.279.124.1.3-.075.177-.177a1.036,1.036,0,0,0-1.1-.011,16.127,16.127,0,0,0-1.513.722,16.981,16.981,0,0,0-2.782,1.888c-.124.1.054.279.177.176Z" fill="#1d1d1b"/>
    <path d="M30.08,29.832a7.326,7.326,0,0,1,2.4-1.129.125.125,0,0,0-.067-.241,7.516,7.516,0,0,0-2.46,1.154c-.13.092,0,.309.126.216Z" fill="#1d1d1b"/>
    <path d="M29.524,29.065a7.285,7.285,0,0,1,1.422-.742.128.128,0,0,0,.087-.154.125.125,0,0,0-.153-.087,7.569,7.569,0,0,0-1.482.767c-.133.089-.008.306.126.216Z" fill="#1d1d1b"/>
    <path d="M11.99,27.47a.647.647,0,0,0,.454-.218c.123-.115.243-.235.358-.358a2.6,2.6,0,0,0,.566-.863.125.125,0,0,0-.087-.153.127.127,0,0,0-.154.087,2.274,2.274,0,0,1-.486.736c-.1.11-.211.216-.319.321-.091.089-.195.2-.332.2-.161-.006-.161.244,0,.25Z" fill="#1d1d1b"/>
    <path d="M28.284,17.658a10.346,10.346,0,0,0-.6,3.759.125.125,0,0,0,.25,0,10.156,10.156,0,0,1,.591-3.692c.054-.152-.187-.217-.241-.067Z" fill="#1d1d1b"/>
    <path d="M18.89,7.448a9.628,9.628,0,0,1,3-.746,4.835,4.835,0,0,1,2.859.384c.137.085.263-.131.126-.215a5.027,5.027,0,0,0-2.985-.419,10,10,0,0,0-3.126.78c-.147.063-.02.279.126.216Z" fill="#1d1d1b"/>
    <path d="M17.642,6.11a9.932,9.932,0,0,1,7.731-.594c.153.051.219-.19.067-.242a10.191,10.191,0,0,0-7.924.62c-.143.074-.017.29.126.216Z" fill="#1d1d1b"/>
    <path d="M20.465,9.529a8.577,8.577,0,0,1-.052.948c-.018.153-.04.306-.066.458a1.437,1.437,0,0,0-.05.407.371.371,0,0,0,.185.276,1.2,1.2,0,0,0,.377.185.453.453,0,0,0,.344-.085c.143-.088.284-.179.425-.268s.011-.3-.126-.216l-.336.212c-.09.057-.181.141-.292.1a.839.839,0,0,1-.3-.172c-.066-.077-.011-.225.005-.313a8.569,8.569,0,0,0,.138-1.533.125.125,0,0,0-.25,0Z" fill="#1d1d1b"/>
    <path d="M18.872,7.659a3.511,3.511,0,0,0,1.49.193c.159-.014.161-.264,0-.25a3.318,3.318,0,0,1-1.424-.184c-.152-.054-.217.187-.066.241Z" fill="#1d1d1b"/>
    <path d="M21.128,7.667a3.29,3.29,0,0,0,1.078-.688c.116-.112-.061-.289-.177-.177a2.969,2.969,0,0,1-.968.624.125.125,0,0,0,.067.241Z" fill="#1d1d1b"/>
    <path d="M19.923,8.611a3.856,3.856,0,0,0,.2.542.125.125,0,0,0,.171.045.128.128,0,0,0,.044-.171l-.027-.062c.012.029,0,0,0-.011l-.013-.031c-.016-.041-.031-.082-.046-.123-.03-.084-.057-.17-.081-.256a.125.125,0,1,0-.241.067Z" fill="#1d1d1b"/>
    <path d="M21.388,8.424c.024.042.047.084.067.128l.012.026c.005.013.005.012,0,0l.008.017c.008.021.016.042.023.063.014.043.027.086.037.129,0,.022.01.044.014.066l.007.038,0,.019c0-.018,0-.019,0-.005a.132.132,0,0,0,.037.088.126.126,0,0,0,.088.037c.061,0,.134-.056.125-.125a1.56,1.56,0,0,0-.2-.6.125.125,0,1,0-.216.126Z" fill="#1d1d1b"/>
    <path d="M24.677,6.918a2.814,2.814,0,0,0-.209,1.227A5.082,5.082,0,0,0,24.6,9.5a.125.125,0,0,0,.241-.066,4.735,4.735,0,0,1-.12-1.239,2.635,2.635,0,0,1,.176-1.149c.072-.144-.144-.27-.216-.126Z" fill="#1d1d1b"/>
    <path d="M21.6,11.475a2.489,2.489,0,0,1,1.268.351,1.027,1.027,0,0,1,.307.253.129.129,0,0,0,.171.044.125.125,0,0,0,.045-.171,1.774,1.774,0,0,0-.8-.537,2.757,2.757,0,0,0-.991-.19.125.125,0,0,0,0,.25Z" fill="#1d1d1b"/>
    <path d="M23.932,6.69a7.885,7.885,0,0,0-.221,2.76,4.118,4.118,0,0,1-.433,2.662.125.125,0,0,0,.215.126A4.084,4.084,0,0,0,24.005,9.8a8.315,8.315,0,0,1-.094-1.462,11.137,11.137,0,0,1,.262-1.579c.034-.157-.207-.224-.241-.066Z" fill="#1d1d1b"/>
    <path d="M20.328,11.254a1.065,1.065,0,0,0-.739.6.125.125,0,1,0,.216.126,1.009,1.009,0,0,1,.107-.186c.02-.027-.016.019.005-.006l.016-.019.036-.04a.911.911,0,0,1,.079-.073s.024-.02.01-.009.008-.006.011-.008l.049-.033a1.063,1.063,0,0,1,.093-.053l.023-.01c.012-.006.017-.008,0,0l.05-.019a1.034,1.034,0,0,1,.109-.03.125.125,0,0,0-.066-.241Z" fill="#1d1d1b"/>
    <path d="M19.367,9.6a.468.468,0,0,1,.076.237c.018.113.033.226.048.34.025.207.046.416.061.624a12.145,12.145,0,0,1,.022,1.28c-.005.16.245.16.25,0a12.188,12.188,0,0,0-.034-1.43q-.028-.342-.077-.681a.988.988,0,0,0-.17-.547c-.106-.121-.282.056-.176.177Z" fill="#1d1d1b"/>
    <path d="M21.5,13.826a1.772,1.772,0,0,1,1.385-.337.129.129,0,0,0,.154-.088.126.126,0,0,0-.087-.154,2.024,2.024,0,0,0-1.578.363.129.129,0,0,0-.045.171.126.126,0,0,0,.171.045Z" fill="#1d1d1b"/>
    <path d="M27.726,28.171a7.472,7.472,0,0,0,1.252-1.813.256.256,0,0,0-.09-.342.252.252,0,0,0-.342.089,7.018,7.018,0,0,1-1.173,1.713.25.25,0,0,0,.353.353Z" fill="#1d1d1b"/>
    <path d="M31.33.832a4.785,4.785,0,0,1,1.3.257,3.712,3.712,0,0,1,1.18.626,2.525,2.525,0,0,1,.553,2.134c-.007.161.243.16.25,0a2.743,2.743,0,0,0-.626-2.311A3.957,3.957,0,0,0,32.77.876,5.029,5.029,0,0,0,31.33.582c-.161-.009-.16.241,0,.25Z" fill="#1d1d1b"/>
    <path d="M34.112.235A1.864,1.864,0,0,1,35,1.7c.01.16.26.161.25,0A2.122,2.122,0,0,0,34.238.019a.125.125,0,0,0-.126.216Z" fill="#1d1d1b"/>
    <path d="M.084,20.738c.182.07.314.327.467.45a1.92,1.92,0,0,0,.442.263,2.483,2.483,0,0,0,1.143.182A5.48,5.48,0,0,0,4.6,20.589c.135-.086.01-.3-.127-.216a5.1,5.1,0,0,1-2.4,1.013,2.145,2.145,0,0,1-1.108-.225,1.575,1.575,0,0,1-.44-.343A.966.966,0,0,0,.151,20.5c-.151-.058-.216.184-.067.241Z" fill="#1d1d1b"/>
    <path d="M1.837,22.923a2.841,2.841,0,0,0,1.551-.07c.152-.051.087-.292-.066-.241a2.6,2.6,0,0,1-1.419.07c-.156-.037-.223.2-.066.241Z" fill="#1d1d1b"/>
    <path d="M34.752,38.83l.907-.885a1.75,1.75,0,0,0,.573-.891,5.282,5.282,0,0,0-.161-2.346.125.125,0,0,0-.241.067,5.008,5.008,0,0,1,.161,2.212,1.714,1.714,0,0,1-.591.862l-.825.8c-.116.113.061.289.177.177Z" fill="#1d1d1b"/>
    <path d="M36.476,38.393a1.45,1.45,0,0,0,.87-1.612c-.033-.157-.274-.09-.241.067a1.193,1.193,0,0,1-.7,1.3.13.13,0,0,0-.088.154.127.127,0,0,0,.154.088Z" fill="#1d1d1b"/>
  </g>
</svg>
