<svg xmlns="http://www.w3.org/2000/svg" width="3.697mm" height="2.394mm" viewBox="0 0 10.479 6.786">
  <title>molehill</title>
  <g>
    <path d="M4.334,1.725c.059.574.7.811,1.193.88a1.208,1.208,0,0,0,1.352-.682A.252.252,0,0,0,6.7,1.615.256.256,0,0,0,6.4,1.79a.566.566,0,0,1-.291.269.937.937,0,0,1-.512.054,1.793,1.793,0,0,1-.521-.16A.687.687,0,0,1,4.9,1.834a.194.194,0,0,1-.045-.056c-.041-.071,0,.018-.013-.025,0-.007-.012-.059-.009-.028a.257.257,0,0,0-.25-.25.252.252,0,0,0-.25.25Z" transform="translate(0 -0.01)" fill="#1d1d1b"/>
    <path d="M5.806.111A2.315,2.315,0,0,0,3.522.65c-.681.644-1.034,1.528-1.781,2.118C1.124,3.255.172,3.679.019,4.539A1.72,1.72,0,0,0,1.188,6.251a2.98,2.98,0,0,0,1.269.261A4.512,4.512,0,0,1,4.1,6.462,4.066,4.066,0,0,0,5.381,6.8c.612,0,1.206-.206,1.816-.239a4.532,4.532,0,0,0,2.6-.488,1.862,1.862,0,0,0,.586-2.074,6.13,6.13,0,0,0-2-2.5C7.743.916,6.7-.214,5.745.105c-.3.1-.174.584.133.482.439-.146.831.19,1.163.441q.549.414,1.06.875A7.742,7.742,0,0,1,9.677,3.635a1.49,1.49,0,0,1-.3,2.114,5.288,5.288,0,0,1-2.361.318,5.217,5.217,0,0,1-2.427.048,3.26,3.26,0,0,0-.852-.251,8.278,8.278,0,0,0-1.191.146C1.8,6.05.643,5.7.514,4.839.4,4.07,1.523,3.567,2.02,3.182,3.2,2.265,3.812.042,5.673.593A.25.25,0,0,0,5.806.111Z" transform="translate(0 -0.01)" fill="#1d1d1b"/>
    <path d="M4.808,1.56c-.109-.164.219-.243.319-.267a1.808,1.808,0,0,1,.634-.05,1.067,1.067,0,0,1,.842.545c.073.143.289.017.215-.126a1.353,1.353,0,0,0-1.2-.678,1.943,1.943,0,0,0-.791.145.392.392,0,0,0-.23.557c.089.133.306.008.216-.126Z" transform="translate(0 -0.01)" fill="#1d1d1b"/>
    <path d="M3.4,2.3A21.146,21.146,0,0,1,1.784,4.088c-.115.113.062.29.177.177A21.475,21.475,0,0,0,3.579,2.472a.131.131,0,0,0,0-.177.127.127,0,0,0-.177,0Z" transform="translate(0 -0.01)" fill="#1d1d1b"/>
    <path d="M3.144,4.456c-.03.053-.061.1-.1.156-.016.025-.033.049-.051.073s-.017.025-.027.036c.018-.021,0,0,0,0l-.016.019A2.162,2.162,0,0,1,2.7,5a.125.125,0,0,0,0,.177.127.127,0,0,0,.176,0,2.238,2.238,0,0,0,.483-.6.125.125,0,1,0-.216-.126Z" transform="translate(0 -0.01)" fill="#1d1d1b"/>
    <path d="M5.79,3.794,5.881,5.28c.01.16.26.161.25,0L6.04,3.794c-.01-.16-.26-.161-.25,0Z" transform="translate(0 -0.01)" fill="#1d1d1b"/>
    <path d="M7.632,2.819l.39.216a.861.861,0,0,1,.294.227c.065.092.107.2.176.287a1.412,1.412,0,0,0,.2.208c.264.224.666.4.775.756.047.153.289.088.241-.066-.125-.41-.514-.6-.821-.852a1.264,1.264,0,0,1-.2-.2c-.076-.1-.12-.221-.2-.32a1.087,1.087,0,0,0-.308-.238C8.037,2.756,7.9,2.68,7.759,2.6s-.268.138-.127.216Z" transform="translate(0 -0.01)" fill="#1d1d1b"/>
    <path d="M8,5.062a2.134,2.134,0,0,1,.6,1.194.124.124,0,0,0,.153.087.127.127,0,0,0,.088-.153,2.346,2.346,0,0,0-.669-1.3A.125.125,0,0,0,8,5.062Z" transform="translate(0 -0.01)" fill="#1d1d1b"/>
  </g>
</svg>
