<svg xmlns="http://www.w3.org/2000/svg" width="11.104mm" height="10.832mm" viewBox="0 0 31.475 30.706">
  <title>morespeed</title>
  <g>
    <path d="M26.617,17.053c-.255-1.219.162-2.461-.958-3.349a4.7,4.7,0,0,0-3.621-.541l.241.184a40.02,40.02,0,0,0-2.251-5.7.245.245,0,0,0-.215-.124,4.05,4.05,0,0,1-2.173-.782A5.588,5.588,0,0,1,16.165,5.6c-.685-.842-.227-2.353-1.335-2.875-1.007-.475-1.956.344-2.629,1Q10.569,5.315,9.043,7.006a.256.256,0,0,0,0,.354A93.874,93.874,0,0,0,16.7,15.151q.981.915,1.964,1.828a2.214,2.214,0,0,0,1.8.6l5.7.133a.25.25,0,0,0,0-.5l-5.335-.125a3.5,3.5,0,0,1-1.432-.126,5.69,5.69,0,0,1-.969-.883q-.944-.878-1.886-1.757A89.468,89.468,0,0,1,9.4,7.006V7.36q.942-1.038,1.92-2.042a15.816,15.816,0,0,1,1.929-1.849c.484-.348,1.22-.6,1.664-.036a2.313,2.313,0,0,1,.3,1.1,2.794,2.794,0,0,0,.848,1.681,8.548,8.548,0,0,0,1.7,1.183,5.762,5.762,0,0,0,.941.45c.279.1.774.087,1,.262.256.2.45.964.585,1.272q.313.719.6,1.45c.338.87.641,1.753.916,2.645a.252.252,0,0,0,.241.183c1.128-.142,2.479-.319,3.4.508.869.777.481,2,.693,3.015.065.315.548.182.482-.133Z" fill="#1d1d1b"/>
    <path d="M10.131,6.53a29.19,29.19,0,0,1,3.737,3.664q1.854,1.888,3.785,3.7c.96.9,1.949,2.01,3.365,2.029.8.011,1.579-.068,2.379-.02.882.053,1.762.126,2.641.21.16.016.159-.235,0-.25a37.882,37.882,0,0,0-4.809-.2c-1.718.053-2.957-1.524-4.1-2.613q-1.785-1.7-3.506-3.47a25.391,25.391,0,0,0-3.367-3.273c-.132-.092-.257.124-.126.216Z" fill="#1d1d1b"/>
    <path d="M1.921,10.417q3,.05,6-.092c.16-.008.161-.258,0-.25q-3,.143-6,.092a.125.125,0,0,0,0,.25Z" fill="#1d1d1b"/>
    <path d="M5.382,12.729q2.841.119,5.684.078a.125.125,0,0,0,0-.25q-2.843.039-5.684-.078c-.161-.006-.16.244,0,.25Z" fill="#1d1d1b"/>
    <path d="M.121,14.931q5.829,0,11.652.348c.16.009.16-.241,0-.25q-5.82-.345-11.652-.348a.125.125,0,0,0,0,.25Z" fill="#1d1d1b"/>
    <path d="M8.649,3.563A2.948,2.948,0,0,0,7.441,4.977,2.753,2.753,0,0,0,6.991,7c.054.151.3.086.242-.066a2.574,2.574,0,0,1,.446-1.879,2.683,2.683,0,0,1,1.1-1.279c.143-.074.017-.29-.126-.216Z" fill="#1d1d1b"/>
    <path d="M20.5,5.725a2.449,2.449,0,0,1,1.447,1.211c.074.143.29.017.216-.126a2.7,2.7,0,0,0-1.6-1.326c-.154-.047-.22.194-.066.241Z" fill="#1d1d1b"/>
    <path d="M15.925,1.6A8.131,8.131,0,0,1,20.311.265a9.6,9.6,0,0,1,4.9.805A11.414,11.414,0,0,1,30.5,7.389a9.987,9.987,0,0,1-.856,9.2,10.912,10.912,0,0,1-7.929,4.54,9.406,9.406,0,0,1-5.469-.882,12.183,12.183,0,0,1-2.173-1.622,8.369,8.369,0,0,1-1.852-1.989.125.125,0,0,0-.216.126,7.354,7.354,0,0,0,1.576,1.755,16.327,16.327,0,0,0,2,1.618,8.7,8.7,0,0,0,4.8,1.3,11.472,11.472,0,0,0,8.744-3.771A9.879,9.879,0,0,0,31.084,8.41a12.129,12.129,0,0,0-4.9-7.058A9.171,9.171,0,0,0,20.821,0,8.747,8.747,0,0,0,15.8,1.387c-.13.091-.005.308.127.215Z" fill="#1d1d1b"/>
    <g>
      <path d="M7.756,29.216c.018.3-.442.295-.461,0-.025-.409-.036-.819-.027-1.231a3.353,3.353,0,0,0,.025-.608c-.039-.229-.393-.731-.554-.224,0,.011-.012.017-.016.027.009.177,0,.357,0,.513.007.5,0,1,0,1.5a.23.23,0,0,1-.46,0c0-.405.006-.811,0-1.215a6.186,6.186,0,0,0-.009-.653c0-.051,0-.1-.007-.153q-.007-.455-.428-.209l-.012.014c.007.743,0,1.486-.039,2.228-.014.294-.474.3-.46,0,.044-.852.055-1.7.039-2.555a.228.228,0,0,1,.368-.177.707.707,0,0,1,.847.184.721.721,0,0,1,1.008.074,1.351,1.351,0,0,1,.166.973C7.719,28.206,7.728,28.712,7.756,29.216Z" fill="#1d1d1b"/>
      <path d="M9.916,29.128c-.108.256-.334.293-.585.328-.835.113-.89-.33-.929-1.061a5.093,5.093,0,0,1,.014-1.525c.082-.316.343-.385.635-.463a.205.205,0,0,1,.23.076c.78-.146.7.952.69,1.447A3.5,3.5,0,0,1,9.916,29.128Zm-.405-1.009c0-.1.083-1.247-.175-1.178a.205.205,0,0,1-.218-.068c-.4.165-.291.769-.274,1.137.011.293-.062.918.248,1.013C9.649,29.189,9.5,28.417,9.511,28.119Z" fill="#1d1d1b"/>
      <path d="M11.691,26.961c-.122.033-.3,0-.4.087a.858.858,0,0,0-.193.36.283.283,0,0,1-.044.071c.007.585.021,1.167.056,1.751.016.3-.445.295-.461,0q-.075-1.3-.062-2.605a.23.23,0,0,1,.46,0v.033a.589.589,0,0,1,.182-.092c.111-.03.226-.022.334-.049A.231.231,0,0,1,11.691,26.961Z" fill="#1d1d1b"/>
      <path d="M12.925,28.256c0,.049,0,.095-.005.141a.719.719,0,0,0,.258.6,2.251,2.251,0,0,0,.51-.046c.295-.026.293.434,0,.46-.319.027-.759.149-1.024-.1a1.144,1.144,0,0,1-.207-.914c.016-.518-.165-1.61.468-1.836a1.182,1.182,0,0,1,.846.046c.281.149.3.451.295.738-.005.226.018.7-.182.863S13.244,28.3,12.925,28.256Zm.027-.757c-.007.1-.009.2-.014.3a3.274,3.274,0,0,0,.626.031c.067-.26.118-.706-.05-.833-.092-.072-.33-.014-.41.037C12.927,27.138,12.968,27.306,12.952,27.5Z" fill="#1d1d1b"/>
      <path d="M16.985,29.272c-.273.241-.72.16-1.044.114-.292-.041-.168-.485.122-.443.2.027.361.071.524-.051s.122-.212.129-.419c0-.064.046-.285.012-.338-.065-.1-.233-.071-.327-.083-.26-.03-.483-.039-.566-.32a1.509,1.509,0,0,1,.087-1.044c.217-.281.555-.118.836-.226s.395.338.122.444c-.242.092-.511-.026-.6.262a.406.406,0,0,0,.122.426c.06.034.253-.012.318-.005.333.035.45.231.469.546S17.255,29.028,16.985,29.272Z" fill="#1d1d1b"/>
      <path d="M19.446,27.771c-.028.293-.065.58-.083.875a.983.983,0,0,1-.09.436.9.9,0,0,1-.948.323.411.411,0,0,1-.062-.021c0,.366.014.735.027,1.1.012.3-.448.295-.46,0-.048-1.281-.048-2.566-.006-3.847a.236.236,0,0,1,.372-.18,1.794,1.794,0,0,1,1.033.233A1.316,1.316,0,0,1,19.446,27.771Zm-.709-.794a1.327,1.327,0,0,0-.46-.057q-.029,1.014-.019,2.03a.182.182,0,0,1,.067-.007c.679.073.6-.59.651-1.084C19.008,27.56,19.1,27.153,18.737,26.977Z" fill="#1d1d1b"/>
      <path d="M20.542,28.256c0,.049,0,.095-.005.141a.719.719,0,0,0,.258.6,2.26,2.26,0,0,0,.511-.046c.294-.026.292.434,0,.46-.32.027-.76.149-1.024-.1a1.136,1.136,0,0,1-.207-.914c.016-.518-.166-1.61.467-1.836a1.184,1.184,0,0,1,.847.046c.28.149.3.451.294.738,0,.226.019.7-.182.863S20.862,28.3,20.542,28.256Zm.027-.757c-.007.1-.009.2-.013.3a3.274,3.274,0,0,0,.626.031c.066-.26.117-.706-.051-.833-.092-.072-.329-.014-.41.037C20.544,27.138,20.585,27.306,20.569,27.5Z" fill="#1d1d1b"/>
      <path d="M22.758,28.256c0,.049,0,.095,0,.141a.719.719,0,0,0,.258.6,2.255,2.255,0,0,0,.511-.046c.294-.026.292.434,0,.46-.32.027-.759.149-1.024-.1a1.14,1.14,0,0,1-.207-.914c.016-.518-.166-1.61.467-1.836a1.184,1.184,0,0,1,.847.046c.281.149.3.451.294.738,0,.226.019.7-.181.863S23.078,28.3,22.758,28.256Zm.028-.757c-.007.1-.01.2-.014.3a3.274,3.274,0,0,0,.626.031c.066-.26.117-.706-.051-.833-.092-.072-.329-.014-.41.037C22.76,27.138,22.8,27.306,22.786,27.5Z" fill="#1d1d1b"/>
      <path d="M26.193,29.262a.229.229,0,0,1-.363.18.2.2,0,0,1-.131.046c-.329,0-.863.064-1.06-.258a2.418,2.418,0,0,1-.112-1.185,2.952,2.952,0,0,1,.088-1.333c.209-.346.672-.172,1-.236a.226.226,0,0,1,.1,0c0-.311,0-.624-.008-.937a.231.231,0,0,1,.461,0Q26.177,27.4,26.193,29.262Zm-.494-.237a.116.116,0,0,1,.032.008c-.005-.7-.011-1.407-.016-2.111-.214.034-.615-.013-.718.17a2.285,2.285,0,0,0-.007.762,4.005,4.005,0,0,0,0,.812C25.078,29.062,25.363,29.028,25.7,29.025Z" fill="#1d1d1b"/>
    </g>
  </g>
</svg>
