<svg xmlns="http://www.w3.org/2000/svg" width="2.863mm" height="1.818mm" viewBox="0 0 8.115 5.153">
  <title>mushroom3</title>
  <g>
    <path d="M2.922.27A.613.613,0,0,0,2.1.087a.886.886,0,0,0-.316.33c-.074.128-.1.321-.2.424a.517.517,0,0,1-.3.094,4.082,4.082,0,0,0-.549.091C.392,1.12,0,1.26,0,1.683a.855.855,0,0,0,.42.7.849.849,0,0,0,.835.033.78.78,0,0,1,.405-.13c.175.008.346.062.521.056a.705.705,0,0,0,.706-.471,1.664,1.664,0,0,0,.033-.244.111.111,0,0,1,.014-.05c-.024.031.033,0,.051-.008a.574.574,0,0,0,.4-.322.616.616,0,0,0-.06-.525A4.282,4.282,0,0,0,2.949.305a.252.252,0,0,0-.354,0,.255.255,0,0,0,0,.353c.078.1.176.173.257.267a.258.258,0,0,1,.061.1.151.151,0,0,1,.007.037c0,.036-.009.022,0,.009-.014.015-.072.023-.089.029a.948.948,0,0,0-.161.068.5.5,0,0,0-.227.3c-.024.09,0,.213-.043.295a.216.216,0,0,1-.174.089c-.239.032-.478-.073-.719-.048a1,1,0,0,0-.368.119.6.6,0,0,1-.272.105.4.4,0,0,1-.346-.226c-.024-.055-.04-.118,0-.159a.506.506,0,0,1,.173-.071c.075-.026.151-.049.228-.068.232-.057.48-.047.707-.122a.74.74,0,0,0,.333-.207A1.294,1.294,0,0,0,2.154.793.562.562,0,0,1,2.333.53c.036-.024.126-.056.157-.007.174.269.607.019.432-.253Z" transform="translate(0 -0.002)" fill="#1d1d1b"/>
    <path d="M.8,2.514A1.578,1.578,0,0,1,2.232,3.84a.762.762,0,0,0,.3.543.478.478,0,0,0,.6-.046.987.987,0,0,0,.17-.654c.013-.252.01-.5.006-.757a6.179,6.179,0,0,1,.109-1.652.251.251,0,0,0-.483-.133,6.718,6.718,0,0,0-.126,1.785c0,.28.008.561-.011.841a1.223,1.223,0,0,0-.019.189c-.024.054-.013.059.031.014.028,0,.031,0,.01,0a.582.582,0,0,1-.064-.08.972.972,0,0,1-.042-.185A2.077,2.077,0,0,0,.8,2.014C.481,2,.482,2.5.8,2.514Z" transform="translate(0 -0.002)" fill="#1d1d1b"/>
    <path d="M2.487,1.987a4.581,4.581,0,0,1,.08.778.125.125,0,1,0,.25,0,5.006,5.006,0,0,0-.089-.845.126.126,0,0,0-.154-.087.128.128,0,0,0-.087.154Z" transform="translate(0 -0.002)" fill="#1d1d1b"/>
    <path d="M1.73,1.294l.04,0,.016,0c-.033,0-.014,0-.005,0a.611.611,0,0,1,.074.017l.038.013.019.007c.015.005-.029-.013,0,0s.046.023.068.036.042.029.064.042c-.006,0-.019-.015-.007,0l.016.013.029.027c.005,0,.054.053.051.057s-.018-.025,0,0l.012.016.021.034a.125.125,0,1,0,.216-.126.791.791,0,0,0-.646-.381.125.125,0,0,0,0,.25Z" transform="translate(0 -0.002)" fill="#1d1d1b"/>
    <path d="M5.684,1.114a1.3,1.3,0,0,0-.839.288.653.653,0,0,0-.122.792.813.813,0,0,0,.75.281.729.729,0,0,1,.332.066c.138.069.258.167.39.246a.9.9,0,0,0,.9.09,3.7,3.7,0,0,0,.337-.285,2.512,2.512,0,0,1,.349-.15.614.614,0,0,0,.3-.764.809.809,0,0,0-.717-.525.83.83,0,0,1-.425-.125A1.487,1.487,0,0,0,6.558.8c-.369-.122-.683.194-.962.387-.263.182-.014.616.252.432L6.164,1.4c.055-.038.151-.132.221-.13s.138.074.182.107a1.915,1.915,0,0,0,.239.16,1.021,1.021,0,0,0,.355.1,1.023,1.023,0,0,1,.307.051c.106.05.221.227.095.31a1.433,1.433,0,0,1-.233.093.961.961,0,0,0-.285.182.989.989,0,0,1-.2.18.35.35,0,0,1-.265-.024c-.2-.079-.352-.232-.54-.325a1.376,1.376,0,0,0-.626-.124c-.109,0-.324.02-.262-.146.072-.191.368-.2.535-.215a.256.256,0,0,0,.25-.25.252.252,0,0,0-.25-.25Z" transform="translate(0 -0.002)" fill="#1d1d1b"/>
    <path d="M7.485,2.135a15.358,15.358,0,0,0-.843,1.419,2.814,2.814,0,0,0-.253.745c-.011.067-.02.134-.026.2,0,.027.008.149-.016.171,0,0,.008-.018,0-.016a.288.288,0,0,1-.088,0c-.069,0-.037-.03,0,.017l.065.11a1.556,1.556,0,0,1,0-.3A3.473,3.473,0,0,0,6.3,4.1a3.4,3.4,0,0,0-.177-.717,3.567,3.567,0,0,0-.792-1.262c-.225-.23-.578.123-.353.354a3.031,3.031,0,0,1,.856,2.175.634.634,0,0,0,.028.3.364.364,0,0,0,.319.2A.628.628,0,0,0,6.718,5c.166-.172.122-.421.165-.636A2.548,2.548,0,0,1,7.1,3.744c.235-.47.536-.91.812-1.357.17-.274-.262-.525-.431-.252Z" transform="translate(0 -0.002)" fill="#1d1d1b"/>
    <path d="M6.627,2.781a1.74,1.74,0,0,0-.247.8.125.125,0,1,0,.25,0c0-.033,0-.065.009-.1,0-.009,0-.009,0,0l0-.026.009-.051A1.81,1.81,0,0,1,6.7,3.231a1.383,1.383,0,0,1,.148-.324A.126.126,0,0,0,6.8,2.736a.128.128,0,0,0-.171.045Z" transform="translate(0 -0.002)" fill="#1d1d1b"/>
    <path d="M6.716,1.277a2.5,2.5,0,0,0-.372.8.125.125,0,0,0,.241.067A2.223,2.223,0,0,1,6.932,1.4a.125.125,0,0,0-.045-.171.129.129,0,0,0-.171.045Z" transform="translate(0 -0.002)" fill="#1d1d1b"/>
    <path d="M3.765,3.563a.8.8,0,0,1,.359.324.753.753,0,0,1,.093.223c.006.021.01.042.014.064l.006.032c0-.018,0,.006,0,.012a1.044,1.044,0,0,1,0,.137.125.125,0,0,0,.25,0,1.074,1.074,0,0,0-.6-1.008.128.128,0,0,0-.171.045.125.125,0,0,0,.045.171Z" transform="translate(0 -0.002)" fill="#1d1d1b"/>
    <path d="M4.5,3.482A2,2,0,0,0,4.241,4.51a.125.125,0,0,0,.25,0,1.748,1.748,0,0,1,.225-.9A.125.125,0,0,0,4.5,3.482Z" transform="translate(0 -0.002)" fill="#1d1d1b"/>
    <path d="M7.536,4.112a1.261,1.261,0,0,0-.3.482.125.125,0,0,0,.088.153.127.127,0,0,0,.153-.087L7.5,4.6l0,.007L7.5,4.6l.012-.026a1.073,1.073,0,0,1,.062-.11c.011-.017.022-.034.034-.051l.017-.023c.01-.013,0,.005-.007.008l.012-.014a1.216,1.216,0,0,1,.084-.093.125.125,0,0,0,0-.176.127.127,0,0,0-.177,0Z" transform="translate(0 -0.002)" fill="#1d1d1b"/>
  </g>
</svg>
