<svg xmlns="http://www.w3.org/2000/svg" width="1.945mm" height="1.77mm" viewBox="0 0 5.513 5.017">
  <title>mushroom2</title>
  <g>
    <path d="M2.178.031A4.375,4.375,0,0,0,.3,1.351,1.006,1.006,0,0,0,.233,2.374a1.161,1.161,0,0,0,.98.49,2.329,2.329,0,0,0,.545-.152.487.487,0,0,1,.249.034,1.383,1.383,0,0,0,.355.055,4.1,4.1,0,0,0,.594-.073c.219-.033.438-.064.657-.1a.99.99,0,0,0,.85-.533A1.1,1.1,0,0,0,4.4,1.149,2.084,2.084,0,0,0,3.51.387,2.05,2.05,0,0,0,2.176.05C1.86.1,1.994.586,2.309.532a1.438,1.438,0,0,1,.872.245,2.3,2.3,0,0,1,.682.474.649.649,0,0,1,.164.587c-.075.272-.38.286-.616.321-.322.047-.652.119-.977.139-.3.019-.562-.16-.868-.046a.936.936,0,0,1-.416.111.763.763,0,0,1-.4-.154c-.216-.171-.122-.46.009-.654a2.024,2.024,0,0,1,.7-.576C1.775.8,2.105.633,2.431.463c.285-.15.032-.581-.253-.432Z" fill="#1d1d1b"/>
    <path d="M1.754,2.581c-.076.41-.321.764-.375,1.181a1.038,1.038,0,0,0,.476,1.03,1.415,1.415,0,0,0,1.2.1,1.158,1.158,0,0,0,.485-.3A.924.924,0,0,0,3.764,4a4.9,4.9,0,0,0-.147-1.492.25.25,0,0,0-.482.133,4.5,4.5,0,0,1,.136,1.04,1.315,1.315,0,0,1-.037.479A.462.462,0,0,1,3,4.378a.99.99,0,0,1-.809.028.54.54,0,0,1-.316-.581c.043-.39.294-.726.365-1.111a.256.256,0,0,0-.174-.308.254.254,0,0,0-.308.175Z" fill="#1d1d1b"/>
    <path d="M.434,1.562a.509.509,0,0,0,.589.554c.241-.016.467-.114.709-.13a4.3,4.3,0,0,1,.69.032,2.655,2.655,0,0,0,1.183-.069.916.916,0,0,0,.426-.279c.12-.162.089-.363.153-.546C4.238.972,4,.907,3.943,1.058s-.023.314-.1.441a.691.691,0,0,1-.387.236,2.366,2.366,0,0,1-.907.045,4.407,4.407,0,0,0-.967-.029c-.159.02-.31.072-.467.1s-.486.014-.444-.224C.7,1.471.462,1.4.434,1.562Z" fill="#1d1d1b"/>
    <path d="M.061,3.825l.031.023a.078.078,0,1,0-.007,0L.1,3.855.155,3.9c.018.018.036.037.053.056l.022.026L.243,4l0,0a1.223,1.223,0,0,1,.079.123q.018.033.033.066L.36,4.2l0,0,.013.036a.128.128,0,0,0,.154.087.126.126,0,0,0,.087-.154,1.161,1.161,0,0,0-.425-.559.126.126,0,0,0-.171.045.128.128,0,0,0,.045.171Z" fill="#1d1d1b"/>
    <path d="M.81,3.421a1.18,1.18,0,0,0-.338.9A.128.128,0,0,0,.6,4.441a.126.126,0,0,0,.125-.125c0-.034,0-.068,0-.1,0-.019,0-.038,0-.057l0-.026c0-.021,0,.016,0,0A1.027,1.027,0,0,1,.779,3.92L.789,3.9s.007-.018,0-.006c.006-.016.014-.031.021-.047s.032-.06.05-.09A.819.819,0,0,1,.986,3.6.125.125,0,0,0,.81,3.421Z" fill="#1d1d1b"/>
    <path d="M4.26,3.929a1.375,1.375,0,0,1,.454.852.129.129,0,0,0,.125.125.126.126,0,0,0,.125-.125,1.624,1.624,0,0,0-.527-1.029.128.128,0,0,0-.177,0,.126.126,0,0,0,0,.177Z" fill="#1d1d1b"/>
    <path d="M5.279,3.592a2.063,2.063,0,0,0-.424,1.3.125.125,0,0,0,.25,0A1.853,1.853,0,0,1,5.5,3.718a.126.126,0,0,0-.045-.171.127.127,0,0,0-.171.045Z" fill="#1d1d1b"/>
  </g>
</svg>
