<svg xmlns="http://www.w3.org/2000/svg" width="2.264mm" height="2.287mm" viewBox="0 0 6.416 6.483">
  <title>mushroom1</title>
  <g>
    <path d="M1.276.127A3.05,3.05,0,0,0,.051,1.582a.874.874,0,0,0,.178.893,1.4,1.4,0,0,0,.858.314A5.456,5.456,0,0,0,2.193,2.75,1.344,1.344,0,0,0,3.1,2.4,1.325,1.325,0,0,0,2.963.652,1.975,1.975,0,0,0,2.107.079c-.278-.1-.721-.155-.868.181A.258.258,0,0,0,1.329.6a.251.251,0,0,0,.342-.09C1.7.444,1.675.5,1.658.507c0,0-.335-.109.032-.008a.612.612,0,0,0,.074,0,1.12,1.12,0,0,1,.292.089,1.5,1.5,0,0,1,.51.365c.258.279.48.806.15,1.121a.98.98,0,0,1-.6.18A6.319,6.319,0,0,1,1.3,2.3a1.331,1.331,0,0,1-.662-.137c-.172-.109-.157-.3-.1-.472A2.547,2.547,0,0,1,1.529.558a.258.258,0,0,0,.09-.342A.252.252,0,0,0,1.276.127Z" transform="translate(-0.003 -0.004)" fill="#1d1d1b"/>
    <path d="M5.127,1.046a1.875,1.875,0,0,0-1.117.88,1,1,0,0,0-.279.786.853.853,0,0,0,.583.515,3.358,3.358,0,0,0,.842.213,1.975,1.975,0,0,0,.77-.017.629.629,0,0,0,.49-.552,1.807,1.807,0,0,0-.039-.427,3.591,3.591,0,0,0-.1-.435,1.562,1.562,0,0,0-.429-.8A.7.7,0,0,0,5,1.136a.258.258,0,0,0-.09.342.252.252,0,0,0,.342.09.155.155,0,0,1,.125-.046.281.281,0,0,1,.181.1,1.145,1.145,0,0,1,.22.464,3.215,3.215,0,0,1,.13.628.742.742,0,0,1,.007.133S5.9,2.9,5.91,2.873c0,.01-.027.026-.009.013a.313.313,0,0,1-.137.062,1.766,1.766,0,0,1-.548,0,2.872,2.872,0,0,1-.6-.139c-.1-.035-.354-.11-.394-.2-.026-.058.022-.126.05-.174.049-.083.1-.163.161-.243a1.383,1.383,0,0,1,.827-.664.252.252,0,0,0,.175-.307.256.256,0,0,0-.308-.175Z" transform="translate(-0.003 -0.004)" fill="#1d1d1b"/>
    <path d="M1.351,2.846c.162.08.073.558.059.709-.032.342-.127.672-.175,1.011A1.762,1.762,0,0,0,1.81,6.233a1.022,1.022,0,0,0,1.435-.081.805.805,0,0,0,.17-.77,4.135,4.135,0,0,0-.444-.74,3.34,3.34,0,0,1-.418-1.975c.03-.32-.47-.318-.5,0a3.76,3.76,0,0,0,.209,1.626,3.818,3.818,0,0,0,.355.73c.109.172.354.4.336.616a.448.448,0,0,1-.4.357.715.715,0,0,1-.582-.3,1.818,1.818,0,0,1-.14-1.615,4.682,4.682,0,0,0,.1-1,.713.713,0,0,0-.326-.67c-.288-.142-.541.289-.253.432Z" transform="translate(-0.003 -0.004)" fill="#1d1d1b"/>
    <path d="M4.653,3.124a2.186,2.186,0,0,0-.316.538,1.959,1.959,0,0,1-.281.5,2.089,2.089,0,0,1-1.04.584.25.25,0,0,0,.133.483,2.646,2.646,0,0,0,1.22-.67,1.9,1.9,0,0,0,.36-.557c.042-.094.082-.19.129-.283a1.466,1.466,0,0,1,.148-.245.255.255,0,0,0,0-.353.251.251,0,0,0-.353,0Z" transform="translate(-0.003 -0.004)" fill="#1d1d1b"/>
    <path d="M3.282,6.2c1.334-.273,1.682-1.764,2.374-2.723a.252.252,0,0,0-.09-.342.255.255,0,0,0-.342.09c-.6.831-.919,2.256-2.075,2.493a.25.25,0,0,0,.133.482Z" transform="translate(-0.003 -0.004)" fill="#1d1d1b"/>
    <path d="M.192,4.264a2.083,2.083,0,0,1,.493.96.125.125,0,1,0,.241-.067,2.333,2.333,0,0,0-.557-1.07.125.125,0,1,0-.177.177Z" transform="translate(-0.003 -0.004)" fill="#1d1d1b"/>
    <path d="M5.059,6.307a1.888,1.888,0,0,1,.9-.91.125.125,0,1,0-.126-.215,2.1,2.1,0,0,0-.987,1,.129.129,0,0,0,.045.171.125.125,0,0,0,.171-.045Z" transform="translate(-0.003 -0.004)" fill="#1d1d1b"/>
    <path d="M4.844,5.3V6.2a.128.128,0,0,0,.125.125A.126.126,0,0,0,5.094,6.2V5.3a.125.125,0,0,0-.25,0Z" transform="translate(-0.003 -0.004)" fill="#1d1d1b"/>
    <path d="M.8,4.182A2.412,2.412,0,0,0,.771,5.261a.126.126,0,0,0,.153.087.127.127,0,0,0,.088-.154,2.129,2.129,0,0,1,.033-.946A.125.125,0,0,0,.8,4.182Z" transform="translate(-0.003 -0.004)" fill="#1d1d1b"/>
  </g>
</svg>
