<svg xmlns="http://www.w3.org/2000/svg" width="10.025mm" height="10.938mm" viewBox="0 0 28.418 31.007">
  <title>next</title>
  <g>
    <g>
      <path d="M5.127,9.21c-.009.511-.023,1.02-.035,1.53a.23.23,0,0,1-.459,0c.011-.446.02-.892.032-1.339a2.867,2.867,0,0,0,.011-.578C4.591,8.4,4.329,8.253,4,8.637c-.007.007-.014.01-.021.016Q3.954,9.7,4,10.752c.014.3-.447.294-.46,0-.042-.889-.042-1.776,0-2.667A.23.23,0,0,1,4,8.065a.769.769,0,0,1,1.012.105A1.784,1.784,0,0,1,5.127,9.21Z" transform="translate(-0.025 -0.004)" fill="#1d1d1b"/>
      <path d="M6.218,9.769c0,.048,0,.094,0,.14a.719.719,0,0,0,.258.6,2.2,2.2,0,0,0,.511-.046c.294-.025.292.435,0,.46-.32.027-.76.149-1.024-.1a1.136,1.136,0,0,1-.207-.914c.016-.517-.166-1.61.467-1.836a1.184,1.184,0,0,1,.847.046c.28.15.3.451.294.739,0,.225.019.7-.182.863S6.538,9.809,6.218,9.769Zm.027-.757c-.007.1-.009.2-.013.3a3.355,3.355,0,0,0,.626.03c.066-.26.117-.706-.051-.833-.092-.071-.329-.014-.41.037C6.22,8.65,6.261,8.818,6.245,9.012Z" transform="translate(-0.025 -0.004)" fill="#1d1d1b"/>
      <path d="M9.5,10.881c-.166-.327-.338-.651-.511-.974-.2.338-.4.679-.6,1.017a.23.23,0,0,1-.4-.232c.249-.419.5-.84.744-1.259-.2-.37-.41-.741-.624-1.107a.231.231,0,0,1,.4-.232c.169.292.333.587.5.882.164-.277.325-.553.488-.829a.23.23,0,0,1,.4.232c-.209.354-.416.707-.626,1.062.217.4.428.8.633,1.205C10.029,10.91,9.632,11.143,9.5,10.881Z" transform="translate(-0.025 -0.004)" fill="#1d1d1b"/>
      <path d="M11.209,8.446c-.069,0-.138-.011-.207-.016v.283c0,.145-.076,1.822.071,1.8.29-.039.414.4.123.444-.661.09-.7-.419-.68-.955.019-.58.024-1.16.024-1.739a.235.235,0,0,1-.016-.086.194.194,0,0,1,.016-.08c0-.334,0-.67,0-1.006a.23.23,0,0,1,.46,0c0,.292,0,.585,0,.877.071,0,.14.013.209.015C11.5,8,11.5,8.455,11.209,8.446Z" transform="translate(-0.025 -0.004)" fill="#1d1d1b"/>
      <path d="M13.81,10.966c-.626.124-.679-.477-.672-.95.016-.981.08-1.966.058-2.946a.23.23,0,0,1,.459,0c.012.569-.013,1.137-.027,1.7a7.847,7.847,0,0,0,.06,1.749C13.978,10.466,14.1,10.908,13.81,10.966Z" transform="translate(-0.025 -0.004)" fill="#1d1d1b"/>
      <path d="M15.047,9.769c0,.048,0,.094-.005.14a.719.719,0,0,0,.258.6,2.2,2.2,0,0,0,.511-.046c.294-.025.292.435,0,.46-.32.027-.76.149-1.024-.1a1.14,1.14,0,0,1-.207-.914c.016-.517-.166-1.61.467-1.836a1.184,1.184,0,0,1,.847.046c.281.15.3.451.294.739,0,.225.019.7-.181.863S15.367,9.809,15.047,9.769Zm.027-.757c-.006.1-.009.2-.013.3a3.355,3.355,0,0,0,.626.03c.066-.26.117-.706-.051-.833-.092-.071-.329-.014-.41.037C15.049,8.65,15.091,8.818,15.074,9.012Z" transform="translate(-0.025 -0.004)" fill="#1d1d1b"/>
      <path d="M18.625,8.324c-.284.8-.364,1.68-.592,2.5a.233.233,0,0,1-.444,0q-.438-1.266-.794-2.561a.23.23,0,0,1,.444-.122c.164.593.346,1.18.534,1.767a12.38,12.38,0,0,1,.407-1.7C18.277,7.924,18.721,8.043,18.625,8.324Z" transform="translate(-0.025 -0.004)" fill="#1d1d1b"/>
      <path d="M19.71,9.769c0,.048,0,.094-.005.14a.719.719,0,0,0,.258.6,2.2,2.2,0,0,0,.51-.046c.3-.025.293.435,0,.46-.319.027-.759.149-1.024-.1a1.144,1.144,0,0,1-.207-.914c.016-.517-.165-1.61.468-1.836a1.182,1.182,0,0,1,.846.046c.281.15.3.451.295.739,0,.225.018.7-.182.863S20.029,9.809,19.71,9.769Zm.027-.757c-.007.1-.009.2-.014.3a3.355,3.355,0,0,0,.626.03c.067-.26.117-.706-.05-.833-.092-.071-.33-.014-.41.037C19.712,8.65,19.753,8.818,19.737,9.012Z" transform="translate(-0.025 -0.004)" fill="#1d1d1b"/>
      <path d="M22.119,10.966c-.626.124-.679-.477-.672-.95.016-.981.081-1.966.058-2.946a.23.23,0,0,1,.46,0c.011.569-.014,1.137-.028,1.7A7.847,7.847,0,0,0,22,10.522C22.287,10.466,22.411,10.908,22.119,10.966Z" transform="translate(-0.025 -0.004)" fill="#1d1d1b"/>
    </g>
    <path d="M21.991,4.657Q11.14,4.237.276,4.442a.253.253,0,0,0-.25.25q.455,4.471.5,8.967a.255.255,0,0,0,.25.25q5.21.249,10.425.285,2.546.016,5.09-.019,1.3-.018,2.607-.05.621-.015,1.241-.034a4.716,4.716,0,0,1,1.429.021l-.183-.241a7.5,7.5,0,0,0,.193,2.784.253.253,0,0,0,.456.06A60.7,60.7,0,0,1,28.371,9.2a.256.256,0,0,0,.039-.3,30.183,30.183,0,0,0-6.235-6.743.254.254,0,0,0-.418.11,9.518,9.518,0,0,0-.014,2.644.25.25,0,0,0,.5,0,9.064,9.064,0,0,1,0-2.511l-.417.11a29.737,29.737,0,0,1,6.156,6.643l.039-.3a61.377,61.377,0,0,0-6.412,7.614l.457.059a7.127,7.127,0,0,1-.175-2.651.252.252,0,0,0-.184-.241,7.751,7.751,0,0,0-2.307-.018q-1.3.034-2.606.055-2.67.043-5.339.029-5.338-.03-10.673-.287l.25.25Q.98,9.167.526,4.692l-.25.25q10.859-.2,21.715.215c.322.012.322-.488,0-.5Z" transform="translate(-0.025 -0.004)" fill="#1d1d1b"/>
    <path d="M11.227,1.056c.078.553.076,1.121.105,1.678l.087,1.725c.017.32.517.322.5,0l-.091-1.792C11.8,2.086,11.79,1.5,11.709.923A.251.251,0,0,0,11.4.749a.255.255,0,0,0-.174.307Z" transform="translate(-0.025 -0.004)" fill="#1d1d1b"/>
    <path d="M11.591.532l-.125.044.243.417A1.257,1.257,0,0,1,13.352.706a.258.258,0,0,0,.354,0,.253.253,0,0,0,0-.354,1.537,1.537,0,0,0-1.267-.32A2.169,2.169,0,0,0,11.356.64c-.172.167,0,.5.243.418l.125-.044A.256.256,0,0,0,11.9.706a.251.251,0,0,0-.307-.174Z" transform="translate(-0.025 -0.004)" fill="#1d1d1b"/>
    <path d="M13.382.656a1.836,1.836,0,0,0,.093.9,5.051,5.051,0,0,1,.038.968,13.6,13.6,0,0,0,.026,1.978c.035.316.535.32.5,0A12.632,12.632,0,0,1,14.01,2.6a6.141,6.141,0,0,0-.019-.93,4.077,4.077,0,0,0-.076-.453.759.759,0,0,1-.051-.429c.1-.305-.379-.436-.482-.133Z" transform="translate(-0.025 -0.004)" fill="#1d1d1b"/>
    <path d="M11.613,14.14a20.458,20.458,0,0,1,.1,3.779q-.012,1.788-.031,3.577-.039,3.639-.1,7.278a.25.25,0,0,0,.5,0q.062-3.762.1-7.525.02-1.85.032-3.7a19.207,19.207,0,0,0-.119-3.541c-.058-.316-.54-.182-.483.133Z" transform="translate(-0.025 -0.004)" fill="#1d1d1b"/>
    <path d="M13.854,14.077l0,7.575,0,3.726a23.069,23.069,0,0,0,.139,3.527c.049.317.531.182.482-.133a24.784,24.784,0,0,1-.12-3.766l0-3.6,0-7.327a.25.25,0,0,0-.5,0Z" transform="translate(-0.025 -0.004)" fill="#1d1d1b"/>
    <path d="M6.207,30.983a18.649,18.649,0,0,1,14.2-.833c.3.105.436-.378.133-.483a19.16,19.16,0,0,0-14.581.884c-.29.141-.036.572.252.432Z" transform="translate(-0.025 -0.004)" fill="#1d1d1b"/>
    <path d="M11.46,1.169a1.252,1.252,0,0,0,1.109.366A2.654,2.654,0,0,0,13.8.938c.127-.1,0-.313-.126-.216a2.627,2.627,0,0,1-1.069.557,1.025,1.025,0,0,1-.963-.287c-.107-.121-.283.057-.177.177Z" transform="translate(-0.025 -0.004)" fill="#1d1d1b"/>
    <path d="M17.873,26.82l-.233,2.565c-.014.16.236.159.25,0l.233-2.565c.015-.161-.236-.16-.25,0Z" transform="translate(-0.025 -0.004)" fill="#1d1d1b"/>
    <path d="M19.067,26.677A6.257,6.257,0,0,0,17.7,29.338c-.038.156.2.223.241.066a5.992,5.992,0,0,1,1.307-2.551c.105-.121-.071-.3-.177-.176Z" transform="translate(-0.025 -0.004)" fill="#1d1d1b"/>
    <path d="M7.64,28.554a6.534,6.534,0,0,1,1.179,2.282.126.126,0,0,0,.242-.066,6.868,6.868,0,0,0-1.244-2.393c-.1-.125-.276.052-.177.177Z" transform="translate(-0.025 -0.004)" fill="#1d1d1b"/>
    <path d="M8.683,28.035l.249,2.422c.016.158.266.16.25,0l-.249-2.422c-.016-.159-.266-.161-.25,0Z" transform="translate(-0.025 -0.004)" fill="#1d1d1b"/>
    <path d="M9.93,28.171a5.114,5.114,0,0,0-.9,2.625c-.01.161.24.161.25,0a4.872,4.872,0,0,1,.865-2.5c.092-.133-.125-.258-.216-.126Z" transform="translate(-0.025 -0.004)" fill="#1d1d1b"/>
  </g>
</svg>
