<svg xmlns="http://www.w3.org/2000/svg" width="17.259mm" height="7.47mm" viewBox="0 0 48.922 21.176">
  <title>puddle1</title>
  <g>
    <path d="M26.512.6a3.369,3.369,0,0,0-2.131-.6,10.7,10.7,0,0,0-2.8.223A3.858,3.858,0,0,0,19.5,1.64a4.43,4.43,0,0,1-2.236,1.738,21.507,21.507,0,0,1-2.849.458,11.223,11.223,0,0,0-2.8.8c-.63.274-1.7.677-1.958,1.393-.358,1,1.346,1.244.629,2.336-.594.9-2.058,1.219-3.028,1.521-1.023.319-2.061.594-3.067.964C2.611,11.428.867,12.345.2,14a2.763,2.763,0,0,0,1.5,3.451,11.356,11.356,0,0,0,5.365,1.065,22.774,22.774,0,0,1,3.5.244,14.813,14.813,0,0,1,3.121,1.05,16.322,16.322,0,0,0,6.052,1.344,30.733,30.733,0,0,0,6.43-.344c1.975-.37,3.228-1.709,4.864-2.735,3.7-2.317,8.489-1.677,12.622-2.318,1.655-.257,4.1-.637,4.979-2.286a3.1,3.1,0,0,0-1.161-3.845,7.572,7.572,0,0,0-2.4-1.213,19.6,19.6,0,0,1-3.062-.971,2.765,2.765,0,0,1-1.144-.958c-.377-.629,0-1.27.1-1.92A2.616,2.616,0,0,0,40.527,2.7C39.448,1.087,37.4.853,35.62,1.016c-2.172.2-4.325.9-6.521.614A4.585,4.585,0,0,1,26.408.487c-.229-.226-.583.127-.353.353a5.983,5.983,0,0,0,4.406,1.354c2.043-.059,4.025-.709,6.071-.727,1.834-.015,4.427.992,3.879,3.284a2.344,2.344,0,0,0,.117,2.119,3.713,3.713,0,0,0,1.646,1.188c1.78.736,3.793.824,5.274,2.193a2.625,2.625,0,0,1,.936,2.461,2.922,2.922,0,0,1-2.142,1.911c-3.835,1.341-8.031.767-11.96,1.655A11.713,11.713,0,0,0,29.6,18.487a10.389,10.389,0,0,1-2.258,1.458,9.47,9.47,0,0,1-3.117.574,35.363,35.363,0,0,1-6.079.024,12.959,12.959,0,0,1-3.073-.711c-.9-.335-1.772-.758-2.678-1.089A18.145,18.145,0,0,0,6.6,18c-1.761-.057-3.873-.207-5.276-1.417C-.338,15.148.929,13.22,2.4,12.255c1.646-1.082,3.676-1.445,5.52-2.057,1.105-.367,3.622-1.185,2.991-2.839-.112-.293-.335-.425-.52-.661-.563-.72.417-1.113.918-1.368a10.359,10.359,0,0,1,2.831-.944c1.588-.293,3.465-.181,4.759-1.307.594-.517.975-1.232,1.57-1.747A4.554,4.554,0,0,1,23.386.518a4.261,4.261,0,0,1,2.772.438c.249.2.605-.152.354-.354Z" transform="translate(-0.013)" fill="#1d1d1b"/>
    <path d="M5.627,6.548a2.643,2.643,0,0,0-1.611.594A.842.842,0,0,0,4.09,8.41,1.264,1.264,0,0,0,5,8.556a9.673,9.673,0,0,0,.951-.2,6.9,6.9,0,0,0,.937-.265c.251-.1.527-.273.545-.574.021-.349-.309-.557-.59-.678a3.8,3.8,0,0,0-1.1-.281.251.251,0,0,0-.25.25.256.256,0,0,0,.25.25,3.231,3.231,0,0,1,.694.157,2,2,0,0,1,.307.127c.032.017.185.088.189.14.006.071-.255.157-.32.179-.242.079-.493.138-.741.2s-.5.12-.752.17a1.231,1.231,0,0,1-.662.01c-.262-.1-.241-.39-.062-.571a1.319,1.319,0,0,1,.583-.292A5.937,5.937,0,0,1,5.76,7.03a.252.252,0,0,0,.174-.308.255.255,0,0,0-.307-.174Z" transform="translate(-0.013)" fill="#1d1d1b"/>
    <path d="M35.878,17.631c-.607.13-1.4-.071-1.859.469a.607.607,0,0,0-.021.769,1.559,1.559,0,0,0,.779.49,4.222,4.222,0,0,0,2.08.154c.517-.1,1.209-.463,1.008-1.1-.245-.78-1.256-.852-1.931-.829-.321.01-.322.51,0,.5.437-.015,1.072-.039,1.378.341s-.293.55-.562.6a3.621,3.621,0,0,1-1.543-.062c-.144-.036-1.05-.286-.792-.559a1.055,1.055,0,0,1,.691-.212,5.807,5.807,0,0,0,.9-.079c.315-.067.182-.549-.132-.482Z" transform="translate(-0.013)" fill="#1d1d1b"/>
    <path d="M6.483,14.161a1.31,1.31,0,0,1,.829-.074A.128.128,0,0,0,7.466,14a.125.125,0,0,0-.087-.153,1.59,1.59,0,0,0-1.022.1.125.125,0,0,0-.045.171.128.128,0,0,0,.171.045Z" transform="translate(-0.013)" fill="#1d1d1b"/>
    <path d="M15.684,16.285a1.993,1.993,0,0,0,1.441-.132c.143-.073.017-.289-.126-.216a1.734,1.734,0,0,1-1.248.107.125.125,0,0,0-.067.241Z" transform="translate(-0.013)" fill="#1d1d1b"/>
    <path d="M23.568,11.662h0l.017-.02.031-.031.037-.032c-.017.014.018-.012.025-.017a.9.9,0,0,1,.085-.05l.021-.01.018-.008.012,0,.029-.011c.032-.011.066-.021.1-.029L24,11.438l.024,0c-.013,0,0,0,0,0a.987.987,0,0,1,.224,0,.124.124,0,0,0,.125-.125.129.129,0,0,0-.125-.125.992.992,0,0,0-.9.35.125.125,0,0,0,.045.171.129.129,0,0,0,.171-.044Z" transform="translate(-0.013)" fill="#1d1d1b"/>
    <path d="M31.231,7.389a1.071,1.071,0,0,0,1.027-.3.128.128,0,0,0,0-.177.126.126,0,0,0-.176,0,.664.664,0,0,1-.343.213.8.8,0,0,1-.216.037.914.914,0,0,1-.117,0,.552.552,0,0,1-.109-.016.125.125,0,1,0-.066.241Z" transform="translate(-0.013)" fill="#1d1d1b"/>
    <path d="M22.127,5.593a3.082,3.082,0,0,1,1.043-.214c.161-.006.161-.256,0-.25a3.29,3.29,0,0,0-1.109.223.129.129,0,0,0-.088.154.127.127,0,0,0,.154.087Z" transform="translate(-0.013)" fill="#1d1d1b"/>
    <path d="M40.89,11.687l.02-.018c.015-.012-.023.015.005,0l.042-.026.025-.013L41,11.619l.017-.007.021-.008a.918.918,0,0,1,.115-.028c.01,0,.016,0,0,0l.03,0,.061,0a.888.888,0,0,1,.115.007c-.014,0-.008,0,0,0l.029.006a.527.527,0,0,1,.057.014l.05.016c.034.012-.011-.005.007,0l.026.012.048.028.018.012c.029.019-.018-.015.009.007a.125.125,0,1,0,.177-.177.86.86,0,0,0-1.069.013.125.125,0,0,0,.177.177Z" transform="translate(-0.013)" fill="#1d1d1b"/>
    <path d="M24.793,17.8l1.167-.08a.128.128,0,0,0,.125-.125.126.126,0,0,0-.125-.125l-1.167.08a.125.125,0,0,0,0,.25Z" transform="translate(-0.013)" fill="#1d1d1b"/>
    <path d="M16.067,10.078A.635.635,0,0,1,16.149,10c.018-.015-.022.016.01-.008l.021-.014.051-.031a.692.692,0,0,1,.1-.045,1.138,1.138,0,0,1,.127-.035.586.586,0,0,1,.107-.015.869.869,0,0,1,.135,0,.8.8,0,0,1,.237.055.126.126,0,0,0,.154-.087A.129.129,0,0,0,17,9.661a1.027,1.027,0,0,0-1.11.24.129.129,0,0,0,0,.177.125.125,0,0,0,.176,0Z" transform="translate(-0.013)" fill="#1d1d1b"/>
    <path d="M12.527,6.361a1.3,1.3,0,0,0,.874-.014.125.125,0,0,0-.067-.241,1.048,1.048,0,0,1-.368.073,1.019,1.019,0,0,1-.373-.059.125.125,0,0,0-.153.087.128.128,0,0,0,.087.154Z" transform="translate(-0.013)" fill="#1d1d1b"/>
    <path d="M36.977,3.829a.663.663,0,0,1,.14-.065,1.148,1.148,0,0,1,.17-.044c.005,0,.046-.007.022,0l.049-.005c.029,0,.058,0,.086,0a.842.842,0,0,1,.087,0l.049,0q.023,0,0,0l.025,0a.125.125,0,1,0,.066-.241,1.252,1.252,0,0,0-.823.137.125.125,0,0,0,.126.216Z" transform="translate(-0.013)" fill="#1d1d1b"/>
    <path d="M33.407,13.9a.446.446,0,0,1,.072-.072c-.02.016.018-.011.026-.016s.032-.019.048-.027l.03-.013c-.012,0-.009,0,0,0l.054-.018c.018-.006.037-.01.056-.015l.034-.006.018,0,.018,0,.03,0a.561.561,0,0,1,.058,0,.583.583,0,0,1,.059,0s.032,0,.007,0l.029.005a.7.7,0,0,1,.109.029c.01,0,.023.009.007,0l.025.012a.529.529,0,0,1,.052.029.125.125,0,0,0,.126-.216.84.84,0,0,0-.553-.106.737.737,0,0,0-.482.239.128.128,0,0,0,0,.177.126.126,0,0,0,.176,0Z" transform="translate(-0.013)" fill="#1d1d1b"/>
  </g>
</svg>
