<svg xmlns="http://www.w3.org/2000/svg" width="27.308mm" height="14.647mm" viewBox="0 0 77.408 41.518">
  <title>puddle3</title>
  <g>
    <path d="M48.584,0A31.717,31.717,0,0,0,36.905,2.052a6.32,6.32,0,0,0-3.246,2.47c-.753,1.346-.207,2.619.508,3.839a3.481,3.481,0,0,1,.7,2.413,2.993,2.993,0,0,1-1.343,1.777,14.175,14.175,0,0,1-4.855,1.708c-4,.955-8.073,1.63-12.045,2.721-2.9.8-6.561,1.767-8.24,4.524a5.684,5.684,0,0,0-.728,2.168,4.513,4.513,0,0,1-.946,2.671C5.59,27.5,3.837,27.7,2.433,28.355c-1.2.566-2.418,1.547-2.431,3a3.591,3.591,0,0,0,2.2,2.984c1.462.763,3.139.776,4.688,1.269a4.549,4.549,0,0,1,2.235,1.468c.522.644.906,1.388,1.448,2.018,1.114,1.294,2.769,1.568,4.381,1.742A48.958,48.958,0,0,0,21.4,41.1a36.78,36.78,0,0,0,5.834-.514,4.969,4.969,0,0,0,3.67-2.327,8.762,8.762,0,0,1,1.432-2.2,5.563,5.563,0,0,1,2.032-1.188,14.4,14.4,0,0,1,4.668-.6,14.083,14.083,0,0,1,2.9.177,5.945,5.945,0,0,1,2.576,1.365,10.763,10.763,0,0,0,4.348,2.4,21.265,21.265,0,0,0,5.147.456c1.968,0,3.937-.047,5.9-.18a39.831,39.831,0,0,0,11.13-2.153,10.419,10.419,0,0,0,4.3-2.37c1.092-1.232.762-2.586-.159-3.815-1.11-1.479-2.616-2.669-3.529-4.294s-1.105-3.645.361-5c1.831-1.7,5.221-2.207,5.389-5.218.2-3.629-3.786-5.21-6.7-5.781-3.784-.741-7.73-.466-11.447-1.577a6.07,6.07,0,0,1-2.475-1.157c-.765-.729-.419-1.69-.561-2.613A4.713,4.713,0,0,0,53.553,1.2,12.4,12.4,0,0,0,48.422.277c-.322-.011-.321.489,0,.5,1.837.066,3.841.123,5.431,1.165A4.365,4.365,0,0,1,55.5,3.823a10.35,10.35,0,0,1,.277,2.485c.264,1.441,1.916,2,3.133,2.382a25.29,25.29,0,0,0,5.239.931c1.887.177,3.786.271,5.659.575a12.254,12.254,0,0,1,5.071,1.736c1.45,1.009,2.572,2.956,1.777,4.72-.546,1.213-1.826,1.855-2.93,2.468a7.16,7.16,0,0,0-2.765,2.2,4.432,4.432,0,0,0-.06,4.143,16.536,16.536,0,0,0,3.132,4.066,5.031,5.031,0,0,1,1.525,2.546A2.52,2.52,0,0,1,74.32,34.21a16.351,16.351,0,0,1-4.872,2.133,36.163,36.163,0,0,1-5.391,1.2,66.948,66.948,0,0,1-11.169.607,14.819,14.819,0,0,1-5.131-.819c-1.639-.643-2.714-2.007-4.22-2.841a9.635,9.635,0,0,0-4.851-.729,14.611,14.611,0,0,0-4.284.565,5.782,5.782,0,0,0-3.163,2.278,14.093,14.093,0,0,1-1.346,2.213,4.506,4.506,0,0,1-2.231,1.156,28.35,28.35,0,0,1-5.77.6,48.929,48.929,0,0,1-6.09-.166c-1.891-.17-3.86-.326-5.093-1.951-.949-1.25-1.595-2.5-3.12-3.135-1.46-.606-3.086-.592-4.553-1.161C1.627,33.62-.05,32.257.671,30.56c.639-1.5,2.5-1.968,3.886-2.463a4.932,4.932,0,0,0,3.162-2.375,13.764,13.764,0,0,0,.532-2.557,4.794,4.794,0,0,1,1.08-2.108,9.787,9.787,0,0,1,3.914-2.482A70.811,70.811,0,0,1,24.32,15.726c1.92-.4,3.839-.809,5.739-1.3a10.6,10.6,0,0,0,4.01-1.661,3,3,0,0,0,1.263-3.055c-.338-1.472-1.878-2.656-1.5-4.274.355-1.525,2.027-2.447,3.371-2.97a29.148,29.148,0,0,1,5.505-1.461A34.159,34.159,0,0,1,48.584.5a.25.25,0,0,0,0-.5Z" transform="translate(-0.002 0)" fill="#1d1d1b"/>
    <path d="M41.3,37.479a9.811,9.811,0,0,0-4.556.8,2.294,2.294,0,0,0-1.206,1.156,1.385,1.385,0,0,0,.43,1.517,2.816,2.816,0,0,0,1.869.553,23.016,23.016,0,0,0,2.436-.054c1.219-.1,3.075-.356,3.644-1.632a1.379,1.379,0,0,0-.364-1.692,5.554,5.554,0,0,0-2.309-.7c-.314-.065-.448.417-.133.482a5.784,5.784,0,0,1,2.076.566c.766.53.231,1.453-.389,1.819-1.315.777-3.072.717-4.545.712-.706,0-1.6.04-2.093-.572-.521-.649.062-1.294.635-1.619a6.873,6.873,0,0,1,2.1-.671,10.645,10.645,0,0,1,2.4-.171c.322.012.322-.488,0-.5Z" transform="translate(-0.002 0)" fill="#1d1d1b"/>
    <path d="M27.766,7.485c-.854.293-1.929.767-2,1.808-.08,1.222,1.17,1.865,2.2,2.025a3.851,3.851,0,0,0,3.2-.595A1.821,1.821,0,0,0,31.4,8.1c-.943-1.045-2.439-.815-3.653-.5a.25.25,0,0,0,.133.482,3.591,3.591,0,0,1,2.766.045,1.306,1.306,0,0,1,.394,2.006,2.737,2.737,0,0,1-2.448.757c-.85-.066-1.986-.274-2.282-1.215-.307-.977.866-1.462,1.586-1.709.3-.1.173-.587-.133-.482Z" transform="translate(-0.002 0)" fill="#1d1d1b"/>
    <path d="M26.8,32.634a1.791,1.791,0,0,1,1.657-.706.128.128,0,0,0,.154-.087.125.125,0,0,0-.087-.154,2.053,2.053,0,0,0-1.94.821c-.1.131.122.256.216.126Z" transform="translate(-0.002 0)" fill="#1d1d1b"/>
    <path d="M41.922,25.288a2.51,2.51,0,0,0,2.284.022c.144-.072.018-.288-.126-.216a2.243,2.243,0,0,1-2.032-.022c-.142-.075-.269.141-.126.216Z" transform="translate(-0.002 0)" fill="#1d1d1b"/>
    <path d="M65.056,18.885a1.484,1.484,0,0,1,1.682-.41.125.125,0,0,0,.153-.087.128.128,0,0,0-.087-.154,1.723,1.723,0,0,0-1.925.474c-.1.122.073.3.177.177Z" transform="translate(-0.002 0)" fill="#1d1d1b"/>
    <path d="M48.255,5.761a2.246,2.246,0,0,1,1.923-.294c.154.048.22-.194.067-.241a2.49,2.49,0,0,0-2.116.319c-.132.091-.007.307.126.216Z" transform="translate(-0.002 0)" fill="#1d1d1b"/>
    <path d="M31.27,18.682a2.175,2.175,0,0,0,2.15.02.125.125,0,0,0-.127-.216,1.916,1.916,0,0,1-1.9-.02.125.125,0,0,0-.126.216Z" transform="translate(-0.002 0)" fill="#1d1d1b"/>
    <path d="M9.6,29.182a9.4,9.4,0,0,0,2.318.194c.16-.006.161-.256,0-.25a9.155,9.155,0,0,1-2.252-.185c-.157-.032-.224.209-.066.241Z" transform="translate(-0.002 0)" fill="#1d1d1b"/>
    <path d="M15.661,37.658a1.27,1.27,0,0,1,1.484-.641c.154.047.22-.194.066-.241a1.518,1.518,0,0,0-1.765.755c-.071.144.144.271.215.127Z" transform="translate(-0.002 0)" fill="#1d1d1b"/>
    <path d="M57.576,34.988a.991.991,0,0,1,1.2-.263c.143.074.269-.141.126-.216a1.242,1.242,0,0,0-1.5.3.13.13,0,0,0,0,.177.126.126,0,0,0,.177,0Z" transform="translate(-0.002 0)" fill="#1d1d1b"/>
    <path d="M51.418,17.764H53.44a.125.125,0,0,0,0-.25H51.418a.125.125,0,0,0,0,.25Z" transform="translate(-0.002 0)" fill="#1d1d1b"/>
    <path d="M58.825,14.208a1.22,1.22,0,0,1,1.319-.479.125.125,0,0,0,.067-.241,1.476,1.476,0,0,0-1.6.594c-.09.134.126.26.216.126Z" transform="translate(-0.002 0)" fill="#1d1d1b"/>
    <path d="M59.453,27.024a1.706,1.706,0,0,1,1.4-.631c.161.008.16-.242,0-.25a1.941,1.941,0,0,0-1.58.7.129.129,0,0,0,0,.177.126.126,0,0,0,.177,0Z" transform="translate(-0.002 0)" fill="#1d1d1b"/>
    <path d="M70.106,31.891a1.644,1.644,0,0,0,1.132.3.128.128,0,0,0,.125-.125.126.126,0,0,0-.125-.125,1.436,1.436,0,0,1-1.006-.268.125.125,0,0,0-.171.045.128.128,0,0,0,.045.171Z" transform="translate(-0.002 0)" fill="#1d1d1b"/>
    <path d="M18.076,23.8a2.238,2.238,0,0,1,2.458-.579c.15.059.215-.183.067-.241a2.483,2.483,0,0,0-2.7.643c-.107.119.069.3.177.177Z" transform="translate(-0.002 0)" fill="#1d1d1b"/>
    <path d="M36.4,6.475a3.582,3.582,0,0,0,2.1.2c.157-.031.091-.273-.067-.241a3.353,3.353,0,0,1-1.968-.2.125.125,0,0,0-.154.087.129.129,0,0,0,.088.154Z" transform="translate(-0.002 0)" fill="#1d1d1b"/>
  </g>
</svg>
