<svg xmlns="http://www.w3.org/2000/svg" width="9.704mm" height="8.315mm" viewBox="0 0 27.509 23.57">
  <title>rock6</title>
  <g>
    <path d="M25.62,4.163a2.858,2.858,0,0,0-.342-3.033A3.983,3.983,0,0,0,22.039,0a12.357,12.357,0,0,0-4.312.658,3.8,3.8,0,0,0-1.473.885c-.275.306-.324.729-.838.8a11.356,11.356,0,0,1-1.178-.04,8.368,8.368,0,0,0-3.861,1.069A6.929,6.929,0,0,0,8.833,4.507a6.223,6.223,0,0,0-1.07,1.751A10.545,10.545,0,0,1,5.446,9.789a10.261,10.261,0,0,0-1.5,1.3,6.887,6.887,0,0,0-.863,1.686,10.148,10.148,0,0,1-.964,1.906A22.706,22.706,0,0,1,.559,16.45a2.337,2.337,0,0,0-.434,1.461c-.042.552-.31,1.484.1,1.962a6.241,6.241,0,0,0,1.758,1.034c.743.4,1.484.81,2.231,1.2a11.319,11.319,0,0,0,3.994,1.422,9.3,9.3,0,0,0,4.5-.816q.444-.182.881-.385a1.529,1.529,0,0,1,1.482-.156,4.938,4.938,0,0,0,1.986.456c1.208.021,2.878-.025,3.82-.885A6.11,6.11,0,0,1,22.3,20.505a13.241,13.241,0,0,1,1.783-.554,2.629,2.629,0,0,0,2.089-2.441,12.983,12.983,0,0,1,.224-2.36c.231-.857.606-1.668.809-2.534a18.6,18.6,0,0,0,.227-5.289c-.074-1.314-.418-2.921-1.935-3.211-.314-.06-.449.421-.133.482,1.626.312,1.558,2.357,1.609,3.636a15.586,15.586,0,0,1-.277,4.36,20.2,20.2,0,0,0-.982,3.639c-.072,1.277.039,2.531-1.351,3.092a14.814,14.814,0,0,0-2.658.938,7,7,0,0,0-1.047,1,3.531,3.531,0,0,1-2.3.8,7.834,7.834,0,0,1-1.917.029c-.648-.091-1.2-.522-1.833-.589a2.79,2.79,0,0,0-1.379.451,14.7,14.7,0,0,1-2.14.8,7.273,7.273,0,0,1-4.19,0,21.222,21.222,0,0,1-3.733-1.766L1.3,19.97c-.363-.2-.706-.4-.765-.83a6.216,6.216,0,0,1,.09-1.229,1.918,1.918,0,0,1,.316-1.127,8.813,8.813,0,0,1,.691-.7,8.755,8.755,0,0,0,1.032-1.317c.644-1.012.893-2.228,1.564-3.214A6.574,6.574,0,0,1,5.65,10.269a6.494,6.494,0,0,0,1.1-1.182A21.891,21.891,0,0,0,8.5,5.886a5.616,5.616,0,0,1,3.1-2.54,7.9,7.9,0,0,1,2.131-.511,18.851,18.851,0,0,0,1.933-.013c.607-.124.677-.678,1.082-1.057A4.762,4.762,0,0,1,18.877.83,11.51,11.51,0,0,1,23.215.576a2.384,2.384,0,0,1,1.974,3.335c-.136.289.3.544.431.252Z" transform="translate(0 -0.001)" fill="#1d1d1b"/>
    <path d="M12.676,22.177l-1.29-1.333a1.777,1.777,0,0,1-.622-1.081,4.44,4.44,0,0,1,.086-1.049,19.4,19.4,0,0,1,.888-3.156,27.6,27.6,0,0,0,.825-3.325,4.543,4.543,0,0,1,.6-1.666A9.482,9.482,0,0,1,14.3,9.386a1.405,1.405,0,0,1,.89-.557c.291-.034.592-.027.884-.044q.956-.053,1.907-.14,1.741-.159,3.471-.434a23.541,23.541,0,0,0,3.585-.722,2.581,2.581,0,0,0,1.753-1.5c.056-.151-.185-.216-.241-.067C26.134,7.039,24.9,7.3,23.856,7.518q-1.521.317-3.059.542-1.638.242-3.29.377c-.477.039-.953.072-1.431.1a4.918,4.918,0,0,0-1.248.1,1.59,1.59,0,0,0-.636.5c-.292.31-.626.578-.915.891a4.115,4.115,0,0,0-.934,2.037c-.189.907-.333,1.8-.608,2.692-.282.91-.621,1.8-.871,2.723a5.829,5.829,0,0,0-.32,2.655,2.159,2.159,0,0,0,.666.884L12.5,22.354c.112.116.289-.061.177-.177Z" transform="translate(0 -0.001)" fill="#1d1d1b"/>
    <path d="M15.847,2.752c.959.2,1.429,1.078,1.9,1.844a3.039,3.039,0,0,0,.655.856,1.062,1.062,0,0,0,.864.113c2.016-.337,4.026-.72,6.038-1.08.158-.028.091-.269-.067-.241L19.571,5.259c-.388.069-.76.209-1.111-.1a2.823,2.823,0,0,1-.449-.624c-.2-.32-.385-.653-.609-.959a2.505,2.505,0,0,0-1.489-1.069c-.157-.032-.224.209-.066.241Z" transform="translate(0 -0.001)" fill="#1d1d1b"/>
    <path d="M18.9,5.616a9.473,9.473,0,0,0,1.077-2.53.125.125,0,0,0-.241-.067A9.222,9.222,0,0,1,18.688,5.49c-.084.138.132.263.216.126Z" transform="translate(0 -0.001)" fill="#1d1d1b"/>
    <path d="M16.8,1.51a3.38,3.38,0,0,1,2.145.575,6.854,6.854,0,0,1,.81.787.506.506,0,0,0,.525.153c.806-.163,1.578-.439,2.4-.563A15.383,15.383,0,0,1,25.353,2.3a.125.125,0,0,0,0-.25,15.748,15.748,0,0,0-2.427.125q-.634.084-1.261.218c-.413.09-.823.251-1.237.324a.575.575,0,0,1-.663-.226,3.494,3.494,0,0,0-.363-.367A3.586,3.586,0,0,0,16.8,1.26c-.159.01-.161.26,0,.25Z" transform="translate(0 -0.001)" fill="#1d1d1b"/>
    <path d="M9.232,4.758a2.535,2.535,0,0,0,.883,1.169c.454.424.895.874,1.377,1.266a5.562,5.562,0,0,0,1.446.783c.64.262,1.282.521,1.924.782.149.06.213-.181.066-.241L13.25,7.834a6.052,6.052,0,0,1-1.581-.817c-.416-.336-.794-.723-1.185-1.087S9.6,5.219,9.473,4.691a.125.125,0,0,0-.241.067Z" transform="translate(0 -0.001)" fill="#1d1d1b"/>
    <path d="M12.816,10.823c.258-.106.254-.378.211-.617a4.509,4.509,0,0,0-.374-1.016l-1-2.23c-.065-.147-.281-.02-.215.126l.791,1.771c.127.286.261.57.38.859.051.124.333.785.137.866-.147.06-.083.3.066.241Z" transform="translate(0 -0.001)" fill="#1d1d1b"/>
    <path d="M6.5,9.26c.151,1.456,1.774,1.86,2.743,2.648a9.889,9.889,0,0,1,2.367,3.352c.072.144.288.018.216-.126A10.992,10.992,0,0,0,9.7,11.979a8.536,8.536,0,0,0-1.6-1.09A2.349,2.349,0,0,1,6.751,9.26c-.016-.158-.266-.16-.25,0Z" transform="translate(0 -0.001)" fill="#1d1d1b"/>
    <path d="M7.4,22.983c1.008-1.045,1.083-2.59,1.642-3.869a16.979,16.979,0,0,1,1.177-2.134,4.082,4.082,0,0,1,1.544-1.726c.146-.069.019-.285-.126-.216a3.454,3.454,0,0,0-1.356,1.374A22.309,22.309,0,0,0,9,18.61a12.626,12.626,0,0,0-.747,2.079,4.813,4.813,0,0,1-1.031,2.117c-.112.116.065.293.177.177Z" transform="translate(0 -0.001)" fill="#1d1d1b"/>
    <path d="M6.734,18.544c.094.124.452.015.6,0,.2-.023.4-.053.6-.069a1.446,1.446,0,0,1,1.058.483c.141.113.286.223.42.343s.23.262.351.391c.243.259.625.257.785.607.066.147.282.02.215-.126a.837.837,0,0,0-.4-.413,2.891,2.891,0,0,1-.309-.144,1.091,1.091,0,0,1-.236-.248,3.433,3.433,0,0,0-.531-.491c-.189-.152-.374-.314-.574-.451a1.813,1.813,0,0,0-1.342-.136c-.12.014-1.119.033-.851.382.1.127.313,0,.216-.126Z" transform="translate(0 -0.001)" fill="#1d1d1b"/>
    <path d="M1.915,15.353a3.829,3.829,0,0,0,.6.432,2,2,0,0,1,.542.617L4.113,18c.089.134.3.009.216-.126L3.246,16.232a2.154,2.154,0,0,0-.5-.591,5.689,5.689,0,0,1-.654-.465.125.125,0,0,0-.177.177Z" transform="translate(0 -0.001)" fill="#1d1d1b"/>
    <path d="M3.658,16.887A18.575,18.575,0,0,0,6.22,16.8c.158-.016.16-.266,0-.25a18.575,18.575,0,0,1-2.562.087c-.161-.006-.16.244,0,.25Z" transform="translate(0 -0.001)" fill="#1d1d1b"/>
    <path d="M3.87,12.059a8.985,8.985,0,0,0,1.741,1.416,4.586,4.586,0,0,0,.94.45A2.366,2.366,0,0,1,7.5,14.4a.125.125,0,0,0,.177-.176,2.121,2.121,0,0,0-.818-.461,5.578,5.578,0,0,1-1.012-.441,8.669,8.669,0,0,1-1.8-1.444c-.111-.116-.288.061-.176.177Z" transform="translate(0 -0.001)" fill="#1d1d1b"/>
    <path d="M11.792,15.453q2.712-.153,5.425-.314l2.691-.161c.67-.04.993-.047,1.4-.582a15.837,15.837,0,0,0,1.431-2.119c.387-.72.68-1.489,1.115-2.183.731-1.165,1.934-1.978,2.372-3.325.05-.153-.191-.219-.241-.066-.417,1.281-1.572,2.073-2.288,3.17a17.858,17.858,0,0,0-.971,1.88,13.1,13.1,0,0,1-1.213,1.957c-.318.433-.559.846-1.116.988a6.969,6.969,0,0,1-1.227.074l-2.441.146q-2.469.147-4.939.285c-.16.009-.161.259,0,.25Z" transform="translate(0 -0.001)" fill="#1d1d1b"/>
    <path d="M20.744,14.935l1.67.719a2.67,2.67,0,0,0,.672.254,1.03,1.03,0,0,0,.65-.2c.8-.462,1.816-.34,2.559-.933.125-.1-.053-.276-.177-.177-.649.519-1.557.438-2.288.777-.2.094-.414.291-.648.294a2.517,2.517,0,0,1-.88-.331l-1.432-.616c-.146-.063-.274.153-.126.216Z" transform="translate(0 -0.001)" fill="#1d1d1b"/>
    <path d="M22.913,15.922a3,3,0,0,1,.384,1.823c-.063.678-.152,1.356-.228,2.033-.018.159.232.158.25,0,.082-.725.193-1.454.24-2.182a3.162,3.162,0,0,0-.43-1.8.125.125,0,0,0-.216.126Z" transform="translate(0 -0.001)" fill="#1d1d1b"/>
    <path d="M18.673,22.152a55.576,55.576,0,0,1-.076-7.186.125.125,0,0,0-.25,0,55.576,55.576,0,0,0,.076,7.186c.017.159.267.16.25,0Z" transform="translate(0 -0.001)" fill="#1d1d1b"/>
    <path d="M14.756,21.42l.076.046-.019.151a5.8,5.8,0,0,1,.749-.666c.262-.232.527-.462.787-.7a5.318,5.318,0,0,0,1.19-1.386c.6-1.123.463-2.47,1-3.618.068-.145-.148-.272-.216-.126-.522,1.118-.406,2.42-.951,3.525a4.941,4.941,0,0,1-1.2,1.429c-.261.234-.525.463-.788.7a5.812,5.812,0,0,0-.749.666.136.136,0,0,0-.02.152l.013.027a.121.121,0,0,0,.108.062.234.234,0,0,0,.146-.045c.133-.088.008-.3-.127-.216Z" transform="translate(0 -0.001)" fill="#1d1d1b"/>
    <path d="M17.288,10.484a1.477,1.477,0,0,1,1.3-.208c.153.049.219-.193.066-.241a1.717,1.717,0,0,0-1.5.233.129.129,0,0,0-.045.171.127.127,0,0,0,.171.045Z" transform="translate(0 -0.001)" fill="#1d1d1b"/>
  </g>
</svg>
