<svg xmlns="http://www.w3.org/2000/svg" width="9.234mm" height="10.067mm" viewBox="0 0 26.174 28.538">
  <title>rock4</title>
  <g>
    <path d="M16.147.146c-2.708.817-4.619,3.059-6.525,5.017A41.87,41.87,0,0,0,6.266,8.768a33.185,33.185,0,0,0-2.061,3.661c-.751,1.285-1.7,2.439-2.559,3.65A19.417,19.417,0,0,0,.555,17.766a2.422,2.422,0,0,0-.516,1.648,10.328,10.328,0,0,0,.848,1.863c.256.546.464,1.361.982,1.724.463.324,1.108.105,1.631.174a4.125,4.125,0,0,1,1.879.8A6.57,6.57,0,0,1,6.848,25.5a6.278,6.278,0,0,0,.968,1.385,5.27,5.27,0,0,0,1.682.668c.821.271,1.638.563,2.465.811a2.659,2.659,0,0,0,1.809.022c.66-.253,1.223-.686,1.9-.914a13.249,13.249,0,0,1,4.046-.46,13.438,13.438,0,0,0,3.691-.4A4.659,4.659,0,0,0,25,25.839a2.522,2.522,0,0,0,.667-1.609,19.012,19.012,0,0,0,.512-4.339,8.908,8.908,0,0,0-.284-2.048c-.2-.76-.581-1.458-.784-2.217a15.035,15.035,0,0,1-.232-2.6,8.135,8.135,0,0,0-.543-2.219c-.564-1.449-1.407-2.777-1.9-4.253-.226-.674-.33-1.391-.622-2.042a5,5,0,0,0-1.442-1.7A22.58,22.58,0,0,0,16.243.031c-.284-.15-.537.282-.252.432A21.965,21.965,0,0,1,19.6,2.822a8.85,8.85,0,0,1,1.373,1.271,5.217,5.217,0,0,1,.807,2.01c.668,2.462,2.446,4.548,2.619,7.15.042.62.02,1.243.106,1.86a8.049,8.049,0,0,0,.56,1.838,9.39,9.39,0,0,1,.576,4.288,20.44,20.44,0,0,1-.3,2.075c-.129.688-.16,1.758-.748,2.211a6.592,6.592,0,0,1-3.6.952c-2.353.122-4.629-.063-6.758,1.125a2.436,2.436,0,0,1-2.134.282c-.752-.226-1.494-.491-2.24-.737-.671-.221-1.584-.35-2-.973-.286-.427-.521-.872-.84-1.278a6.086,6.086,0,0,0-2.553-1.99,3.96,3.96,0,0,0-1.378-.261c-.459,0-.91.012-1.2-.412a7.3,7.3,0,0,1-.472-1,9.417,9.417,0,0,1-.9-1.953c-.124-.643.684-1.654,1.018-2.164.718-1.1,1.544-2.115,2.293-3.19.85-1.22,1.415-2.561,2.152-3.843A19.39,19.39,0,0,1,9.105,6.411c2.085-2.142,4.2-4.886,7.175-5.783a.25.25,0,0,0-.133-.482Z" transform="translate(-0.009)" fill="#1d1d1b"/>
    <path d="M15.226,27.476a8.733,8.733,0,0,0-1.138-2.959,9.349,9.349,0,0,0-.895-1.2,3.706,3.706,0,0,1-.64-1.706,28.728,28.728,0,0,1-.67-3.658c-.071-.685-.131-1.458-.786-1.842a.125.125,0,0,0-.126.216c.834.489.686,1.992.821,2.829.171,1.059.417,2.105.671,3.147a2.373,2.373,0,0,0,.4,1.014,14.4,14.4,0,0,1,.908,1.163,8.541,8.541,0,0,1,1.218,3.065c.03.157.271.091.241-.067Z" transform="translate(-0.009)" fill="#1d1d1b"/>
    <path d="M11.883,17.31a14.578,14.578,0,0,0,1.327-4.056,7.57,7.57,0,0,0,.071-2.141c-.041-.357-.123-.508.279-.806a2.171,2.171,0,0,1,.37-.177c.341-.158.691-.3,1.022-.477,1.2-.648,1.6-1.782,2.3-2.871a3.8,3.8,0,0,1,1.719-1.36c.77-.366,1.543-.726,2.315-1.089.145-.069.018-.284-.126-.216-.772.363-1.545.723-2.315,1.09a4.269,4.269,0,0,0-1.512,1.03,11.607,11.607,0,0,0-.98,1.652,4.079,4.079,0,0,1-1.8,1.687c-.425.206-1.177.36-1.455.777a.892.892,0,0,0-.092.6,10.554,10.554,0,0,1,.077,1.219,12.942,12.942,0,0,1-1.416,5.017c-.071.143.144.27.216.126Z" transform="translate(-0.009)" fill="#1d1d1b"/>
    <path d="M9.96,5.412a2.847,2.847,0,0,1,.831,1.222,3.131,3.131,0,0,0,.6,1.118,19.009,19.009,0,0,1,1.714,2.729.125.125,0,0,0,.216-.126,19.244,19.244,0,0,0-1.7-2.717,2.917,2.917,0,0,1-.411-.576c-.113-.235-.167-.5-.26-.739a3.044,3.044,0,0,0-.812-1.088c-.116-.112-.293.065-.177.177Z" transform="translate(-0.009)" fill="#1d1d1b"/>
    <path d="M4.807,12.083c.8.366,1.177,1.326,1.828,1.9a4.881,4.881,0,0,0,1.007.683,8.2,8.2,0,0,0,1.2.422c.4.13.581.87.762,1.233q.343.682.718,1.349.786,1.4,1.706,2.717c.091.131.308.006.215-.126q-.915-1.319-1.706-2.717-.391-.7-.751-1.418-.171-.342-.333-.688c-.066-.14-.14-.436-.269-.53a1.912,1.912,0,0,0-.527-.119,4.532,4.532,0,0,1-.715-.253,4.639,4.639,0,0,1-1.234-.819c-.622-.576-.979-1.481-1.78-1.846-.145-.066-.272.149-.126.216Z" transform="translate(-0.009)" fill="#1d1d1b"/>
    <path d="M3.018,17.524c.6.84,1.668.544,2.478,1,.417.233.688.654,1.082.92a2.25,2.25,0,0,0,1.321.308,3.7,3.7,0,0,1,1.647.2,4.062,4.062,0,0,1,1.087.814,8.963,8.963,0,0,0,1.964,1.7c.143.075.269-.141.126-.216-1.392-.732-2.161-2.556-3.845-2.74a11.035,11.035,0,0,1-1.736-.077c-.52-.141-.825-.584-1.219-.911-.771-.638-2.088-.283-2.689-1.121-.093-.13-.31,0-.216.126Z" transform="translate(-0.009)" fill="#1d1d1b"/>
    <path d="M7.28,25.076l.839-.385a1.086,1.086,0,0,0,.509-.375,3.263,3.263,0,0,0,.194-1.289,3.82,3.82,0,0,1,1.52-2.521c.128-.094,0-.311-.127-.216a4.094,4.094,0,0,0-1.546,2.243,3.989,3.989,0,0,0-.116.65c-.024.245,0,.5-.045.74a.706.706,0,0,1-.476.534c-.292.136-.586.269-.878.4-.147.067-.02.283.126.216Z" transform="translate(-0.009)" fill="#1d1d1b"/>
    <path d="M6.315,18.938a9.8,9.8,0,0,0,.317-2.869,9.108,9.108,0,0,1,1.1-3.287,23.954,23.954,0,0,1,1.916-2.461c.639-.859.468-2.372,1.525-2.863.146-.067.019-.283-.126-.216-.923.429-.928,1.475-1.255,2.308a5.359,5.359,0,0,1-1.149,1.527,9.184,9.184,0,0,0-.932,1.25,9.365,9.365,0,0,0-1.192,2.939,9.234,9.234,0,0,0-.2,1.452,5.666,5.666,0,0,1-.22,2.094c-.067.145.149.272.215.126Z" transform="translate(-0.009)" fill="#1d1d1b"/>
    <path d="M9.29,15.012c-.056-.327-.118-.653-.17-.98a1.528,1.528,0,0,1,.388-1.174l1.111-1.743a2.812,2.812,0,0,0,.409-.718A1.577,1.577,0,0,0,11,9.721a3.9,3.9,0,0,1,.276-2.179c.063-.146-.152-.273-.216-.126A4.15,4.15,0,0,0,10.7,9.24a4.11,4.11,0,0,1,.092,1.091,4.279,4.279,0,0,1-.622,1.031,19.411,19.411,0,0,0-1.231,1.946c-.249.522.022,1.232.115,1.77.028.159.269.092.241-.066Z" transform="translate(-0.009)" fill="#1d1d1b"/>
    <path d="M18.838,26.617q.277-1.02.554-2.041a2.938,2.938,0,0,0,.168-1.516,4.071,4.071,0,0,0-.772-1.171A3.292,3.292,0,0,1,18.35,19.8a10.33,10.33,0,0,0,0-1.75,11.752,11.752,0,0,0-.533-1.781c-.471-1.58.185-3.141.823-4.571.065-.146-.151-.273-.216-.127A8.792,8.792,0,0,0,17.4,15.213a5.814,5.814,0,0,0,.43,1.852,5.488,5.488,0,0,1,.3,2.123,4.221,4.221,0,0,0,.568,2.991,3.524,3.524,0,0,1,.562.806,2.014,2.014,0,0,1-.047,1.3c-.2.758-.41,1.512-.615,2.267a.125.125,0,0,0,.241.067Z" transform="translate(-0.009)" fill="#1d1d1b"/>
    <path d="M18.35,11.821q.127,1.182.256,2.364a6.173,6.173,0,0,0,.368,1.837c.527,1.2,1.8,1.891,2.408,3.017a7.833,7.833,0,0,1,.434,2.525c.105.813.173,1.64.316,2.447a.893.893,0,0,0,.59.819,14.6,14.6,0,0,0,2.159.528c.156.037.223-.2.066-.241-.633-.149-1.284-.268-1.907-.452s-.647-.582-.721-1.143c-.049-.367-.095-.734-.143-1.1l-.269-2.08a3.635,3.635,0,0,0-.34-1.525c-.641-.987-1.715-1.661-2.276-2.713a5.825,5.825,0,0,1-.461-2.154l-.23-2.128c-.018-.158-.268-.16-.25,0Z" transform="translate(-0.009)" fill="#1d1d1b"/>
    <path d="M21.5,19.036a7.673,7.673,0,0,0,1.951-.142l2.072-.262c.158-.02.16-.27,0-.25l-1.994.252-.978.123a3.824,3.824,0,0,1-.985.038c-.157-.021-.225.219-.066.241Z" transform="translate(-0.009)" fill="#1d1d1b"/>
    <path d="M21.216,18.19l.364-1.551c.035-.146.074-.684.183-.776.088-.075.244-.032.34-.1a.924.924,0,0,0,.291-.687c.083-.5.155-1,.233-1.506a12.885,12.885,0,0,0,.3-2.833,12.975,12.975,0,0,1-.3-3.062c.026-.158-.215-.225-.241-.067a8.056,8.056,0,0,0,.23,2.612,10.185,10.185,0,0,1-.213,3.183c-.083.535-.161,1.072-.248,1.606-.05.315-.01.334-.333.539-.054.034-.144,0-.2.054a2.241,2.241,0,0,0-.286.967l-.364,1.551c-.037.157.2.224.241.067Z" transform="translate(-0.009)" fill="#1d1d1b"/>
    <path d="M21.978,15.53c.092.238.35.314.567.405a8.025,8.025,0,0,0,.893.317,4.289,4.289,0,0,1,1.608.536c.123.1.3-.074.177-.176a3.256,3.256,0,0,0-1.392-.514,8.143,8.143,0,0,1-.837-.253q-.224-.081-.442-.176c-.1-.042-.29-.1-.333-.205-.057-.149-.3-.084-.241.066Z" transform="translate(-0.009)" fill="#1d1d1b"/>
  </g>
</svg>
