<svg xmlns="http://www.w3.org/2000/svg" width="8.926mm" height="8.36mm" viewBox="0 0 25.303 23.697">
  <title>rock2</title>
  <g>
    <path d="M1.407,17.03q-.231-1.008-.451-2.019C.815,14.359.4,13.343.631,12.721c.217-.572,1.126-.618,1.654-.841a4.141,4.141,0,0,0,1.281-.86A6.407,6.407,0,0,0,5.1,8.412,16.466,16.466,0,0,0,5.567,6.6a6.29,6.29,0,0,1,.477-1.878A3.73,3.73,0,0,1,7.43,3.664c.562-.352,1.06-.789,1.588-1.188A9.8,9.8,0,0,1,12.31.838,6.031,6.031,0,0,1,15.892.7a4.938,4.938,0,0,1,1.445,1.193,2.683,2.683,0,0,0,1.336.63c.55.1,1.169.03,1.7.184.69.2.752,1.486.895,2.106a3.29,3.29,0,0,0,.51,1.36c.393.492,1.089.529,1.274,1.2a23.171,23.171,0,0,0,.727,3.44,7.791,7.791,0,0,1,.834,1.736,10.337,10.337,0,0,1,.155,1.987,3.73,3.73,0,0,1-.439,1.778,1.225,1.225,0,0,0-.147,1.2,1.953,1.953,0,0,1-.082,1.9,5.6,5.6,0,0,1-1.458,1.513c-.532.413-1.093.786-1.657,1.153A7.172,7.172,0,0,1,19.134,23.1a4.818,4.818,0,0,1-2.125-.085,10.776,10.776,0,0,0-1.949-.139c-.745.018-1.484.178-2.228.17A2.875,2.875,0,0,1,10.8,22.13a5.068,5.068,0,0,0-3.28-1.136,2.98,2.98,0,0,1-1.044-.2,2.358,2.358,0,0,1-.81-.858,8.18,8.18,0,0,0-1.137-1.279,8.463,8.463,0,0,0-3.124-1.783c-.307-.1-.439.385-.133.482a7.855,7.855,0,0,1,3.386,2.132c.407.438.691.979,1.105,1.406a2.09,2.09,0,0,0,1.336.56,13.133,13.133,0,0,1,2.028.253,5.252,5.252,0,0,1,1.818,1.211c1.026.814,2.19.607,3.4.5a10.247,10.247,0,0,1,2.322.051,8.01,8.01,0,0,0,2.14.208,8.886,8.886,0,0,0,3.56-1.925,6.087,6.087,0,0,0,2.4-2.583,2.114,2.114,0,0,0,.043-1.431c-.157-.455-.3-.655-.058-1.165a5.548,5.548,0,0,0,.338-.784,7.2,7.2,0,0,0-.074-3.683c-.185-.646-.676-1.134-.9-1.768a10.38,10.38,0,0,1-.413-2.062,3.338,3.338,0,0,0-.445-1.619,1.719,1.719,0,0,0-.535-.4A1.584,1.584,0,0,1,21.9,5.3c-.211-.666-.318-1.373-.481-2.052-.118-.494-.238-.843-.761-.991-.595-.167-1.25-.1-1.856-.213a3.448,3.448,0,0,1-1.8-1.207A3.815,3.815,0,0,0,13.881.04a10.239,10.239,0,0,0-3.514,1.01c-1.229.608-2.18,1.575-3.345,2.275A3.891,3.891,0,0,0,5.658,4.389a5.691,5.691,0,0,0-.551,1.965,8.343,8.343,0,0,1-1.763,4.179A4.476,4.476,0,0,1,1.3,11.683c-.44.144-1.075.321-1.256.806a1.217,1.217,0,0,0,0,.631c.074.479.2.956.3,1.43q.279,1.308.579,2.613c.071.313.554.181.482-.133Z" transform="translate(-0.004 -0.003)" fill="#1d1d1b"/>
    <path d="M15.62,22.739a21.5,21.5,0,0,1-.832-6.44,15.652,15.652,0,0,1,.106-1.634c.092-.708.644-1.078,1.16-1.493.59-.474,1.377-.86,1.5-1.677.066-.42-.023-.852.062-1.27a3.263,3.263,0,0,1,.708-1.255,3.766,3.766,0,0,0,.835-2.161,3.252,3.252,0,0,0-.434-2.186A10,10,0,0,1,17.664,1.75a.125.125,0,0,0-.241.067A11.122,11.122,0,0,0,18.3,4.393a3.449,3.449,0,0,1,.627,1.486,6.057,6.057,0,0,1-.07,1.417c-.176,1.03-.972,1.572-1.358,2.482a2.546,2.546,0,0,0-.169,1,1.728,1.728,0,0,1-.618,1.568c-.6.484-1.558.973-1.919,1.678a2.993,2.993,0,0,0-.2,1.106q-.062.757-.068,1.519a21.759,21.759,0,0,0,.845,6.156.126.126,0,0,0,.242-.067Z" transform="translate(-0.004 -0.003)" fill="#1d1d1b"/>
    <path d="M19.149,7.361a23.69,23.69,0,0,1,2.623-1.688c.141-.078.015-.294-.126-.216a23.648,23.648,0,0,0-2.623,1.688c-.128.1,0,.312.126.216Z" transform="translate(-0.004 -0.003)" fill="#1d1d1b"/>
    <path d="M19.071,7.625a4.14,4.14,0,0,0,1.966-.083c.324-.095.634-.231.96-.318a4.248,4.248,0,0,1,1.058-.138.125.125,0,0,0,0-.25,5.863,5.863,0,0,0-1.879.4,3.949,3.949,0,0,1-2.039.149c-.157-.031-.224.21-.066.241Z" transform="translate(-0.004 -0.003)" fill="#1d1d1b"/>
    <path d="M20.438,7.6c.945,1.3.171,3.247,1.388,4.408a3.651,3.651,0,0,1,.494.468,1.93,1.93,0,0,1,.254.92c.072.543.14,1.087.214,1.629a2.061,2.061,0,0,0,1.467,1.726c.146.065.273-.15.127-.216a2.206,2.206,0,0,1-1.192-.907,5.451,5.451,0,0,1-.288-1.638,5.961,5.961,0,0,0-.229-1.4,2.3,2.3,0,0,0-.67-.756c-1.171-1.123-.418-3.077-1.349-4.357-.094-.129-.311,0-.216.126Z" transform="translate(-0.004 -0.003)" fill="#1d1d1b"/>
    <path d="M14.846,14.589a5.939,5.939,0,0,0,.815,2,4.446,4.446,0,0,0,1.886,1.19,4.938,4.938,0,0,1,1.7,1.934L20.888,22.3c.086.136.3.01.216-.126l-1.566-2.46A7.223,7.223,0,0,0,18.11,17.85c-.624-.5-1.485-.564-2.045-1.158a4.913,4.913,0,0,1-.978-2.17.125.125,0,0,0-.241.067Z" transform="translate(-0.004 -0.003)" fill="#1d1d1b"/>
    <path d="M18.554,18.277a47.577,47.577,0,0,0,4.331-4.658c.1-.124-.075-.3-.176-.177A47.721,47.721,0,0,1,18.377,18.1c-.117.11.06.287.177.176Z" transform="translate(-0.004 -0.003)" fill="#1d1d1b"/>
    <path d="M16.5,13.034a1.412,1.412,0,0,1,1.218.452,2.657,2.657,0,0,1,.453,1.456c.086.549.2,1.1.253,1.655s-.168,1.061-.124,1.6c.013.159.263.161.25,0a4.429,4.429,0,0,1,.112-1,2.791,2.791,0,0,0-.01-.78c-.088-.651-.2-1.3-.3-1.948a1.964,1.964,0,0,0-.588-1.294,1.648,1.648,0,0,0-1.262-.395c-.158.018-.16.268,0,.25Z" transform="translate(-0.004 -0.003)" fill="#1d1d1b"/>
    <path d="M22.68,12.744A15.23,15.23,0,0,1,24.191,11.2c.12-.107-.057-.283-.177-.177a15.22,15.22,0,0,0-1.51,1.548c-.1.123.072.3.176.177Z" transform="translate(-0.004 -0.003)" fill="#1d1d1b"/>
    <path d="M11.349,13.021a2.686,2.686,0,0,1,.867-.134,3.151,3.151,0,0,0,.621.021,5.315,5.315,0,0,0,1.238-.588,2.908,2.908,0,0,1,2.892-.156c.134.089.259-.127.126-.216a2.871,2.871,0,0,0-2.7-.043c-.5.207-.961.531-1.468.716a2.805,2.805,0,0,1-.859.018,2.962,2.962,0,0,0-.78.141c-.153.048-.088.289.066.241Z" transform="translate(-0.004 -0.003)" fill="#1d1d1b"/>
    <path d="M8.495,8.592a8.511,8.511,0,0,1,1.506,0c.488.057.948.25,1.437.3a3.358,3.358,0,0,0,2.383-.814c1.534-1.218,2.251-3.342,4.165-4.093.148-.058.084-.3-.066-.241-1.723.675-2.512,2.39-3.728,3.654a3.383,3.383,0,0,1-2.881,1.225c-.414-.069-.81-.217-1.227-.272a8.27,8.27,0,0,0-1.589-.007c-.16.009-.161.259,0,.25Z" transform="translate(-0.004 -0.003)" fill="#1d1d1b"/>
    <path d="M4.508,9.691a8.414,8.414,0,0,0,1.9-.136,4.219,4.219,0,0,1,.966-.026,6.641,6.641,0,0,1,.959.274c1.065.281,1.829-.8,2.858-.771a.125.125,0,0,0,0-.25C10.1,8.754,9.312,9.892,8.2,9.5a3.7,3.7,0,0,0-1.733-.2,9.007,9.007,0,0,1-1.958.143c-.16-.017-.158.233,0,.25Z" transform="translate(-0.004 -0.003)" fill="#1d1d1b"/>
    <path d="M.628,13.678a7.269,7.269,0,0,1,2.079-.062c.562.157.875.924,1.356,1.249,1.016.685,2.12.434,3.245.652.62.12,1.1.555,1.718.7.643.148,1.3.156,1.941.34A22.213,22.213,0,0,0,14.61,17.64c.16.017.159-.233,0-.25a31.191,31.191,0,0,1-3.881-1.158,14.131,14.131,0,0,1-2.036-.391,5.669,5.669,0,0,0-1.554-.6c-1.405-.154-2.634-.026-3.595-1.261a1.352,1.352,0,0,0-.975-.637,12.878,12.878,0,0,0-1.941.082c-.16.009-.161.259,0,.25Z" transform="translate(-0.004 -0.003)" fill="#1d1d1b"/>
    <path d="M12.982,12.6a2.092,2.092,0,0,1,1.538-1.076A2.305,2.305,0,0,0,15.9,10.72c.166-.21.305-.439.461-.656a5.206,5.206,0,0,1,.74-.795c.572-.522,1.149-1.039,1.724-1.558.119-.109-.058-.285-.177-.177-.575.519-1.151,1.036-1.724,1.558a5.419,5.419,0,0,0-.675.705c-.191.251-.35.524-.546.771a1.741,1.741,0,0,1-.827.6c-.31.105-.637.15-.945.262a2.085,2.085,0,0,0-1.167,1.045c-.071.144.145.271.216.126Z" transform="translate(-0.004 -0.003)" fill="#1d1d1b"/>
    <path d="M4.123,14.947a10.825,10.825,0,0,1,.523,2.581c.012.16.263.161.25,0a11.131,11.131,0,0,0-.532-2.648c-.05-.152-.292-.087-.241.067Z" transform="translate(-0.004 -0.003)" fill="#1d1d1b"/>
  </g>
</svg>
