<svg xmlns="http://www.w3.org/2000/svg" width="7.832mm" height="6.418mm" viewBox="0 0 22.2 18.192">
  <title>rock5</title>
  <g>
    <path d="M15.926,0c-1.135.112-2.265.258-3.39.446a21.7,21.7,0,0,0-3.408.723A6.443,6.443,0,0,0,6.934,2.754c-.758.691-1.561,1.33-2.34,2A13.32,13.32,0,0,0,.872,9.343c-.353.78-1,1.847-.842,2.724a3.278,3.278,0,0,0,.63,1.2c.316.465.618.946.959,1.393a2.07,2.07,0,0,0,2.014.943,3.856,3.856,0,0,1,3.02.945c.692.566,1.242,1.388,2.163,1.589a5.627,5.627,0,0,0,2.915-.545q3.446-1.181,6.84-2.51.792-.309,1.58-.627a10.175,10.175,0,0,0,1.566-.647c.711-.444.438-1.632.433-2.331-.01-1.373,0-2.748-.03-4.121a3.846,3.846,0,0,0-1.257-2.649c-.831-.957-1.641-1.939-2.506-2.866A6.738,6.738,0,0,0,15.892.051c-.3-.117-.43.366-.133.482,1.724.668,2.887,2.382,4.058,3.73a6.58,6.58,0,0,1,1.748,2.393,7.8,7.8,0,0,1,.062,1.66l.012,1.58.01,1.459a9.031,9.031,0,0,1,.009,1.551c-.106.608-.791.722-1.3.929s-1.052.423-1.579.631Q15.9,15.6,12.974,16.63c-.92.325-1.846.7-2.793.934a2.389,2.389,0,0,1-1.588-.033,4.432,4.432,0,0,1-1.137-.939,6.114,6.114,0,0,0-1.905-1.3,3.516,3.516,0,0,0-1-.242c-.473-.038-.94.11-1.41.061-.99-.1-1.548-1.362-2.05-2.1A1.894,1.894,0,0,1,.579,11.4a9.753,9.753,0,0,1,.59-1.5A12.154,12.154,0,0,1,4.408,5.573C5.148,4.914,5.923,4.3,6.674,3.65A11.1,11.1,0,0,1,8.927,1.783,13.758,13.758,0,0,1,12.315.99c1.2-.21,2.4-.37,3.611-.489.317-.031.32-.531,0-.5Z" transform="translate(-0.006)" fill="#1d1d1b"/>
    <path d="M9.473,17.917a3.7,3.7,0,0,0,.135-1.356A3.993,3.993,0,0,1,9.6,15.087a3.624,3.624,0,0,0,.176-1.295c-.014-.147-.075-.307-.082-.452-.027-.522.038-.508.333-.789a7.326,7.326,0,0,1,2.446-1.842,12.7,12.7,0,0,0,2.32-.778,4.05,4.05,0,0,0,1.472-1.5,10.113,10.113,0,0,0,.688-2.391A8.689,8.689,0,0,0,17.66,3.6,9.143,9.143,0,0,0,17.034.991c-.05-.152-.291-.087-.241.067a6.846,6.846,0,0,1,.584,2.965c-.13.886-.63,1.692-.806,2.58a4.675,4.675,0,0,1-1.059,2.431A4.607,4.607,0,0,1,13.1,10.269a4.948,4.948,0,0,0-1.964.923c-.324.26-.622.553-.924.839a3.449,3.449,0,0,0-.746.746c-.119.224-.044.4-.014.63a3.75,3.75,0,0,1-.094,1.614c-.252.954.141,1.858-.123,2.829a.125.125,0,0,0,.241.067Z" transform="translate(-0.006)" fill="#1d1d1b"/>
    <path d="M5.47,4.647a16.194,16.194,0,0,1,4.521.134,12.1,12.1,0,0,0,3.8-.313c.683-.1,1.373-.189,2.052-.319.568-.108,1.373-.57,1.9-.3.608.317,1.152.833,1.747,1.188a18.4,18.4,0,0,0,1.876.972c.146.066.273-.15.126-.216a23.278,23.278,0,0,1-3.622-2.16c-.507-.348-.7-.133-1.252.059a11.422,11.422,0,0,1-2.069.406,15.209,15.209,0,0,1-4.7.4A16.006,16.006,0,0,0,5.47,4.4c-.158.018-.16.268,0,.25Z" transform="translate(-0.006)" fill="#1d1d1b"/>
    <path d="M16.142,8.312c-.113.2.012.368.183.483a3.9,3.9,0,0,1,.723.5c.413.429.693.966,1.11,1.391a5.764,5.764,0,0,0,1.671.991,6.368,6.368,0,0,1,1.8,1.481c.11.118.286-.059.177-.177a7.21,7.21,0,0,0-1.458-1.306c-.546-.335-1.18-.515-1.7-.894a5.986,5.986,0,0,1-1.114-1.3,3.55,3.55,0,0,0-.5-.543c-.08-.068-.728-.427-.681-.508a.125.125,0,0,0-.216-.126Z" transform="translate(-0.006)" fill="#1d1d1b"/>
    <path d="M14.532,15.286a7.131,7.131,0,0,1,.188-.735c.045-.123.128-.158.248-.193l.411-.117,1.6-.458a.125.125,0,0,0-.067-.241l-1.789.513c-.235.068-.494.105-.608.349a2.047,2.047,0,0,0-.109.368l-.111.447c-.039.156.2.223.241.067Z" transform="translate(-0.006)" fill="#1d1d1b"/>
    <path d="M2.987,8.536l.891.846a1.268,1.268,0,0,0,.734.426c.329.041.659.027.988.083a5.611,5.611,0,0,1,.947.247A5.736,5.736,0,0,1,9.58,12.652a.125.125,0,0,0,.216-.126,5.977,5.977,0,0,0-2.787-2.473A5.9,5.9,0,0,0,5.294,9.6c-.166-.017-.331-.022-.5-.03a.969.969,0,0,1-.7-.321q-.469-.442-.936-.888c-.117-.111-.294.066-.177.177Z" transform="translate(-0.006)" fill="#1d1d1b"/>
    <path d="M5.615,4.577c.312.58,1.048.683,1.454,1.178a6.923,6.923,0,0,0,.726.869,9.782,9.782,0,0,0,.892.66A20.232,20.232,0,0,1,12.4,10.662c.1.122.281-.055.177-.177A20.461,20.461,0,0,0,9.1,7.276c-.332-.242-.683-.462-1-.721a4.782,4.782,0,0,1-.776-.874,2.177,2.177,0,0,0-.681-.593,1.809,1.809,0,0,1-.814-.637c-.076-.142-.292-.016-.215.126Z" transform="translate(-0.006)" fill="#1d1d1b"/>
  </g>
</svg>
