<svg xmlns="http://www.w3.org/2000/svg" width="8.864mm" height="8.291mm" viewBox="0 0 25.127 23.503">
  <title>rock1</title>
  <g>
    <path d="M7.762.017A15.975,15.975,0,0,0,1.886,3.79C1.24,4.448.194,5.4.044,6.353a11.14,11.14,0,0,0,.02,2l.061,2.175c.072,2.563-.253,5.5,1.182,7.762a15.519,15.519,0,0,0,2.319,2.841A6.4,6.4,0,0,0,6.753,22.6a24.784,24.784,0,0,0,8.376.813,12.872,12.872,0,0,0,6.783-2.528c1-.816.559-1.979.782-3.1a14.178,14.178,0,0,1,1.474-3.568c.413-.815,1.216-1.989.879-2.933a15.558,15.558,0,0,0-.889-1.775c-.334-.653-.648-1.32-1.007-1.96-.668-1.191-2.016-1.719-3.164-2.352a45.583,45.583,0,0,0-4.26-2.113c-1.34-.564-2.718-.926-4.1-1.357A8.738,8.738,0,0,1,9.6.766,3.835,3.835,0,0,0,7.9.105c-.32-.029-.318.471,0,.5,1.08.1,1.967,1.007,2.963,1.388,1.11.425,2.286.652,3.4,1.054A44.335,44.335,0,0,1,20.923,6.29a4.406,4.406,0,0,1,1.6,1.178,12.959,12.959,0,0,1,.823,1.538l.881,1.722a3.606,3.606,0,0,1,.365.809,1.947,1.947,0,0,1-.273,1.226c-.82,1.866-2.1,3.639-2.213,5.737-.038.688.149,1.359-.393,1.9a6.63,6.63,0,0,1-1.514,1,12.823,12.823,0,0,1-3.333,1.225,19.488,19.488,0,0,1-7.628-.015A24.913,24.913,0,0,1,5.6,21.768a6.225,6.225,0,0,1-2.7-2.2,8.635,8.635,0,0,1-1.88-3.1A15.421,15.421,0,0,1,.686,12.7L.564,8.353A5.563,5.563,0,0,1,.636,6.105a6.731,6.731,0,0,1,1.2-1.531A15.407,15.407,0,0,1,7.9.5c.3-.111.17-.594-.133-.482Z" fill="#1d1d1b"/>
    <path d="M.623,16.079c.4-.118,1.108-.169,1.405-.49a1.922,1.922,0,0,0,.267-.745l.338-1.18a32.35,32.35,0,0,0,1.058-4.4,5.993,5.993,0,0,1,.143-.9.819.819,0,0,1,1.157-.526A.982.982,0,0,0,6.07,7.783,7.379,7.379,0,0,0,7.238,6.121L8.611,4.057a.125.125,0,0,0-.019-.152C7.774,3.214,8.334,1.562,8.469.67,8.493.513,8.252.445,8.228.6a14.964,14.964,0,0,0-.3,2.255,1.982,1.982,0,0,0,.109.705c.146.382.327.374.084.779C7.614,5.191,7.02,6,6.473,6.82c-.352.528-.714,1.045-1.415.781a1.359,1.359,0,0,0-.738-.149c-.476.095-.674.585-.765,1.009-.181.838-.24,1.7-.441,2.533-.22.915-.5,1.817-.756,2.721a10.119,10.119,0,0,1-.406,1.416c-.233.5-.9.561-1.395.707a.125.125,0,0,0,.066.241Z" fill="#1d1d1b"/>
    <path d="M.464,11.756c1.833-.6,2.143-2.85,3.689-3.8.137-.084.012-.3-.126-.215A5.848,5.848,0,0,0,2.32,9.7,3.969,3.969,0,0,1,.4,11.515c-.152.05-.087.291.067.241Z" fill="#1d1d1b"/>
    <path d="M4.316,20.9a30.609,30.609,0,0,1,1.7-3.117,3.4,3.4,0,0,0,.436-2.7l-.184.141c.578.286.643.408,1.239.191q.961-.349,1.914-.72c.672-.261,1.345-.526,2.008-.809.311-.133.585-.249.632-.615.069-.526-.139-1.077-.088-1.612a2.183,2.183,0,0,1,.457-1.037.8.8,0,0,0,.192-.444c-.007-.334-.369-.5-.6-.662L10.07,8.155l.025.2c.545-.6,1.095-1.205,1.636-1.814A3.973,3.973,0,0,0,12.684,5a.125.125,0,0,0-.058-.141c-.723-.324-1.441-.679-2.178-.972a2.936,2.936,0,0,0-2,.037.125.125,0,0,0,.066.241,2.987,2.987,0,0,1,2.258.137c.289.127.576.258.864.387.191.085.7.2.749.443s-.493.84-.624,1c-.19.226-.393.442-.591.661L9.918,8.175a.127.127,0,0,0,.025.2l1.437,1A4.082,4.082,0,0,1,12,9.8a.309.309,0,0,1,.241.381.373.373,0,0,1-.167.5,2.787,2.787,0,0,0-.3,1.966c.032.309.127.633-.174.892a3.257,3.257,0,0,1-.783.33q-.78.318-1.565.623-.672.261-1.35.511a4.1,4.1,0,0,1-.678.247A1.269,1.269,0,0,1,6.4,15a.126.126,0,0,0-.183.141,3.859,3.859,0,0,1-.846,3.23,16.092,16.092,0,0,0-1.292,2.459c-.061.149.181.213.242.066Z" fill="#1d1d1b"/>
    <path d="M12.5,5.334l3.809.414a9.151,9.151,0,0,0,1.854.12c.581-.057,1.288-.427,1.8.022.12.106.3-.07.177-.177a1.368,1.368,0,0,0-1.224-.243,5.973,5.973,0,0,1-1.046.162,9.394,9.394,0,0,1-1.111-.086L12.5,5.084c-.16-.017-.159.233,0,.25Z" fill="#1d1d1b"/>
    <path d="M12.3,5.55a11.685,11.685,0,0,0,2.3,1.634c.971.594,1.932,1.208,2.919,1.774a12.8,12.8,0,0,0,1.384.7,6.872,6.872,0,0,1,1.484.64,10.976,10.976,0,0,1,2.146,2.587l.171-.171c-.875-.449-1.746-.906-2.625-1.347a6.71,6.71,0,0,0-2.238-.758c-1.8-.205-3.766.518-5.392-.554-.134-.089-.26.127-.126.216,1.438.948,3.157.546,4.766.548,2,0,3.766,1.226,5.489,2.111.1.053.248-.061.171-.171a17.359,17.359,0,0,0-1.869-2.366c-.739-.734-1.852-.9-2.755-1.384-.987-.524-1.928-1.139-2.881-1.722a13.986,13.986,0,0,1-2.763-1.912.125.125,0,0,0-.177.177Z" fill="#1d1d1b"/>
    <path d="M19.2,11.29c.243.591.475,1.187.732,1.772a10.781,10.781,0,0,0,1.036,1.532,22.823,22.823,0,0,0,1.6,2.853c.106.122.283-.056.177-.176a22.476,22.476,0,0,1-1.564-2.8,12.033,12.033,0,0,1-.97-1.385c-.287-.6-.518-1.24-.773-1.859-.061-.147-.3-.083-.241.066Z" fill="#1d1d1b"/>
    <path d="M7.9,22.517c.161-.905,1.4-1.167,2.141-1.409a23.586,23.586,0,0,1,2.574-.689c.457-.094,1.084-.06,1.281-.563.049-.125.028-.269.074-.391.169-.449.334-.425.652-.514a2.07,2.07,0,0,0,.666-.294c.93-.651,1.22-1.986,2.334-2.4.451-.169.534-.228.631-.693a2.08,2.08,0,0,1,.882-1.234q.518-.448,1.052-.876c.125-.1-.053-.277-.177-.177a7.946,7.946,0,0,0-1.832,1.657c-.176.281-.136.578-.332.835s-.482.293-.753.476c-1.015.684-1.281,2.1-2.537,2.468a1.43,1.43,0,0,0-.6.234c-.2.182-.171.381-.253.616-.186.535-.663.516-1.157.618q-.681.141-1.353.323a17.712,17.712,0,0,0-2.389.787A1.666,1.666,0,0,0,7.66,22.451c-.028.157.213.225.241.066Z" fill="#1d1d1b"/>
    <path d="M14.489,19.05a1,1,0,0,0,.695.722c.24.094.489.155.721.268a7.018,7.018,0,0,1,.626.357,24.63,24.63,0,0,1,2.462,1.742c.125.1.3-.076.177-.177a25.108,25.108,0,0,0-2.23-1.6,6.988,6.988,0,0,0-1.119-.629c-.4-.161-1.009-.231-1.091-.746-.025-.159-.266-.092-.241.066Z" fill="#1d1d1b"/>
    <path d="M18,15.929c-.1.44.381.717.577,1.049.279.47.518.968.774,1.451.075.142.291.016.216-.126-.237-.446-.469-.895-.71-1.338a2.424,2.424,0,0,0-.373-.509c-.113-.12-.285-.277-.243-.461.036-.156-.205-.223-.241-.066Z" fill="#1d1d1b"/>
    <path d="M11.843,13.487a.3.3,0,0,0-.176.341.519.519,0,0,0,.264.31q.41.263.82.521a.125.125,0,1,0,.126-.215l-.672-.428a1.122,1.122,0,0,1-.264-.186l-.014-.018s-.016-.033-.013-.024c-.006-.016,0-.01,0-.031s-.005.011,0-.01c0,0,.011-.032.006-.019s.008-.019,0,0c.006-.013.01-.007-.006,0A.127.127,0,0,0,12,13.575a.126.126,0,0,0-.154-.088Z" fill="#1d1d1b"/>
  </g>
</svg>
