<svg xmlns="http://www.w3.org/2000/svg" width="12.744mm" height="6.83mm" viewBox="0 0 36.125 19.36">
  <title>rock8</title>
  <g>
    <path d="M33.566,2.529l-2.62.7c-.829.222-1.714.592-2.5.073a8.087,8.087,0,0,1-1.3-1.307A4.624,4.624,0,0,0,25.5.851C24.02.263,22.689.783,21.191.905a5.953,5.953,0,0,1-2.4-.521,6.911,6.911,0,0,0-2.4-.272c-1.613.079-3.172.66-4.791.637C10.023.726,8.6-.164,7.012.038a9.26,9.26,0,0,0-4.032,1.8c-1.19.877-.954,2.42-1.569,3.637A19.3,19.3,0,0,0,.473,7.305,7.632,7.632,0,0,0,.045,9.7a7.794,7.794,0,0,0,.049,2.07,3.045,3.045,0,0,0,1.173,1.449c1.272,1.11,2.522,2.291,3.88,3.3,1.286.952,2.814,1.139,4.242,1.772.625.277,1.187.686,1.833.917a3.2,3.2,0,0,0,1.977.012c.723-.2,1.408-.529,2.128-.745a13.847,13.847,0,0,1,2.9-.544,44.871,44.871,0,0,0,4.838-.2,38.282,38.282,0,0,0,5.02-1.513c1.786-.6,3.59-1.194,5.318-1.943a1.975,1.975,0,0,0,1.18-1.178c.12-.329.163-.68.272-1.012a2.838,2.838,0,0,1,.765-1.058,2.671,2.671,0,0,0,.466-1.79,14.478,14.478,0,0,0-.029-2.446,6.7,6.7,0,0,0-2.138-4.116c-.225-.23-.579.124-.353.354A6.239,6.239,0,0,1,35.58,6.989a13.733,13.733,0,0,1,.028,1.837c-.013.338-.027.679-.057,1.016a1.7,1.7,0,0,1-.626,1.165,2.627,2.627,0,0,0-.64,1.281,3.519,3.519,0,0,1-.294.922,2.044,2.044,0,0,1-1.124.745c-1.465.6-2.963,1.122-4.462,1.627-1.464.493-2.933,1.01-4.424,1.418a18.56,18.56,0,0,1-4.814.388,14.445,14.445,0,0,0-4.416.744,19.774,19.774,0,0,1-1.9.659,3.215,3.215,0,0,1-2.407-.516c-1.245-.688-2.62-.924-3.9-1.5a17.236,17.236,0,0,1-3.819-2.946c-.537-.463-1.086-.917-1.606-1.4C.445,11.8.52,11.016.533,10.159a8.457,8.457,0,0,1,.31-2.4,13.364,13.364,0,0,1,1-2.034,5.73,5.73,0,0,0,.538-1.615A2.611,2.611,0,0,1,3.564,2.044,7.722,7.722,0,0,1,7.721.5c1.488.059,2.809.819,4.331.735,1.5-.082,2.942-.576,4.445-.63a6.529,6.529,0,0,1,2.579.409,4.628,4.628,0,0,0,2.226.376c.819-.081,1.617-.332,2.442-.355a3.955,3.955,0,0,1,2.316.671c1.013.681,1.591,2.07,2.869,2.332a4.543,4.543,0,0,0,2.031-.3l2.739-.73a.25.25,0,0,0-.133-.482Z" transform="translate(0 -0.008)" fill="#1d1d1b"/>
    <path d="M27.444,16.136a8.7,8.7,0,0,1-.111-1.83,6.039,6.039,0,0,1,.639-1.827,5.3,5.3,0,0,0,.26-1.7l.12-2.084a8.218,8.218,0,0,1,.057-.993.526.526,0,0,1,.392-.488,3.333,3.333,0,0,1,.492-.105l1.966-.42,2.065-.44c.467-.1,1.721-.6,2.014,0,.07.144.286.018.216-.126-.2-.409-.652-.433-1.058-.378-.711.1-1.421.3-2.123.448l-2.557.545c-.391.084-.795.144-1.18.252a.591.591,0,0,0-.406.241,2.1,2.1,0,0,0-.094.864l-.068,1.191a20.275,20.275,0,0,1-.184,2.6c-.137.721-.624,1.3-.753,2.03a7.292,7.292,0,0,0,.063,2.221c.021.157.271.159.25,0Z" transform="translate(0 -0.008)" fill="#1d1d1b"/>
    <path d="M34.832,5.958l.413-.805a.125.125,0,0,0-.216-.126l-.413.8a.125.125,0,1,0,.216.126Z" transform="translate(0 -0.008)" fill="#1d1d1b"/>
    <path d="M25.442,1.235a5.841,5.841,0,0,1,.646,1.81c.105.593.03,1.184.105,1.776a1.583,1.583,0,0,0,.758,1.136,3.779,3.779,0,0,1,1.2,1.4c.071.145.286.018.216-.126a3.829,3.829,0,0,0-.992-1.27,6.806,6.806,0,0,1-.639-.5,1.363,1.363,0,0,1-.311-.961A9.237,9.237,0,0,0,26.3,2.822a6.08,6.08,0,0,0-.641-1.713c-.077-.141-.293-.015-.216.126Z" transform="translate(0 -0.008)" fill="#1d1d1b"/>
    <path d="M28.451,7.324q.252-1.7.438-3.4c.017-.159-.233-.158-.25,0Q28.458,5.6,28.21,7.258c-.024.157.217.225.241.066Z" transform="translate(0 -0.008)" fill="#1d1d1b"/>
    <path d="M12.136,18.9c.356-.329-.086-.764-.178-1.1a1.056,1.056,0,0,1,.072-.837,2.32,2.32,0,0,1,.735-.484L15.8,14.7a.125.125,0,0,0-.127-.216L12.568,16.3a3.56,3.56,0,0,0-.646.405.9.9,0,0,0-.252.567,1.6,1.6,0,0,0,.09.723c.071.19.393.548.2.726-.119.11.059.287.176.177Z" transform="translate(0 -0.008)" fill="#1d1d1b"/>
    <path d="M13.06,16.147a.846.846,0,0,0,.106-.534c.009-.41-.03-.74.335-1,.2-.139.407-.267.609-.4.741-.485,1.472-.988,2.232-1.442a9.834,9.834,0,0,1,2.372-.987,2.1,2.1,0,0,0,1.348-.945,4.634,4.634,0,0,1,.615-1.024,1.841,1.841,0,0,1,1.248-.391,2.54,2.54,0,0,0,1.465-.365,6.89,6.89,0,0,0,1.217-1.72,6.239,6.239,0,0,1,1.812-1.921c.136-.086.01-.3-.126-.216a5.642,5.642,0,0,0-1.506,1.445c-.475.638-.823,1.4-1.344,2-.615.707-1.513.4-2.313.634a1.893,1.893,0,0,0-1.117,1.12A1.921,1.921,0,0,1,19,11.437c-.352.136-.728.2-1.086.316a9.821,9.821,0,0,0-2.158,1.094c-.795.505-1.607,1.008-2.376,1.553a1.131,1.131,0,0,0-.494.527c-.116.35.167.763-.037,1.093-.085.138.132.263.216.127Z" transform="translate(0 -0.008)" fill="#1d1d1b"/>
    <path d="M24.3,15.726,25,14.48c.123-.219.245-.438.369-.657a.779.779,0,0,1,.464-.411,8.208,8.208,0,0,0,2.309-1.164c.128-.094,0-.311-.126-.215a7.715,7.715,0,0,1-1.173.714q-.326.159-.665.285a6.371,6.371,0,0,0-.609.216c-.369.181-.54.67-.73,1.007L24.083,15.6a.125.125,0,0,0,.216.126Z" transform="translate(0 -0.008)" fill="#1d1d1b"/>
    <path d="M5.406.912a8.556,8.556,0,0,0,.629,4.2,8.948,8.948,0,0,0,2.3,3.161,12.243,12.243,0,0,1,3,2.921A9.977,9.977,0,0,1,12.875,15.1c.026.158.267.091.241-.067A10.135,10.135,0,0,0,9.445,8.77,10.942,10.942,0,0,1,7.892,7.53,12.5,12.5,0,0,1,6.655,5.72a8.185,8.185,0,0,1-1-4.808c.006-.161-.244-.161-.25,0Z" transform="translate(0 -0.008)" fill="#1d1d1b"/>
    <path d="M9.689,9.1c.943.284,1.883.587,2.833.847a10.245,10.245,0,0,0,2.978.294,10.278,10.278,0,0,0,2.691-.3c.971-.281,1.936-.815,2.967-.495.154.047.219-.194.066-.242a3.572,3.572,0,0,0-2.268.22,10.05,10.05,0,0,1-3.041.561,11.03,11.03,0,0,1-3.222-.248c-.986-.264-1.961-.581-2.938-.875a.125.125,0,0,0-.066.241Z" transform="translate(0 -0.008)" fill="#1d1d1b"/>
    <path d="M2.373,3.211a16.563,16.563,0,0,0,.5,3.2,6.686,6.686,0,0,0,.55,1.347c.273.495.671.906.944,1.4a5.952,5.952,0,0,1,.488,1.772,15.327,15.327,0,0,0,.442,1.7,15.967,15.967,0,0,0,1.46,3.217.125.125,0,0,0,.216-.126,15.648,15.648,0,0,1-1.5-3.367c-.3-.961-.346-2.025-.716-2.954a7.235,7.235,0,0,0-.85-1.328,6.015,6.015,0,0,1-.7-1.431,14.721,14.721,0,0,1-.582-3.427c-.014-.159-.264-.161-.25,0Z" transform="translate(0 -0.008)" fill="#1d1d1b"/>
    <path d="M5.765,13.42c1.288.1,2.61-.275,3.873.1a.125.125,0,0,0,.066-.241c-1.288-.385-2.626-.008-3.939-.111-.16-.013-.159.237,0,.25Z" transform="translate(0 -0.008)" fill="#1d1d1b"/>
  </g>
</svg>
