<svg xmlns="http://www.w3.org/2000/svg" width="8.256mm" height="10.333mm" viewBox="0 0 23.402 29.29">
  <title>stealthmode</title>
  <g>
    <path d="M6.544,15.4q.063-2.7.127-5.409a7.93,7.93,0,0,1,1.1-4.6A5.037,5.037,0,0,1,15.4,4.626a7.341,7.341,0,0,1,1.709,4.521,48.1,48.1,0,0,1,.1,5.22,5.359,5.359,0,0,1-.281,2.462,1.365,1.365,0,0,1-.831.7c-.552.157-.8-.143-1.136-.533a.855.855,0,0,0-1-.31c-.712.27-.946,1.572-1.833,1.243-.666-.246-.93-1.129-1.583-1.442a1.2,1.2,0,0,0-1.276.142c-.5.375-.831,1.27-1.536,1.285-1.407.03-1.234-1.9-1.094-2.763.05-.315-.431-.45-.483-.133-.2,1.21-.209,3.415,1.577,3.4A1.924,1.924,0,0,0,9.117,17.5c.247-.3.5-.645.922-.628.509.021.826.531,1.131.882.4.463,1,.933,1.645.683a1.443,1.443,0,0,0,.605-.506c.125-.162.253-.475.43-.579a1.348,1.348,0,0,1,.781.025c.06.037.082.142.136.19a1.4,1.4,0,0,0,1.54.413,1.954,1.954,0,0,0,1.227-1.317,8.523,8.523,0,0,0,.179-2.536c.006-1.07.032-2.14,0-3.21A12.048,12.048,0,0,0,16.59,5.39,5.441,5.441,0,0,0,8.776,3.7a6.135,6.135,0,0,0-2.5,4.42c-.284,2.394-.174,4.876-.231,7.284a.25.25,0,0,0,.5,0Z" transform="translate(-0.298 -0.003)" fill="#1d1d1b"/>
    <path d="M11.678,11.076c-.339.244-.25.709-.219,1.068.034.4.12.856.54,1.023a.532.532,0,0,0,.515-.051.732.732,0,0,0,.259-.462,5.1,5.1,0,0,0,.08-.664,1.316,1.316,0,0,0-.1-.645.705.705,0,0,0-.448-.4.556.556,0,0,0-.564.164c-.1.124.074.3.177.177a.305.305,0,0,1,.32-.1.46.46,0,0,1,.287.259,1.823,1.823,0,0,1,.024,1.023c-.03.229-.121.564-.423.479-.318-.089-.387-.456-.414-.739-.016-.177-.038-.357-.039-.535a.454.454,0,0,1,.129-.382c.129-.094,0-.31-.126-.216Z" transform="translate(-0.298 -0.003)" fill="#1d1d1b"/>
    <path d="M9.825,8.526a.672.672,0,0,0-.178.685.638.638,0,0,0,.568.43.606.606,0,0,0,.593-.334.632.632,0,0,0-.076-.7.648.648,0,0,0-.757-.148.125.125,0,0,0,.127.216s.037-.015.012-.006l.033-.011.033-.008s.041-.006.012,0l.058,0h.034l.023,0c-.014,0-.013,0,0,0l.056.013.033.011c.035.011-.02-.011.013.005.017.009.034.017.051.027l.029.019c.012.009.013.009,0,0l.018.015c.014.013.028.026.041.04s.024.032.009.011l.019.029a.249.249,0,0,1,.027.051c-.01-.024,0,.011,0,.013a.374.374,0,0,1,.012.045l.007.033c0-.023,0,0,0,0,0,.024,0,.046,0,.07l0,.034c0-.028,0,.01,0,.013a.416.416,0,0,1-.018.067s-.014.038,0,.013l-.015.031a.408.408,0,0,1-.029.05s-.024.033-.008.012l-.022.026a.579.579,0,0,1-.051.048c.021-.016-.01.006-.012.007l-.03.018-.026.013c-.02.009.027-.008-.008,0a.675.675,0,0,1-.068.019s-.04.006-.012,0l-.035,0c-.024,0-.047,0-.071,0s.023.006-.013,0l-.023-.005a.373.373,0,0,1-.119-.042.493.493,0,0,1-.054-.034L9.994,9.3l-.025-.024-.016-.018s-.025-.031-.01-.011A.584.584,0,0,1,9.9,9.176c-.011-.022,0-.009,0,0-.006-.015-.011-.03-.016-.045l-.008-.035L9.87,9.07c0,.013,0,.013,0,0s0-.048,0-.072l0-.036c0-.015,0-.016,0,0l0-.024a.381.381,0,0,1,.041-.121.547.547,0,0,1,.041-.065c-.015.019.01-.01.011-.011S9.989,8.714,10,8.7a.125.125,0,1,0-.176-.177Z" transform="translate(-0.298 -0.003)" fill="#1d1d1b"/>
    <path d="M13.283,8.483a.584.584,0,0,0-.375.472.541.541,0,0,0,.254.56.627.627,0,0,0,.611-.006.536.536,0,0,0,.21-.686.542.542,0,0,0-.666-.238.128.128,0,0,0-.087.154.125.125,0,0,0,.153.087.423.423,0,0,1,.057-.019l.03-.006c-.031.006,0,0,.007,0s.04,0,.06,0,.038.006.007,0l.039.008c.019.005.038.012.057.019-.028-.011,0,0,.007,0l.026.014.024.017c.027.017-.016-.018.006,0l.021.021s.03.037.013.012a.509.509,0,0,1,.03.05c.015.027,0-.023,0,.012l.01.036s0,.025,0,0c0,.012,0,.024,0,.037s0,.025,0,.037,0,.017,0,0L13.78,9.1c0,.013-.006.025-.01.037s-.014.038,0,.017c-.01.022-.023.041-.035.062s.017-.018,0,.005l-.019.02-.02.02-.014.011c.014-.01.015-.01,0,0l-.047.029-.025.012c.028-.015,0,0,0,0a.468.468,0,0,1-.053.017l-.027,0-.019,0c.018,0,.02,0,0,0a.7.7,0,0,1-.1,0c.033,0,0,0,0,0l-.027,0a.64.64,0,0,1-.062-.02c.03.011,0,0,0,0L13.284,9.3l-.024-.014s-.028-.023,0,0a.359.359,0,0,1-.04-.038s-.023-.029,0,0a.328.328,0,0,1-.02-.031l-.013-.024c0-.006-.014-.034,0,0-.006-.017-.012-.035-.017-.052s-.009-.054,0-.021c0-.021,0-.042,0-.064l0-.027V9c0,.018,0,.02,0,.006s.009-.042.015-.063l.008-.027.007-.017c-.007.016-.007.017,0,0s.019-.038.031-.057l.015-.022c.008-.012.007-.01,0,0l.012-.014c.014-.016.029-.03.045-.045s-.022.014,0,0a.328.328,0,0,1,.031-.02l.024-.013,0,0,.018-.007a.128.128,0,0,0,.087-.154.126.126,0,0,0-.154-.087Z" transform="translate(-0.298 -0.003)" fill="#1d1d1b"/>
    <path d="M10.17,9.331l-.011-.013.02.026a.135.135,0,0,1-.019-.033l.012.03A.183.183,0,0,1,10.16,9.3l0,.033a.249.249,0,0,1,0-.061l0,.034a.241.241,0,0,1,.018-.065l-.013.03A.282.282,0,0,1,10.2,9.2l-.019.025a.284.284,0,0,1,.052-.052l-.025.019a.33.33,0,0,1,.057-.034l-.029.012a.276.276,0,0,1,.058-.016l-.033.005a.268.268,0,0,1,.049,0l-.033,0a.153.153,0,0,1,.042.011l-.03-.013a.212.212,0,0,1,.036.021L10.3,9.157a.154.154,0,0,1,.036.036l-.019-.025a.173.173,0,0,1,.025.044l-.012-.03a.218.218,0,0,1,.011.044l0-.034a.216.216,0,0,1,0,.036l.005-.033a.214.214,0,0,1-.009.034l.012-.03a.141.141,0,0,1-.013.024.124.124,0,0,0-.013.1.131.131,0,0,0,.058.075.129.129,0,0,0,.171-.045.272.272,0,0,0,.008-.268.3.3,0,0,0-.188-.16.382.382,0,0,0-.441.27.321.321,0,0,0,.063.317.127.127,0,0,0,.177,0,.129.129,0,0,0,0-.177Z" transform="translate(-0.298 -0.003)" fill="#1d1d1b"/>
    <path d="M13.394,9.311l0-.005.019.026a.216.216,0,0,1-.022-.039l.012.03a.272.272,0,0,1-.015-.054l0,.033a.257.257,0,0,1,0-.062l-.005.033a.272.272,0,0,1,.013-.049l-.012.03a.192.192,0,0,1,.025-.044l-.02.026a.193.193,0,0,1,.035-.035l-.025.02a.213.213,0,0,1,.046-.027l-.03.012a.318.318,0,0,1,.053-.014l-.033,0a.194.194,0,0,1,.059,0l-.033,0a.275.275,0,0,1,.047.013l-.03-.013a.213.213,0,0,1,.046.027L13.5,9.2a.259.259,0,0,1,.04.041l-.019-.025a.321.321,0,0,1,.037.065l-.013-.03a.452.452,0,0,1,.027.1l-.005-.033a.489.489,0,0,1,.005.066.126.126,0,0,0,.125.125.127.127,0,0,0,.125-.125.439.439,0,0,0-.215-.409.34.34,0,0,0-.144-.032.348.348,0,0,0-.143.033.312.312,0,0,0-.171.2.354.354,0,0,0-.005.162.329.329,0,0,0,.072.146.126.126,0,0,0,.089.037.128.128,0,0,0,.088-.037.126.126,0,0,0,.037-.088.145.145,0,0,0-.037-.088Z" transform="translate(-0.298 -0.003)" fill="#1d1d1b"/>
    <path d="M7.935,2.712A3.8,3.8,0,0,0,6.446,4.273a9.076,9.076,0,0,0-.988,2.14c-.049.154.193.22.241.067a8.853,8.853,0,0,1,.929-2.027A3.647,3.647,0,0,1,8.062,2.928c.147-.064.019-.28-.127-.216Z" transform="translate(-0.298 -0.003)" fill="#1d1d1b"/>
    <path d="M5.915,2.9a4.023,4.023,0,0,0-.68,1.271c-.049.154.192.219.241.066a3.692,3.692,0,0,1,.616-1.16.13.13,0,0,0,0-.177.127.127,0,0,0-.177,0Z" transform="translate(-0.298 -0.003)" fill="#1d1d1b"/>
    <path d="M18.832,15.055A5.448,5.448,0,0,1,18.3,17.5a.125.125,0,0,0,.216.126,5.723,5.723,0,0,0,.57-2.568c.009-.16-.241-.16-.25,0Z" transform="translate(-0.298 -0.003)" fill="#1d1d1b"/>
    <path d="M19.943,16.143a5.12,5.12,0,0,1-.088.811.13.13,0,0,0,.088.154.125.125,0,0,0,.153-.087,5.643,5.643,0,0,0,.1-.878.125.125,0,0,0-.25,0Z" transform="translate(-0.298 -0.003)" fill="#1d1d1b"/>
    <path d="M7.209,1.4a9.086,9.086,0,0,1,6.4-.943,10.519,10.519,0,0,1,5.632,2.854,11.173,11.173,0,0,1,2.338,11.826c-.063.146.152.274.216.126a11.025,11.025,0,0,0-.729-9.872,9.59,9.59,0,0,0-3.235-3.558A13.223,13.223,0,0,0,12.873.086a9.128,9.128,0,0,0-5.79,1.1.125.125,0,0,0,.126.216Z" transform="translate(-0.298 -0.003)" fill="#1d1d1b"/>
    <path d="M3.784,3.877a10.748,10.748,0,0,0-1.474,11.2A9,9,0,0,0,6.331,19.6a12.779,12.779,0,0,0,6.136,1.459,12.353,12.353,0,0,0,6.42-2.241c.13-.092.006-.309-.126-.216a12.092,12.092,0,0,1-5.16,2.089,10.73,10.73,0,0,1-3.332.015,13.046,13.046,0,0,1-2.741-.87,7.9,7.9,0,0,1-2.635-1.5,11.277,11.277,0,0,1-1.853-2.4A10.373,10.373,0,0,1,3.96,4.054c.1-.124-.075-.3-.176-.177Z" transform="translate(-0.298 -0.003)" fill="#1d1d1b"/>
    <g>
      <path d="M1.509,29.02c-.274.241-.72.16-1.044.114-.292-.041-.168-.485.122-.443.2.027.361.071.524-.051s.122-.212.129-.419c0-.064.046-.285.012-.338-.064-.1-.232-.071-.327-.083-.26-.03-.484-.039-.567-.32a1.515,1.515,0,0,1,.088-1.044c.216-.281.555-.118.835-.226s.4.338.122.444c-.241.093-.51-.026-.6.262a.406.406,0,0,0,.122.426c.059.034.253-.011.317,0,.334.036.451.231.47.546S1.778,28.776,1.509,29.02Z" transform="translate(-0.298 -0.003)" fill="#1d1d1b"/>
      <path d="M3.013,26.682c-.07,0-.139-.012-.207-.017v.284c0,.144-.077,1.822.071,1.8.29-.039.414.406.122.445-.661.09-.7-.419-.68-.955.019-.58.024-1.16.024-1.74a.247.247,0,0,1-.016-.085.2.2,0,0,1,.016-.081c0-.334,0-.669,0-1a.23.23,0,0,1,.46,0c0,.292,0,.585,0,.877.071,0,.14.013.21.015C3.307,26.231,3.307,26.691,3.013,26.682Z" transform="translate(-0.298 -0.003)" fill="#1d1d1b"/>
      <path d="M4.31,28c0,.049,0,.095,0,.141a.719.719,0,0,0,.258.6,2.2,2.2,0,0,0,.51-.046c.294-.026.292.434,0,.46-.32.027-.76.149-1.024-.1a1.144,1.144,0,0,1-.207-.914c.016-.518-.165-1.61.468-1.836a1.182,1.182,0,0,1,.846.046c.281.149.3.451.294.738,0,.226.019.7-.181.863S4.629,28.044,4.31,28Zm.027-.756c-.007.1-.01.2-.014.3a3.274,3.274,0,0,0,.626.031c.067-.26.117-.706-.051-.833-.091-.072-.329-.014-.41.037C4.312,26.886,4.353,27.054,4.337,27.248Z" transform="translate(-0.298 -0.003)" fill="#1d1d1b"/>
      <path d="M7.246,29.238a.287.287,0,0,1-.039-.039.239.239,0,0,1-.12.011c-.333-.059-.683.187-.9-.2-.185-.322-.075-.872-.1-1.238a2.109,2.109,0,0,1,.136-1.3c.172-.253.506-.217.779-.241a.192.192,0,0,1,.113.02.237.237,0,0,1,.426.124c.019.438.023.872.007,1.31-.01.251-.205,1.035.029,1.224S7.477,29.422,7.246,29.238Zm-.232-.479a4.649,4.649,0,0,1,.039-.568,15.167,15.167,0,0,0,.03-1.523A.256.256,0,0,1,7,26.7c-.414.041-.482.225-.485.626,0,.273.044.547.06.821s-.111.614.2.63A1.557,1.557,0,0,0,7.014,28.759Z" transform="translate(-0.298 -0.003)" fill="#1d1d1b"/>
      <path d="M8.917,29.2c-.626.124-.679-.477-.672-.951.016-.98.08-1.965.058-2.945a.23.23,0,0,1,.46,0c.011.568-.014,1.137-.028,1.7a7.783,7.783,0,0,0,.06,1.749C9.085,28.7,9.209,29.144,8.917,29.2Z" transform="translate(-0.298 -0.003)" fill="#1d1d1b"/>
      <path d="M10.37,26.682c-.068,0-.138-.012-.207-.017v.284c0,.144-.076,1.822.071,1.8.29-.039.414.406.122.445-.66.09-.7-.419-.678-.955.018-.58.023-1.16.023-1.74a.226.226,0,0,1-.016-.085.2.2,0,0,1,.016-.081c0-.334,0-.669,0-1a.23.23,0,0,1,.46,0c0,.292,0,.585,0,.877.071,0,.141.013.209.015C10.665,26.231,10.665,26.691,10.37,26.682Z" transform="translate(-0.298 -0.003)" fill="#1d1d1b"/>
      <path d="M12.746,28.959c.016.3-.444.3-.461,0a10.826,10.826,0,0,1,0-1.3,2.931,2.931,0,0,0,.044-.56.306.306,0,0,0-.161-.375,1.073,1.073,0,0,0-.494-.046,21.37,21.37,0,0,0,.009,2.292c.023.3-.438.292-.46,0-.1-1.2.034-2.406-.005-3.612-.009-.3.451-.3.46,0s.01.57,0,.855c.414-.039.97.037,1.086.45a3.593,3.593,0,0,1-.028,1.085A11.1,11.1,0,0,0,12.746,28.959Z" transform="translate(-0.298 -0.003)" fill="#1d1d1b"/>
      <path d="M16.952,28.964c.019.3-.441.3-.46,0-.025-.409-.037-.819-.027-1.231a3.446,3.446,0,0,0,.025-.608c-.039-.229-.393-.731-.554-.224-.005.011-.012.017-.017.027.01.177,0,.357,0,.513.007.5,0,1,0,1.5a.23.23,0,0,1-.46,0c.005-.405.007-.811.005-1.215a5.929,5.929,0,0,0-.01-.653c0-.051,0-.1-.007-.153,0-.3-.147-.373-.427-.209l-.012.014c.007.743,0,1.486-.039,2.228-.014.294-.474.3-.46,0,.044-.852.054-1.7.039-2.555a.228.228,0,0,1,.368-.177.707.707,0,0,1,.847.184.721.721,0,0,1,1.008.074,1.351,1.351,0,0,1,.166.973C16.915,27.955,16.925,28.46,16.952,28.964Z" transform="translate(-0.298 -0.003)" fill="#1d1d1b"/>
      <path d="M19.112,28.876c-.107.256-.333.293-.584.328-.835.113-.89-.33-.929-1.061a5.126,5.126,0,0,1,.013-1.525c.083-.316.343-.385.635-.463a.206.206,0,0,1,.231.076c.78-.146.695.952.69,1.447A3.523,3.523,0,0,1,19.112,28.876Zm-.4-1.009c0-.1.083-1.247-.175-1.178a.208.208,0,0,1-.219-.067c-.4.164-.29.768-.274,1.136.012.293-.061.918.249,1.013C18.846,28.937,18.7,28.165,18.708,27.867Z" transform="translate(-0.298 -0.003)" fill="#1d1d1b"/>
      <path d="M21.484,29.01a.229.229,0,0,1-.363.18.206.206,0,0,1-.132.046c-.329,0-.862.064-1.06-.258a2.417,2.417,0,0,1-.111-1.185,2.952,2.952,0,0,1,.087-1.333c.21-.346.672-.171,1-.236a.226.226,0,0,1,.1,0c0-.31-.005-.624-.007-.936a.23.23,0,0,1,.46,0Q21.469,27.148,21.484,29.01Zm-.5-.237a.116.116,0,0,1,.032.008c0-.7-.011-1.407-.015-2.111-.214.035-.614-.013-.718.17-.086.148-.007.587-.007.762a3.944,3.944,0,0,0,0,.813C20.368,28.81,20.653,28.776,20.989,28.773Z" transform="translate(-0.298 -0.003)" fill="#1d1d1b"/>
      <path d="M22.559,28c0,.049,0,.095-.005.141a.719.719,0,0,0,.258.6,2.2,2.2,0,0,0,.51-.046c.294-.026.292.434,0,.46-.32.027-.759.149-1.024-.1a1.144,1.144,0,0,1-.207-.914c.016-.518-.165-1.61.468-1.836a1.182,1.182,0,0,1,.846.046c.281.149.3.451.294.738,0,.226.019.7-.181.863S22.878,28.044,22.559,28Zm.027-.756c-.007.1-.01.2-.014.3a3.274,3.274,0,0,0,.626.031c.067-.26.117-.706-.051-.833-.091-.072-.329-.014-.41.037C22.561,26.886,22.6,27.054,22.586,27.248Z" transform="translate(-0.298 -0.003)" fill="#1d1d1b"/>
    </g>
  </g>
</svg>
