<svg xmlns="http://www.w3.org/2000/svg" width="3.9mm" height="1.714mm" viewBox="0 0 11.055 4.86">
  <title>stones3</title>
  <g>
    <path d="M6.483.108A3.706,3.706,0,0,0,4.939,2.27a1.583,1.583,0,0,0,.221,1.3,1.476,1.476,0,0,0,1.207.505,3.617,3.617,0,0,0,2.772-.456,1.775,1.775,0,0,0,.016-2.39A2.727,2.727,0,0,0,6.721.014c-.317.033-.32.534,0,.5a2.158,2.158,0,0,1,1.761.679c.441.448.9,1.269.484,1.869-.441.642-1.35.594-2.031.548-.217-.015-.433-.029-.649-.045a1.12,1.12,0,0,1-.566-.138.945.945,0,0,1-.32-.916A3.1,3.1,0,0,1,6.736.54C7,.358,6.749-.076,6.483.108Z" transform="translate(0 -0.002)" fill="#1d1d1b"/>
    <path d="M8.967,3.291a1.019,1.019,0,0,0,.565.754,1,1,0,0,0,1-.089A1.379,1.379,0,0,0,11.053,3,.922.922,0,0,0,10.5,2.16a1.362,1.362,0,0,0-.6-.224.692.692,0,0,0-.554.205A.25.25,0,0,0,9.7,2.5l.025-.026c.028-.027-.027.014.007,0l.031-.017s-.031.011,0,0c.012,0,.082-.018.041-.014a.546.546,0,0,1,.1,0c-.042,0,.025.006.038.009l.08.025a1.365,1.365,0,0,1,.164.085c.055.031.108.063.161.1.021.014.042.028.063.044s-.022-.02.01.008l.037.034c.009.008.056.06.036.033a.52.52,0,0,1,.039.064.26.26,0,0,1,.023.113c0,.013,0,.026,0,.039s-.005.042,0,.019-.006.028-.007.033l-.01.04a.724.724,0,0,1-.054.144.958.958,0,0,1-.2.287c-.007.007-.057.048-.03.028a.613.613,0,0,1-.074.046l-.033.017c.034-.016,0,0-.009,0-.032.011-.064.019-.1.027s.013,0-.033,0a.842.842,0,0,1-.087,0l-.037,0s.034.006,0,0a.808.808,0,0,1-.1-.024L9.759,3.6c.037.014-.011-.006-.018-.01a.87.87,0,0,1-.083-.05c-.023-.017,0,0,0,0l-.036-.032a.631.631,0,0,1-.066-.071l0,0q-.018-.026-.033-.051a.7.7,0,0,1-.045-.086c.015.036-.008-.031-.012-.043a.767.767,0,0,1-.022-.106.253.253,0,0,0-.308-.175.257.257,0,0,0-.174.308Z" transform="translate(0 -0.002)" fill="#1d1d1b"/>
    <path d="M1.029,2.9a1.136,1.136,0,0,0-.771.239A.852.852,0,0,0,0,3.808a1.166,1.166,0,0,0,.992,1.01,3.133,3.133,0,0,0,.907.021,1.919,1.919,0,0,0,.853-.153.9.9,0,0,0,.084-1.38,1.708,1.708,0,0,0-.808-.448,1.219,1.219,0,0,0-.943.043c-.281.157-.029.589.252.432a.649.649,0,0,1,.477-.014,1.59,1.59,0,0,1,.536.222c.2.141.413.495.166.7-.12.1-.355.076-.5.089a5.278,5.278,0,0,1-.653.031.906.906,0,0,1-.825-.415.418.418,0,0,1,.027-.4c.1-.139.309-.141.466-.144a.25.25,0,0,0,0-.5Z" transform="translate(0 -0.002)" fill="#1d1d1b"/>
    <path d="M7.919,1.423c.4.316.94.761.783,1.339a.125.125,0,0,0,.241.066,1.139,1.139,0,0,0-.166-.9A2.909,2.909,0,0,0,8.1,1.246a.129.129,0,0,0-.177,0,.127.127,0,0,0,0,.177Z" transform="translate(0 -0.002)" fill="#1d1d1b"/>
    <path d="M9.992,2.885l.135.236a.13.13,0,0,0,.074.058.132.132,0,0,0,.1-.013.127.127,0,0,0,.057-.075.124.124,0,0,0-.013-.1l-.134-.236a.13.13,0,0,0-.075-.057.124.124,0,0,0-.1.012.128.128,0,0,0-.058.075.134.134,0,0,0,.013.1Z" transform="translate(0 -0.002)" fill="#1d1d1b"/>
    <path d="M1.772,3.778c-.04,0,0,0,.013,0l.038.009a.618.618,0,0,1,.073.023l.015.006c-.031-.01-.013-.006-.005,0l.035.017a.716.716,0,0,1,.066.039l.029.02,0,0,.015.013a.7.7,0,0,1,.056.053l.026.029L2.139,4c-.023-.023-.007-.008,0,0a.739.739,0,0,1,.042.066.125.125,0,0,0,.171.044A.127.127,0,0,0,2.4,3.934a.826.826,0,0,0-.261-.278.838.838,0,0,0-.362-.128.122.122,0,0,0-.088.036.124.124,0,0,0,0,.177.149.149,0,0,0,.088.037Z" transform="translate(0 -0.002)" fill="#1d1d1b"/>
  </g>
</svg>
