<svg xmlns="http://www.w3.org/2000/svg" width="4.753mm" height="2.079mm" viewBox="0 0 13.473 5.893">
  <title>stones2</title>
  <g>
    <path d="M6.923.015A2.157,2.157,0,0,0,4.928.9a.682.682,0,0,0,.27.958,3.509,3.509,0,0,0,1.239.318,11.156,11.156,0,0,0,1.436.132,4.6,4.6,0,0,0,1.3-.084c.741-.2,1.2-1.094.491-1.636A3.392,3.392,0,0,0,6.9.132c-.313.075-.18.558.133.482A2.964,2.964,0,0,1,9.3.936c.369.244.224.626-.147.772a3.221,3.221,0,0,1-1.186.1,10.155,10.155,0,0,1-1.3-.1c-.205-.029-.409-.066-.611-.108a2.068,2.068,0,0,1-.566-.157c-.41-.222.176-.61.4-.731A1.747,1.747,0,0,1,6.923.515c.32.034.317-.466,0-.5Z" transform="translate(-0.001 -0.003)" fill="#1d1d1b"/>
    <path d="M.2,2.019A.907.907,0,0,0,.121,3.025a.672.672,0,0,0,.44.3,1.191,1.191,0,0,0,.552-.05.853.853,0,0,0,.418-.264.928.928,0,0,0,.191-.49,1.773,1.773,0,0,0,0-.392.762.762,0,0,0-.062-.287.432.432,0,0,0-.269-.207,1.232,1.232,0,0,0-1.065.187.256.256,0,0,0-.09.342.252.252,0,0,0,.342.09,1.048,1.048,0,0,1,.146-.091l.035-.017c.055-.028-.035.011,0,0s.06-.021.091-.03S.9,2.1.932,2.1A.216.216,0,0,1,.97,2.093c-.059,0-.022,0-.01,0a1.538,1.538,0,0,1,.192,0c.041,0-.01,0-.009,0l.038.007c.027.006.053.015.08.021s-.047-.032,0,0a.124.124,0,0,1-.041-.041c-.03-.052,0-.021-.006-.008s0,.025,0,0,0-.02,0,0a2.267,2.267,0,0,1,.02.33c0,.027,0,.053-.005.08s-.013.036,0-.015c0,.011,0,.024,0,.034q-.008.039-.018.075l-.013.04c-.015.047.025-.044,0,0l-.033.058c-.025.041.009-.01.009-.01s-.022.025-.028.031-.023.029-.033.031.048-.031,0,0a.844.844,0,0,1-.083.047c-.047.024.006,0,.007,0L1,2.79a.907.907,0,0,1-.093.026l-.077.017a.176.176,0,0,1-.041.007c.058,0,0,0-.016,0a.887.887,0,0,1-.1,0c-.028,0-.02.009.005,0a.159.159,0,0,1-.039-.01c-.049-.011,0,0,.005,0A.123.123,0,0,1,.6,2.817C.592,2.812.56,2.791.589,2.812S.575,2.8.569,2.791A.15.15,0,0,1,.54,2.758l.018.022L.539,2.75.522,2.719c-.024-.043.011.046,0-.006A.357.357,0,0,0,.5,2.626c0,.007,0,.059,0,.014,0-.021,0-.041,0-.061a.193.193,0,0,1,0-.041c-.017.059,0,0,.005-.013a.733.733,0,0,1,.03-.1c-.018.05,0,.007,0-.006S.56,2.384.57,2.366c.019-.033.039-.064.061-.1a.251.251,0,0,0-.089-.342.257.257,0,0,0-.343.09Z" transform="translate(-0.001 -0.003)" fill="#1d1d1b"/>
    <path d="M10.885,4.18a1.283,1.283,0,0,0,.328,1.372,1.356,1.356,0,0,0,1.453.227A1.393,1.393,0,0,0,13.474,4.6a1.059,1.059,0,0,0-.345-.737,1.821,1.821,0,0,0-.637-.45,1.172,1.172,0,0,0-1.465.432.25.25,0,0,0,.432.253.653.653,0,0,1,.762-.252,1.122,1.122,0,0,1,.437.255.934.934,0,0,1,.308.407.655.655,0,0,1-.109.452.912.912,0,0,1-.335.335.845.845,0,0,1-.9-.047.785.785,0,0,1-.259-.933.25.25,0,1,0-.482-.133Z" transform="translate(-0.001 -0.003)" fill="#1d1d1b"/>
    <path d="M8.174,1.012a1.821,1.821,0,0,1,.521.15c.088.038.175.08.262.122a.454.454,0,0,1,.091.051c.014.011-.005.006,0-.007s.023-.03,0-.015a.127.127,0,0,0,0,.177.13.13,0,0,0,.177,0,.229.229,0,0,0-.009-.337A1.161,1.161,0,0,0,8.9.983a2.353,2.353,0,0,0-.73-.221.126.126,0,0,0-.125.125.128.128,0,0,0,.125.125Z" transform="translate(-0.001 -0.003)" fill="#1d1d1b"/>
    <path d="M12.115,4.324a.472.472,0,0,1,.053.018c-.014-.006-.014-.007,0,0l.025.013a.508.508,0,0,1,.043.027c.006,0,.027.022,0,0l.017.015c.013.011.025.023.037.035l.018.021c.005,0,.022.028,0,0a.591.591,0,0,1,.054.086l.01.021.006.012c-.006-.014-.007-.017,0-.008s.012.032.016.048a.443.443,0,0,1,.013.049l.005.027c0,.015,0-.025,0,0a.851.851,0,0,1,0,.1c0,.028,0-.023,0,0l-.006.027a.461.461,0,0,1-.015.053.125.125,0,0,0,.087.154.128.128,0,0,0,.154-.087.693.693,0,0,0-.454-.86.127.127,0,0,0-.154.087.128.128,0,0,0,.087.154Z" transform="translate(-0.001 -0.003)" fill="#1d1d1b"/>
  </g>
</svg>
