<svg xmlns="http://www.w3.org/2000/svg" width="12.089mm" height="11.044mm" viewBox="0 0 34.267 31.306">
  <title>stump</title>
  <g>
    <path d="M16.258.036A29.856,29.856,0,0,0,9.6,1.156a10.434,10.434,0,0,0-1.714.577.889.889,0,0,0-.513.508c-.215.664.417,1.14.969,1.3a18.3,18.3,0,0,0,6.584.494c2.321-.195,4.577-1.05,6.914-1a.25.25,0,0,0,0-.5,27.563,27.563,0,0,0-5.218.786,20.671,20.671,0,0,1-5.718.164c-.488-.053-.975-.125-1.458-.214C9.157,3.22,8.293,3.18,8.109,2.91l.071-.76c.145-.056.29-.109.436-.159.22-.077.441-.147.663-.216q.629-.193,1.265-.358A29.282,29.282,0,0,1,16.258.536c.32-.018.322-.518,0-.5Z" fill="#1d1d1b"/>
    <path d="M18.914,3.373a1.231,1.231,0,0,1,.948,1.141,9.112,9.112,0,0,1-.169.937,2.52,2.52,0,0,0,.006.879,1.54,1.54,0,0,0,2.378.894,1.877,1.877,0,0,0,.768-1.532.25.25,0,0,0-.5,0,1.283,1.283,0,0,1-.968,1.3,1.017,1.017,0,0,1-1.2-.792c-.141-.7.3-1.379.146-2.082a1.868,1.868,0,0,0-1.28-1.224c-.3-.111-.433.372-.133.482Z" fill="#1d1d1b"/>
    <path d="M22.663,5.962c.74.035.847.971.8,1.527a3.977,3.977,0,0,1-.2,1.054c-.105.27-.362.564-.684.483a.25.25,0,0,0-.133.482,1.071,1.071,0,0,0,1.147-.513,3.321,3.321,0,0,0,.362-1.44,2.268,2.268,0,0,0-.235-1.433,1.319,1.319,0,0,0-1.054-.66c-.322-.015-.321.485,0,.5Z" fill="#1d1d1b"/>
    <path d="M10.434,5.29c-.57.347-1.316.444-1.8.922A1.735,1.735,0,0,0,8.287,7.95c.119.463.36.9.445,1.368a2.614,2.614,0,0,1-.4,1.645,6.508,6.508,0,0,0-.889,2.2c-.164,1.569,1.243,2.609,1.971,3.829a4.411,4.411,0,0,0,1.39,1.7,3.817,3.817,0,0,0,2.159.383c1.921-.051,4.072.094,5.753-1,.268-.175.018-.608-.253-.432-1.665,1.085-3.914.917-5.822.942a2.621,2.621,0,0,1-2.552-1.421A24.135,24.135,0,0,0,8.615,15.08a2.52,2.52,0,0,1-.5-2.569A13.377,13.377,0,0,0,9.237,9.956c.146-.93-.512-1.67-.542-2.569-.038-1.138,1.24-1.208,1.992-1.665.274-.167.023-.6-.253-.432Z" fill="#1d1d1b"/>
    <path d="M12.666,4.347a12.282,12.282,0,0,1-.222,1.813q-.092.456-.218.905a1.556,1.556,0,0,0-.154.724.537.537,0,0,0,.371.338,3.294,3.294,0,0,0,.792.165,1.273,1.273,0,0,0,1.242-.517c.085-.137-.131-.262-.216-.126a1.155,1.155,0,0,1-1.249.36,1.686,1.686,0,0,1-.605-.173c-.2-.135,0-.488.05-.671a12.45,12.45,0,0,0,.459-2.818c.007-.161-.243-.16-.25,0Z" fill="#1d1d1b"/>
    <path d="M11.769,9a8.234,8.234,0,0,1-.017,1.266.126.126,0,0,0,.125.125,5.668,5.668,0,0,1,2.311.208c.151.057.216-.185.067-.241a5.839,5.839,0,0,0-2.378-.217l.125.125A8.234,8.234,0,0,0,12.019,9c-.01-.16-.26-.161-.25,0Z" fill="#1d1d1b"/>
    <path d="M14.632,11.28c-.722.01-1.421-.277-2.144-.213-.13.011-.352.011-.439.124A.349.349,0,0,0,12,11.4c0,.1-.006.2-.006.3a8.432,8.432,0,0,0,.084,1.188c.022.158.263.091.241-.067a7.976,7.976,0,0,1-.075-1.047c0-.09,0-.181,0-.271,0-.041.007-.083,0-.123s.008-.065-.006-.034-.007.027.035.006c.074,0,.152-.027.227-.032a2.137,2.137,0,0,1,.24-.006c.634.013,1.245.23,1.882.221a.125.125,0,0,0,0-.25Z" fill="#1d1d1b"/>
    <path d="M12.122,10.342a1.287,1.287,0,0,1,.149.8.126.126,0,0,0,.125.125.128.128,0,0,0,.125-.125,1.52,1.52,0,0,0-.183-.927.125.125,0,0,0-.216.127Z" fill="#1d1d1b"/>
    <path d="M12.07,12.027a1.178,1.178,0,0,0-.913.993,1.007,1.007,0,0,0,.762,1.163c.307.027.6-.126.9-.1s.58.159.882.163c.553.008.93-.434,1.3-.781.118-.11-.059-.286-.176-.176-.3.28-.62.686-1.064.707a2.863,2.863,0,0,1-.7-.127,1.566,1.566,0,0,0-.636,0c-.241.046-.517.143-.732-.029a.88.88,0,0,1-.3-.651.926.926,0,0,1,.738-.918c.157-.036.091-.277-.066-.241Z" fill="#1d1d1b"/>
    <path d="M11.79,8.03a1.2,1.2,0,0,0-.7.95c0,.415.369.645.7.808.143.07.27-.145.126-.216-.242-.118-.575-.279-.578-.592,0-.347.314-.573.579-.734a.125.125,0,0,0-.127-.216Z" fill="#1d1d1b"/>
    <path d="M12.293,9.1c.309-.009.621-.031.93-.027.157,0,.218.122.3.238s.18.253.268.382a15.97,15.97,0,0,1,.932,1.562c.074.143.29.016.215-.126A15.737,15.737,0,0,0,13.9,9.415c-.148-.212-.306-.544-.589-.583a3.059,3.059,0,0,0-.488,0l-.533.016c-.16,0-.161.255,0,.25Z" fill="#1d1d1b"/>
    <path d="M11.393,15.867a2.452,2.452,0,0,0,.781.5,2.541,2.541,0,0,0,1.06.015,2,2,0,0,0,1.637-.678c.087-.136-.13-.262-.216-.126-.311.486-.972.508-1.486.561a2.4,2.4,0,0,1-.875,0,2.013,2.013,0,0,1-.724-.448c-.123-.1-.3.074-.177.177Z" fill="#1d1d1b"/>
    <path d="M15.379,5.556a3.84,3.84,0,0,1,1.453-.034.125.125,0,0,0,.066-.241,4.144,4.144,0,0,0-1.585.034c-.157.035-.091.276.066.241Z" fill="#1d1d1b"/>
    <path d="M10.925,5.417a6.372,6.372,0,0,1,.955-.086.125.125,0,0,0,0-.25,6.849,6.849,0,0,0-1.021.095.125.125,0,0,0-.087.154.127.127,0,0,0,.153.087Z" fill="#1d1d1b"/>
    <path d="M10.21,4.991l.022.051-.025-.06a2.03,2.03,0,0,1,.137.5l-.009-.067.006.055a.272.272,0,0,0,.074.177.25.25,0,0,0,.353,0,.242.242,0,0,0,.073-.177,2.1,2.1,0,0,0-.2-.733.249.249,0,0,0-.149-.115.25.25,0,0,0-.308.175l-.009.066a.254.254,0,0,0,.035.126Z" fill="#1d1d1b"/>
    <path d="M12.455,4.548c-.61.039-1.222.095-1.834.115a10.126,10.126,0,0,1-1.607-.358l.108.189c.062-.09.284-.118.386-.143a3.4,3.4,0,0,1,.447-.078,4.244,4.244,0,0,1,.8,0,5.172,5.172,0,0,1,.819.139,1.76,1.76,0,0,1,.756.315c.12.106.3-.07.177-.177a1.891,1.891,0,0,0-.807-.363,5.535,5.535,0,0,0-1.006-.169,4.238,4.238,0,0,0-.981.043c-.251.041-.647.084-.8.311-.06.087.023.178.108.188a4.457,4.457,0,0,1,.822.243,2.226,2.226,0,0,0,.785.115c.612-.02,1.224-.076,1.834-.115.16-.011.161-.261,0-.25Z" fill="#1d1d1b"/>
    <path d="M9.957,3.806l.124.325a.287.287,0,0,0,.115.15.185.185,0,0,0,.093.029.189.189,0,0,0,.1,0,.256.256,0,0,0,.149-.115A.243.243,0,0,0,10.563,4l-.123-.325a.194.194,0,0,0-.045-.085.226.226,0,0,0-.163-.094.189.189,0,0,0-.1,0,.251.251,0,0,0-.149.114.248.248,0,0,0-.026.193Z" fill="#1d1d1b"/>
    <path d="M14.175,4.829a2.662,2.662,0,0,0,2.1.009,7.781,7.781,0,0,1,2.54-.282.126.126,0,0,0,.063-.233,2.577,2.577,0,0,0-.989-.367,3.844,3.844,0,0,0-1.2.1,20.322,20.322,0,0,0-2.489.519c-.152.05-.087.291.067.242A18.321,18.321,0,0,1,16.5,4.342a5.4,5.4,0,0,1,1.173-.152,2.236,2.236,0,0,1,1.079.348l.063-.232a7.662,7.662,0,0,0-2.279.2c-.723.179-1.53.515-2.236.1a.125.125,0,0,0-.126.216Z" fill="#1d1d1b"/>
    <path d="M22.941,6.761c-.068-.016-.086-.011-.051.014.014.014.028.028.041.043a.8.8,0,0,1,.074.09,1.108,1.108,0,0,1,.1.181,1.2,1.2,0,0,1,.1.43,2.042,2.042,0,0,1-.233.973c-.069.144.147.271.216.126a2.2,2.2,0,0,0,.251-1.252,1.381,1.381,0,0,0-.188-.535c-.076-.124-.263-.405-.438-.286-.132.091-.007.308.126.216Z" fill="#1d1d1b"/>
    <path d="M16.224.5a20.674,20.674,0,0,1,4.8.746A5.83,5.83,0,0,1,24.31,4.472a4.8,4.8,0,0,1,.157,2.181,14.286,14.286,0,0,1-.484,2.667,3.734,3.734,0,0,0,.566,3.494c.219.237.572-.117.354-.354-1.29-1.4-.191-3.429.007-5.022A12.644,12.644,0,0,0,25,5.088a4.067,4.067,0,0,0-.737-1.744A5.926,5.926,0,0,0,21.057.733,22.216,22.216,0,0,0,16.224,0c-.32-.032-.318.469,0,.5Z" fill="#1d1d1b"/>
    <path d="M22.118,8.567a20.035,20.035,0,0,1,.207,2.067c.136.635.409,1.241.486,1.888a3.1,3.1,0,0,1-.6,1.978c-.368.617-.794,1.2-1.219,1.775-.19.26.243.509.432.252a21.42,21.42,0,0,0,1.292-1.9,3.5,3.5,0,0,0,.614-1.948,10.648,10.648,0,0,0-.473-1.986c-.189-.746-.013-1.531-.253-2.261-.1-.3-.583-.174-.482.133Z" fill="#1d1d1b"/>
    <path d="M23.167,12.848a2.248,2.248,0,0,0,1.646.245.251.251,0,0,0,.174-.307.255.255,0,0,0-.307-.175c-.032.008-.063.015-.095.021-.009,0-.1.015-.054.009-.056.007-.113.011-.169.013s-.114,0-.17,0l-.1-.008-.048-.006h.006a2.716,2.716,0,0,1-.342-.086c-.03-.01-.061-.022-.091-.034.04.016-.022-.01-.029-.013a1.883,1.883,0,0,1-.172-.091.25.25,0,1,0-.252.432Z" fill="#1d1d1b"/>
    <path d="M20.245,23.041a3.331,3.331,0,0,1,2.708.8,7.318,7.318,0,0,0,2.424,1.129,3.906,3.906,0,0,1,2.215,1.575A12.948,12.948,0,0,0,29.5,28.621c.248.2.6-.15.354-.354A14.9,14.9,0,0,1,27.8,26.019a4.075,4.075,0,0,0-2.294-1.526A5.373,5.373,0,0,1,24,23.926c-.428-.252-.827-.551-1.25-.811a3.316,3.316,0,0,0-2.633-.557.251.251,0,0,0,.133.483Z" fill="#1d1d1b"/>
    <path d="M10.824,22a2.217,2.217,0,0,0-1.708,1.311,10.828,10.828,0,0,0-.54,2.96,6.885,6.885,0,0,1-2.965,4.5c-.267.177-.017.61.252.432a7.439,7.439,0,0,0,2.931-3.781A12.628,12.628,0,0,0,9.239,24.8c.114-.924.491-2.16,1.585-2.3.315-.039.319-.54,0-.5Z" fill="#1d1d1b"/>
    <path d="M8.239,15.3q-.043,2.321-.117,4.64c-.024.767-.048,1.535-.081,2.3a4.768,4.768,0,0,1-.461,2.217C6.9,25.64,5.337,26.249,4.2,26.893L.122,29.212a.25.25,0,0,0,.252.432l4.4-2.5C5.907,26.5,7.323,25.9,8.012,24.713c.7-1.2.545-2.828.59-4.161q.088-2.623.137-5.25a.25.25,0,0,0-.5,0Z" fill="#1d1d1b"/>
    <path d="M23.63,13.189a14.906,14.906,0,0,1,.357,3.178c0,.849-.106,1.7-.024,2.548a4.142,4.142,0,0,0,2.25,3.152,3.777,3.777,0,0,1,1.573,1.675,3.26,3.26,0,0,0,1.123,1.619,11.43,11.43,0,0,0,2.152,1.05l2.823,1.223c.292.127.547-.3.252-.431l-2.605-1.129a16.424,16.424,0,0,1-2.144-1c-.772-.478-.909-1.129-1.294-1.876a3.78,3.78,0,0,0-1.209-1.278,11.673,11.673,0,0,1-1.642-1.218,3.335,3.335,0,0,1-.809-2.411c-.008-.877.078-1.75.036-2.628a15.737,15.737,0,0,0-.357-2.611c-.069-.314-.551-.181-.482.133Z" fill="#1d1d1b"/>
    <path d="M6.072,31.248A5.333,5.333,0,0,1,8.333,29.6a6.492,6.492,0,0,0,1.878-1.416,3.006,3.006,0,0,1,1.574-1.029,11.2,11.2,0,0,1,1.705-.174,22.53,22.53,0,0,1,3.347-.038,11.735,11.735,0,0,1,1.871.315,3.855,3.855,0,0,0,1.265.175,10.7,10.7,0,0,1,1.423-.24,5.47,5.47,0,0,1,1.571.432,4.719,4.719,0,0,0,1.279.316c.516.035,1.029-.08,1.547-.052a26.955,26.955,0,0,1,3.7.693c.157.032.224-.209.067-.241-1.173-.234-2.364-.562-3.555-.683-.591-.06-1.172.076-1.761.033a6.689,6.689,0,0,1-1.682-.478,3.748,3.748,0,0,0-1.361-.271,9.057,9.057,0,0,1-1.816.215,27.265,27.265,0,0,0-3.239-.5,29.376,29.376,0,0,0-3.559.141,3.43,3.43,0,0,0-2.424,1.068A6.554,6.554,0,0,1,8.97,28.955c-.393.254-.818.453-1.233.667a4.54,4.54,0,0,0-1.881,1.5c-.087.136.129.261.216.126Z" fill="#1d1d1b"/>
    <path d="M.888,29.461A7.478,7.478,0,0,1,4.5,28.041a6.354,6.354,0,0,0,1.63-.45,4.088,4.088,0,0,1,2.165-.084c.158.024.225-.217.067-.241a4.991,4.991,0,0,0-1.925-.038c-.341.083-.644.257-.972.372a5.122,5.122,0,0,1-1.092.206,7.547,7.547,0,0,0-3.61,1.439c-.128.095,0,.312.126.216Z" fill="#1d1d1b"/>
    <path d="M27.948,26.76c.484-.266,1.027-.014,1.516.111a8.085,8.085,0,0,0,1.353.168,11.712,11.712,0,0,1,3.042.675c.152.055.217-.186.067-.241a12.052,12.052,0,0,0-3.221-.693,9.037,9.037,0,0,1-1.665-.288,1.6,1.6,0,0,0-1.218.052c-.141.077-.015.293.126.216Z" fill="#1d1d1b"/>
    <path d="M22.864,16.716a4.6,4.6,0,0,1,2.026.1c.665.123,1.328.252,1.989.395.157.034.224-.207.067-.241-.713-.155-1.429-.292-2.146-.423a4.521,4.521,0,0,0-2-.069.125.125,0,0,0,.067.241Z" fill="#1d1d1b"/>
    <path d="M27.512,15.57q-.414.711-.783,1.448c-.072.144.144.27.216.126q.367-.736.783-1.448a.125.125,0,0,0-.216-.126Z" fill="#1d1d1b"/>
    <path d="M27.023,17.129a4.041,4.041,0,0,1,1.413-.313c.16-.006.161-.256,0-.25a4.361,4.361,0,0,0-1.539.348.126.126,0,0,0-.045.171.128.128,0,0,0,.171.044Z" fill="#1d1d1b"/>
    <path d="M27.043,17.282a2.924,2.924,0,0,1,1.2.271.129.129,0,0,0,.171-.045.125.125,0,0,0-.045-.171,3.216,3.216,0,0,0-1.325-.3.125.125,0,0,0,0,.25Z" fill="#1d1d1b"/>
    <path d="M27.034,17.284a.061.061,0,1,0,.009,0c.018.006-.012-.007,0,0s.024.017.011.006l.019.018c.031.031.059.065.088.1l.2.228.391.455a.125.125,0,0,0,.177-.177l-.424-.493-.206-.24a.374.374,0,0,0-.264-.15.126.126,0,0,0-.125.125.127.127,0,0,0,.125.125Z" fill="#1d1d1b"/>
    <path d="M8.448,16.437A14.892,14.892,0,0,0,6.33,17c-.151.053-.087.3.066.241a14.892,14.892,0,0,1,2.118-.565c.158-.03.092-.271-.066-.241Z" fill="#1d1d1b"/>
    <path d="M6.4,16.971a4.737,4.737,0,0,0-1.471-.657.125.125,0,0,0-.066.242,4.51,4.51,0,0,1,1.41.631c.134.09.26-.126.127-.216Z" fill="#1d1d1b"/>
    <path d="M6.225,17.008a3.137,3.137,0,0,1-1.2.244.125.125,0,0,0,0,.25,3.438,3.438,0,0,0,1.331-.278.126.126,0,0,0,.045-.171.127.127,0,0,0-.171-.045Z" fill="#1d1d1b"/>
    <path d="M6.4,17.168a3.377,3.377,0,0,0-.851.77.129.129,0,0,0,0,.177.127.127,0,0,0,.177,0,3.158,3.158,0,0,1,.8-.731.125.125,0,1,0-.126-.216Z" fill="#1d1d1b"/>
    <path d="M6.46,17.152a2.012,2.012,0,0,0-.2,1.321.124.124,0,0,0,.153.087.128.128,0,0,0,.088-.153,1.747,1.747,0,0,1,.173-1.129c.076-.142-.14-.268-.215-.126Z" fill="#1d1d1b"/>
    <path d="M27.549,19.6c.824-.077,1.266-.828,1.605-1.492.074-.143-.142-.269-.215-.126-.291.567-.673,1.3-1.39,1.368a.129.129,0,0,0-.125.125.125.125,0,0,0,.125.125Z" fill="#1d1d1b"/>
    <path d="M28.848,20.062l.41-.4a.125.125,0,0,0,0-.177.127.127,0,0,0-.176,0l-.411.4a.125.125,0,0,0,.177.176Z" fill="#1d1d1b"/>
    <path d="M4.664,14.3a3.134,3.134,0,0,0-1.076,1.99c-.009.067.064.124.125.125a.129.129,0,0,0,.125-.125,2.879,2.879,0,0,1,1-1.813c.123-.1-.054-.28-.177-.177Z" fill="#1d1d1b"/>
    <path d="M3.342,14.156a2.036,2.036,0,0,0-.266.534.126.126,0,0,0,.087.154.129.129,0,0,0,.154-.088,1.08,1.08,0,0,1,.05-.134c-.016.031,0,0,0-.012l.011-.024c.01-.022.021-.044.032-.065a1.857,1.857,0,0,1,.142-.239.125.125,0,0,0-.044-.171.127.127,0,0,0-.171.045Z" fill="#1d1d1b"/>
  </g>
</svg>
