<svg xmlns="http://www.w3.org/2000/svg" width="7.653mm" height="9.648mm" viewBox="0 0 21.695 27.349">
  <title>trashcan</title>
  <g>
    <path d="M15.809.356A32.982,32.982,0,0,0,4.171.694,5.474,5.474,0,0,0,.405,2.966,2.793,2.793,0,0,0,1.11,6.582,9.669,9.669,0,0,0,5.7,8.222a29.766,29.766,0,0,0,5.612.319,35.475,35.475,0,0,0,5.2-.4A8.237,8.237,0,0,0,20.92,6.26a2.5,2.5,0,0,0-.077-3.732,7.841,7.841,0,0,0-2.46-1.393A6.8,6.8,0,0,0,15.772.382a.25.25,0,0,0,0,.5,5.85,5.85,0,0,1,2.2.621,10.809,10.809,0,0,1,2.079,1.028,2.451,2.451,0,0,1,1.2,2.012,2.476,2.476,0,0,1-1.2,1.79c-2.433,1.687-5.9,1.639-8.74,1.708a31.985,31.985,0,0,1-4.517-.166A14.054,14.054,0,0,1,2.267,6.731C.833,6.021-.027,4.54.934,3.059c.851-1.311,2.507-1.712,3.941-2.008A33.326,33.326,0,0,1,15.809.856c.319.04.316-.46,0-.5Z" transform="translate(-0.023 -0.002)" fill="#1d1d1b"/>
    <path d="M1.051,6.482c-.041,1.933,0,3.866.136,5.795s.459,3.846.6,5.777c.135,1.9-.025,3.819.191,5.718a3.262,3.262,0,0,0,.618,1.842,3.419,3.419,0,0,0,1.6.939,20.392,20.392,0,0,0,10.36.254,18.827,18.827,0,0,0,2.582-.75,3.274,3.274,0,0,0,1.523-.978,4.5,4.5,0,0,0,.619-2.064c.159-.985.283-1.974.383-2.966.442-4.4.48-8.839.588-13.253a.25.25,0,0,0-.5,0c-.087,3.567-.156,7.14-.382,10.7-.115,1.8-.284,3.6-.571,5.385a3.134,3.134,0,0,1-.9,2.238,7.3,7.3,0,0,1-2.37.928,21.07,21.07,0,0,1-10.019.32,6.807,6.807,0,0,1-1.942-.613,2.573,2.573,0,0,1-1.126-2.339C2.284,21.712,2.4,20,2.3,18.292c-.115-1.931-.451-3.844-.594-5.774-.149-2.008-.2-4.023-.153-6.036a.25.25,0,0,0-.5,0Z" transform="translate(-0.023 -0.002)" fill="#1d1d1b"/>
    <path d="M7.123,4.194c.27-.63.14-1.461.541-2.025.477-.671,1.606-.542,2.318-.56l1.456-.037a4.257,4.257,0,0,1,1.314.075c.84.248,1.086,1.133,1.281,1.89a.25.25,0,0,0,.482-.133A2.979,2.979,0,0,0,13.228,1.3,2.912,2.912,0,0,0,11.9,1.062c-.591,0-1.184.028-1.775.043a4.312,4.312,0,0,0-2.575.468c-.76.6-.521,1.574-.861,2.369-.125.292.3.547.431.252Z" transform="translate(-0.023 -0.002)" fill="#1d1d1b"/>
    <path d="M8.234,4.189c.174-.376.163-.935.535-1.183a2.245,2.245,0,0,1,1.264-.2c.574.006,1.148,0,1.722.018.5.012.968.223,1,.784.016.32.516.322.5,0a1.323,1.323,0,0,0-.883-1.2,3.239,3.239,0,0,0-1-.086L10.23,2.307A3.388,3.388,0,0,0,8.6,2.525a1.182,1.182,0,0,0-.512.523c-.137.283-.156.605-.287.888s.3.545.432.253Z" transform="translate(-0.023 -0.002)" fill="#1d1d1b"/>
    <path d="M6.849,4.039c-.2.126-.071.376.083.476a.873.873,0,0,0,.475.131.944.944,0,0,0,.833-.481c.074-.143-.142-.27-.216-.127a.688.688,0,0,1-.525.353.68.68,0,0,1-.335-.037.505.505,0,0,1-.129-.072A.126.126,0,0,1,7,4.236l-.006-.022c.006,0-.013.038-.018.041.136-.084.011-.3-.127-.216Z" transform="translate(-0.023 -0.002)" fill="#1d1d1b"/>
    <path d="M12.786,3.759a.8.8,0,0,0,.779.36,1.283,1.283,0,0,0,.825-.511.13.13,0,0,0,0-.177.127.127,0,0,0-.177,0,1.1,1.1,0,0,1-.642.437A.555.555,0,0,1,13,3.632a.125.125,0,0,0-.216.127Z" transform="translate(-0.023 -0.002)" fill="#1d1d1b"/>
    <path d="M.179,3.882C.828,5.541,2.7,6.126,4.3,6.387a42.576,42.576,0,0,0,6.689.538,23.93,23.93,0,0,0,6.389-.7A9.284,9.284,0,0,0,19.991,5.1c.61-.4,1.274-.887,1.306-1.675.006-.161-.244-.16-.25,0-.04.973-1.319,1.6-2.091,1.964a11.194,11.194,0,0,1-2.565.818,27.055,27.055,0,0,1-5.639.467,47.5,47.5,0,0,1-5.627-.42c-1.711-.222-3.99-.611-4.7-2.438-.058-.148-.3-.084-.241.066Z" transform="translate(-0.023 -0.002)" fill="#1d1d1b"/>
    <path d="M2.137,23.193a4.542,4.542,0,0,0,2.974,2.222,16.161,16.161,0,0,0,5.257.647,22.356,22.356,0,0,0,5.4-.99c1.217-.348,2.618-.7,3.265-1.9.076-.142-.139-.268-.216-.126-.681,1.264-2.307,1.557-3.574,1.911a20.646,20.646,0,0,1-4.872.851A16.609,16.609,0,0,1,5.612,25.3a4.61,4.61,0,0,1-3.259-2.229c-.068-.145-.283-.019-.216.126Z" transform="translate(-0.023 -0.002)" fill="#1d1d1b"/>
    <path d="M2.792,8.693l.541,8.869L3.6,21.873c.036.592-.071,2.115.951,1.852a.125.125,0,0,0-.066-.241c-.746.192-.65-1.856-.673-2.227l-.1-1.724-.218-3.572L3.042,8.693c-.01-.159-.26-.16-.25,0Z" transform="translate(-0.023 -0.002)" fill="#1d1d1b"/>
    <path d="M6.282,9.151a16.461,16.461,0,0,0,.01,4.254,44.272,44.272,0,0,1,.235,4.548q0,2.282.095,4.56c.027.6-.147,2.3.925,2.065.157-.034.09-.275-.067-.241-.715.154-.61-1.856-.623-2.183q-.038-.96-.058-1.92c-.025-1.183-.008-2.365-.021-3.547-.027-2.491-.651-4.983-.255-7.47.025-.157-.216-.225-.241-.066Z" transform="translate(-0.023 -0.002)" fill="#1d1d1b"/>
    <path d="M10,9.536q-.043,4.482-.043,8.963,0,2.18.011,4.358c0,.457-.139,2.153.826,1.679.145-.071.018-.287-.126-.216-.509.25-.448-1.166-.449-1.339,0-.29,0-.581,0-.871q0-.934-.006-1.868,0-1.743,0-3.486.006-3.61.042-7.22a.125.125,0,0,0-.25,0Z" transform="translate(-0.023 -0.002)" fill="#1d1d1b"/>
    <path d="M13.553,9.321a16.19,16.19,0,0,0-.157,4.548,36.11,36.11,0,0,1,0,4.71l-.151,2.37a15.04,15.04,0,0,0-.092,2.254,1.552,1.552,0,0,0,.443,1.156.478.478,0,0,0,.713-.15c.089-.135-.127-.26-.216-.126q-.588-.024-.633-.494a3.353,3.353,0,0,1-.069-.6,8.441,8.441,0,0,1,.028-.856c.037-.632.081-1.264.121-1.9.074-1.155.172-2.311.207-3.468.076-2.464-.481-4.942.052-7.383.034-.156-.207-.223-.242-.066Z" transform="translate(-0.023 -0.002)" fill="#1d1d1b"/>
    <path d="M17.077,8.777l-.619,9.384c-.1,1.48-.25,2.969-.227,4.454,0,.342-.033.833.251,1.089a.478.478,0,0,0,.713-.043c.1-.124-.075-.3-.177-.177-.47.574-.538-.924-.539-.987,0-.315.005-.63.017-.945.022-.555.061-1.109.1-1.663q.123-1.851.245-3.7l.489-7.408c.011-.16-.239-.16-.25,0Z" transform="translate(-0.023 -0.002)" fill="#1d1d1b"/>
  </g>
</svg>
