<svg xmlns="http://www.w3.org/2000/svg" width="15.604mm" height="24.022mm" viewBox="0 0 44.232 68.094">
  <title>tree2</title>
  <g>
    <path d="M18.781.177a40.526,40.526,0,0,1-1.952,5.772c-.541,1.209-1.075,2.421-1.624,3.627-1.217,2.675-2.707,5.176-4.093,7.765-.91,1.7-1.728,3.446-2.513,5.208-.076.171.056.46.282.367a5.556,5.556,0,0,0,2.334-1.757l-.427-.177a11.635,11.635,0,0,1-.742,4.362c-.088.235.255.423.418.243a22.678,22.678,0,0,0,2.989-4.153L13,21.374l.536,1.721a.253.253,0,0,0,.418.111,7.591,7.591,0,0,0,1.226-1.54.25.25,0,0,0-.432-.252A7.08,7.08,0,0,1,13.6,22.852l.418.111-.536-1.722a.252.252,0,0,0-.456-.059,22.174,22.174,0,0,1-2.912,4.052l.418.243a12.029,12.029,0,0,0,.76-4.5c0-.2-.286-.359-.426-.177a5.112,5.112,0,0,1-2.114,1.629l.283.367c1.387-3.112,2.981-6.083,4.654-9.049C15.012,11.4,16.057,8.9,17.156,6.435A43.329,43.329,0,0,0,19.263.31a.25.25,0,0,0-.482-.133Z" fill="#1d1d1b"/>
    <path d="M18.535.4a41.169,41.169,0,0,0,4.341,11.9c1,1.9,2.081,3.762,3.184,5.607.551.919,1.128,1.825,1.661,2.755.113.2.488.64-.023.682-.139.011-.454-.238-.564-.3a9.525,9.525,0,0,1-1.5-1.089.251.251,0,0,0-.392.3,5.486,5.486,0,0,1,.592,2.524l.376-.216A8.691,8.691,0,0,1,24.055,20.9c-.221-.235-.574.119-.353.353A9.079,9.079,0,0,0,25.959,23a.253.253,0,0,0,.376-.216,6.032,6.032,0,0,0-.661-2.776l-.392.3c.426.374,2.945,2.545,3.19,1.1.11-.644-.533-1.354-.835-1.853-.5-.824-1-1.648-1.487-2.476A69.853,69.853,0,0,1,20.8,6.6,34.132,34.132,0,0,1,19.017.271c-.056-.316-.538-.182-.482.133Z" fill="#1d1d1b"/>
    <path d="M10.222,24.349,6.19,35.034c-.069.184.137.353.308.308,2.339-.627,4.135-2.3,5.834-3.94l-.427-.177L11.77,32.9c-.027.334-.194.891,0,1.2.415.665,1.4-.367,1.719-.613.219-.167.465-.323.667-.51s.2-.3.221-.048a1.939,1.939,0,0,0,.049.679c.256.564.947.213,1.187-.171.172-.273-.261-.524-.431-.252-.38.607-.3-.247-.3-.348a.678.678,0,0,0-.09-.372c-.243-.357-.627-.115-.885.08-.207.155-1.5,1.33-1.7,1.19a5.077,5.077,0,0,1,.1-1.254l.1-1.254a.252.252,0,0,0-.426-.177c-1.637,1.578-3.36,3.208-5.614,3.812l.307.307L10.7,24.482c.114-.3-.37-.431-.482-.133Z" fill="#1d1d1b"/>
    <path d="M25.664,22.612a33.222,33.222,0,0,0,2,6.257,32.362,32.362,0,0,0,1.466,2.964c.111.2.826,1.138.638,1.369-.105.129-.856-.35-1-.438a8.738,8.738,0,0,1-.842-.587.255.255,0,0,0-.354,0,.722.722,0,0,0-.2.445c-.014.155.149.651.041.751-.146.134-1.623-1.114-1.806-1.251-.258-.193-.507.241-.252.432l1.323.988c.235.176.5.456.822.378a.576.576,0,0,0,.395-.414c.091-.277-.148-.768.033-.976h-.354c.44.345,2.1,1.789,2.614.957a1.1,1.1,0,0,0-.122-1.04c-.323-.621-.7-1.214-1.024-1.838a32.567,32.567,0,0,1-2.891-8.13c-.067-.314-.549-.181-.482.133Z" fill="#1d1d1b"/>
    <path d="M7.68,34.409a23.646,23.646,0,0,1-4.7,8.12.252.252,0,0,0,.243.418,26.705,26.705,0,0,0,4.458-1.8l-.376-.216L7.5,43.563a.253.253,0,0,0,.316.242c.707-.257.826-.928,1.359-1.369.894-.739.739.647,1.3.882.512.216.951-.515,1.4-.613,1.057-.226,1.952.586,2.669,1.24a.253.253,0,0,0,.393-.05l.711-1.576-.392.051a28.264,28.264,0,0,1,1.975,2.457.254.254,0,0,0,.342.089c.739-.484.842-1.268,1.053-2.061.131-.492.572-1.488,1.293-1.1.322.173.43.519.841.361a.265.265,0,0,0,.184-.241l.113-2.085c.018-.322-.482-.321-.5,0l-.113,2.085.183-.242c-.127.05-.35-.248-.456-.309a1.016,1.016,0,0,0-.487-.13,1.394,1.394,0,0,0-.975.4c-.809.784-.415,2.256-1.388,2.895l.342.089a29.51,29.51,0,0,0-2.054-2.558.252.252,0,0,0-.393.051l-.711,1.575.393-.05A4.609,4.609,0,0,0,12.578,42.2a2.17,2.17,0,0,0-1.158.13c-.226.1-.636.567-.837.376-.161-.154-.146-.539-.314-.731a.8.8,0,0,0-.748-.252c-.957.148-1.028,1.306-1.838,1.6L8,43.563l-.191-2.637a.253.253,0,0,0-.376-.216,25.975,25.975,0,0,1-4.339,1.755l.243.418a24.279,24.279,0,0,0,4.825-8.341c.1-.306-.379-.437-.482-.133Z" fill="#1d1d1b"/>
    <path d="M27.264,33.474Q29.42,38.5,31.839,43.4l.215-.376a2.646,2.646,0,0,1-2.225-.987.255.255,0,0,0-.354,0c-.5.418.32,1.422-.612,1.363a3.513,3.513,0,0,1-1.182-.542l-1.087-.578c-.284-.151-.537.28-.252.431l1.505.8a2.16,2.16,0,0,0,1.295.4.91.91,0,0,0,.678-.462.8.8,0,0,0,.073-.438c-.01-.125-.188-.513-.064-.617h-.354a3.124,3.124,0,0,0,2.579,1.133.253.253,0,0,0,.216-.376q-2.418-4.9-4.575-9.923c-.126-.3-.557-.041-.431.252Z" fill="#1d1d1b"/>
    <path d="M28.915,44.068l4.7,9.906.215-.376c-1.649.124-2.588-1.889-4.152-2.209a.252.252,0,0,0-.307.307,8.164,8.164,0,0,1,.328,2.852c-.015.218.026.668-.289.717a2.789,2.789,0,0,1-.667-.285q-.579-.267-1.136-.576a17.165,17.165,0,0,1-4.118-3.213c-.2-.212-.521.058-.393.3a6.3,6.3,0,0,1,.722,2.876l.376-.215a7.517,7.517,0,0,1-2.174-1.9.252.252,0,0,0-.466.126l-.147,2.1.376-.216a9.617,9.617,0,0,1-3.829-3.99c-.147-.286-.579-.034-.431.252A10.076,10.076,0,0,0,21.535,54.7a.253.253,0,0,0,.376-.215l.147-2.1-.466.126a8.14,8.14,0,0,0,2.354,2.081.252.252,0,0,0,.376-.216,6.866,6.866,0,0,0-.79-3.128l-.393.3A17.506,17.506,0,0,0,28.688,55.5c.656.293,1.3.464,1.463-.433a7.928,7.928,0,0,0-.294-3.5l-.308.308c1.631.334,2.5,2.362,4.285,2.227a.253.253,0,0,0,.216-.376l-4.7-9.906c-.138-.291-.57-.037-.432.252Z" fill="#1d1d1b"/>
    <path d="M5.288,41.977a24.154,24.154,0,0,1-2.331,5.692,24.53,24.53,0,0,1-1.616,2.469A5.28,5.28,0,0,0,.122,52.5c-.023.162.108.389.307.307a6.186,6.186,0,0,0,1.927-1.232L1.929,51.4l-.093,1.618a3.433,3.433,0,0,0-.019,1.225c.182.525.734.364,1.1.169a19.164,19.164,0,0,0,4.356-3.231l-.393-.051c.53,1.241-.633,2.682.374,3.806a.25.25,0,0,0,.3.039L9.81,53.4l1.075-.754a6.267,6.267,0,0,1,1.052-.734c.988-.4,1.248,1.412,1.36,2.009a.707.707,0,0,0,.859.643,1.371,1.371,0,0,0,.631-.391c.193-.194.623-.99,1.006-.722.348.243.2.868.646,1.084.42.2.831-.164,1.136-.412a6.463,6.463,0,0,0,1.466-1.719.25.25,0,0,0-.432-.252,4.523,4.523,0,0,1-1.657,1.82c-.542.217-.508-.626-.853-.913a.777.777,0,0,0-.994.027c-.262.187-.414.576-.672.734-.688.421-.683-.45-.778-.8-.256-.933-.982-2.17-2.045-1.495-1.472.936-2.873,2.013-4.3,3.015l.3.039c-.519-.578-.238-1.43-.149-2.114a2.9,2.9,0,0,0-.147-1.591.253.253,0,0,0-.393-.051A19.811,19.811,0,0,1,3.8,53.311q-.37.236-.751.455c-.106.061-.37.266-.478.268-.295,0-.25-.214-.273-.393a12.8,12.8,0,0,1,.129-2.24A.253.253,0,0,0,2,51.225,5.545,5.545,0,0,1,.3,52.328l.308.307a6.088,6.088,0,0,1,1.428-2.6,24.013,24.013,0,0,0,1.57-2.5A24.81,24.81,0,0,0,5.77,42.11a.25.25,0,0,0-.482-.133Z" fill="#1d1d1b"/>
    <path d="M21.964,46.656l-.022-.015.062.108c-.075.011-.1.036-.073.074.008.016.016.032.023.049.023.05.044.1.067.15l.133.3.254.568.52,1.167a.126.126,0,0,0,.2.025,3.336,3.336,0,0,0,.728-1.724l-.233.063a3.994,3.994,0,0,0,1.1,1.134.126.126,0,0,0,.152-.02c.667-.851-.089-1.942.274-2.872.058-.149-.183-.214-.241-.066A2.819,2.819,0,0,0,24.86,47a1.788,1.788,0,0,1-.163,1.363l.152-.02a3.663,3.663,0,0,1-1.013-1.044.126.126,0,0,0-.233.063,3.04,3.04,0,0,1-.655,1.548l.2.025-.8-1.8c-.062-.139-.117-.284-.187-.419a.269.269,0,0,0-.215-.177.182.182,0,0,0-.1.333c.13.095.255-.121.127-.216Z" fill="#1d1d1b"/>
    <path d="M23.122,33.023l.29.474a1.9,1.9,0,0,0,.254.379.333.333,0,0,0,.512-.047,4.163,4.163,0,0,0,.386-.737.778.778,0,0,1,.278-.344.254.254,0,0,1,.365.085.125.125,0,0,0,.215,0,14.622,14.622,0,0,0,.888-2.721c.034-.156-.207-.223-.241-.066a14.376,14.376,0,0,1-.862,2.661h.215a.468.468,0,0,0-.5-.243.756.756,0,0,0-.514.4c-.074.123-.133.255-.2.384a1.957,1.957,0,0,1-.2.387c-.167.2-.285-.1-.364-.232l-.309-.506c-.084-.137-.3-.011-.216.126Z" fill="#1d1d1b"/>
    <path d="M14.075,19.294l.128,2.293a.126.126,0,0,0,.213.088.553.553,0,0,1,.739-.018c.2.185.046.6.352.7a.369.369,0,0,0,.395-.172c.144-.179.271-.375.4-.562l.878-1.219c.094-.131-.123-.256-.216-.127l-.844,1.173c-.139.194-.27.4-.421.583-.068.083-.128.124-.161,0a1.909,1.909,0,0,1-.034-.212.759.759,0,0,0-1.27-.324l.214.089-.128-2.293c-.009-.16-.259-.161-.25,0Z" fill="#1d1d1b"/>
    <path d="M5.987,48.058,6.1,49.774a.128.128,0,0,0,.159.121l.749-.13-.158-.121.136,1.743c.013.159.263.161.25,0L7.1,49.644a.128.128,0,0,0-.159-.12l-.749.13.158.12-.112-1.716c-.01-.16-.261-.161-.25,0Z" fill="#1d1d1b"/>
    <path d="M7.681,41.315l.884-.984-.2-.026c.19.34.58.759.981.437a2.876,2.876,0,0,0,.471-.615l.531-.756c.093-.132-.124-.257-.216-.126-.267.38-.531.762-.8,1.14-.1.14-.232.285-.415.189a.948.948,0,0,1-.335-.395.127.127,0,0,0-.2-.025l-.884.984c-.107.119.069.3.177.177Z" fill="#1d1d1b"/>
    <path d="M13.221,28.606l-1.292,3.01c-.063.146.153.274.216.126l1.292-3.009c.062-.147-.153-.274-.216-.127Z" fill="#1d1d1b"/>
    <path d="M13.482,53.573c-.334.782-.309,1.648-.612,2.438a5.96,5.96,0,0,1-1.478,2.074c-1.332,1.3-2.883,2.4-4.333,3.558-.251.2.1.552.354.353a52.612,52.612,0,0,0,4.424-3.647,6.6,6.6,0,0,0,1.395-1.916c.377-.836.325-1.774.682-2.607.125-.293-.306-.548-.432-.253Z" fill="#1d1d1b"/>
    <path d="M23.143,53.966a8.924,8.924,0,0,0,.258,2.706A3.646,3.646,0,0,0,25.02,58.73,20.227,20.227,0,0,0,30.991,61.3a.251.251,0,0,0,.133-.483,20.1,20.1,0,0,1-5.5-2.3,3.461,3.461,0,0,1-1.736-1.975,8.5,8.5,0,0,1-.24-2.573.25.25,0,0,0-.5,0Z" fill="#1d1d1b"/>
    <path d="M16.855,56.743l-.712,2.4c-.227.766-.419,1.557-.7,2.3a7.374,7.374,0,0,1-1.348,1.838,12.1,12.1,0,0,0-1.152,1.894c-.148.285.283.538.431.252a10.515,10.515,0,0,1,1.3-2.071,5.931,5.931,0,0,0,1.2-1.642c.3-.735.483-1.523.709-2.282l.759-2.558a.25.25,0,0,0-.482-.133Z" fill="#1d1d1b"/>
    <path d="M.477,63.632a2.568,2.568,0,0,1,1.539-.86c.66-.177,1.325-.334,1.987-.5a11.6,11.6,0,0,1,1.891-.412,18.2,18.2,0,0,1,1.976.127,25.845,25.845,0,0,0,3.778-.275l4.017-.465c.316-.037.32-.537,0-.5l-4.371.506a19.8,19.8,0,0,1-4.364.163,11,11,0,0,0-3.9.586c-1.061.267-2.3.424-2.98,1.379-.187.262.246.512.431.252Z" fill="#1d1d1b"/>
    <path d="M29.452,60.549c1.122-.73,2.431-.335,3.6.055a10.346,10.346,0,0,0,3.548.57,15.887,15.887,0,0,1,3.836.187,20.519,20.519,0,0,0,3.555.736c.322.016.321-.484,0-.5a32.775,32.775,0,0,1-3.97-.829,24.117,24.117,0,0,0-3.886-.092,15.763,15.763,0,0,1-3.919-.856,3.711,3.711,0,0,0-3.016.3c-.269.175-.018.608.252.432Z" fill="#1d1d1b"/>
    <path d="M13.106,65.284a15.092,15.092,0,0,0,3.7-2.018,15.5,15.5,0,0,0,1.595-1.38,7.818,7.818,0,0,1,1.639-1.4,4.25,4.25,0,0,1,2.8-.228c.862.131,1.723.273,2.584.409l5.292.838c.158.025.226-.216.067-.241l-5.415-.858c-.9-.142-1.793-.291-2.691-.425a4.736,4.736,0,0,0-2.221.046c-1.257.422-2.092,1.62-3.065,2.453a14.751,14.751,0,0,1-4.351,2.563c-.149.057-.084.3.066.241Z" fill="#1d1d1b"/>
    <path d="M33.882,58.031a14.473,14.473,0,0,1,.409,4.01c-.006.161.244.16.25,0a14.729,14.729,0,0,0-.418-4.077c-.038-.156-.28-.09-.241.067Z" fill="#1d1d1b"/>
    <path d="M36.719,56.884a32.087,32.087,0,0,0-1.445,5.669c-.025.157.216.225.242.066A32.106,32.106,0,0,1,36.96,56.95c.054-.152-.187-.217-.241-.066Z" fill="#1d1d1b"/>
    <path d="M37.781,59.13a16.242,16.242,0,0,0-1.338,3.28.125.125,0,0,0,.241.066A16.008,16.008,0,0,1,38,59.256c.077-.142-.139-.268-.216-.126Z" fill="#1d1d1b"/>
    <path d="M6.017,64.923l1.481,3.1c.069.145.285.019.216-.126L6.233,64.8c-.069-.145-.285-.019-.216.126Z" fill="#1d1d1b"/>
    <path d="M7.638,63.412a23.705,23.705,0,0,1,.631,4.561c.006.161.256.161.25,0a24.077,24.077,0,0,0-.64-4.627c-.037-.157-.278-.09-.241.066Z" fill="#1d1d1b"/>
  </g>
</svg>
