<svg xmlns="http://www.w3.org/2000/svg" width="25.421mm" height="24.315mm" viewBox="0 0 72.06 68.924">
  <title>tree1</title>
  <g>
    <path d="M44.683,60.486a22.5,22.5,0,0,1,1.685,2.134,15.345,15.345,0,0,0,1.406,2.021,20.179,20.179,0,0,0,2.077,1.71l2.357,1.86c.25.2.606-.154.353-.353l-2.3-1.813a20.61,20.61,0,0,1-2.138-1.758A16.959,16.959,0,0,1,46.68,62.2a23.672,23.672,0,0,0-1.643-2.064c-.215-.241-.567.114-.354.353Z" transform="translate(-0.015)" fill="#1d1d1b"/>
    <path d="M35.493,59.08c-1.16.046-1.815.96-2.531,1.746-.788.864-1.934,1.156-2.674,2.087-.326.41-.6.86-.96,1.247a4.751,4.751,0,0,1-1.8,1.043,13.335,13.335,0,0,0-3.041,2.023c-.25.2.105.554.354.353a12.793,12.793,0,0,1,3.176-2.039,4.693,4.693,0,0,0,1.391-.754,6.311,6.311,0,0,0,.9-1.064,4.675,4.675,0,0,1,1.138-1.232c.439-.29.932-.475,1.345-.8.872-.7,1.452-2.055,2.706-2.105.32-.013.322-.513,0-.5Z" transform="translate(-0.015)" fill="#1d1d1b"/>
    <path d="M26.105,64.384a4.09,4.09,0,0,1,2.547-1.9A6.5,6.5,0,0,0,30.791,61.2a7.463,7.463,0,0,0,2.025-4.66,10.966,10.966,0,0,0-.535-5.56,7.775,7.775,0,0,0-1.675-2.136c-.681-.674-1.369-1.344-2.088-1.977a12.72,12.72,0,0,0-5.127-2.976.25.25,0,0,0-.133.482,11.7,11.7,0,0,1,4.6,2.579c.651.554,1.271,1.143,1.882,1.74A11.491,11.491,0,0,1,31.6,50.77c.982,1.585.911,3.867.73,5.661A6.612,6.612,0,0,1,29.9,61.3c-1.446,1.027-3.519,1.114-4.272,2.952-.122.3.362.427.482.133Z" transform="translate(-0.015)" fill="#1d1d1b"/>
    <path d="M25.105,34.227a9.96,9.96,0,0,0,1.281,4.486,12.05,12.05,0,0,0,3.356,3.569,79.571,79.571,0,0,0,9.4,6.026c.282.156.535-.276.253-.432a85.593,85.593,0,0,1-8.675-5.491,13.4,13.4,0,0,1-3.691-3.567,9.4,9.4,0,0,1-1.427-4.591c-.014-.32-.515-.322-.5,0Z" transform="translate(-0.015)" fill="#1d1d1b"/>
    <path d="M36.272,46.632a19.492,19.492,0,0,0,6.482-5.889,12.086,12.086,0,0,0,2.09-4.169,22.233,22.233,0,0,0,.476-4.952.25.25,0,0,0-.5,0,22.128,22.128,0,0,1-.43,4.709,11.71,11.71,0,0,1-2.068,4.159,18.921,18.921,0,0,1-6.3,5.71c-.284.151-.032.583.252.432Z" transform="translate(-0.015)" fill="#1d1d1b"/>
    <path d="M47.322,32.845c.111.913.208,1.829.334,2.74.041.3.144.611.47.7a1.85,1.85,0,0,0,1.073-.22,22.67,22.67,0,0,0,2.293-1.219l2.519-1.394c.281-.156.03-.588-.252-.432-1.362.753-2.717,1.52-4.085,2.26a5.364,5.364,0,0,1-.982.439c-.115.036-.378.148-.485.043s-.085-.45-.1-.577l-.285-2.338c-.038-.315-.539-.319-.5,0Z" transform="translate(-0.015)" fill="#1d1d1b"/>
    <path d="M54.852,35.194a25.087,25.087,0,0,0-2.78,1.8,12.192,12.192,0,0,0-2.1,2.348A15.972,15.972,0,0,0,47,45.362c-.5,2.366-.95,4.751-1.252,7.15a36.434,36.434,0,0,0-.3,3.835c-.018.875-.21,2.158.473,2.844a4.7,4.7,0,0,0,1.275.737,13.827,13.827,0,0,1,4.388,3.5c.208.246.56-.109.354-.354a14.5,14.5,0,0,0-4.4-3.529,4.336,4.336,0,0,1-1.252-.717c-.457-.49-.347-1.364-.345-2,0-1.122.075-2.244.191-3.36.247-2.378.7-4.729,1.165-7.073a14.257,14.257,0,0,1,.869-3.2A20.348,20.348,0,0,1,49.8,40.487a15.063,15.063,0,0,1,2.229-2.782,19.306,19.306,0,0,1,3.078-2.08c.272-.17.022-.6-.252-.431Z" transform="translate(-0.015)" fill="#1d1d1b"/>
    <path d="M17.132,37.333a6.226,6.226,0,0,1,2.279,1.387c.335.322.617.7.981.987a4.811,4.811,0,0,0,1.085.644,8.268,8.268,0,0,0,1.2.424c.34.089.7.061.852-.3a2.7,2.7,0,0,0-.014-1.31c-.062-.478-.145-.952-.234-1.425a16.044,16.044,0,0,1-.411-3.392.25.25,0,0,0-.5,0,15.806,15.806,0,0,0,.4,3.355c.109.579.219,1.16.281,1.747a1.831,1.831,0,0,1,.032.791c-.091.186-.591-.044-.753-.1a5.657,5.657,0,0,1-1.395-.653,9.42,9.42,0,0,1-1.171-1.124,6.806,6.806,0,0,0-2.5-1.516c-.3-.106-.436.377-.133.482Z" transform="translate(-0.015)" fill="#1d1d1b"/>
    <path d="M17.635,39.046a.962.962,0,0,1,.531.347c.182.2.348.412.52.619l.535.644c.085.1.1.083,0,.182a.927.927,0,0,1-.246.164,5.327,5.327,0,0,1-1.26.281,7.027,7.027,0,0,0-1.532.481.25.25,0,1,0,.252.431A7.109,7.109,0,0,1,18.2,41.7a2.454,2.454,0,0,0,1.375-.511.531.531,0,0,0,.117-.748c-.205-.27-.434-.524-.65-.784-.345-.415-.7-.988-1.272-1.095-.315-.059-.45.422-.133.482Z" transform="translate(-0.015)" fill="#1d1d1b"/>
    <path d="M11.946,37.116c-1.459-.007-1.843,1.5-1.987,2.67l.376-.216a2.387,2.387,0,0,0-2.686.141,5.359,5.359,0,0,0-.477.5c-.154.153-.236.269-.488.242-.109-.012-.22-.073-.332-.091A1.875,1.875,0,0,0,4.9,40.8a3.749,3.749,0,0,0-.978,1.411,2.8,2.8,0,0,0-.4,1.564c.193,1.124,1.48,1.032,2.317.813l-.308-.307C4.781,46.225,6.6,48.029,8.347,48.5a5.228,5.228,0,0,0,5.2-1.514l-.393-.05c.829,1.1,2.415,2.7,3.871,1.528.237-.191.2-.28.536-.285a2,2,0,0,1,.708.176,2.316,2.316,0,0,0,1.157.056,1.786,1.786,0,0,0,1.386-1.433l-.307.175c1.163.25,3.258.354,3.336-1.351a5.2,5.2,0,0,0-.167-1.11,1.538,1.538,0,0,0-.27-.714,1.257,1.257,0,0,0-.842-.391,1.21,1.21,0,0,1-.653-.209,1.771,1.771,0,0,1-.32-.54,1.192,1.192,0,0,0-1.326-.783c-.9.15-1.5.974-2.333,1.26-.479.164-.6-.338-.854-.673a4.007,4.007,0,0,0-.783-.794,2.63,2.63,0,0,0-2.087-.506c-.316.058-.182.54.133.483a2.29,2.29,0,0,1,2.075.8c.317.338.554,1.038.959,1.268.388.219.815-.152,1.126-.344.549-.339,1.526-1.2,2.193-.942.5.194.52.833.922,1.169.465.389,1.176.139,1.508.724a2.566,2.566,0,0,1,.138.74,1.192,1.192,0,0,1-.167,1.121c-.625.7-1.656.479-2.455.308a.253.253,0,0,0-.308.174,1.428,1.428,0,0,1-1.928,1.027c-.451-.131-.866-.516-1.32-.176-.245.184-.376.446-.683.558a1.666,1.666,0,0,1-1.056,0,3.945,3.945,0,0,1-1.757-1.567.253.253,0,0,0-.392-.05A4.719,4.719,0,0,1,8.805,48.1c-1.613-.313-3.5-1.853-2.79-3.678.072-.184-.138-.351-.307-.307a2.13,2.13,0,0,1-1.269.071c-.717-.291-.354-1.117-.126-1.625.362-.8.957-1.874,2-1.686.312.057.592.259.908.086.249-.136.35-.491.54-.685A1.885,1.885,0,0,1,10.083,40a.254.254,0,0,0,.376-.216c.109-.886.343-2.175,1.487-2.17a.25.25,0,0,0,0-.5Z" transform="translate(-0.015)" fill="#1d1d1b"/>
    <path d="M20.3,47.438a2.016,2.016,0,0,0,1.512,1.422,4.341,4.341,0,0,0,2.717-.471l-.342-.09a2.242,2.242,0,0,0,1.186.862,2.192,2.192,0,0,0,.813.085c.22-.019.578-.2.784-.1.225.108.391.323.638.425a2.265,2.265,0,0,0,.7.158,4.637,4.637,0,0,0,2.06-.5c.293-.122.165-.606-.133-.482a4.615,4.615,0,0,1-1.778.484,1.728,1.728,0,0,1-.8-.189c-.2-.1-.338-.3-.539-.392-.357-.161-.707.094-1.074.1a1.721,1.721,0,0,1-1.43-.707.261.261,0,0,0-.342-.09c-1.078.457-3.091.959-3.495-.652a.25.25,0,0,0-.482.133Z" transform="translate(-0.015)" fill="#1d1d1b"/>
    <path d="M17.44,27.65a3.976,3.976,0,0,0-3.121,1.558,1.756,1.756,0,0,0,.622,2.393v-.432c-.832.513-1.964,1.426-1.4,2.544.542,1.068,1.9.84,2.834.574l-.308-.174A3.261,3.261,0,0,0,16.98,36a2.4,2.4,0,0,0,1.965.381,8.18,8.18,0,0,0,4.36-2.53l-.3.04a2.77,2.77,0,0,0,2.622.512,2.079,2.079,0,0,0,1.344-1.791l-.25.25A3.561,3.561,0,0,0,29.9,31.438l-.342.089c.819.421,2.089.765,2.9.137a.967.967,0,0,0-.1-1.637l-.192.456c1.255.2,2.7.3,3.488-.892l-.342.09a9.5,9.5,0,0,0,6.071,1.857c.321-.014.323-.514,0-.5a9.063,9.063,0,0,1-5.819-1.789.254.254,0,0,0-.342.09c-.648.979-1.923.821-2.924.662-.253-.04-.473.329-.192.457.423.193.26.68-.051.877a1.52,1.52,0,0,1-.779.156,3.24,3.24,0,0,1-1.468-.395.259.259,0,0,0-.342.089,3.056,3.056,0,0,1-2.747,1.176.253.253,0,0,0-.25.25,1.593,1.593,0,0,1-1.39,1.415,2.463,2.463,0,0,1-1.823-.568.25.25,0,0,0-.3.039,8.306,8.306,0,0,1-3.379,2.2,2.684,2.684,0,0,1-2,.081,2.381,2.381,0,0,1-1.024-1.8.253.253,0,0,0-.307-.175c-.642.182-1.667.484-2.153-.176-.635-.863.459-1.632,1.1-2.028a.254.254,0,0,0,0-.432,1.274,1.274,0,0,1-.123-2.086,3.919,3.919,0,0,1,2.369-.933c.319-.022.322-.522,0-.5Z" transform="translate(-0.015)" fill="#1d1d1b"/>
    <path d="M6.562,26.83c-1.01.863-.13,2.08.6,2.763l.177-.426a7.162,7.162,0,0,0-4.973,1.391,1.57,1.57,0,0,0-.77,1.727c.3.786,1.166.957,1.906,1.039l-.066-.491c-.882.251-2.215.941-2.29,2s1.6,1.657,2.391,1.933l-.15-.368a1.79,1.79,0,0,0,1.265,2.77l-.175-.308A2.448,2.448,0,0,0,4.667,40.8c.152.284.584.031.432-.253a1.934,1.934,0,0,1-.144-1.557.25.25,0,0,0-.174-.307,1.3,1.3,0,0,1-.966-2.035.254.254,0,0,0-.149-.368c-.552-.192-2.165-.748-2-1.557.154-.735,1.266-1.229,1.9-1.408a.252.252,0,0,0-.067-.492c-.916-.1-2.049-.659-1.082-1.66a4.871,4.871,0,0,1,1.473-.936,6.842,6.842,0,0,1,3.446-.561.253.253,0,0,0,.177-.427c-.519-.488-1.374-1.392-.6-2.056.245-.209-.11-.562-.354-.354Z" transform="translate(-0.015)" fill="#1d1d1b"/>
    <path d="M16.014,15.964a7.378,7.378,0,0,0-4.708-.55A3.332,3.332,0,0,0,8.92,17.969l.307-.174a4.622,4.622,0,0,0-3.974.871,1.987,1.987,0,0,0-.376,2.873l.111-.417a10.43,10.43,0,0,0-2.826,1.237A5.093,5.093,0,0,0,.236,24.206a2.2,2.2,0,0,0,1.993,3.071,3.713,3.713,0,0,0,1.3-.137c.52-.144,1.191-.659,1.732-.523.4.1.745.357,1.16.445a4.248,4.248,0,0,0,1.44.053c.431-.059.849-.325,1.232-.033a3.48,3.48,0,0,0,.929.674,4.544,4.544,0,0,0,2.864-.169.251.251,0,0,0-.133-.483,3.6,3.6,0,0,1-2.85.044c-.575-.344-.6-.91-1.346-.72a4.016,4.016,0,0,1-2.477.018,5.24,5.24,0,0,0-.951-.417,1.247,1.247,0,0,0-.72.218,3.507,3.507,0,0,1-2.653.428A1.621,1.621,0,0,1,.668,24.458,4.779,4.779,0,0,1,2.6,22.677,9.981,9.981,0,0,1,5.121,21.6a.253.253,0,0,0,.11-.418c-.8-.85-.039-1.983.788-2.432a4.149,4.149,0,0,1,3.075-.477A.251.251,0,0,0,9.4,18.1a2.919,2.919,0,0,1,2.382-2.3,7.614,7.614,0,0,1,4.1.644c.3.11.434-.373.133-.482Z" transform="translate(-0.015)" fill="#1d1d1b"/>
    <path d="M47.915,43.287a3.663,3.663,0,0,0,4.756,1.148l-.3-.393c-.75.965-1.614,2.186-1.149,3.468a4,4,0,0,0,2.591,2.135,3.327,3.327,0,0,0,3.141-.924c.449-.383.994-1.185,1.569-1.356a3.893,3.893,0,0,1,1.287.085,5.968,5.968,0,0,0,1.21-.011,3.286,3.286,0,0,0,1.544-.574,2.731,2.731,0,0,0,.915-1.311c.3-.7,1-.828,1.606-1.21a8.47,8.47,0,0,0,1.4-1.1,8.839,8.839,0,0,0,1.952-2.851,8.308,8.308,0,0,0,.531-1.724c.133-.708-.008-1.552.689-1.97.982-.588,2.429-1.756,2.427-3.029,0-1.189-1.33-1.657-2.289-1.875l.149.367a3.665,3.665,0,0,0,.669-3.544,2.223,2.223,0,0,0-2.57-1.293l.243.418a1.86,1.86,0,0,0,.148-2.4,2.947,2.947,0,0,0-2.746-.986l.241.317a3.553,3.553,0,0,0-1.077-3.7c-.242-.21-.6.142-.353.354a3.063,3.063,0,0,1,.948,3.21.252.252,0,0,0,.241.316,2.7,2.7,0,0,1,2.134.543,1.391,1.391,0,0,1,.111,1.988.252.252,0,0,0,.243.418,1.755,1.755,0,0,1,2.091,1.32,3.449,3.449,0,0,1-.754,2.783.251.251,0,0,0,.149.367c1.136.258,2.457.869,1.62,2.223A5.294,5.294,0,0,1,70.1,35.784c-.392.318-1.005.521-1.3.937a2.08,2.08,0,0,0-.216,1.075,7.6,7.6,0,0,1-.317,1.616A8.3,8.3,0,0,1,66.679,42.3a7.969,7.969,0,0,1-2.4,1.932,3.137,3.137,0,0,0-1.013.589c-.355.418-.334,1-.736,1.421-1.034,1.07-2.472.6-3.757.607-.925,0-1.532.979-2.178,1.523a3.342,3.342,0,0,1-1.761.885,3.218,3.218,0,0,1-2.119-.717,2.232,2.232,0,0,1-1.127-1.884A4.346,4.346,0,0,1,52.722,44.4c.165-.213-.037-.54-.3-.393a3.152,3.152,0,0,1-4.072-.968c-.18-.265-.613-.015-.432.252Z" transform="translate(-0.015)" fill="#1d1d1b"/>
    <path d="M47.019,47.9,47,47.875l.073.177-.008.055-.149.115c-.068.028-.074-.012-.011.053a.581.581,0,0,0,.112.079,1.23,1.23,0,0,0,.261.112,3.272,3.272,0,0,0,.638.107,5.983,5.983,0,0,0,1.331-.012,6.433,6.433,0,0,0,2.485-.831.25.25,0,0,0-.253-.432A5.849,5.849,0,0,1,48.6,48.1a2.458,2.458,0,0,1-1.4-.23c-.154-.115-.32-.232-.505-.089a.309.309,0,0,0-.027.468c.23.225.584-.128.353-.354Z" transform="translate(-0.015)" fill="#1d1d1b"/>
    <path d="M44.047,29.93c.448.565.219,1.454.988,1.8a2.139,2.139,0,0,0,1.841-.348l-.368-.149c.254.867.628,1.782,1.617,1.966a3.4,3.4,0,0,0,2.7-1.136h-.354c1.034.839,2.259.4,3.344-.1l-.368-.15c.173.98.506,2.1,1.624,2.3L54.9,33.8a2.694,2.694,0,0,0,1.3,3.132,3.3,3.3,0,0,0,3.723-.651l-.3.039c2.46,1.146,4.571-.922,5.744-2.882a.25.25,0,0,0-.432-.252c-1.012,1.691-2.872,3.722-5.06,2.7a.26.26,0,0,0-.3.039,2.8,2.8,0,0,1-3.116.572,2.188,2.188,0,0,1-1.072-2.567.253.253,0,0,0-.175-.308c-.938-.173-1.134-1.157-1.275-1.954a.253.253,0,0,0-.367-.149c-.838.389-1.909.854-2.737.181a.259.259,0,0,0-.354,0,3.2,3.2,0,0,1-2.037,1.021c-.918-.034-1.225-.878-1.445-1.63a.252.252,0,0,0-.367-.149c-.631.353-1.46.669-1.766-.228a3.369,3.369,0,0,0-.456-1.144c-.2-.252-.552.1-.354.354Z" transform="translate(-0.015)" fill="#1d1d1b"/>
    <path d="M38.833,31.014a3.937,3.937,0,0,0-.86,3.61,2.463,2.463,0,0,0,2.462,1.7l-.25-.25A3.166,3.166,0,0,0,43.9,38.96c.317-.053.183-.535-.132-.482a2.656,2.656,0,0,1-3.087-2.4c-.01-.124-.107-.266-.25-.25a1.985,1.985,0,0,1-2.044-1.539,3.62,3.62,0,0,1,.874-3.02c.2-.256-.239-.5-.432-.253Z" transform="translate(-0.015)" fill="#1d1d1b"/>
    <path d="M32.385,43.879a4.827,4.827,0,0,0,4.073-1.727,4.71,4.71,0,0,0,.311-.421c.037-.058.082-.185.136-.225.128-.1.4-.007.523.044a6.9,6.9,0,0,0,1.341.408,7.405,7.405,0,0,0,2.78,0c.316-.058.183-.54-.133-.482a6.738,6.738,0,0,1-2.986-.111c-.439-.118-.846-.37-1.281-.476-.326-.078-.518.11-.676.363a4.378,4.378,0,0,1-4.088,2.126c-.32-.025-.319.475,0,.5Z" transform="translate(-0.015)" fill="#1d1d1b"/>
    <path d="M42.445,11a4.954,4.954,0,0,1,1.9-3.956,3.689,3.689,0,0,1,2.036-.676,6.18,6.18,0,0,1,2.138.614.9.9,0,0,0,1.123-.2A2.038,2.038,0,0,1,51.3,5.832c1.6-.03,2.653,1.372,3.5,2.542a.254.254,0,0,0,.342.09,5.62,5.62,0,0,1,3.291-.858,5.128,5.128,0,0,1,3.288.727,1.852,1.852,0,0,1,.73,1.52c-.045.476-.405.9-.35,1.39.087.768,1.208.9,1.737,1.268a2.91,2.91,0,0,1,1.115,1.369,3.2,3.2,0,0,1,0,1.574,1.216,1.216,0,0,0,.416.985,2.334,2.334,0,0,1,.515,1.519c-.016,2.339-2.661,3.842-4.5,4.726-.29.14-.037.571.252.432,1.625-.782,3.5-1.885,4.347-3.554a3.511,3.511,0,0,0,.349-2.2,2.646,2.646,0,0,0-.411-1.021c-.093-.136-.267-.258-.332-.4a1.758,1.758,0,0,1-.016-1.016,2.864,2.864,0,0,0-.725-2.184,3.974,3.974,0,0,0-.914-.765c-.421-.262-1.225-.418-1.307-1-.043-.31.3-.774.327-1.119A2.065,2.065,0,0,0,62.726,8.8a2.9,2.9,0,0,0-1.788-1.426,8.782,8.782,0,0,0-3.107-.252,5.587,5.587,0,0,0-2.935.908l.342.09c-.87-1.2-1.887-2.552-3.461-2.761a2.736,2.736,0,0,0-1.742.305,3.436,3.436,0,0,0-.66.618c-.486.477-.95.114-1.5-.106a4.015,4.015,0,0,0-4.061.642A5.551,5.551,0,0,0,41.945,11c-.012.322.488.322.5,0Z" transform="translate(-0.015)" fill="#1d1d1b"/>
    <path d="M23.835,13.151A5.122,5.122,0,0,1,23.2,9.505a3.744,3.744,0,0,1,.931-1.416c.229-.229.63-.439.713-.774s-.183-.773-.216-1.12a2.79,2.79,0,0,1,.286-1.527,2.725,2.725,0,0,1,2.608-1.433c.64.051,1.345.3,1.79-.325.27-.381.413-.822.712-1.193A3.437,3.437,0,0,1,31.134.8c2.34-1.182,4.184,1.548,5.01,3.375a.254.254,0,0,0,.342.09,4.524,4.524,0,0,1,4.784.261c.4.337.61.909,1.153,1.026a6.013,6.013,0,0,1,1,.174,2.515,2.515,0,0,1,.958.679c.217.239.57-.115.353-.353A2.926,2.926,0,0,0,43,5.094a1.819,1.819,0,0,1-1.164-.728,3.681,3.681,0,0,0-.893-.664,5.338,5.338,0,0,0-4.706.129l.342.09C35.933,2.5,34.8.689,33.242.152a3.478,3.478,0,0,0-3.936,1.722c-.269.427-.4.986-1,.966a10,10,0,0,0-1.26-.1,3.3,3.3,0,0,0-1.961.871,3.167,3.167,0,0,0-.946,1.921,3.24,3.24,0,0,0,.053,1.1c.069.305.149.5-.058.771-.132.172-.345.309-.5.47a3.785,3.785,0,0,0-1.086,2.406A7.139,7.139,0,0,0,23.4,13.4c.13.294.561.04.432-.252Z" transform="translate(-0.015)" fill="#1d1d1b"/>
    <path d="M13.826,15.285A3.721,3.721,0,0,1,16.5,11.823a6.263,6.263,0,0,1,1.506-.152,1.3,1.3,0,0,0,.935-.433,3.551,3.551,0,0,1,1.07-.772,3.474,3.474,0,0,1,2.833-.018c.291.131.546-.3.253-.431a3.99,3.99,0,0,0-2.846-.175,3.9,3.9,0,0,0-1.223.639c-.221.172-.4.442-.638.589a1.864,1.864,0,0,1-.943.1,4.289,4.289,0,0,0-4.123,4.115c-.015.322.485.321.5,0Z" transform="translate(-0.015)" fill="#1d1d1b"/>
    <path d="M32.706,17.478c1.085,1.635,3.121,1.817,4.9,1.518l-.141-.184a2.51,2.51,0,0,0,1.146,3.775l-.03-.229c-1.863,1.095-1.473,3.467-.6,5.074.077.141.293.015.216-.126-.808-1.483-1.233-3.708.508-4.732a.126.126,0,0,0-.029-.228,2.26,2.26,0,0,1-1-3.408c.068-.1-.044-.2-.141-.184-1.661.28-3.6.131-4.619-1.4-.088-.133-.3-.008-.216.126Z" transform="translate(-0.015)" fill="#1d1d1b"/>
    <path d="M41.057,14.461a3.27,3.27,0,0,1,3.008,2.505c.03.131.2.106.241,0a1.682,1.682,0,0,1,1.873-1.03.127.127,0,0,0,.154-.154,3.34,3.34,0,0,1,1.647-3.611c.141-.077.015-.293-.126-.216a3.6,3.6,0,0,0-1.762,3.894l.153-.154a1.94,1.94,0,0,0-2.18,1.2h.241a3.522,3.522,0,0,0-3.249-2.688c-.161-.006-.161.244,0,.25Z" transform="translate(-0.015)" fill="#1d1d1b"/>
    <path d="M20.06,22.822a3.413,3.413,0,0,0,3.3-2.278l-.209.055a4.348,4.348,0,0,0,3.7,1.041l-.121-.209a2.316,2.316,0,0,0-.263,2.339A4.487,4.487,0,0,0,28.29,25.7l.03-.229a3.324,3.324,0,0,0-2.46,2.818c-.019.159.231.158.25,0a3.065,3.065,0,0,1,2.277-2.576.127.127,0,0,0,.029-.229c-1.2-.783-2.656-2.422-1.5-3.876a.126.126,0,0,0-.122-.209,4.082,4.082,0,0,1-3.459-.977.127.127,0,0,0-.209.055,3.153,3.153,0,0,1-3.061,2.095c-.161,0-.161.245,0,.25Z" transform="translate(-0.015)" fill="#1d1d1b"/>
    <path d="M59.723,27.517c1.466-1.029,2.911.13,3.965,1.156a.126.126,0,0,0,.2-.025,3.282,3.282,0,0,1,1.943-1.714c.152-.05.087-.292-.066-.241a3.531,3.531,0,0,0-2.093,1.828l.2-.025a6.279,6.279,0,0,0-1.957-1.448,2.413,2.413,0,0,0-2.31.253c-.131.092-.006.309.126.216Z" transform="translate(-0.015)" fill="#1d1d1b"/>
    <path d="M30.185,37.255c1.109-.235,1.651-1.3,2.079-2.24h-.216a3.071,3.071,0,0,0,2.386,1.339c.089,0,.141-.025.163.105a.783.783,0,0,1-.04.2c-.021.121-.037.244-.049.366a4.335,4.335,0,0,0,0,.837,4.589,4.589,0,0,0,.442,1.546c.07.145.286.019.216-.126a4.263,4.263,0,0,1-.428-1.713,4.1,4.1,0,0,1,.055-.843c.028-.164.127-.405-.015-.545s-.37-.077-.534-.095a2.8,2.8,0,0,1-1.985-1.2c-.048-.069-.174-.092-.216,0-.4.882-.887,1.9-1.93,2.125-.157.034-.091.275.067.241Z" transform="translate(-0.015)" fill="#1d1d1b"/>
    <path d="M26.082,64.319a2.249,2.249,0,0,1,1.717-.8c.735-.02,1.478.03,2.213.049.161,0,.161-.245,0-.25L28.74,63.28a10.2,10.2,0,0,0-1.16,0,2.437,2.437,0,0,0-1.674.866c-.1.123.073.3.176.177Z" transform="translate(-0.015)" fill="#1d1d1b"/>
    <path d="M24.908,67.423c1.648-.556,3.266.8,4.912.288.806-.248,1.355-.96,2.1-1.328a5.043,5.043,0,0,1,3.4-.216,4.62,4.62,0,0,0,2.58-.2,4.951,4.951,0,0,1,3.236-.324,9.249,9.249,0,0,1,2.838,1.632,10.17,10.17,0,0,0,2.386,1.589c.933.343,1.126-.773,1.92-.929a7.272,7.272,0,0,1,1.87.115l2.108.179c.16.014.159-.236,0-.25-1.186-.1-2.372-.229-3.56-.3a1.466,1.466,0,0,0-.894.152c-.3.187-.5.68-.824.8-.365.131-.842-.147-1.143-.329-.212-.129-.419-.267-.622-.409-.409-.286-.8-.593-1.2-.893A9.928,9.928,0,0,0,41.5,65.5a4.236,4.236,0,0,0-2.66-.126,6.872,6.872,0,0,1-3.351.573,6.487,6.487,0,0,0-2.633-.152,5.177,5.177,0,0,0-2.135,1.1,2.616,2.616,0,0,1-1.773.672,7.472,7.472,0,0,1-1.539-.274,4.531,4.531,0,0,0-2.569-.111c-.152.052-.087.293.066.241Z" transform="translate(-0.015)" fill="#1d1d1b"/>
    <path d="M47.679,63.64a1.99,1.99,0,0,1,1.043-.355,8.44,8.44,0,0,1,1.061.139,7.275,7.275,0,0,0,2.067.08c.159-.022.091-.263-.066-.241a8.18,8.18,0,0,1-2.335-.141,3.45,3.45,0,0,0-.987-.072,2.506,2.506,0,0,0-.909.374.125.125,0,0,0,.126.216Z" transform="translate(-0.015)" fill="#1d1d1b"/>
    <path d="M16.957,66.252c1.2-1.33,3.19-1,4.77-1.416,1.606-.423,3.095-1.437,4.815-1.262.32.032.318-.468,0-.5-1.829-.186-3.387.911-5.105,1.319-1.649.393-3.585.125-4.834,1.5-.215.238.137.593.354.354Z" transform="translate(-0.015)" fill="#1d1d1b"/>
    <path d="M22.523,58.552a10.625,10.625,0,0,1,1.3,2.3,8.3,8.3,0,0,1,.692,2.664c.008.16.259.161.25,0a8.478,8.478,0,0,0-.7-2.73,10.8,10.8,0,0,0-1.327-2.362c-.1-.128-.312,0-.216.126Z" transform="translate(-0.015)" fill="#1d1d1b"/>
    <path d="M21.312,61.1a7.043,7.043,0,0,1,2.1,3.02c.068.146.283.019.216-.126a7.235,7.235,0,0,0-2.188-3.11c-.132-.092-.257.124-.126.216Z" transform="translate(-0.015)" fill="#1d1d1b"/>
    <path d="M52,63.623a7.388,7.388,0,0,1,3.865.582,25.472,25.472,0,0,0,2.887,1.167c2.021.608,4.171.935,5.9,2.239.257.194.506-.24.253-.432-1.759-1.329-3.955-1.67-6.016-2.289-1.128-.339-2.147-.888-3.239-1.315A7.59,7.59,0,0,0,52,63.123c-.316.037-.319.537,0,.5Z" transform="translate(-0.015)" fill="#1d1d1b"/>
    <path d="M59.269,60.262c.064.173-.109.413-.176.572q-.116.275-.215.553a10.286,10.286,0,0,0-.333,1.138,10.741,10.741,0,0,0-.271,2.3.125.125,0,0,0,.25,0,10.323,10.323,0,0,1,.683-3.611c.077-.2.164-.4.251-.594a.535.535,0,0,0,.052-.425c-.055-.15-.3-.085-.241.066Z" transform="translate(-0.015)" fill="#1d1d1b"/>
    <path d="M60.932,62.668a5.781,5.781,0,0,0-1.451,2.612c-.039.156.2.223.241.067a5.526,5.526,0,0,1,1.387-2.5c.112-.116-.065-.293-.177-.177Z" transform="translate(-0.015)" fill="#1d1d1b"/>
  </g>
</svg>
