<svg xmlns="http://www.w3.org/2000/svg" width="3.343mm" height="2.711mm" viewBox="0 0 9.477 7.684">
  <title>tweet</title>
  <path d="M1.761,1.2A3.928,3.928,0,0,1,1.205.316L.923.683c.359.134.956.506,1.337.373A3.591,3.591,0,0,0,2.738.74,1.651,1.651,0,0,1,5.154,2.453c-.02.175.175.267.316.241A7.058,7.058,0,0,0,9.159.766L8.767.716A1.759,1.759,0,0,1,8.61,2.791c-.153.177-.012.5.243.418l.486-.153-.316-.241a1.586,1.586,0,0,1-.784,1.56.252.252,0,0,0,.127.465l.421.011-.241-.316A2.076,2.076,0,0,1,7.235,5.813a.254.254,0,0,0-.059.457,3.853,3.853,0,0,0,2.42.5l-.241-.317c-.2.54-1,.657-1.493.717a9.449,9.449,0,0,1-1.639.062,4.26,4.26,0,0,1-2.7-1.307A5.737,5.737,0,0,1,2.051,3.45a6.507,6.507,0,0,0-.293-1.265,6.021,6.021,0,0,0-.966-1.08l-.177.427.913.062c.321.022.319-.478,0-.5L.615,1.032a.253.253,0,0,0-.177.427c.216.231.444.456.65.7a1.554,1.554,0,0,1,.35.878,6.131,6.131,0,0,0,.509,1.532A6.091,6.091,0,0,0,3.989,6.948,4.956,4.956,0,0,0,7.2,7.714c.915-.044,2.262-.121,2.636-1.132A.252.252,0,0,0,9.6,6.266a3.426,3.426,0,0,1-2.168-.427l-.06.457a2.615,2.615,0,0,0,1.66-1.628.253.253,0,0,0-.241-.317L8.366,4.34l.126.466A2.074,2.074,0,0,0,9.523,2.815a.254.254,0,0,0-.317-.241l-.486.152.243.418A2.271,2.271,0,0,0,9.2.463a.252.252,0,0,0-.392-.05,6.6,6.6,0,0,1-3.468,1.8l.316.241A2.176,2.176,0,0,0,4.162.128a2.234,2.234,0,0,0-1.5.1C2.481.3,2.3.511,2.121.563,1.994.6,1.83.491,1.71.446L1.056.2C.831.116.692.391.774.568a4.348,4.348,0,0,0,.634.985c.207.247.559-.108.353-.353Z" transform="translate(-0.372 -0.041)" fill="#1d1d1b"/>
</svg>
