<svg xmlns="http://www.w3.org/2000/svg" width="41.661mm" height="17.263mm" viewBox="0 0 118.095 48.934">
  <title>versus</title>
  <g>
    <line x1="20.647" y1="13.913" x2="112.562" y2="13.913" fill="none" stroke="#1d1d1b" stroke-miterlimit="10" stroke-width="0.125"/>
    <line x1="21.261" y1="16.744" x2="112.562" y2="16.744" fill="none" stroke="#1d1d1b" stroke-miterlimit="10" stroke-width="0.125"/>
    <line x1="107.742" y1="21.194" x2="112.562" y2="21.194" fill="none" stroke="#1d1d1b" stroke-miterlimit="10" stroke-width="0.125"/>
    <line x1="19.924" y1="21.194" x2="94.365" y2="21.194" fill="none" stroke="#1d1d1b" stroke-miterlimit="10" stroke-width="0.125"/>
    <g>
      <path d="M6.849,30.192l.027-.361a.283.283,0,0,0-.073-.177.257.257,0,0,0-.177-.073.253.253,0,0,0-.177.073l-.039.051a.253.253,0,0,0-.034.126l-.027.361a.19.19,0,0,0,.022.1.182.182,0,0,0,.052.08.25.25,0,0,0,.353,0l.039-.051a.243.243,0,0,0,.034-.126Z" transform="translate(0)" fill="#1d1d1b"/>
      <path d="M6.561,29.9c1.073-.027,2.163-.112,3.235-.059a2.325,2.325,0,0,1,2.292,1.5,5.9,5.9,0,0,1,.269,1.282,5.122,5.122,0,0,1,0,1.653,1.89,1.89,0,0,1-.73,1.2,3.409,3.409,0,0,1-1.416.457,34.061,34.061,0,0,1-3.63.043l.25.25a44.706,44.706,0,0,1-.064-4.952c.014-.322-.486-.321-.5,0a44.706,44.706,0,0,0,.064,4.952.255.255,0,0,0,.25.25,35.888,35.888,0,0,0,3.7-.051,2.74,2.74,0,0,0,2.445-1.622,5.686,5.686,0,0,0-.052-3.253,2.7,2.7,0,0,0-1.9-2.059,6.6,6.6,0,0,0-1.958-.142L6.561,29.4a.25.25,0,0,0,0,.5Z" transform="translate(0)" fill="#1d1d1b"/>
      <path d="M8.391,31.183A34.137,34.137,0,0,1,8.628,34.8a.255.255,0,0,0,.25.25,2.38,2.38,0,0,0,1.674-.389,1.1,1.1,0,0,0,.322-.714,6.019,6.019,0,0,0,.042-.92,6.93,6.93,0,0,0-.087-.943,1.209,1.209,0,0,0-.339-.732,2.408,2.408,0,0,0-1.655-.414c-.321.013-.322.513,0,.5a2.034,2.034,0,0,1,1.3.268.831.831,0,0,1,.216.546,6.09,6.09,0,0,1,.064.775,6.491,6.491,0,0,1-.023.738.74.74,0,0,1-.2.543,1.291,1.291,0,0,1-.578.207,2.975,2.975,0,0,1-.742.035l.25.25a34.137,34.137,0,0,0-.237-3.616.257.257,0,0,0-.25-.25.251.251,0,0,0-.25.25Z" transform="translate(0)" fill="#1d1d1b"/>
      <path d="M18,29.276c-1.553.138-3.285.447-3.874,2.108a4.177,4.177,0,0,0,.8,4.308,3.332,3.332,0,0,0,1.987.911,4.454,4.454,0,0,0,2.359-.2A3.625,3.625,0,0,0,21.3,32.719a4.171,4.171,0,0,0-.889-2.3A3.739,3.739,0,0,0,18.1,29.264c-.315-.063-.449.419-.133.483a3.541,3.541,0,0,1,1.883.791,3.553,3.553,0,0,1-.333,5.162,3.124,3.124,0,0,1-1.92.467,3.653,3.653,0,0,1-1.941-.514,3.426,3.426,0,0,1-1.2-3.567,2.438,2.438,0,0,1,1.172-1.756A5.759,5.759,0,0,1,18,29.776c.318-.029.321-.529,0-.5Z" transform="translate(0)" fill="#1d1d1b"/>
      <path d="M17.71,30.931a1.869,1.869,0,0,0-1.727,1.356,4.973,4.973,0,0,0,0,1.255,1.612,1.612,0,0,0,.387,1.056,1.778,1.778,0,0,0,2.185.056,1.447,1.447,0,0,0,.529-.932,5.24,5.24,0,0,0,.109-1.171,1.905,1.905,0,0,0-.42-1.194,1.254,1.254,0,0,0-1.024-.46c-.319.024-.321.524,0,.5.543-.04.869.489.93.967a3.779,3.779,0,0,1-.034.944,1.749,1.749,0,0,1-.221.777,1.087,1.087,0,0,1-.71.381,1.175,1.175,0,0,1-.851-.113.845.845,0,0,1-.367-.679,7.315,7.315,0,0,1-.049-1.025.986.986,0,0,1,.336-.8,1.668,1.668,0,0,1,.923-.416c.321-.015.322-.515,0-.5Z" transform="translate(0)" fill="#1d1d1b"/>
      <path d="M22.521,30.011a13.783,13.783,0,0,1,1.53-.1.36.36,0,0,1,.338.155,2.946,2.946,0,0,1,.208.318c.151.229.3.457.46.683.574.836,1.178,1.651,1.8,2.448.175.222.449-.032.418-.243a21.316,21.316,0,0,1-.22-2.986c0-.083.038-.252,0-.319.017-.1-.013-.091-.088.017l.189,0,.694-.009a3.971,3.971,0,0,0,.756-.01l.126,0c-.04-.064-.052-.057-.036.023a3.042,3.042,0,0,1,.008.394l.06,2.957.029,1.421.015.768.008.384c0,.059-.033.284.009.222l.149-.115a4.578,4.578,0,0,1-.777.007l-.792.005c-.122,0-.278.035-.383-.045a1.321,1.321,0,0,1-.2-.269c-.149-.205-.3-.412-.443-.619q-.86-1.219-1.646-2.486a.251.251,0,0,0-.465.126l.106,2.9a2.357,2.357,0,0,0,.015.395l.005.132q.267-.162.08-.143a2.3,2.3,0,0,0-.7-.014l-.7-.013c-.071,0-.255.033-.318-.006-.11-.068-.087-.187-.094-.308a12.865,12.865,0,0,1,.041-1.416c.024-.471,0-.937-.014-1.408a14.589,14.589,0,0,1,.187-2.877c.053-.315-.429-.45-.482-.133a16.533,16.533,0,0,0-.189,3.392c.024.6-.023,1.2-.045,1.8a6.116,6.116,0,0,0,.023.9.617.617,0,0,0,.189.476,1.2,1.2,0,0,0,.639.082l.891.017c.308.006.9.153.987-.267a3.257,3.257,0,0,0-.019-.737l-.033-.922-.068-1.844-.466.126q.57.916,1.175,1.808a14.075,14.075,0,0,0,1.189,1.668.721.721,0,0,0,.6.192c.4,0,.792-.006,1.188-.008.213,0,.578.073.756-.087s.1-.562.094-.781l-.09-4.42-.021-1.051c0-.24.028-.529-.215-.663a1.941,1.941,0,0,0-.883-.048c-.357,0-.715,0-1.072.014-.242.01-.422.083-.467.344a5.851,5.851,0,0,0,0,1.161,22.5,22.5,0,0,0,.224,2.417l.418-.244q-1.1-1.394-2.081-2.871c-.212-.318-.411-.846-.846-.889a5.816,5.816,0,0,0-.874.05l-.893.057c-.319.02-.322.52,0,.5Z" transform="translate(0)" fill="#1d1d1b"/>
      <path d="M32.363,29.633a30.825,30.825,0,0,0-1.484,3.245q-.323.834-.6,1.685a7.029,7.029,0,0,1-.573,1.672.252.252,0,0,0,.215.376l1.152,0a6.144,6.144,0,0,0,.95-.007.468.468,0,0,0,.382-.287,6.539,6.539,0,0,0,.315-1.028l-.241.183,1.6.046c.264.008.471-.062.6.19s.215.5.322.742a.244.244,0,0,0,.215.124q1.075.03,2.148-.013a.253.253,0,0,0,.216-.376,34.531,34.531,0,0,1-1.757-4.716c-.137-.343-.284-.683-.448-1.014a2.988,2.988,0,0,0-.529-.9c-.212-.189-.566-.138-.827-.142q-.691-.007-1.383.022c-.321.013-.322.513,0,.5.392-.016.784-.025,1.176-.023a4.435,4.435,0,0,1,.553.008c.2.028.239.152.334.322a13.369,13.369,0,0,1,.918,2.091,23.616,23.616,0,0,0,1.531,4.1l.216-.376q-1.074.043-2.148.013l.216.124c-.192-.443-.3-1.124-.864-1.166-.69-.051-1.391-.04-2.082-.06a.255.255,0,0,0-.242.184l-.219.733c-.021.07-.021.173-.081.22a1.947,1.947,0,0,1-.432,0l-1.584,0,.216.376a5.747,5.747,0,0,0,.522-1.463q.271-.888.6-1.756A29.718,29.718,0,0,1,32.8,29.885c.15-.284-.281-.537-.432-.252Z" transform="translate(0)" fill="#1d1d1b"/>
      <path d="M33.305,31.475a7.918,7.918,0,0,1-.539,2.232c-.064.162.1.307.241.317a8.186,8.186,0,0,0,1.409.013.254.254,0,0,0,.216-.376,14.468,14.468,0,0,1-.78-2.145.251.251,0,0,0-.483.133,15.418,15.418,0,0,0,.831,2.264l.216-.376a8.186,8.186,0,0,1-1.409-.013l.241.316a8.366,8.366,0,0,0,.557-2.365.251.251,0,0,0-.25-.25.256.256,0,0,0-.25.25Z" transform="translate(0)" fill="#1d1d1b"/>
      <path d="M38.5,29.916q.963-.029,1.926-.064l-.25-.25c.094.879.153,1.762.171,2.646q.014.663,0,1.326-.007.332-.023.663a1.042,1.042,0,0,0,.027.494c.135.3.522.25.794.259q.608.02,1.216-.009c.213-.01.426-.025.638-.043.1-.01.215-.012.319-.032.192-.037.108-.065.144.012a2.394,2.394,0,0,1,0,.671v.737l.25-.25c-.857-.092-1.717-.148-2.579-.161q-.628-.009-1.259.01a8.36,8.36,0,0,1-1.292.05l.216.123c-.111-.156-.05-.627-.058-.82-.011-.268-.02-.535-.028-.8q-.024-.77-.032-1.54-.018-1.575.026-3.148a.25.25,0,0,0-.5,0q-.042,1.573-.026,3.148c.012,1.041-.007,2.109.1,3.146.044.444.375.407.738.384q.761-.047,1.523-.052a27.82,27.82,0,0,1,3.175.163.251.251,0,0,0,.25-.25c0-.489.027-.986,0-1.475a.435.435,0,0,0-.475-.462c-.436,0-.88.085-1.318.1-.213.007-.427.01-.64.009a2.084,2.084,0,0,1-.811-.049l.115.149a1.78,1.78,0,0,1,0-.626c.008-.2.013-.4.017-.6.007-.419.006-.84-.005-1.26-.021-.84-.079-1.678-.168-2.513a.254.254,0,0,0-.25-.25q-.963.036-1.926.064a.25.25,0,0,0,0,.5Z" transform="translate(0)" fill="#1d1d1b"/>
      <path d="M44.907,29.762c-.061.93-.013,1.875-.01,2.807q0,1.347.008,2.693l0,.641a.893.893,0,0,0,.048.439c.161.278.727.154.983.154.853,0,1.714.033,2.566-.015a3.406,3.406,0,0,0,1.912-.584,3.035,3.035,0,0,0,1.067-1.88c.256-1.347.183-3.047-1.046-3.9A4.377,4.377,0,0,0,48.3,29.47a13.493,13.493,0,0,0-2.972.092c-.318.042-.182.524.133.482a11.472,11.472,0,0,1,3.258-.024,2.563,2.563,0,0,1,2.129,1.351,4.551,4.551,0,0,1,.04,2.961,2.286,2.286,0,0,1-2.074,1.625A15.806,15.806,0,0,1,47.143,36h-.888a4.791,4.791,0,0,1-1.009-.005l.15.115c.018.1.022.071.012-.074v-.578l0-.833q0-.8,0-1.6c0-1.081-.062-2.178.009-3.256.021-.321-.479-.32-.5,0Z" transform="translate(0)" fill="#1d1d1b"/>
      <path d="M47.092,31.182l-.04,3.551a.254.254,0,0,0,.183.242,2.16,2.16,0,0,0,1.621-.221,2,2,0,0,0,.681-1.55,2.439,2.439,0,0,0-.348-1.855,2.08,2.08,0,0,0-1.744-.418c-.318.026-.321.526,0,.5a1.711,1.711,0,0,1,1.372.253.943.943,0,0,1,.222.62,5.361,5.361,0,0,1,0,.831,1.221,1.221,0,0,1-1.674,1.357l.184.241.04-3.551a.25.25,0,0,0-.5,0Z" transform="translate(0)" fill="#1d1d1b"/>
      <path d="M60.338,31.493a1.16,1.16,0,0,0-.993-.842c-.41-.073-.955-.081-1.173.348-.494.97,1.376,1.3,1.928,1.417a2.366,2.366,0,0,1,1.412.752,1.817,1.817,0,0,1,.4,1.527c-.275,1.274-1.582,1.509-2.7,1.508a3.348,3.348,0,0,1-1.9-.506,2.321,2.321,0,0,1-.606-.6,1.463,1.463,0,0,1-.317-.848l-.175.174a4.052,4.052,0,0,1,1.075-.077,4.393,4.393,0,0,1,.472-.027c.187.01.159.048.248.213a1.468,1.468,0,0,0,1.072.761,1.127,1.127,0,0,0,1.193-.507A.985.985,0,0,0,59.91,33.6c-.922-.7-2.423-.345-3.081-1.44a1.569,1.569,0,0,1,.055-1.71,2.3,2.3,0,0,1,1.621-.815,2.714,2.714,0,0,1,3.222,1.862l.241-.317a7.667,7.667,0,0,0-1.742.158c-.315.064-.181.546.133.482a7.126,7.126,0,0,1,1.609-.14.252.252,0,0,0,.241-.316,2.948,2.948,0,0,0-2.287-2.181,3.526,3.526,0,0,0-3.361.867,2.085,2.085,0,0,0,.337,2.929,3.97,3.97,0,0,0,1.6.617,4.368,4.368,0,0,1,.875.263c.332.157.736.613.266.88a.9.9,0,0,1-.923-.119c-.25-.188-.285-.523-.528-.7s-.625-.082-.9-.066a4.494,4.494,0,0,0-1.208.1.251.251,0,0,0-.174.175,2.428,2.428,0,0,0,1.45,2.188,4.947,4.947,0,0,0,3.408.214,2.277,2.277,0,0,0,1.679-2.044,2.43,2.43,0,0,0-1.464-2.315c-.555-.242-1.169-.261-1.737-.458a1.469,1.469,0,0,1-.453-.226c-.077-.065-.108-.074-.127-.184-.031-.181.126-.178.276-.18.37,0,.823.107.916.515.071.313.553.181.482-.133Z" transform="translate(0)" fill="#1d1d1b"/>
      <path d="M65.374,31.142a14.259,14.259,0,0,1-2,0l.241.184c-.047-.29-.087-.581-.117-.873-.013-.126-.024-.252-.034-.378-.005-.06.01-.377-.038-.269l-.149.115a2.9,2.9,0,0,1,.773-.1c.259-.019.518-.03.777-.037.521-.012,1.041,0,1.561.014,1.042.033,2.084.092,3.127.069l-.25-.25q-.037.826,0,1.654l.25-.25a14.77,14.77,0,0,1-2.039.058.255.255,0,0,0-.25.25c-.022.817-.043,1.634-.041,2.451,0,.4.008.8.023,1.192.008.2.017.4.029.6a1.575,1.575,0,0,1,.017.618l.115-.15a1.108,1.108,0,0,1-.4.019c-.17,0-.34,0-.51,0-.34-.005-.679-.019-1.019-.039l.25.25a34.714,34.714,0,0,1-.043-4.729c.019-.321-.481-.32-.5,0a34.714,34.714,0,0,0,.043,4.729.257.257,0,0,0,.25.25,14.18,14.18,0,0,0,1.911.032c.616-.047.4-.751.379-1.178-.07-1.345-.036-2.693,0-4.039l-.25.25a14.77,14.77,0,0,0,2.039-.058.255.255,0,0,0,.25-.25q-.04-.828,0-1.654a.252.252,0,0,0-.25-.25c-1.542.034-3.081-.116-4.623-.084-.367.008-.735.026-1.1.06-.219.02-.653-.011-.8.207-.129.2-.03.557-.01.773.036.379.087.756.148,1.131a.254.254,0,0,0,.241.184,14.259,14.259,0,0,0,2,0c.319-.022.322-.523,0-.5Z" transform="translate(0)" fill="#1d1d1b"/>
      <path d="M70.99,29.9c.318,0,.637,0,.955.008a2.777,2.777,0,0,1,.9.036l-.15-.115a1.415,1.415,0,0,1,.057.575c.005.132.009.264.011.395q.007.462-.007.922a17.05,17.05,0,0,0-.072,1.719,1.665,1.665,0,0,0,1.542,1.706c.97-.022,1.284-.886,1.257-1.72-.039-1.226-.112-2.452-.169-3.678l-.25.25,2.124-.021-.25-.25q.117,1.734.1,3.475c-.011.994-.016,2.355-1.125,2.782a3.535,3.535,0,0,1-1.372.156,9.325,9.325,0,0,1-1.634-.158,2.224,2.224,0,0,1-1.658-2.338c-.078-1.256,0-2.534.007-3.792a.25.25,0,0,0-.5,0c-.012,1.3-.1,2.624,0,3.919a2.779,2.779,0,0,0,1.52,2.546,5.818,5.818,0,0,0,1.763.3,5.985,5.985,0,0,0,1.7-.061,2.353,2.353,0,0,0,1.744-2.215,17.1,17.1,0,0,0,.049-2.275q-.018-1.17-.1-2.338a.254.254,0,0,0-.25-.25l-2.124.021a.253.253,0,0,0-.25.25c.057,1.226.131,2.452.169,3.678.015.47-.012,1.03-.55,1.187a1.012,1.012,0,0,1-1.184-.789,4.891,4.891,0,0,1-.013-1.642q.049-.888.016-1.778c-.015-.4.045-.95-.483-.985-.589-.038-1.191-.016-1.782-.019a.25.25,0,0,0,0,.5Z" transform="translate(0)" fill="#1d1d1b"/>
      <path d="M79.286,29.927q.777-.064,1.556-.112a1.687,1.687,0,0,1,.775.009c.209.106.272.513.346.738a23.476,23.476,0,0,1,.761,2.976.252.252,0,0,0,.482,0,22.882,22.882,0,0,1,.719-3c.079-.252.1-.582.384-.626a5.212,5.212,0,0,1,.828.014l.752.013c.15,0,.3,0,.452.008l.15,0q.1-.017.048.081a2.449,2.449,0,0,1-.077.737c-.024.271-.044.542-.058.813q-.042.777-.03,1.556a23.9,23.9,0,0,0,.254,3.093l.241-.316a6.432,6.432,0,0,0-1.752.079l.317.241a46.344,46.344,0,0,1-.171-4.8.251.251,0,0,0-.491-.066,27.828,27.828,0,0,0-.77,2.8c-.113.443-.248.887-.321,1.339-.015.092-.029.184-.037.277,0,.036-.041.39.036.253q.1-.05-.024-.027l-.212,0c-.117,0-.235,0-.353,0-.151,0-.507.06-.636-.019.049.03-.036-.119-.056-.175-.04-.113-.078-.226-.115-.34-.147-.456-.273-.918-.389-1.383-.237-.946-.451-1.9-.674-2.846-.068-.285-.476-.206-.492.066a41.866,41.866,0,0,0,.019,4.972l.25-.25-1.765-.009.25.25a25.8,25.8,0,0,1-.005-3.243l.1-3.249c.01-.322-.49-.322-.5,0l-.1,3.249a25.8,25.8,0,0,0,.005,3.243.256.256,0,0,0,.25.25L81,36.539a.252.252,0,0,0,.25-.25,41.866,41.866,0,0,1-.019-4.972l-.491.067c.262,1.111.5,2.23.8,3.333a7.808,7.808,0,0,0,.477,1.5c.188.37.644.293,1,.3.3,0,.876.118,1.056-.2a1.288,1.288,0,0,0,.068-.533,6.027,6.027,0,0,1,.194-.911,33.662,33.662,0,0,1,.916-3.374l-.491-.067a46.344,46.344,0,0,0,.171,4.8.254.254,0,0,0,.316.241,5.935,5.935,0,0,1,1.619-.061c.18.017.262-.173.241-.317a23.03,23.03,0,0,1-.234-3.775Q86.9,31.357,87,30.4c.039-.362.174-.874-.322-.942a15.654,15.654,0,0,0-1.839-.036,4.872,4.872,0,0,0-.819,0c-.227.037-.285.154-.367.359a18.084,18.084,0,0,0-.926,3.631h.482a18.99,18.99,0,0,0-1-3.667c-.194-.473-.522-.471-.992-.445q-.965.054-1.927.134c-.319.026-.322.526,0,.5Z" transform="translate(0)" fill="#1d1d1b"/>
      <path d="M93.03,29.556a6.754,6.754,0,0,0-2.057-.241c-.744-.005-1.486.036-2.228.077-.32.018-.322.518,0,.5.714-.04,1.428-.079,2.144-.078a6.494,6.494,0,0,1,2.008.224c.307.1.438-.382.133-.482Z" transform="translate(0)" fill="#1d1d1b"/>
      <path d="M88.329,29.808c.041,1.077.056,2.154.06,3.232a18.265,18.265,0,0,1-.09,3.173.253.253,0,0,0,.241.316l2.007-.059a.254.254,0,0,0,.25-.25l-.008-2.271-.25.25c.557-.04,1.116-.079,1.669-.164.317-.049.182-.53-.133-.482-.508.078-1.024.109-1.536.146a.253.253,0,0,0-.25.25L90.3,36.22l.25-.25-2.007.059.241.317a18.239,18.239,0,0,0,.109-3.179c0-1.12-.019-2.24-.061-3.359-.013-.321-.513-.322-.5,0Z" transform="translate(0)" fill="#1d1d1b"/>
      <path d="M90.28,31.1a7.4,7.4,0,0,1,.077,1.249.345.345,0,0,0,.149.344.715.715,0,0,0,.356.047,3.2,3.2,0,0,0,.654-.073,1.075,1.075,0,0,0,.878-.606.973.973,0,0,0-.045-.638.983.983,0,0,0-.38-.509,1.868,1.868,0,0,0-1.357-.213.25.25,0,0,0,.133.482,1.222,1.222,0,0,1,.2-.023,1.861,1.861,0,0,1,.236.007,1.332,1.332,0,0,1,.2.036,1.454,1.454,0,0,1,.22.073c-.032-.014.05.026.058.03a.709.709,0,0,1,.087.055c-.029-.022.028.027.028.027s.024.024.035.037q-.018-.023.009.015a.717.717,0,0,1,.075.169c.012.037.023.075.032.113a.255.255,0,0,1,.013.076.542.542,0,0,1,0,.057c0,.032,0,.038,0,.018a.347.347,0,0,1-.016.055c.011-.024.01-.024,0,0s-.015.025-.023.037c.017-.021.016-.02,0,0a.755.755,0,0,1-.065.061c.04-.032-.035.02-.043.024s-.041.022-.061.033-.029.013,0,0l-.043.017c-.03.011-.059.02-.089.029a2.476,2.476,0,0,1-.437.089c-.082.008-.165.014-.249.015-.041,0-.083,0-.124,0l-.062,0c-.039,0-.042,0-.009,0l.111.065c.032.12.047.153.047.1v-.048c0-.032,0-.064,0-.1,0-.053,0-.107,0-.16,0-.124-.006-.247-.013-.37-.016-.253-.045-.5-.083-.755a.253.253,0,0,0-.308-.175.257.257,0,0,0-.174.308Z" transform="translate(0)" fill="#1d1d1b"/>
    </g>
    <g>
      <path d="M22.931,15.38a2.686,2.686,0,0,0,3.556,1.52A4.217,4.217,0,0,0,28.5,15.058c.281-.475,1-1.567.379-2.024-.656-.486-1.7-.038-2.214.431A7.662,7.662,0,0,0,25.11,16.22,13.7,13.7,0,0,0,24,19.56c-.087.583-.016,1.371.638,1.6.829.285,1.95-.568,2.52-1.081a5.382,5.382,0,0,0,1.606-2.7h-.482a15.03,15.03,0,0,1-.008,5.4c-.061.32-.095,1.12-.358,1.341l-.58.122a.521.521,0,0,1-.284-.43,1.288,1.288,0,0,1,.136-.9,13.206,13.206,0,0,1,1.3-2.128A21.63,21.63,0,0,1,30.049,18.8c.262-.3.532-.586.81-.867.151-.154.3-.308.461-.455.257-.238.324-.347.707-.3s.379.119.483.446a4.119,4.119,0,0,1,.134.558,4.455,4.455,0,0,1,.037,1.176,4.6,4.6,0,0,1-.878,2.261l.457.193,1.959-4.8-.457.06a3.684,3.684,0,0,0,3.784,2.009c.64-.095,1.49-.412,1.616-1.142A1.039,1.039,0,0,0,38.144,16.8c-1.767-.147-2.219,2.735-1.692,3.923.777,1.754,2.725.962,3.662-.182a14.341,14.341,0,0,0,2.569-6.67c.049-.31-.412-.452-.483-.133l-1.14,5.168a3.377,3.377,0,0,0-.21,1.748,1.233,1.233,0,0,0,1.036.743c1.267.12,2.192-1.288,2.833-2.175C45.6,18,46.856,16.328,48.6,16.854l.133-.482c-1.7-.339-4.744,2.621-3.014,4.175a1.766,1.766,0,0,0,2.23-.134c.905-.748.93-2.062.915-3.138a.251.251,0,0,0-.491-.066c-.36,1.121-.595,3.016.282,3.987.584.645,1.866.151,1.4-.736-.149-.285-.581-.033-.431.252.092.176-.293.336-.436.285-.182-.066-.289-.32-.358-.486A3.709,3.709,0,0,1,48.6,19.44a5.323,5.323,0,0,1,.256-2.1l-.491-.066a4.673,4.673,0,0,1-.329,2.236,1.5,1.5,0,0,1-1.7.825c-1.016-.351-.5-1.641-.026-2.185.536-.61,1.414-1.472,2.295-1.3a.25.25,0,0,0,.133-.482c-2.552-.771-3.868,2.1-5.241,3.614-.451.5-1.357,1.334-2.013.692-.451-.442.1-1.789.22-2.345l.985-4.463-.483-.133a17.5,17.5,0,0,1-1.6,5.07,6.181,6.181,0,0,1-1.2,1.777c-.723.682-1.922,1.1-2.467-.028a2.924,2.924,0,0,1,.165-2.5c.206-.4.618-.888,1.133-.737.974.285.1,1.049-.408,1.2a3.167,3.167,0,0,1-3.626-1.7c-.105-.216-.384-.119-.457.059l-1.959,4.8c-.115.281.3.4.457.192a4.91,4.91,0,0,0,.638-4.708c-.785-1.739-2.553.582-3.178,1.287a22.635,22.635,0,0,0-1.761,2.263,7.9,7.9,0,0,0-1.382,2.529c-.277,1.3,1.4,2.3,1.929.834a13.848,13.848,0,0,0,.284-6.83.252.252,0,0,0-.482,0,4.83,4.83,0,0,1-2.146,2.977c-.369.229-1.061.659-1.49.367-.628-.427.186-2.3.366-2.8a29.473,29.473,0,0,1,1.154-2.717,4.059,4.059,0,0,1,.782-1.194c.3-.289.967-.709,1.406-.514.712.317-.69,2.059-.992,2.359a2.69,2.69,0,0,1-2.177.856,1.985,1.985,0,0,1-1.772-1.334.251.251,0,0,0-.483.133Z" transform="translate(0)" fill="#1d1d1b"/>
      <path d="M43.229,16.379l.177-.046a.251.251,0,0,0-.066-.491,15.216,15.216,0,0,0-2.483.255.253.253,0,0,0-.175.307.256.256,0,0,0,.308.175,14.367,14.367,0,0,1,2.35-.237l-.067-.491L43.1,15.9a.25.25,0,0,0,.133.482Z" transform="translate(0)" fill="#1d1d1b"/>
      <path d="M55.375,15.807a2.989,2.989,0,0,1-.063-.619c0-.134-.024-.493.069-.593s.349-.1.479-.135c.173-.052.34-.12.51-.18a1.408,1.408,0,0,1,1.138-.045,5.669,5.669,0,0,0,1.061.426,5.941,5.941,0,0,0,2.19.185,1.2,1.2,0,0,0,1.114-1.194c-.027-.319-.527-.321-.5,0,.08.947-1.388.717-1.947.653a4.709,4.709,0,0,1-1.16-.26,4.327,4.327,0,0,0-1.05-.415,2.2,2.2,0,0,0-.979.168c-.17.06-.337.128-.51.18s-.335.056-.489.113c-.616.229-.443,1.362-.345,1.849.064.316.546.182.482-.133Z" transform="translate(0)" fill="#1d1d1b"/>
      <path d="M58.642,14.712c.2.2.024.763-.005,1.005q-.068.558-.136,1.116a12.444,12.444,0,0,1-.376,2.074,3.6,3.6,0,0,1-1.014,1.729c-.473.4-1.445.552-1.6-.254-.059-.316-.541-.182-.482.133a1.309,1.309,0,0,0,1.719.892A3,3,0,0,0,58.4,19.623,9.744,9.744,0,0,0,58.981,17q.1-.8.194-1.595A1.16,1.16,0,0,0,59,14.359a.25.25,0,0,0-.353.353Z" transform="translate(0)" fill="#1d1d1b"/>
      <path d="M104.974,20.467a8.517,8.517,0,0,1,.69-2.061,7.17,7.17,0,0,1,.52-.914,1.121,1.121,0,0,1,.581-.459c.3-.077.28.239.254.451-.047.379-.1.756-.122,1.138s-.037.768-.033,1.153a6.111,6.111,0,0,0,.085,1.186c.065.315.547.182.482-.133a5.451,5.451,0,0,1-.067-1.053c0-.346,0-.693.026-1.038s.056-.719.105-1.077a1.178,1.178,0,0,0-.09-.856c-.308-.449-.876-.285-1.239-.007a3.865,3.865,0,0,0-.979,1.452,9.013,9.013,0,0,0-.695,2.085c-.063.314.419.449.482.133Z" transform="translate(0)" fill="#1d1d1b"/>
      <path d="M102.259,20.177a4.146,4.146,0,0,1,.48-1.257,3.664,3.664,0,0,1,.4-.559c.119-.137.294-.378.483-.418.165-.035.288.262.351.374a3.7,3.7,0,0,1,.289.646,4.034,4.034,0,0,1,.2,1.434c-.012.322.488.321.5,0a4.343,4.343,0,0,0-.7-2.567.779.779,0,0,0-.527-.386.834.834,0,0,0-.639.247,3.9,3.9,0,0,0-.8,1,4.593,4.593,0,0,0-.519,1.357c-.066.314.416.448.482.133Z" transform="translate(0)" fill="#1d1d1b"/>
      <path d="M98.4,20.617a14.967,14.967,0,0,0,1.4-1.437,10.737,10.737,0,0,1,1.133-1.36.883.883,0,0,1,.587-.27c.23.029.287.287.3.481.035.689-.017,1.393-.028,2.083a.25.25,0,0,0,.5,0c.01-.629.024-1.258.03-1.887,0-.465-.107-1.011-.626-1.151a1.366,1.366,0,0,0-1.2.466A13.834,13.834,0,0,0,99.467,18.8a14.771,14.771,0,0,1-1.422,1.463c-.24.216.114.568.353.354Z" transform="translate(0)" fill="#1d1d1b"/>
      <path d="M96.189,20.98a7.3,7.3,0,0,0,.854-3.517.252.252,0,0,0-.466-.126,5.405,5.405,0,0,0-.331,3.522c.076.313.558.18.482-.133a4.85,4.85,0,0,1,.281-3.137l-.466-.126a6.763,6.763,0,0,1-.786,3.265c-.174.272.259.523.432.252Z" transform="translate(0)" fill="#1d1d1b"/>
      <path d="M74.76,21.4l1.086-2.5c.181-.416.359-.834.544-1.248a.6.6,0,0,1,.61-.428c.128.022.436.418.5.512.818,1.139.634,2.756.458,4.063-.023.174.106.373.308.308a7.879,7.879,0,0,0,5.378-7.681.257.257,0,0,0-.25-.25c-2.186-.193-2.277,2.677-2.434,4.159l-.194,1.839c-.036.337-.172.812.13,1.07a1.206,1.206,0,0,0,.879.128,9.876,9.876,0,0,0,1.3-.15,3.463,3.463,0,0,0,2.073-1.091,1.514,1.514,0,0,0,.194-1.917.875.875,0,0,0-1.421.03.963.963,0,0,0,.541,1.326,2.281,2.281,0,0,0,2.136-.507c1.017-.758,2.2-2.088,3.607-1.455l.126-.466a3.357,3.357,0,0,0-2.771,1.38c-.47.635-1.081,2.145-.228,2.739.778.542,2.012-.256,2.529-.832a3.164,3.164,0,0,0,.75-2.864.253.253,0,0,0-.457-.059,4.275,4.275,0,0,0-.839,2.825c.081.7.52,1.442,1.323,1.337a4.339,4.339,0,0,0,2.312-1.458,5.523,5.523,0,0,0,1.292-2.495.25.25,0,0,0-.482-.132,9.572,9.572,0,0,0-.269,3.969c.049.317.531.182.482-.133a8.986,8.986,0,0,1,.269-3.7l-.482-.132a4.992,4.992,0,0,1-2.3,3.2c-.374.223-.944.569-1.332.231a1.274,1.274,0,0,1-.331-.957,4,4,0,0,1,.787-2.3l-.457-.06a2.611,2.611,0,0,1-.41,2.109c-.382.556-1.322,1.365-2.008.972-.737-.423.051-1.774.467-2.221a2.818,2.818,0,0,1,2.153-.916c.235.006.358-.362.126-.466-1.331-.6-2.545.169-3.563,1-.539.441-1.329,1.191-2.11.973-.609-.169-.526-1.042.089-.644.573.372.043,1.188-.3,1.509a3.674,3.674,0,0,1-2.087.792,2.984,2.984,0,0,1-1.05.077c-.384-.16-.131-1.02-.1-1.327.1-.97.165-1.954.317-2.917.147-.934.611-2.068,1.746-1.968l-.25-.25a7.372,7.372,0,0,1-5.011,7.2l.307.307c.219-1.625.419-3.724-.94-4.941-.657-.588-1.214-.335-1.546.408-.555,1.243-1.087,2.5-1.63,3.744-.127.292.3.547.432.253Z" transform="translate(0)" fill="#1d1d1b"/>
      <path d="M58.463,19.142c.807-.549,6.251-4.354,4.4-5.406-.47-.268-.644.082-.836.448-.342.652-.654,1.32-.938,2a25.584,25.584,0,0,0-1.43,4.629l.491.067c.2-1.881,1.6-3.291,2.879-4.553l-.392-.051a5.011,5.011,0,0,1,.241,4.371.251.251,0,0,0,.175.308c2.357.5,3.384-2.015,3.871-3.833a.251.251,0,0,0-.483-.132,7.217,7.217,0,0,0-.262,4.368.252.252,0,0,0,.367.15,10,10,0,0,0,3.637-4.276.253.253,0,0,0-.216-.376C68.7,16.93,69,18.7,69.075,19.526c.038.434-.076,1.319.386,1.587.4.233.865-.149,1.1-.448.469-.6.822-1.266,1.333-1.842a10.971,10.971,0,0,1,1.841-1.663c.347-.248,1-.613,1.125.018a3.086,3.086,0,0,1-.077,1.119l-.479,2.91c-.052.315.43.45.482.133l.42-2.546a5,5,0,0,0,.147-1.719.944.944,0,0,0-.648-.81c-.518-.127-1,.3-1.388.583a11.561,11.561,0,0,0-2.692,2.8c-.147.216-.478.976-.771.995s-.261-.925-.278-1.115c-.037-.425-.381-2.126.395-2.171l-.216-.376a9.54,9.54,0,0,1-3.458,4.1l.368.149a6.745,6.745,0,0,1,.263-4.1l-.483-.132c-.4,1.511-1.21,3.913-3.255,3.483l.174.307a5.482,5.482,0,0,0-.292-4.756.251.251,0,0,0-.392-.051c-1.394,1.372-2.811,2.874-3.026,4.907-.03.279.433.34.491.066a25.151,25.151,0,0,1,2.213-6.308q.1-.2.21-.4c.188.226.2.423.038.59a2.751,2.751,0,0,1-.518.6q-.538.569-1.116,1.1a23.694,23.694,0,0,1-2.76,2.183c-.265.18-.015.614.252.432Z" transform="translate(0)" fill="#1d1d1b"/>
    </g>
    <g>
      <g>
        <path d="M50.929,19.776a6.9,6.9,0,0,0-3.065,2.769,10.618,10.618,0,0,0-.652,1.366,4.893,4.893,0,0,0-.4,1.4,5.21,5.21,0,0,0,.311,1.934,10.314,10.314,0,0,0,.56,1.538,5.8,5.8,0,0,0,4.176,3.141,8.027,8.027,0,0,0,1.5.093,8.337,8.337,0,0,0,2.2-.3,6.27,6.27,0,0,0,4.306-4.931,6.567,6.567,0,0,0-2.458-6.1,6.9,6.9,0,0,0-6.545-.924" transform="translate(0)" fill="#fff"/>
        <path d="M50.8,19.56a7.25,7.25,0,0,0-3.056,2.7,5.9,5.9,0,0,0-1.089,4.2,7.987,7.987,0,0,0,1.8,3.88,6.039,6.039,0,0,0,3.55,1.856,7.128,7.128,0,0,0,7.1-2.837,6.581,6.581,0,0,0-.193-7.46A7.046,7.046,0,0,0,50.8,19.521c-.3.11-.17.594.133.483a6.609,6.609,0,0,1,6.929,1.415A6.185,6.185,0,0,1,59.2,28.181a6.247,6.247,0,0,1-5.94,3.586,5.929,5.929,0,0,1-3.579-1.024A6.089,6.089,0,0,1,47.434,27.4a4.777,4.777,0,0,1-.314-2.435,8.162,8.162,0,0,1,.853-2.106,6.8,6.8,0,0,1,3.083-2.868c.29-.138.037-.57-.253-.432Z" transform="translate(0)" fill="#1d1d1b"/>
      </g>
      <path d="M47.461,26.039a26.951,26.951,0,0,0,1.74,2.974c.089.132.306.007.216-.127a26.938,26.938,0,0,1-1.74-2.973c-.072-.144-.288-.018-.216.126Z" transform="translate(0)" fill="#1d1d1b"/>
      <path d="M48.7,25.5q.381,1.734.682,3.483c.027.159.268.091.241-.066q-.3-1.749-.682-3.483c-.035-.157-.276-.091-.241.066Z" transform="translate(0)" fill="#1d1d1b"/>
      <path d="M49.433,25.362l1.2,3.118c.057.149.3.084.241-.066l-1.2-3.118c-.057-.149-.3-.085-.241.066Z" transform="translate(0)" fill="#1d1d1b"/>
      <path d="M49.68,25.363l.392-.185a1.7,1.7,0,0,1,.371-.132.125.125,0,1,0-.067-.241,1.936,1.936,0,0,0-.416.151l-.406.191a.127.127,0,0,0-.045.172.129.129,0,0,0,.171.044Z" transform="translate(0)" fill="#1d1d1b"/>
      <path d="M50.264,26.964l.491-.2a.137.137,0,0,0,.075-.057.131.131,0,0,0,.012-.1.127.127,0,0,0-.154-.087l-.49.2a.134.134,0,0,0-.075.057.129.129,0,0,0-.013.1.127.127,0,0,0,.154.088Z" transform="translate(0)" fill="#1d1d1b"/>
      <path d="M50.792,28.627q.45-.129.89-.293a.129.129,0,0,0,.087-.154.126.126,0,0,0-.154-.087c-.293.109-.589.207-.89.293a.127.127,0,0,0-.087.154.126.126,0,0,0,.154.087Z" transform="translate(0)" fill="#1d1d1b"/>
      <path d="M50.954,24.688q.676,1.62,1.237,3.285c.051.152.293.087.241-.066q-.561-1.664-1.237-3.285c-.061-.146-.3-.082-.241.066Z" transform="translate(0)" fill="#1d1d1b"/>
      <path d="M51.159,24.763a4.012,4.012,0,0,0,.468-.156,2.623,2.623,0,0,1,.4-.165c.183-.041.246.118.323.254a4.334,4.334,0,0,1,.214.432,4.087,4.087,0,0,1,.162.454.3.3,0,0,1-.072.362,1.381,1.381,0,0,1-.338.183l-.481.214c-.146.065-.019.281.126.216.194-.086.389-.17.582-.259a.974.974,0,0,0,.356-.248.512.512,0,0,0,.088-.46,3.351,3.351,0,0,0-.194-.558,4.49,4.49,0,0,0-.265-.528c-.088-.149-.185-.293-.371-.317a.914.914,0,0,0-.488.131,3.7,3.7,0,0,1-.577.2.125.125,0,0,0,.066.241Z" transform="translate(0)" fill="#1d1d1b"/>
      <path d="M52.383,26.357a3.453,3.453,0,0,0,.468.682,2.767,2.767,0,0,1,.456.61.126.126,0,0,0,.171.045.128.128,0,0,0,.045-.171,2.865,2.865,0,0,0-.467-.628,3.287,3.287,0,0,1-.457-.665c-.074-.143-.289-.016-.216.127Z" transform="translate(0)" fill="#1d1d1b"/>
      <path d="M54.488,24.165a2.942,2.942,0,0,1-.294-.449.508.508,0,0,0-.479-.211,1.085,1.085,0,0,0-.555.267c-.169.159-.076.369-.01.555.134.381.207.9.642,1.047.181.059.375.054.559.1a.785.785,0,0,1,.5.418,1.846,1.846,0,0,1,.151.434c.032.136.116.345,0,.451a.826.826,0,0,1-.432.162c-.14.009-.36-.074-.335-.254.021-.157-.22-.225-.242-.066a.472.472,0,0,0,.213.474.693.693,0,0,0,.649.032c.189-.073.432-.169.46-.4A1.78,1.78,0,0,0,55.169,26a1.116,1.116,0,0,0-.887-.8c-.185-.028-.444-.021-.584-.168a.969.969,0,0,1-.159-.357l-.148-.42a.977.977,0,0,1-.071-.2c-.011-.112.074-.15.157-.2.134-.078.317-.166.458-.056.171.133.213.389.377.539.118.108.3-.068.176-.177Z" transform="translate(0)" fill="#1d1d1b"/>
      <path d="M54.836,23.227q.258.863.574,1.7c.1.276.212.549.325.821a1.725,1.725,0,0,0,.313.56.864.864,0,0,0,1.165-.086.555.555,0,0,0,.089-.591c-.094-.29-.208-.574-.312-.86l-.727-2c-.055-.15-.3-.086-.241.066l.678,1.866c.113.311.231.62.34.933.05.145.107.3-.021.424a.8.8,0,0,1-.355.165c-.332.084-.493-.112-.621-.388s-.244-.587-.356-.882q-.339-.889-.61-1.8a.125.125,0,0,0-.241.067Z" transform="translate(0)" fill="#1d1d1b"/>
      <path d="M58.411,22.779l-.147-.385a.925.925,0,0,0-.144-.3c-.157-.17-.371-.066-.551,0s-.426.117-.534.284a.623.623,0,0,0-.016.524,1.393,1.393,0,0,0,.75,1.007c.183.062.379.07.563.127.258.08.349.279.438.518q.085.229.15.467c.051.185.07.338-.131.433a.466.466,0,0,1-.648-.334c-.038-.156-.279-.09-.241.067a.719.719,0,0,0,.9.531.571.571,0,0,0,.409-.377,1.462,1.462,0,0,0-.151-.73,1.665,1.665,0,0,0-.3-.605.9.9,0,0,0-.495-.244,1.69,1.69,0,0,1-.562-.155,1.336,1.336,0,0,1-.413-.682.621.621,0,0,1-.063-.372c.046-.124.267-.163.378-.206a1.477,1.477,0,0,1,.226-.086c.1-.02.119.017.155.1.065.159.123.321.184.482s.3.084.241-.067Z" transform="translate(0)" fill="#1d1d1b"/>
    </g>
    <g>
      <path d="M86.409,8.329a3.6,3.6,0,0,1-.6-.934l.981.367a.321.321,0,0,0,.163.031.351.351,0,0,0,.165-.1,1.891,1.891,0,0,1,3.106,1.713,6.676,6.676,0,0,0,3.578-1.863,1.99,1.99,0,0,1-.2,2.378l.486-.153a1.792,1.792,0,0,1-.907,1.775l.422.011a2.288,2.288,0,0,1-1.486,1.454,3.532,3.532,0,0,0,2.294.461,1.155,1.155,0,0,1-.77.685,5.826,5.826,0,0,1-1.789.271,6.638,6.638,0,0,1-1.137-.023,4.406,4.406,0,0,1-2.188-1.02,5.947,5.947,0,0,1-2.077-3.741,1.127,1.127,0,0,0-.092-.377,1.007,1.007,0,0,0-.169-.217l-.758-.812.912.062" transform="translate(0)" fill="#fff"/>
      <path d="M86.586,8.153a3.928,3.928,0,0,1-.556-.884l-.282.367c.358.134.956.506,1.337.373a3.657,3.657,0,0,0,.478-.316,1.651,1.651,0,0,1,2.416,1.713c-.02.175.174.267.316.241a7.058,7.058,0,0,0,3.689-1.928l-.393-.05a1.757,1.757,0,0,1-.157,2.075c-.152.177-.011.5.244.418l.486-.153-.317-.241a1.584,1.584,0,0,1-.783,1.56.252.252,0,0,0,.126.465l.422.011-.241-.316a2.083,2.083,0,0,1-1.311,1.279.254.254,0,0,0-.06.457,3.861,3.861,0,0,0,2.42.495l-.241-.317c-.2.54-1,.657-1.492.717a9.464,9.464,0,0,1-1.64.062,4.26,4.26,0,0,1-2.7-1.307A5.716,5.716,0,0,1,86.876,10.4a6.507,6.507,0,0,0-.293-1.265,6.06,6.06,0,0,0-.966-1.08l-.177.427.912.062c.321.022.32-.478,0-.5l-.912-.062a.253.253,0,0,0-.177.427c.216.231.443.456.65.7a1.554,1.554,0,0,1,.35.878,6.17,6.17,0,0,0,.508,1.532A6.091,6.091,0,0,0,88.813,13.9a4.96,4.96,0,0,0,3.213.766c.914-.044,2.262-.121,2.635-1.132a.252.252,0,0,0-.241-.316,3.423,3.423,0,0,1-2.167-.427l-.06.457a2.617,2.617,0,0,0,1.66-1.628.253.253,0,0,0-.241-.317l-.422-.011.126.466a2.072,2.072,0,0,0,1.031-1.991.252.252,0,0,0-.316-.241l-.486.153.243.417a2.273,2.273,0,0,0,.235-2.681.253.253,0,0,0-.393-.05,6.593,6.593,0,0,1-3.468,1.8l.317.241a2.178,2.178,0,0,0-1.493-2.325,2.231,2.231,0,0,0-1.5.1c-.179.077-.363.286-.538.338-.128.037-.291-.073-.412-.118l-.653-.245c-.226-.085-.365.19-.283.367a4.417,4.417,0,0,0,.634.985c.208.247.56-.108.354-.353Z" transform="translate(0)" fill="#1d1d1b"/>
    </g>
    <g>
      <path d="M15.264,23.3a8.872,8.872,0,0,1-1,.9,2.459,2.459,0,0,1-1.256.35A2.769,2.769,0,0,1,10.819,23.4c-.19-.256-.624-.007-.432.252a3.311,3.311,0,0,0,2.547,1.4,2.986,2.986,0,0,0,1.453-.342,7.542,7.542,0,0,0,1.23-1.056c.248-.206-.108-.558-.353-.354Z" transform="translate(0)" fill="#1d1d1b"/>
      <path d="M19.463,13.93a6.824,6.824,0,0,0,.4,3.023,4.528,4.528,0,0,1,.281,3.105c-.616,2-2.5,3.919-4.745,3.5-.315-.058-.45.424-.133.482,2.273.421,4.209-1.19,5.1-3.168a4.508,4.508,0,0,0,.32-3.1c-.174-.6-.451-1.17-.6-1.784a6.3,6.3,0,0,1-.122-2.058c.03-.32-.47-.318-.5,0Z" transform="translate(0)" fill="#1d1d1b"/>
      <path d="M10.712,23.633a3.236,3.236,0,0,1-2.988-.873,6.38,6.38,0,0,1-1.749-2.31,3.9,3.9,0,0,1-.327-3.12c.2-.463.455-.9.629-1.369a4.57,4.57,0,0,0,.264-1.639.25.25,0,0,0-.5,0,4.48,4.48,0,0,1-.506,2.088,5.235,5.235,0,0,0-.589,1.548,5.52,5.52,0,0,0,.783,3.121A6.62,6.62,0,0,0,7.75,23.4a3.463,3.463,0,0,0,3.1.713c.3-.114.168-.6-.133-.482Z" transform="translate(0)" fill="#1d1d1b"/>
      <path d="M6.048,15.638c-.442-.391-1.457-.781-1.744-.011a1.542,1.542,0,0,0,.085,1.035,8.019,8.019,0,0,0,.43,1.021c.15.284.582.032.432-.253a6.578,6.578,0,0,1-.324-.752A1.747,1.747,0,0,1,4.75,15.9a.265.265,0,0,1,.083-.193.394.394,0,0,1,.252-.009,1.282,1.282,0,0,1,.61.293.254.254,0,0,0,.353,0,.251.251,0,0,0,0-.353Z" transform="translate(0)" fill="#1d1d1b"/>
      <path d="M19.928,15.958a3.965,3.965,0,0,1,.868-.121.212.212,0,0,1,.209.111.538.538,0,0,1,.076.3,1.708,1.708,0,0,1-.686,1.24.251.251,0,0,0,0,.353.255.255,0,0,0,.354,0,2.3,2.3,0,0,0,.616-.77,1.75,1.75,0,0,0,.208-.952.823.823,0,0,0-.625-.773,2,2,0,0,0-.552.021,5.074,5.074,0,0,0-.6.107c-.313.075-.181.557.133.482Z" transform="translate(0)" fill="#1d1d1b"/>
      <path d="M14.636,6.817a6.436,6.436,0,0,1,2.32,1.134A10.37,10.37,0,0,1,19.083,9.8a5.2,5.2,0,0,1,1.232,2.588,8.435,8.435,0,0,1-.114,2.972c-.071.314.411.447.482.133a9.007,9.007,0,0,0,.129-3.14A5.485,5.485,0,0,0,19.6,9.662,10.508,10.508,0,0,0,17.39,7.651a7.093,7.093,0,0,0-2.621-1.317c-.314-.07-.448.412-.133.483Z" transform="translate(0)" fill="#1d1d1b"/>
      <path d="M14.728,6.269a9.774,9.774,0,0,0-4.219.22A8.32,8.32,0,0,0,7.131,8.536,7.485,7.485,0,0,0,4.86,15.3c.042.314.542.318.5,0a7.046,7.046,0,0,1,2-6.3,8.177,8.177,0,0,1,3.113-1.987A13.144,13.144,0,0,1,12.5,6.691a6.417,6.417,0,0,1,2.1.06c.314.07.448-.412.133-.482Z" transform="translate(0)" fill="#1d1d1b"/>
      <path d="M6.338,22.16c-.063,2.614.351,5.214.23,7.828-.014.322.486.321.5,0,.121-2.614-.293-5.214-.23-7.828a.25.25,0,0,0-.5,0Z" transform="translate(0)" fill="#1d1d1b"/>
      <path d="M19.255,21.842a10.013,10.013,0,0,0-.2,1.861l-.119,2.065L18.694,29.9c-.019.321.481.32.5,0l.228-3.972.11-1.906a11.029,11.029,0,0,1,.2-2.046.25.25,0,0,0-.482-.133Z" transform="translate(0)" fill="#1d1d1b"/>
      <path d="M14.39,6.524a5.394,5.394,0,0,1,.59.966,5.1,5.1,0,0,1,.256.676,1.015,1.015,0,0,0,.125.33c.168.22.541.3.777.432a8.613,8.613,0,0,1,1.057.687c1.322,1,2.574,2.481,2.267,4.254-.027.157.214.224.242.066A4.487,4.487,0,0,0,17.939,9.9a8.823,8.823,0,0,0-2.03-1.37.692.692,0,0,1-.45-.492,5.21,5.21,0,0,0-.187-.5A5.416,5.416,0,0,0,14.606,6.4c-.1-.127-.313,0-.216.126Z" transform="translate(0)" fill="#1d1d1b"/>
      <path d="M15.38,8.259c-2.231-.239-4.6-.208-6.562,1.054A5.952,5.952,0,0,0,6.123,14.2a.125.125,0,0,0,.25,0A5.693,5.693,0,0,1,9.186,9.381a10.01,10.01,0,0,1,6.194-.872c.16.017.159-.233,0-.25Z" transform="translate(0)" fill="#1d1d1b"/>
      <path d="M13.746,18.875c-.054.05-.088.117-.139.171a.782.782,0,0,1-.579.253.779.779,0,0,1-.671-.428c-.074-.143-.29-.016-.216.126a1.033,1.033,0,0,0,.863.551,1.021,1.021,0,0,0,.527-.128,1.067,1.067,0,0,0,.211-.154c.068-.065.113-.151.181-.214.118-.11-.059-.287-.177-.177Z" transform="translate(0)" fill="#1d1d1b"/>
      <path d="M14.434,21.186a2.268,2.268,0,0,1-1.517.252c-.272-.033-.543-.087-.81-.144a1.808,1.808,0,0,1-.678-.264c-.132-.093-.257.123-.126.215a1.972,1.972,0,0,0,.737.29c.29.062.583.118.877.153A2.474,2.474,0,0,0,14.56,21.4c.136-.086.011-.3-.126-.215Z" transform="translate(0)" fill="#1d1d1b"/>
      <path d="M14.412,21.085a4.753,4.753,0,0,0,.287.48.125.125,0,1,0,.216-.126,4.659,4.659,0,0,1-.287-.481.125.125,0,0,0-.171-.044.128.128,0,0,0-.045.171Z" transform="translate(0)" fill="#1d1d1b"/>
      <path d="M11.366,20.881l-.354.328a.125.125,0,0,0,.177.177l.353-.329a.124.124,0,0,0-.176-.176Z" transform="translate(0)" fill="#1d1d1b"/>
      <path d="M13.356,22.364a1.14,1.14,0,0,0-.953-.013.125.125,0,0,0,.066.241A2.793,2.793,0,0,1,12.9,22.5a.8.8,0,0,1,.1,0,.332.332,0,0,1,.077.01.362.362,0,0,1,.158.07.127.127,0,0,0,.171-.045.128.128,0,0,0-.045-.171Z" transform="translate(0)" fill="#1d1d1b"/>
      <path d="M16.135,16.015c.234.076.231.379.18.571a.7.7,0,0,1-.057.167.27.27,0,0,1-.134.1.8.8,0,0,1-.364.082.556.556,0,0,1-.51-.323A.55.55,0,0,1,15.441,16a.693.693,0,0,1,.326-.145.3.3,0,0,1,.279.075.128.128,0,0,0,.171.045.126.126,0,0,0,.045-.171.65.65,0,0,0-.855-.081.829.829,0,0,0-.425.854.777.777,0,0,0,.677.6,1,1,0,0,0,.5-.068.817.817,0,0,0,.231-.128.49.49,0,0,0,.136-.227.963.963,0,0,0,.036-.613.574.574,0,0,0-.36-.371c-.153-.05-.219.192-.066.242Z" transform="translate(0)" fill="#1d1d1b"/>
      <path d="M10.313,15.991c.213.056.427.172.451.407a.471.471,0,0,1-.271.483.6.6,0,0,1-.6-.068A.517.517,0,0,1,9.72,16.2a.444.444,0,0,1,.539-.241.126.126,0,0,0,.153-.087.127.127,0,0,0-.087-.154.69.69,0,0,0-.772.273.751.751,0,0,0,.087.932.851.851,0,0,0,.854.229.726.726,0,0,0,.522-.668.664.664,0,0,0-.156-.462.937.937,0,0,0-.48-.267.125.125,0,0,0-.067.241Z" transform="translate(0)" fill="#1d1d1b"/>
      <path d="M16.624,15a1.09,1.09,0,0,1-.317-.226.948.948,0,0,0-.379-.219.5.5,0,0,0-.37.147,2.3,2.3,0,0,1-.373.228.125.125,0,0,0-.045.171.127.127,0,0,0,.171.045,2.316,2.316,0,0,0,.335-.2c.068-.048.179-.176.271-.136a1.545,1.545,0,0,1,.318.223.9.9,0,0,0,.323.208A.125.125,0,0,0,16.624,15Z" transform="translate(0)" fill="#1d1d1b"/>
      <path d="M11.1,14.958c-.135-.106-.273-.21-.414-.309s-.276-.232-.448-.174a2.151,2.151,0,0,0-.807.447c-.116.111.061.288.177.177a1.939,1.939,0,0,1,.653-.366.242.242,0,0,1,.066-.025c.026,0,.064.041.085.055.054.036.107.073.16.11.119.084.237.172.352.262a.127.127,0,0,0,.176,0,.125.125,0,0,0,0-.177Z" transform="translate(0)" fill="#1d1d1b"/>
      <path d="M6.745,31.32a12.04,12.04,0,0,1-.166,1.56.25.25,0,1,0,.482.133,13.177,13.177,0,0,0,.184-1.693A.251.251,0,0,0,7,31.07a.255.255,0,0,0-.25.25Z" transform="translate(0)" fill="#1d1d1b"/>
      <path d="M7.667,23.478A56.339,56.339,0,0,1,6.6,29.851c-.072.313.41.447.482.133a57.034,57.034,0,0,0,1.086-6.506c.034-.32-.466-.317-.5,0Z" transform="translate(0)" fill="#1d1d1b"/>
      <path d="M18.076,23.163q.252,3.368.506,6.735c.024.318.524.321.5,0q-.254-3.368-.506-6.735c-.024-.319-.524-.322-.5,0Z" transform="translate(0)" fill="#1d1d1b"/>
      <path d="M18.847,31.436,18.715,33.5a.25.25,0,0,0,.5,0l.132-2.061a.25.25,0,0,0-.5,0Z" transform="translate(0)" fill="#1d1d1b"/>
      <path d="M6.869,30.226A.953.953,0,0,1,7,30.3c.023.016-.008,0-.01-.008a.385.385,0,0,0,.03.027c.023.022.042.045.063.067s-.006-.007-.008-.01c.007.012.016.023.023.034s.027.047.04.072c0,0,.015.035,0,.007s0,.011,0,.018a.9.9,0,0,1,.025.089c0,.007.008.055,0,.025s0,.018,0,.025a.748.748,0,0,1,0,.082c0,.016,0,.032,0,.047,0,0,.007-.037,0-.008a.922.922,0,0,1-.024.1l-.014.045s-.015.038,0,.014-.007.014-.009.019l-.014.027c-.013.024-.028.046-.043.069s-.03.03,0,0c-.009.009-.018.02-.027.03l-.029.028c-.011.01-.035.02,0,0l-.06.035c-.029.017.038-.007.005,0l-.032.009c-.046.013-.012,0,0,0-.018,0-.038,0-.056,0-.036.005.035.009,0,0l-.034-.006c-.03-.008-.059-.018-.088-.028.039.014-.024-.012-.036-.018a.994.994,0,0,1-.089-.053L6.6,31.019c-.006,0-.043-.032-.019-.013S6.574,31,6.571,31l-.032-.029a.722.722,0,0,1-.06-.064s.019.031.006.007-.02-.03-.029-.046-.014-.026-.02-.039c0,0,.011.037.006.011s-.009-.027-.012-.041-.013-.051-.006-.018,0,0,0-.009,0-.028,0-.042,0-.029,0-.043,0-.017,0,0c.009-.031.017-.062.026-.092s-.02.031,0,0c.01-.014.018-.032.026-.046s.023-.032,0-.009.016-.016.021-.021.019-.018.029-.028c.033-.031-.018.008.006,0s.048-.027.071-.041-.037.01,0,0c.017,0,.033-.011.049-.015l.04-.008c-.02,0-.035,0,0,0a.683.683,0,0,1,.1,0,.25.25,0,0,0,.25-.25.257.257,0,0,0-.25-.25.8.8,0,0,0-.811.5.819.819,0,0,0,.249.924.905.905,0,0,0,1,.2,1,1,0,0,0,.452-.876.979.979,0,0,0-.56-.886.257.257,0,0,0-.342.09.252.252,0,0,0,.09.342Z" transform="translate(0)" fill="#1d1d1b"/>
      <path d="M18.953,30.185c.027.006.054.013.08.021s.084.037.037.013a1.1,1.1,0,0,1,.162.1c-.039-.029.009.01.021.021s.04.039.058.059.031.04.012.015.006.009.01.016a.752.752,0,0,1,.045.078c.022.041,0,0,0,0l.012.038c.006.019.017.087.011.03a.535.535,0,0,1,0,.08.283.283,0,0,1,0,.041c.008-.051-.008.026-.009.028a.665.665,0,0,1-.032.092c.017-.04-.021.04-.025.048a1.064,1.064,0,0,1-.092.147c.03-.039-.02.02-.031.031a.687.687,0,0,1-.063.058c.04-.032-.023.011-.036.02-.037.023-.008,0,0,0-.02.008-.04.013-.06.019s-.045.008,0,0a.37.37,0,0,1-.047,0l-.048,0c.013,0,.042.01,0,0a.749.749,0,0,1-.092-.028c.011,0,.035.018-.006,0l-.052-.029c-.012-.008-.024-.017-.036-.024-.032-.018.027.024,0,0s-.039-.033-.057-.051-.039-.042-.058-.064c.03.034.006.007,0,0s-.024-.036-.035-.055a.8.8,0,0,1-.04-.077c.022.047-.009-.028-.013-.041-.009-.03-.015-.059-.021-.089,0,.01,0,.047,0,0,0-.019,0-.038,0-.058s0-.031,0-.046.006-.051,0-.014a1.018,1.018,0,0,1,.028-.112c0-.01.02-.041,0,0q.013-.027.027-.051c.008-.013.017-.025.024-.037.018-.03-.036.036.008-.008l.03-.031s.05-.04.024-.022.013-.007.019-.011.031-.018.047-.027c.041-.022.009,0,0,0,.02-.007.041-.012.061-.018s.048-.008,0,0a.45.45,0,0,1,.064,0,.25.25,0,0,0,0-.5.839.839,0,0,0-.807.67,1.049,1.049,0,0,0,.341,1,.972.972,0,0,0,.553.242.761.761,0,0,0,.544-.189,1.083,1.083,0,0,0,.381-.994,1.052,1.052,0,0,0-.8-.75.25.25,0,0,0-.133.482Z" transform="translate(0)" fill="#1d1d1b"/>
      <path d="M10.565,16.987a.469.469,0,0,0,.1-.4.456.456,0,0,0-.451-.344.641.641,0,0,0-.236.059.392.392,0,0,0-.234.28.4.4,0,0,0,.121.381.125.125,0,0,0,.176-.177l-.021-.02-.008-.008c-.012-.009.014.021.006.008L10,16.744l-.007-.013c-.013-.021.006.019,0,.006s-.011-.035-.015-.053.006-.005,0,.011v-.014a.15.15,0,0,1,0-.03v-.015s-.006.032,0,.012l.006-.026A.068.068,0,0,0,10,16.6c0,.012-.011.023,0,.01L10,16.592s.014-.017.014-.022c0,.012-.016.019-.006.008l.01-.011s.025-.021.013-.012,0,0,.007,0l.02-.013c.005,0,.029-.019.035-.017l-.008,0,.019-.007a.476.476,0,0,1,.082-.023s.026,0,.01,0h0c.014,0,.028,0,.042,0a.1.1,0,0,0,.017,0s-.025,0-.012,0,.025,0,.037.009l.017.006h0l0,0,.015.009.025.015c.012.008.007,0-.005,0,.005,0,.013.011.016.014l.021.021.012.013s-.018-.025-.005-.005l.016.025.008.016,0,.007c0,.009,0,0,0-.01,0,0,.008.027.01.034l0,.017c.006.023,0-.019,0,0s0,.026,0,.039v.017c0,.017,0,0,0-.007,0,.012-.005.026-.008.039a.177.177,0,0,0-.012.037s.012-.026,0-.006l-.008.015c0,.008-.031.045-.01.018a.135.135,0,0,0-.037.089.128.128,0,0,0,.037.088.125.125,0,0,0,.176,0Z" transform="translate(0)" fill="#1d1d1b"/>
      <path d="M16.078,17.029c.039-.064.079-.127.117-.192a.455.455,0,0,0,.078-.228.5.5,0,0,0-.256-.369.42.42,0,0,0-.428-.05.489.489,0,0,0-.256.311.768.768,0,0,0,.073.521.126.126,0,0,0,.171.045.128.128,0,0,0,.044-.171l-.01-.023s.006.016,0,0l-.015-.04a.784.784,0,0,1-.023-.083l-.008-.042c0-.015,0,0,0,0l0-.024a.785.785,0,0,1,0-.084c0,.022,0,0,0,0l0-.018c0-.013.007-.026.011-.039l.007-.019s-.01.019,0,.007.013-.024.02-.035.024-.033.007-.012l.02-.023c.008-.009.017-.016.025-.024s0,0-.006,0l.021-.014.03-.017c.02-.011-.016,0,.006,0s.022-.006.033-.009-.023,0,0,0h.02c.011,0,.035,0,.012,0a.234.234,0,0,1,.038.009l.016.006s-.02-.011,0,0l.035.019.033.023s.019.014,0,0l.014.011c.021.017.042.036.062.055l.023.024.014.017s-.009-.015,0,0,.013.021.019.032c-.013-.026,0,.029,0,0,0,.006,0,.012,0,.018s0,.024,0,.007l0,.017s-.01.029,0,.009a.464.464,0,0,1-.043.079l-.111.182a.125.125,0,0,0,.216.126Z" transform="translate(0)" fill="#1d1d1b"/>
    </g>
    <g>
      <path d="M101.677,19.866a34.73,34.73,0,0,0-6.054.864,29.875,29.875,0,0,0-2.923.834c-.55.19-1.305.383-1.313,1.091a1.3,1.3,0,0,0,1.01,1.163,14.128,14.128,0,0,0,2.817.52,24.392,24.392,0,0,0,6.079-.037c2.292-.3,4.525-1.089,6.856-1.035a.25.25,0,0,0,0-.5,33.843,33.843,0,0,0-6.227.942,23.942,23.942,0,0,1-6.592.143q-.84-.1-1.671-.256a3.191,3.191,0,0,1-1.567-.495c-.711-.693.824-1.087,1.273-1.23q.786-.249,1.584-.457a33.789,33.789,0,0,1,6.728-1.047c.32-.018.322-.518,0-.5Z" transform="translate(0)" fill="#1d1d1b"/>
      <path d="M104.765,23.654a1.467,1.467,0,0,1,1.127,1.361,10.6,10.6,0,0,1-.2,1.1,2.854,2.854,0,0,0,.007,1,1.744,1.744,0,0,0,2.7,1.012,2.134,2.134,0,0,0,.871-1.741.25.25,0,0,0-.5,0,1.526,1.526,0,0,1-1.151,1.541,1.216,1.216,0,0,1-1.434-.945c-.165-.817.351-1.6.168-2.412a2.123,2.123,0,0,0-1.455-1.392c-.3-.11-.433.373-.133.482Z" transform="translate(0)" fill="#1d1d1b"/>
      <path d="M109.1,26.653c.882.042,1.024,1.139.962,1.809a4.644,4.644,0,0,1-.232,1.232c-.129.334-.445.688-.841.588a.25.25,0,0,0-.132.482,1.2,1.2,0,0,0,1.283-.577,3.8,3.8,0,0,0,.415-1.648,2.59,2.59,0,0,0-.268-1.64,1.489,1.489,0,0,0-1.187-.746c-.321-.015-.321.485,0,.5Z" transform="translate(0)" fill="#1d1d1b"/>
      <path d="M94.948,25.948c-.67.413-1.548.518-2.116,1.095a2.1,2.1,0,0,0-.285,2.179A9.313,9.313,0,0,1,93,30.652a3.06,3.06,0,0,1-.465,1.836,7.944,7.944,0,0,0-1.026,2.464c-.244,1.842,1.395,3.043,2.247,4.466a4.979,4.979,0,0,0,1.709,2.039,4.92,4.92,0,0,0,2.6.38c2.154-.06,4.553.087,6.433-1.149.268-.176.018-.609-.252-.432-1.92,1.262-4.53,1.063-6.732,1.1A3.081,3.081,0,0,1,94.5,39.7a26.715,26.715,0,0,0-1.681-2.38,2.978,2.978,0,0,1-.614-3.034,15.53,15.53,0,0,0,1.3-2.971c.171-1.105-.643-1.994-.632-3.068.012-1.253,1.492-1.347,2.331-1.863.273-.168.022-.6-.253-.432Z" transform="translate(0)" fill="#1d1d1b"/>
      <path d="M97.534,24.822a14.087,14.087,0,0,1-.258,2.106c-.07.352-.155.7-.252,1.048a1.79,1.79,0,0,0-.179.829.6.6,0,0,0,.417.377,3.733,3.733,0,0,0,.911.191,1.454,1.454,0,0,0,1.422-.589c.086-.137-.131-.262-.216-.126a1.355,1.355,0,0,1-1.469.426,2,2,0,0,1-.706-.2c-.247-.165-.014-.576.049-.8a14.4,14.4,0,0,0,.531-3.26c.007-.161-.243-.161-.25,0Z" transform="translate(0)" fill="#1d1d1b"/>
      <path d="M96.5,30.212a9.456,9.456,0,0,1-.021,1.467.126.126,0,0,0,.125.125,6.577,6.577,0,0,1,2.685.242c.15.057.215-.185.066-.241a6.758,6.758,0,0,0-2.751-.251l.125.125a9.456,9.456,0,0,0,.021-1.467c-.011-.16-.261-.161-.25,0Z" transform="translate(0)" fill="#1d1d1b"/>
      <path d="M99.792,32.876c-.836.011-1.646-.322-2.484-.248-.143.012-.4.011-.494.136a.4.4,0,0,0-.048.23c0,.114-.007.228-.007.342a9.526,9.526,0,0,0,.1,1.371c.022.159.263.091.241-.066a9.205,9.205,0,0,1-.088-1.219c0-.1,0-.209,0-.314,0-.048,0-.095,0-.143,0-.072-.021-.043.048-.051a3.692,3.692,0,0,1,.547-.045c.734.016,1.443.267,2.18.257a.125.125,0,0,0,0-.25Z" transform="translate(0)" fill="#1d1d1b"/>
      <path d="M96.9,31.758a1.526,1.526,0,0,1,.176.937.125.125,0,0,0,.125.125.129.129,0,0,0,.125-.125,1.742,1.742,0,0,0-.21-1.063.125.125,0,0,0-.216.126Z" transform="translate(0)" fill="#1d1d1b"/>
      <path d="M96.829,33.74a1.347,1.347,0,0,0-1.044,1.132c-.066.55.245,1.273.863,1.327.356.032.692-.145,1.048-.118s.672.185,1.023.19c.634.009,1.067-.5,1.492-.9.118-.11-.059-.286-.177-.176-.352.328-.726.8-1.247.825a3.327,3.327,0,0,1-.818-.148,1.8,1.8,0,0,0-.727,0c-.287.055-.611.167-.867-.038a1.046,1.046,0,0,1-.35-.769,1.093,1.093,0,0,1,.87-1.083c.157-.035.091-.277-.066-.241Z" transform="translate(0)" fill="#1d1d1b"/>
      <path d="M96.51,29.107a1.363,1.363,0,0,0-.8,1.083c0,.473.425.734.8.919.144.071.27-.145.126-.216-.288-.14-.676-.332-.679-.7,0-.409.367-.677.68-.868.137-.083.011-.3-.126-.215Z" transform="translate(0)" fill="#1d1d1b"/>
      <path d="M97.082,30.312c.358-.011.72-.037,1.078-.031.19,0,.265.144.366.285s.21.294.311.443a18.233,18.233,0,0,1,1.08,1.81c.074.142.29.016.216-.126a18.347,18.347,0,0,0-1.2-1.989c-.167-.24-.349-.622-.67-.666a3.492,3.492,0,0,0-.56,0l-.618.019a.125.125,0,0,0,0,.25Z" transform="translate(0)" fill="#1d1d1b"/>
      <path d="M96.054,38.157a2.835,2.835,0,0,0,.9.57,2.946,2.946,0,0,0,1.223.016,2.307,2.307,0,0,0,1.879-.776c.087-.136-.129-.261-.216-.126-.364.571-1.135.6-1.739.659a2.771,2.771,0,0,1-1.019,0,2.374,2.374,0,0,1-.848-.524c-.123-.1-.3.074-.176.177Z" transform="translate(0)" fill="#1d1d1b"/>
      <path d="M100.653,26.2a4.425,4.425,0,0,1,1.693-.039c.158.027.225-.214.067-.242a4.775,4.775,0,0,0-1.826.04c-.157.034-.091.275.066.241Z" transform="translate(0)" fill="#1d1d1b"/>
      <path d="M95.492,26.042a7.521,7.521,0,0,1,1.111-.1.125.125,0,0,0,0-.25,8.025,8.025,0,0,0-1.178.109.125.125,0,0,0,.067.241Z" transform="translate(0)" fill="#1d1d1b"/>
      <path d="M94.7,25.548l.026.059-.025-.06a2.339,2.339,0,0,1,.159.581l-.009-.066.007.063a.271.271,0,0,0,.073.177.257.257,0,0,0,.177.073.253.253,0,0,0,.177-.073.242.242,0,0,0,.073-.177,2.7,2.7,0,0,0-.076-.426,2.79,2.79,0,0,0-.15-.4.251.251,0,0,0-.15-.115.258.258,0,0,0-.192.025.25.25,0,0,0-.115.15.285.285,0,0,0,.025.192Z" transform="translate(0)" fill="#1d1d1b"/>
      <path d="M97.27,25.074c-.707.045-1.417.111-2.125.134a11.73,11.73,0,0,1-1.863-.415l.108.188c.077-.111.334-.143.459-.174a4.043,4.043,0,0,1,.524-.091,4.908,4.908,0,0,1,.923-.006,6.037,6.037,0,0,1,.954.162,2.053,2.053,0,0,1,.885.37c.121.106.3-.07.177-.176a2.166,2.166,0,0,0-.926-.417,6.341,6.341,0,0,0-1.161-.194,4.912,4.912,0,0,0-1.13.048c-.285.046-.742.094-.921.352-.06.087.024.178.108.188a5.161,5.161,0,0,1,.958.282,2.575,2.575,0,0,0,.905.133c.708-.023,1.418-.089,2.125-.134.16-.01.161-.26,0-.25Z" transform="translate(0)" fill="#1d1d1b"/>
      <path d="M94.414,24.184l.143.377a.189.189,0,0,0,.045.085.18.18,0,0,0,.07.064.177.177,0,0,0,.093.03.189.189,0,0,0,.1,0,.256.256,0,0,0,.149-.115.243.243,0,0,0,.025-.193l-.143-.377a.194.194,0,0,0-.045-.085.226.226,0,0,0-.163-.094.186.186,0,0,0-.1,0,.251.251,0,0,0-.15.115.24.24,0,0,0-.025.192Z" transform="translate(0)" fill="#1d1d1b"/>
      <path d="M99.273,25.363a3.066,3.066,0,0,0,2.419.009,9.034,9.034,0,0,1,2.948-.329.126.126,0,0,0,.063-.233,2.972,2.972,0,0,0-1.135-.421,4.456,4.456,0,0,0-1.385.109,23.645,23.645,0,0,0-2.883.6c-.153.049-.088.291.066.241a21.407,21.407,0,0,1,2.586-.546,6.305,6.305,0,0,1,1.365-.177,2.613,2.613,0,0,1,1.26.407l.063-.233a8.884,8.884,0,0,0-2.635.237c-.843.208-1.783.6-2.606.117a.125.125,0,0,0-.126.216Z" transform="translate(0)" fill="#1d1d1b"/>
      <path d="M109.41,27.6c-.062-.014-.074-.007-.035.019l.049.049a1.31,1.31,0,0,1,.088.109,1.167,1.167,0,0,1,.118.21,1.417,1.417,0,0,1,.118.508,2.387,2.387,0,0,1-.272,1.137c-.069.145.147.272.216.126a2.527,2.527,0,0,0,.289-1.435,1.588,1.588,0,0,0-.216-.615c-.082-.133-.29-.454-.481-.324-.132.091-.007.307.126.216Z" transform="translate(0)" fill="#1d1d1b"/>
      <path d="M101.637,20.326a25.1,25.1,0,0,1,5.441.822,6.761,6.761,0,0,1,3.872,3.614,5.664,5.664,0,0,1,.272,2.9,15.172,15.172,0,0,1-.529,2.823c-.334,1.409-.437,2.985.619,4.121.22.236.573-.118.354-.354-1.465-1.575-.3-3.842-.032-5.632a16.15,16.15,0,0,0,.137-2.746,4.6,4.6,0,0,0-.9-2.271,6.8,6.8,0,0,0-3.754-2.967,26.8,26.8,0,0,0-5.478-.809c-.32-.032-.318.468,0,.5Z" transform="translate(0)" fill="#1d1d1b"/>
      <path d="M108.505,29.7a23.285,23.285,0,0,1,.239,2.395c.159.738.475,1.441.565,2.194a3.627,3.627,0,0,1-.7,2.317c-.427.714-.92,1.386-1.412,2.056-.191.26.243.51.432.253a25.047,25.047,0,0,0,1.5-2.2,4.025,4.025,0,0,0,.706-2.237,12.244,12.244,0,0,0-.547-2.291c-.218-.864-.016-1.775-.293-2.62-.1-.3-.583-.174-.482.133Z" transform="translate(0)" fill="#1d1d1b"/>
    </g>
    <path d="M.652.5,45.885.528,91.117.556l25.491.016-.25-.25q-.544,18.189-.385,36.389.045,5.111.146,10.219l.25-.25-45.4.1-45.157.1L.36,46.93l.25.25q-.244-18.2.059-36.41Q.755,5.658.884.548a.25.25,0,0,0-.5,0q-.459,18.2-.369,36.408.026,5.112.1,10.224a.253.253,0,0,0,.25.25l45.406-.1,45.156-.1,25.447-.055a.253.253,0,0,0,.25-.25q-.357-18.193-.012-36.391.1-5.109.251-10.217a.253.253,0,0,0-.25-.25L71.375.044,26.142.016.652,0a.25.25,0,0,0,0,.5Z" transform="translate(0)" fill="#1d1d1b"/>
    <path d="M2.644,47.213a7.437,7.437,0,0,1,.195,1.6.128.128,0,0,0,.125.125l44.909-.191,44.66-.189,25.2-.107a.128.128,0,0,0,.125-.125c.081-12.142.31-24.284.215-36.427q-.039-5.113-.167-10.227a.128.128,0,0,0-.125-.125h-1.172a.125.125,0,0,0,0,.25h.644a1.347,1.347,0,0,1,.406,0,.38.38,0,0,1,.107,0c-.066-.06-.1.453-.094.5q.049,2.057.085,4.115.069,4.116.082,8.232c.022,5.489-.015,10.978-.067,16.467s-.12,10.978-.159,16.467c0,.429.072.578-.379.626-.284.03-.589,0-.873,0l-2.121.009-4.117.017-8.233.035L69.08,48.4l-32.933.14-16.466.07-8.234.035-3.992.017c-1.4.006-2.845.117-4.241.018-.193-.014-.053.181-.135-.046a2.358,2.358,0,0,1-.037-.477,5.756,5.756,0,0,0-.157-1.013.125.125,0,0,0-.241.066Z" transform="translate(0)" fill="#1d1d1b"/>
  </g>
</svg>
