<svg xmlns="http://www.w3.org/2000/svg" width="52.694mm" height="23.515mm" viewBox="0 0 149.37 66.656">
  <title>whitevhouse</title>
  <g>
    <path d="M46.988,19.508c4.569-2.083,9.143-4.168,13.854-5.916,4.683-1.737,9.46-3.233,14.2-4.815.3-.1.174-.584-.133-.482-4.813,1.607-9.67,3.123-14.424,4.9-4.671,1.746-9.212,3.815-13.746,5.882-.293.134-.039.565.252.432Z" transform="translate(-0.011)" fill="#1d1d1b"/>
    <path d="M74.931,8.815q13.62,4.97,27.065,10.4c.3.121.427-.363.133-.482Q88.686,13.3,75.064,8.333c-.3-.111-.433.372-.133.482Z" transform="translate(-0.011)" fill="#1d1d1b"/>
    <path d="M46.89,19.53c14.354.09,28.716.33,43.069.164,4.047-.047,8.094-.146,12.138-.325.32-.014.322-.514,0-.5-14.31.634-28.653.327-42.971.237L46.89,19.03a.25.25,0,0,0,0,.5Z" transform="translate(-0.011)" fill="#1d1d1b"/>
    <path d="M47.255,19.48l.006,2.864c0,.469,0,.937,0,1.406a2,2,0,0,0,.219,1.111c.172.271.605.021.432-.252a2.186,2.186,0,0,1-.152-1.172l0-1.3,0-2.656a.25.25,0,0,0-.5,0Z" transform="translate(-0.011)" fill="#1d1d1b"/>
    <path d="M101.125,19.28l-.111,5.056a.25.25,0,0,0,.5,0l.111-5.056a.25.25,0,0,0-.5,0Z" transform="translate(-0.011)" fill="#1d1d1b"/>
    <path d="M47.568,25.213q20.99-.742,41.994-.431,5.862.079,11.725.17a.25.25,0,0,0,0-.5c-13.964-.2-27.92-.372-41.884-.075q-5.919.126-11.835.336c-.321.011-.323.511,0,.5Z" transform="translate(-0.011)" fill="#1d1d1b"/>
    <path d="M48.157,60.809c6.935-.368,13.887-.2,20.827-.127l20.628.224,11.681.127a.25.25,0,0,0,0-.5c-13.83-.15-27.661-.368-41.492-.443-3.883-.021-7.766.013-11.644.219-.32.017-.322.517,0,.5Z" transform="translate(-0.011)" fill="#1d1d1b"/>
    <path d="M47.728,60.756a.391.391,0,0,0,.7.078.351.351,0,0,0-.119-.465.41.41,0,0,0-.383-.034.335.335,0,0,0-.167.148.457.457,0,0,0-.009.322,3.416,3.416,0,0,1,.04.416,3.836,3.836,0,0,1-.012.455,3.071,3.071,0,0,1-.068.427.25.25,0,1,0,.482.133,4.065,4.065,0,0,0,.018-1.68v.133a.155.155,0,0,1-.073.1c-.04.014-.048.018-.022.01-.041,0-.052.006-.032.006s.01,0-.03-.005c.025.007.019,0-.02-.011.017.01.017.009,0,0a.172.172,0,0,1-.059-.114.155.155,0,0,1,.077-.137c-.022.013-.015.01.022-.008-.026.006-.018.006.024,0-.046,0,.056.017.01,0a.152.152,0,0,1,.1.1.25.25,0,1,0-.482.133Z" transform="translate(-0.011)" fill="#1d1d1b"/>
    <path d="M44.867,62.569a14.973,14.973,0,0,0,2.9-.064.258.258,0,0,0,.25-.25.251.251,0,0,0-.25-.25,14.973,14.973,0,0,1-2.9.064c-.321-.024-.319.476,0,.5Z" transform="translate(-0.011)" fill="#1d1d1b"/>
    <path d="M44.681,62.444a4.774,4.774,0,0,1,.057,1.614c-.018.134.128.25.25.25a.256.256,0,0,0,.25-.25,5.156,5.156,0,0,0-.075-1.747.25.25,0,0,0-.482.133Z" transform="translate(-0.011)" fill="#1d1d1b"/>
    <path d="M42.914,64.459l1.819-.092a.25.25,0,0,0,0-.5l-1.819.092a.255.255,0,0,0-.25.25.251.251,0,0,0,.25.25Z" transform="translate(-0.011)" fill="#1d1d1b"/>
    <path d="M42.684,64.264l-.141,1.95a.252.252,0,0,0,.25.25.255.255,0,0,0,.25-.25l.141-1.95a.252.252,0,0,0-.25-.25.255.255,0,0,0-.25.25Z" transform="translate(-0.011)" fill="#1d1d1b"/>
    <path d="M101.157,60.824l.018,1.416a.25.25,0,0,0,.5,0l-.018-1.416a.25.25,0,0,0-.5,0Z" transform="translate(-0.011)" fill="#1d1d1b"/>
    <path d="M101.5,62.539l2.9-.038a.25.25,0,0,0,0-.5l-2.9.038a.25.25,0,0,0,0,.5Z" transform="translate(-0.011)" fill="#1d1d1b"/>
    <path d="M104.255,62.377a13.789,13.789,0,0,1,.019,1.885.252.252,0,0,0,.25.25.255.255,0,0,0,.25-.25,13.789,13.789,0,0,0-.019-1.885.256.256,0,0,0-.25-.25.252.252,0,0,0-.25.25Z" transform="translate(-0.011)" fill="#1d1d1b"/>
    <path d="M104.666,64.519a9.918,9.918,0,0,1,1.887.06.251.251,0,0,0,.25-.25.257.257,0,0,0-.25-.25,9.918,9.918,0,0,0-1.887-.06.256.256,0,0,0-.25.25.252.252,0,0,0,.25.25Z" transform="translate(-0.011)" fill="#1d1d1b"/>
    <path d="M106.33,64.262l-.01,2.023a.25.25,0,0,0,.5,0l.01-2.023a.25.25,0,0,0-.5,0Z" transform="translate(-0.011)" fill="#1d1d1b"/>
    <path d="M43.048,66.652c16.452,0,32.9.021,49.355-.072q6.974-.039,13.947-.107a.25.25,0,0,0,0-.5c-16.52.165-33.041.183-49.561.182l-13.741,0a.25.25,0,0,0,0,.5Z" transform="translate(-0.011)" fill="#1d1d1b"/>
    <path d="M106.553,64.958q16.5-.328,33-.188,4.669.04,9.338.119a.25.25,0,0,0,0-.5q-16.5-.274-33-.08-4.669.056-9.338.149a.25.25,0,0,0,0,.5Z" transform="translate(-0.011)" fill="#1d1d1b"/>
    <path d="M101.631,20.355c12.294.159,24.589.317,36.885.243q5.179-.031,10.359-.125a.25.25,0,0,0,0-.5c-12.294.226-24.591.151-36.885.011q-5.179-.059-10.359-.129a.25.25,0,0,0,0,.5Z" transform="translate(-0.011)" fill="#1d1d1b"/>
    <path d="M100.93,26.606l37.471-.041,10.557-.012a.25.25,0,0,0,0-.5l-37.471.041-10.557.012a.25.25,0,0,0,0,.5Z" transform="translate(-0.011)" fill="#1d1d1b"/>
    <path d="M148.625,20.223q.31,17.319.244,34.64-.02,4.86-.068,9.719a.25.25,0,0,0,.5,0q.174-17.319-.031-34.64-.057-4.86-.145-9.719a.25.25,0,0,0-.5,0Z" transform="translate(-0.011)" fill="#1d1d1b"/>
    <path d="M.643,20.463,37.1,20.62l10.328.044a.25.25,0,0,0,0-.5l-36.459-.157L.643,19.963a.25.25,0,0,0,0,.5Z" transform="translate(-0.011)" fill="#1d1d1b"/>
    <path d="M.476,20.432C.313,26.123.107,31.815.026,37.509-.055,43.231.214,48.926.4,54.642a87.182,87.182,0,0,1-.127,9.686c-.025.321.475.319.5,0C1.224,58.615.8,52.894.605,47.181S.537,35.765.7,30.059q.137-4.814.276-9.627a.25.25,0,0,0-.5,0Z" transform="translate(-0.011)" fill="#1d1d1b"/>
    <path d="M.642,64.732q16.43-.113,32.859-.037,4.607.023,9.211.059a.25.25,0,0,0,0-.5q-16.43-.13-32.859-.071-4.6.018-9.211.049a.25.25,0,0,0,0,.5Z" transform="translate(-0.011)" fill="#1d1d1b"/>
    <path d="M.711,26.562l37.576-.013,10.586,0a.25.25,0,0,0,0-.5L11.3,26.058l-10.586,0a.25.25,0,0,0,0,.5Z" transform="translate(-0.011)" fill="#1d1d1b"/>
    <path d="M48.608,60.272a133.838,133.838,0,0,1,.022-13.63l.363-13.668.208-7.828a.25.25,0,0,0-.5,0c-.243,9.142-.527,18.284-.726,27.426-.056,2.568-.06,5.138.133,7.7.025.319.525.322.5,0Z" transform="translate(-0.011)" fill="#1d1d1b"/>
    <path d="M52.449,60q-.481-13.642-.52-27.3-.011-3.848.014-7.694a.25.25,0,0,0-.5,0q-.085,13.651.269,27.3.1,3.846.237,7.69c.011.321.511.323.5,0Z" transform="translate(-0.011)" fill="#1d1d1b"/>
    <path d="M65.3,60l.333-27.542.095-7.852a.25.25,0,0,0-.5,0l-.333,27.543L64.8,60a.25.25,0,0,0,.5,0Z" transform="translate(-0.011)" fill="#1d1d1b"/>
    <path d="M69.334,60,68.88,46.171c-.152-4.606-.408-9.223-.435-13.832-.015-2.535.479-5.073.22-7.6-.033-.317-.533-.321-.5,0a56.605,56.605,0,0,1-.216,6.776c-.039,2.228.095,4.462.169,6.688l.458,13.95L68.834,60c.011.321.511.323.5,0Z" transform="translate(-0.011)" fill="#1d1d1b"/>
    <path d="M80.906,60.268q.177-13.85.182-27.7,0-3.912-.01-7.826a.25.25,0,0,0-.5,0q.042,13.851-.086,27.7-.036,3.914-.086,7.826a.25.25,0,0,0,.5,0Z" transform="translate(-0.011)" fill="#1d1d1b"/>
    <path d="M84.711,60.408l.042.016-.183-.241.066-.12.3.039c-.154-.129-.12-.66-.143-.86-.032-.287-.062-.573-.088-.86-.053-.574-.095-1.149-.13-1.725-.068-1.151-.1-2.3-.13-3.458-.051-2.277-.082-4.555-.114-6.832q-.1-6.963-.191-13.926l-.106-7.833a.25.25,0,0,0-.5,0c.129,9.53.2,19.063.411,28.591.031,1.359.075,2.718.17,4.075.046.657.1,1.313.178,1.968.04.357-.017.957.29,1.214a.259.259,0,0,0,.3.039.334.334,0,0,0,.181-.312.255.255,0,0,0-.184-.241l-.042-.016c-.3-.116-.43.367-.133.482Z" transform="translate(-0.011)" fill="#1d1d1b"/>
    <path d="M97.733,60.536l.083-27.859.024-7.938a.25.25,0,0,0-.5,0l-.083,27.973-.024,7.824a.25.25,0,0,0,.5,0Z" transform="translate(-0.011)" fill="#1d1d1b"/>
    <path d="M101.455,60.334q-.408-13.793-.546-27.592-.039-3.933-.056-7.867a.25.25,0,0,0-.5,0q.062,13.8.391,27.6.095,3.932.211,7.864a.25.25,0,0,0,.5,0Z" transform="translate(-0.011)" fill="#1d1d1b"/>
    <path d="M47.568,23.291q20.855-.457,41.716-.308,5.87.042,11.74.133a.125.125,0,0,0,0-.25q-20.856-.321-41.716-.035-5.871.081-11.74.21a.125.125,0,0,0,0,.25Z" transform="translate(-0.011)" fill="#1d1d1b"/>
    <path d="M48.845,27.53l2.562-.013a.125.125,0,0,0,0-.25l-2.562.013a.125.125,0,0,0,0,.25Z" transform="translate(-0.011)" fill="#1d1d1b"/>
    <path d="M65.565,27.657l2.629-.07c.161,0,.162-.255,0-.25l-2.629.07a.125.125,0,0,0,0,.25Z" transform="translate(-0.011)" fill="#1d1d1b"/>
    <path d="M80.936,27.576l2.83-.113c.16-.006.161-.256,0-.25l-2.83.113c-.16.007-.161.257,0,.25Z" transform="translate(-0.011)" fill="#1d1d1b"/>
    <path d="M97.452,27.638a26.961,26.961,0,0,0,2.9-.165c.158-.018.16-.268,0-.25a26.961,26.961,0,0,1-2.9.165.125.125,0,0,0,0,.25Z" transform="translate(-0.011)" fill="#1d1d1b"/>
    <path d="M45.071,64.472q23.346-.343,46.7-.022,6.617.091,13.233.237a.125.125,0,0,0,0-.25q-23.343-.511-46.695-.357-6.618.045-13.234.142a.125.125,0,0,0,0,.25Z" transform="translate(-0.011)" fill="#1d1d1b"/>
    <path d="M47.216,62.4c14.22-.8,28.452.093,42.678.124,4.052.01,8.1-.054,12.153-.242.161-.008.161-.258,0-.25-14.225.66-28.454-.258-42.682-.214-4.052.012-8.1.106-12.149.332-.16.009-.161.259,0,.25Z" transform="translate(-0.011)" fill="#1d1d1b"/>
    <path d="M48.3,58.071q1.82-.109,3.643-.052c.161.006.161-.244,0-.25q-1.823-.057-3.643.052c-.16.01-.161.26,0,.25Z" transform="translate(-0.011)" fill="#1d1d1b"/>
    <path d="M65.362,57.625l3.1-.206c.16-.01.161-.26,0-.25l-3.1.206c-.16.01-.161.261,0,.25Z" transform="translate(-0.011)" fill="#1d1d1b"/>
    <path d="M80.868,57.838q1.518-.047,3.035.028c.161.008.161-.242,0-.25q-1.517-.075-3.035-.028c-.16.005-.161.255,0,.25Z" transform="translate(-0.011)" fill="#1d1d1b"/>
    <path d="M97.79,57.743l2.966.065a.125.125,0,0,0,0-.25l-2.966-.065a.125.125,0,0,0,0,.25Z" transform="translate(-0.011)" fill="#1d1d1b"/>
    <path d="M4.278,32.159c.953-.065,1.923-.017,2.878-.009s1.905.043,2.856.11c.161.011.16-.239,0-.25-.951-.067-1.9-.1-2.856-.11s-1.925-.056-2.878.009c-.16.011-.161.261,0,.25Z" transform="translate(-0.011)" fill="#1d1d1b"/>
    <path d="M4.419,42.479q2.8.036,5.594-.06c.16,0,.161-.255,0-.25q-2.8.1-5.594.06a.125.125,0,0,0,0,.25Z" transform="translate(-0.011)" fill="#1d1d1b"/>
    <path d="M16.289,32.267q2.788-.254,5.589-.354c.16-.006.161-.256,0-.25q-2.8.1-5.589.354c-.159.014-.161.265,0,.25Z" transform="translate(-0.011)" fill="#1d1d1b"/>
    <path d="M16.42,42.578l5.794-.179c.161-.005.161-.255,0-.25l-5.794.179c-.161,0-.161.255,0,.25Z" transform="translate(-0.011)" fill="#1d1d1b"/>
    <path d="M28.492,32.213a50.389,50.389,0,0,1,5.59-.179.125.125,0,0,0,0-.25,50.389,50.389,0,0,0-5.59.179c-.159.013-.161.264,0,.25Z" transform="translate(-0.011)" fill="#1d1d1b"/>
    <path d="M28.369,42.43a2.21,2.21,0,0,0,1.122.186c.514-.018,1.028-.051,1.542-.084q1.561-.1,3.118-.272c.159-.017.161-.268,0-.25q-1.444.156-2.9.257-.724.049-1.451.085a2.554,2.554,0,0,1-1.31-.138c-.143-.072-.27.143-.126.216Z" transform="translate(-0.011)" fill="#1d1d1b"/>
    <path d="M40.282,32.207q2.835.061,5.666-.112c.159-.01.16-.26,0-.25q-2.831.172-5.666.112a.125.125,0,0,0,0,.25Z" transform="translate(-0.011)" fill="#1d1d1b"/>
    <path d="M40.148,42.489q2.9.059,5.8-.141c.16-.011.161-.261,0-.25q-2.9.2-5.8.141a.125.125,0,0,0,0,.25Z" transform="translate(-0.011)" fill="#1d1d1b"/>
    <path d="M4.353,47.026a36.019,36.019,0,0,0,5.66.129c.159-.009.161-.259,0-.25a36.019,36.019,0,0,1-5.66-.129c-.16-.016-.159.234,0,.25Z" transform="translate(-0.011)" fill="#1d1d1b"/>
    <path d="M4.284,57.3q2.933-.059,5.865-.009a.125.125,0,0,0,0-.25q-2.932-.05-5.865.009a.125.125,0,0,0,0,.25Z" transform="translate(-0.011)" fill="#1d1d1b"/>
    <path d="M16.355,47.24q2.86-.173,5.727-.066c.16.006.16-.244,0-.25q-2.864-.106-5.727.066c-.16.01-.161.26,0,.25Z" transform="translate(-0.011)" fill="#1d1d1b"/>
    <path d="M16.485,57.275l5.595-.221c.16-.007.161-.257,0-.25l-5.595.221c-.16.006-.161.256,0,.25Z" transform="translate(-0.011)" fill="#1d1d1b"/>
    <path d="M28.412,47.169c1.86.115,3.72-.366,5.575-.088.157.023.225-.217.066-.241-1.88-.282-3.757.2-5.641.079-.161-.01-.16.24,0,.25Z" transform="translate(-0.011)" fill="#1d1d1b"/>
    <path d="M28.354,57.327q2.79-.264,5.593-.28a.125.125,0,0,0,0-.25q-2.8.015-5.593.28c-.158.016-.16.266,0,.25Z" transform="translate(-0.011)" fill="#1d1d1b"/>
    <path d="M40.416,47.219c1.838.068,3.692-.035,5.53-.067a.125.125,0,0,0,0-.25c-1.838.032-3.692.135-5.53.067-.161-.006-.161.244,0,.25Z" transform="translate(-0.011)" fill="#1d1d1b"/>
    <path d="M40.35,57.271l5.8-.2c.161-.006.161-.256,0-.25l-5.8.2c-.16.006-.161.256,0,.25Z" transform="translate(-0.011)" fill="#1d1d1b"/>
    <path d="M55.586,32.312l2.838-.089c.457-.014.914-.033,1.371-.027.218,0,.437.011.654.029.134.011.267.025.4.044a1.2,1.2,0,0,1,.325.053V32.2l-.016.023.108-.062h-.029l.12.092-.007-.02c-.051-.151-.293-.086-.241.067l.007.019a.129.129,0,0,0,.121.092.164.164,0,0,0,.153-.086.121.121,0,0,0,0-.126c-.091-.124-.22-.128-.367-.152-.226-.037-.454-.062-.683-.077a15.77,15.77,0,0,0-1.583,0l-3.171.1c-.16.005-.161.255,0,.25Z" transform="translate(-0.011)" fill="#1d1d1b"/>
    <path d="M55.452,42.4q3.032.158,6.068.127a.125.125,0,0,0,0-.25q-3.036.032-6.068-.127c-.161-.008-.16.242,0,.25Z" transform="translate(-0.011)" fill="#1d1d1b"/>
    <path d="M55.79,47.243a40.116,40.116,0,0,0,5.46.012c.16-.01.161-.26,0-.25a40.116,40.116,0,0,1-5.46-.012c-.161-.012-.16.239,0,.25Z" transform="translate(-0.011)" fill="#1d1d1b"/>
    <path d="M55.856,57.355q2.831-.1,5.662.034c.161.008.161-.242,0-.25q-2.829-.137-5.662-.034c-.16.006-.161.256,0,.25Z" transform="translate(-0.011)" fill="#1d1d1b"/>
    <path d="M71.766,32.255q2.865.042,5.73-.069c.16-.006.161-.256,0-.25q-2.863.111-5.73.069a.125.125,0,0,0,0,.25Z" transform="translate(-0.011)" fill="#1d1d1b"/>
    <path d="M71.7,42.505l5.931-.245c.16-.007.161-.257,0-.25l-5.931.245c-.16.007-.161.257,0,.25Z" transform="translate(-0.011)" fill="#1d1d1b"/>
    <path d="M71.833,47.162q2.934.042,5.866.013a.125.125,0,0,0,0-.25q-2.932.029-5.866-.013a.125.125,0,0,0,0,.25Z" transform="translate(-0.011)" fill="#1d1d1b"/>
    <path d="M88.214,32.292l5.53-.213c.161-.006.161-.256,0-.25l-5.53.213c-.16.006-.161.256,0,.25Z" transform="translate(-0.011)" fill="#1d1d1b"/>
    <path d="M87.946,42.689q2.934.057,5.864-.115c.16-.009.161-.259,0-.25q-2.928.172-5.864.115a.125.125,0,0,0,0,.25Z" transform="translate(-0.011)" fill="#1d1d1b"/>
    <path d="M88.015,47.23l5.393-.07a.125.125,0,0,0,0-.25l-5.393.07a.125.125,0,0,0,0,.25Z" transform="translate(-0.011)" fill="#1d1d1b"/>
    <path d="M88.081,57.311l5.8,0a.125.125,0,0,0,0-.25l-5.8,0a.125.125,0,0,0,0,.25Z" transform="translate(-0.011)" fill="#1d1d1b"/>
    <path d="M103.384,32.341q2.8-.167,5.6-.057c.161.007.161-.243,0-.25q-2.8-.11-5.6.057c-.16.01-.161.26,0,.25Z" transform="translate(-0.011)" fill="#1d1d1b"/>
    <path d="M115.451,32.183q2.763.1,5.53.051a.125.125,0,0,0,0-.25q-2.766.052-5.53-.051c-.161-.006-.161.244,0,.25Z" transform="translate(-0.011)" fill="#1d1d1b"/>
    <path d="M127.318,32.376l5.728-.21c.16-.006.161-.256,0-.25l-5.728.21c-.16.006-.161.256,0,.25Z" transform="translate(-0.011)" fill="#1d1d1b"/>
    <path d="M139.117,32.327q2.961.215,5.932.137a.125.125,0,0,0,0-.25q-2.969.077-5.932-.137c-.161-.011-.16.239,0,.25Z" transform="translate(-0.011)" fill="#1d1d1b"/>
    <path d="M103.384,42.413l5.664.112a.125.125,0,0,0,0-.25l-5.664-.112a.125.125,0,0,0,0,.25Z" transform="translate(-0.011)" fill="#1d1d1b"/>
    <path d="M115.276,42.546a4.066,4.066,0,0,0,1.352-.019q.746-.068,1.494-.109,1.494-.081,2.993-.056a.125.125,0,0,0,0-.25c-.96-.015-1.92,0-2.878.05q-.691.036-1.379.095a4.8,4.8,0,0,1-1.516.048c-.156-.038-.222.2-.066.241Z" transform="translate(-0.011)" fill="#1d1d1b"/>
    <path d="M127.321,42.561a35.657,35.657,0,0,1,5.591-.266c.161,0,.16-.245,0-.25a35.657,35.657,0,0,0-5.591.266c-.157.02-.159.27,0,.25Z" transform="translate(-0.011)" fill="#1d1d1b"/>
    <path d="M139.319,42.511l5.728-.142a.125.125,0,0,0,0-.25l-5.728.142a.125.125,0,0,0,0,.25Z" transform="translate(-0.011)" fill="#1d1d1b"/>
    <path d="M103.45,47.228a50.978,50.978,0,0,0,5.459-.095c.16-.011.161-.261,0-.25a50.978,50.978,0,0,1-5.459.095c-.161-.006-.16.244,0,.25Z" transform="translate(-0.011)" fill="#1d1d1b"/>
    <path d="M115.45,47.124a55.1,55.1,0,0,1,5.528.034c.16.009.16-.241,0-.25a55.1,55.1,0,0,0-5.528-.034c-.161.007-.162.257,0,.25Z" transform="translate(-0.011)" fill="#1d1d1b"/>
    <path d="M127.385,47.122q2.9-.07,5.8-.013a.125.125,0,0,0,0-.25q-2.9-.057-5.8.013a.125.125,0,0,0,0,.25Z" transform="translate(-0.011)" fill="#1d1d1b"/>
    <path d="M139.28,47.188a11.518,11.518,0,0,0,2.671.1l2.894-.037a.125.125,0,0,0,0-.25l-2.785.036a11.721,11.721,0,0,1-2.714-.087c-.157-.035-.224.206-.066.242Z" transform="translate(-0.011)" fill="#1d1d1b"/>
    <path d="M103.185,57.347l5.863-.237c.161-.006.162-.256,0-.25l-5.863.237c-.161.007-.161.257,0,.25Z" transform="translate(-0.011)" fill="#1d1d1b"/>
    <path d="M115.049,57.183q3.1.1,6.2-.056c.16-.008.161-.259,0-.25q-3.1.156-6.2.056c-.161-.006-.161.244,0,.25Z" transform="translate(-0.011)" fill="#1d1d1b"/>
    <path d="M127.28,57.229a5.394,5.394,0,0,0,1.282.069l1.472-.039,2.944-.079a.125.125,0,0,0,0-.25l-2.831.076-1.359.036a6.1,6.1,0,0,1-1.442-.054c-.157-.033-.224.208-.066.241Z" transform="translate(-0.011)" fill="#1d1d1b"/>
    <path d="M139.386,57.336l5.528-.14a.125.125,0,0,0,0-.25l-5.528.14a.125.125,0,0,0,0,.25Z" transform="translate(-0.011)" fill="#1d1d1b"/>
    <path d="M4.245,56.969,4.5,51.8a21.134,21.134,0,0,0-.092-4.907c-.029-.158-.27-.091-.241.066A21.78,21.78,0,0,1,4.242,52L4,56.969c-.008.161.242.16.25,0Z" transform="translate(-0.011)" fill="#1d1d1b"/>
    <path d="M4.38,42.135a95.278,95.278,0,0,1-.072-10.112c.007-.161-.243-.161-.25,0A95.278,95.278,0,0,0,4.13,42.135c.01.16.26.161.25,0Z" transform="translate(-0.011)" fill="#1d1d1b"/>
    <path d="M10.4,57.1l-.221-9.844a.125.125,0,0,0-.25,0l.221,9.844a.125.125,0,0,0,.25,0Z" transform="translate(-0.011)" fill="#1d1d1b"/>
    <path d="M4.829,47.887a30.016,30.016,0,0,0,4.712.107c.16-.009.161-.259,0-.25a30.016,30.016,0,0,1-4.712-.107c-.16-.017-.159.233,0,.25Z" transform="translate(-0.011)" fill="#1d1d1b"/>
    <path d="M4.771,56.443q2.442-.048,4.883-.007a.125.125,0,0,0,0-.25q-2.441-.041-4.883.007a.125.125,0,0,0,0,.25Z" transform="translate(-0.011)" fill="#1d1d1b"/>
    <path d="M4.76,56.143l.214-4.3A17.655,17.655,0,0,0,4.9,47.75c-.029-.158-.27-.091-.241.067a18.173,18.173,0,0,1,.06,4.19L4.51,56.143c-.008.161.242.161.25,0Z" transform="translate(-0.011)" fill="#1d1d1b"/>
    <path d="M9.88,56.252,9.7,48.057a.125.125,0,0,0-.25,0l.184,8.2a.125.125,0,0,0,.25,0Z" transform="translate(-0.011)" fill="#1d1d1b"/>
    <path d="M10.285,42.335q-.087-5.022-.1-10.044a.125.125,0,0,0-.25,0q.012,5.022.1,10.044a.125.125,0,0,0,.25,0Z" transform="translate(-0.011)" fill="#1d1d1b"/>
    <path d="M4.655,32.842c.826-.056,1.668-.015,2.5-.007s1.653.037,2.478.095c.16.011.16-.239,0-.25-.825-.058-1.651-.088-2.478-.095s-1.67-.049-2.5.007c-.16.011-.161.262,0,.25Z" transform="translate(-0.011)" fill="#1d1d1b"/>
    <path d="M4.777,41.794q2.427.033,4.852-.051c.161-.006.161-.256,0-.25q-2.425.083-4.852.051a.125.125,0,0,0,0,.25Z" transform="translate(-0.011)" fill="#1d1d1b"/>
    <path d="M4.76,41.48A82.819,82.819,0,0,1,4.7,32.707c.008-.16-.242-.16-.25,0A82.819,82.819,0,0,0,4.51,41.48c.01.159.26.161.25,0Z" transform="translate(-0.011)" fill="#1d1d1b"/>
    <path d="M9.882,41.653Q9.807,37.3,9.8,32.94a.125.125,0,0,0-.25,0q.011,4.358.086,8.713a.125.125,0,0,0,.25,0Z" transform="translate(-0.011)" fill="#1d1d1b"/>
    <path d="M16.549,56.965q-.168-4.92-.1-9.843a.125.125,0,0,0-.25,0q-.072,4.921.1,9.843c.006.16.256.161.25,0Z" transform="translate(-0.011)" fill="#1d1d1b"/>
    <path d="M16.541,42.336A80.942,80.942,0,0,1,16.469,32.1c.006-.161-.244-.161-.25,0a80.942,80.942,0,0,0,.072,10.237c.014.159.265.16.25,0Z" transform="translate(-0.011)" fill="#1d1d1b"/>
    <path d="M22.347,56.763q0-4.786,0-9.574a.125.125,0,0,0-.25,0q0,4.787,0,9.574a.125.125,0,0,0,.25,0Z" transform="translate(-0.011)" fill="#1d1d1b"/>
    <path d="M16.832,48.054q2.391-.144,4.787-.055c.161.006.161-.244,0-.25q-2.394-.089-4.787.055c-.16.01-.161.26,0,.25Z" transform="translate(-0.011)" fill="#1d1d1b"/>
    <path d="M16.941,56.443l4.677-.185c.16-.006.161-.256,0-.25l-4.677.185c-.16.006-.161.256,0,.25Z" transform="translate(-0.011)" fill="#1d1d1b"/>
    <path d="M17.015,56.163q-.141-4.113-.081-8.228a.125.125,0,0,0-.25,0q-.06,4.114.081,8.228c0,.161.255.161.25,0Z" transform="translate(-0.011)" fill="#1d1d1b"/>
    <path d="M21.861,55.994q0-4,0-8a.125.125,0,0,0-.25,0q0,4,0,8a.125.125,0,0,0,.25,0Z" transform="translate(-0.011)" fill="#1d1d1b"/>
    <path d="M22.386,42,22.3,32.156a.125.125,0,0,0-.25,0L22.136,42a.125.125,0,0,0,.25,0Z" transform="translate(-0.011)" fill="#1d1d1b"/>
    <path d="M16.853,33.224q2.253-.2,4.515-.286c.161-.006.161-.256,0-.25q-2.26.081-4.515.286c-.159.015-.16.265,0,.25Z" transform="translate(-0.011)" fill="#1d1d1b"/>
    <path d="M16.959,41.552l4.681-.144c.16-.005.161-.255,0-.25l-4.681.144c-.16.005-.161.255,0,.25Z" transform="translate(-0.011)" fill="#1d1d1b"/>
    <path d="M17.081,41.333a65.184,65.184,0,0,1-.058-8.269c.006-.161-.244-.16-.25,0a65.184,65.184,0,0,0,.058,8.269c.015.159.265.161.25,0Z" transform="translate(-0.011)" fill="#1d1d1b"/>
    <path d="M21.8,41.06l-.071-7.95a.125.125,0,0,0-.25,0l.071,7.95a.125.125,0,0,0,.25,0Z" transform="translate(-0.011)" fill="#1d1d1b"/>
    <path d="M28.424,42.066q-.075-4.922-.048-9.843a.125.125,0,0,0-.25,0q-.027,4.921.048,9.843a.125.125,0,0,0,.25,0Z" transform="translate(-0.011)" fill="#1d1d1b"/>
    <path d="M34.329,42.133q.278-5.12.106-10.248c-.006-.16-.256-.161-.25,0q.172,5.124-.106,10.248c-.009.16.241.16.25,0Z" transform="translate(-0.011)" fill="#1d1d1b"/>
    <path d="M28.888,32.93a43.533,43.533,0,0,1,4.8-.154.125.125,0,0,0,0-.25,43.533,43.533,0,0,0-4.8.154c-.159.014-.16.264,0,.25Z" transform="translate(-0.011)" fill="#1d1d1b"/>
    <path d="M28.773,41.709a1.933,1.933,0,0,0,.974.162c.442-.015.884-.044,1.325-.073q1.342-.087,2.68-.233c.158-.017.16-.268,0-.25q-1.242.134-2.488.221-.624.042-1.247.073a2.181,2.181,0,0,1-1.117-.116c-.143-.073-.27.143-.127.216Z" transform="translate(-0.011)" fill="#1d1d1b"/>
    <path d="M28.847,41.38q-.065-4.229-.041-8.458a.125.125,0,0,0-.25,0q-.023,4.229.041,8.458a.125.125,0,0,0,.25,0Z" transform="translate(-0.011)" fill="#1d1d1b"/>
    <path d="M33.922,41.438q.24-4.4.091-8.807c0-.16-.255-.161-.25,0q.149,4.4-.091,8.807c-.009.161.241.16.25,0Z" transform="translate(-0.011)" fill="#1d1d1b"/>
    <path d="M28.328,57.033l.177-9.843a.125.125,0,0,0-.25,0l-.177,9.843a.125.125,0,0,0,.25,0Z" transform="translate(-0.011)" fill="#1d1d1b"/>
    <path d="M34.309,56.762l-.1-9.976a.125.125,0,0,0-.25,0l.1,9.976a.125.125,0,0,0,.25,0Z" transform="translate(-0.011)" fill="#1d1d1b"/>
    <path d="M28.872,47.988c1.551.1,3.1-.3,4.647-.074.157.024.225-.217.066-.241-1.571-.235-3.138.163-4.713.065-.16-.01-.16.24,0,.25Z" transform="translate(-0.011)" fill="#1d1d1b"/>
    <path d="M28.825,56.465q2.327-.222,4.666-.234a.125.125,0,0,0,0-.25q-2.337.012-4.666.234c-.159.015-.161.265,0,.25Z" transform="translate(-0.011)" fill="#1d1d1b"/>
    <path d="M28.823,56.2l.148-8.214a.125.125,0,0,0-.25,0L28.573,56.2a.125.125,0,0,0,.25,0Z" transform="translate(-0.011)" fill="#1d1d1b"/>
    <path d="M33.814,55.973l-.087-8.325a.125.125,0,0,0-.25,0l.087,8.325a.125.125,0,0,0,.25,0Z" transform="translate(-0.011)" fill="#1d1d1b"/>
    <path d="M40.238,42.253a42.067,42.067,0,0,0,.37-4.961c-.038-1.671-.234-3.345-.37-5.01-.013-.16-.263-.161-.25,0,.135,1.665.334,3.339.37,5.01a42.514,42.514,0,0,1-.37,4.961c-.015.16.235.159.25,0Z" transform="translate(-0.011)" fill="#1d1d1b"/>
    <path d="M46.236,42q.093-4.887.088-9.777a.125.125,0,0,0-.25,0q.006,4.889-.088,9.777a.125.125,0,0,0,.25,0Z" transform="translate(-0.011)" fill="#1d1d1b"/>
    <path d="M40.825,33.17q2.3.048,4.595-.092c.16-.009.161-.259,0-.25q-2.3.141-4.595.092a.125.125,0,0,0,0,.25Z" transform="translate(-0.011)" fill="#1d1d1b"/>
    <path d="M40.717,41.508q2.354.048,4.7-.114c.16-.011.161-.261,0-.25q-2.348.162-4.7.114a.125.125,0,0,0,0,.25Z" transform="translate(-0.011)" fill="#1d1d1b"/>
    <path d="M40.813,41.293a34.115,34.115,0,0,0,.3-4.023c-.03-1.355-.19-2.713-.3-4.064-.013-.159-.263-.16-.25,0,.11,1.351.271,2.709.3,4.064a34.547,34.547,0,0,1-.3,4.023c-.015.16.235.159.25,0Z" transform="translate(-0.011)" fill="#1d1d1b"/>
    <path d="M45.677,41.088q.077-3.965.072-7.929a.125.125,0,0,0-.25,0q0,3.965-.072,7.929a.125.125,0,0,0,.25,0Z" transform="translate(-0.011)" fill="#1d1d1b"/>
    <path d="M40.308,56.9q.115-4.852.05-9.707a.125.125,0,0,0-.25,0q.065,4.854-.05,9.707a.125.125,0,0,0,.25,0Z" transform="translate(-0.011)" fill="#1d1d1b"/>
    <path d="M46.29,56.825a70.362,70.362,0,0,0,.191-9.707c-.008-.16-.258-.161-.25,0a70.362,70.362,0,0,1-.191,9.707c-.014.161.236.16.25,0Z" transform="translate(-0.011)" fill="#1d1d1b"/>
    <path d="M40.883,48.024c1.542.058,3.1-.029,4.638-.056a.125.125,0,0,0,0-.25c-1.542.027-3.1.114-4.638.056-.16-.006-.16.244,0,.25Z" transform="translate(-0.011)" fill="#1d1d1b"/>
    <path d="M40.828,56.455l4.863-.166c.16-.005.161-.255,0-.25l-4.863.166c-.16.005-.161.255,0,.25Z" transform="translate(-0.011)" fill="#1d1d1b"/>
    <path d="M40.813,56.12q.1-4.068.042-8.14a.125.125,0,0,0-.25,0q.056,4.071-.042,8.14a.125.125,0,0,0,.25,0Z" transform="translate(-0.011)" fill="#1d1d1b"/>
    <path d="M45.83,56.061a58.992,58.992,0,0,0,.16-8.141c-.008-.16-.258-.161-.25,0a58.992,58.992,0,0,1-.16,8.141c-.014.16.236.159.25,0Z" transform="translate(-0.011)" fill="#1d1d1b"/>
    <path d="M55.583,42.116a27.5,27.5,0,0,0,.109-4.768l-.12-4.978a.125.125,0,0,0-.25,0l.115,4.787a28.137,28.137,0,0,1-.095,4.892c-.024.158.217.226.241.067Z" transform="translate(-0.011)" fill="#1d1d1b"/>
    <path d="M61.6,42.133l-.151-9.842a.125.125,0,0,0-.25,0l.151,9.842a.125.125,0,0,0,.25,0Z" transform="translate(-0.011)" fill="#1d1d1b"/>
    <path d="M55.977,32.993l2.455-.077c.395-.012.791-.028,1.186-.023.189,0,.378.009.566.025a2.309,2.309,0,0,1,.613.076v-.126l-.014.019.108-.062h-.026l.121.092L60.98,32.9c-.052-.151-.293-.086-.241.066l.006.018a.128.128,0,0,0,.12.091.161.161,0,0,0,.148-.082.124.124,0,0,0,0-.126c-.083-.113-.2-.118-.328-.14-.2-.032-.4-.054-.595-.067-.456-.031-.914-.018-1.37,0l-2.743.086c-.16,0-.161.255,0,.25Z" transform="translate(-0.011)" fill="#1d1d1b"/>
    <path d="M55.861,41.718q2.622.136,5.249.109a.125.125,0,0,0,0-.25q-2.626.028-5.249-.109c-.161-.008-.161.242,0,.25Z" transform="translate(-0.011)" fill="#1d1d1b"/>
    <path d="M55.99,41.462a23.72,23.72,0,0,0,.095-4.129l-.1-4.307a.125.125,0,0,0-.25,0l.1,4.142a24.363,24.363,0,0,1-.082,4.228c-.024.157.217.225.241.066Z" transform="translate(-0.011)" fill="#1d1d1b"/>
    <path d="M61.193,41.473l-.131-8.515a.125.125,0,0,0-.25,0l.131,8.515a.125.125,0,0,0,.25,0Z" transform="translate(-0.011)" fill="#1d1d1b"/>
    <path d="M55.834,57.1q.219-4.885-.033-9.775c-.008-.16-.258-.161-.25,0q.252,4.884.033,9.775c-.007.161.243.161.25,0Z" transform="translate(-0.011)" fill="#1d1d1b"/>
    <path d="M61.635,57.035a79.233,79.233,0,0,0-.09-9.843c-.011-.16-.261-.161-.25,0a79.233,79.233,0,0,1,.09,9.843c-.009.161.241.161.25,0Z" transform="translate(-0.011)" fill="#1d1d1b"/>
    <path d="M56.288,48.126a33.112,33.112,0,0,0,4.51.01c.159-.01.161-.26,0-.25a33.112,33.112,0,0,1-4.51-.01c-.161-.011-.16.239,0,.25Z" transform="translate(-0.011)" fill="#1d1d1b"/>
    <path d="M56.343,56.478q2.337-.086,4.676.028c.161.008.16-.242,0-.25q-2.337-.113-4.676-.028c-.161,0-.161.255,0,.25Z" transform="translate(-0.011)" fill="#1d1d1b"/>
    <path d="M56.346,56.247q.182-4.035-.027-8.073c-.009-.161-.259-.162-.25,0q.208,4.033.027,8.073c-.007.161.243.161.25,0Z" transform="translate(-0.011)" fill="#1d1d1b"/>
    <path d="M61.137,56.192a65.444,65.444,0,0,0-.074-8.13c-.012-.159-.262-.161-.25,0a65.444,65.444,0,0,1,.074,8.13c-.008.161.242.16.25,0Z" transform="translate(-0.011)" fill="#1d1d1b"/>
    <path d="M71.745,42.264q0-2.611.078-5.223.039-1.257.1-2.513c.021-.451.054-.9.068-1.353a1.158,1.158,0,0,0-.151-.723c-.087-.135-.3-.01-.216.126.223.345.1.886.082,1.273s-.038.773-.054,1.16q-.052,1.208-.087,2.417-.067,2.418-.066,4.836a.125.125,0,0,0,.25,0Z" transform="translate(-0.011)" fill="#1d1d1b"/>
    <path d="M77.8,42a77.207,77.207,0,0,1,.213-9.5c.014-.161-.236-.16-.25,0a77.207,77.207,0,0,0-.213,9.5c.006.16.256.161.25,0Z" transform="translate(-0.011)" fill="#1d1d1b"/>
    <path d="M72.27,33.114q2.382.035,4.764-.057c.16-.007.161-.257,0-.25q-2.38.091-4.764.057a.125.125,0,0,0,0,.25Z" transform="translate(-0.011)" fill="#1d1d1b"/>
    <path d="M72.216,41.635l4.931-.2c.16-.007.161-.257,0-.25l-4.931.2c-.16.006-.161.256,0,.25Z" transform="translate(-0.011)" fill="#1d1d1b"/>
    <path d="M72.274,41.414q0-2.172.065-4.343.031-1.044.08-2.089c.017-.375.045-.75.056-1.125a.988.988,0,0,0-.128-.612c-.087-.134-.3-.009-.216.127.183.282.081.731.065,1.048s-.031.642-.045.964q-.043,1-.072,2.009-.057,2.01-.055,4.021a.125.125,0,0,0,.25,0Z" transform="translate(-0.011)" fill="#1d1d1b"/>
    <path d="M77.309,41.191a64.237,64.237,0,0,1,.177-7.9c.014-.16-.236-.159-.25,0a64.237,64.237,0,0,0-.177,7.9c.006.16.256.161.25,0Z" transform="translate(-0.011)" fill="#1d1d1b"/>
    <path d="M71.641,60.2q-.176-6.477.267-12.947c.011-.16-.239-.16-.25,0q-.443,6.465-.267,12.947a.125.125,0,0,0,.25,0Z" transform="translate(-0.011)" fill="#1d1d1b"/>
    <path d="M78,60.538l-.01-13.348a.125.125,0,0,0-.25,0l.01,13.348a.125.125,0,0,0,.25,0Z" transform="translate(-0.011)" fill="#1d1d1b"/>
    <path d="M72.191,48.013q2.564.036,5.127.011a.125.125,0,0,0,0-.25q-2.564.025-5.127-.011a.125.125,0,0,0,0,.25Z" transform="translate(-0.011)" fill="#1d1d1b"/>
    <path d="M72.039,60.392c-.112-4.1-.047-8.22.233-12.315.011-.16-.239-.16-.25,0-.28,4.095-.345,8.212-.233,12.315a.125.125,0,0,0,.25,0Z" transform="translate(-0.011)" fill="#1d1d1b"/>
    <path d="M77.6,60.687l-.009-12.666a.125.125,0,0,0-.25,0l.009,12.666a.125.125,0,0,0,.25,0Z" transform="translate(-0.011)" fill="#1d1d1b"/>
    <path d="M87.969,42.469a80.959,80.959,0,0,1,.181-10.178c.013-.16-.238-.159-.25,0a80.959,80.959,0,0,0-.181,10.178c.007.16.257.161.25,0Z" transform="translate(-0.011)" fill="#1d1d1b"/>
    <path d="M94.006,42.465q-.366-5.214-.287-10.444a.125.125,0,0,0-.25,0q-.079,5.226.287,10.444c.011.16.261.161.25,0Z" transform="translate(-0.011)" fill="#1d1d1b"/>
    <path d="M88.6,33.051l4.707-.181c.16-.006.161-.256,0-.25L88.6,32.8c-.161.006-.161.256,0,.25Z" transform="translate(-0.011)" fill="#1d1d1b"/>
    <path d="M88.374,41.9q2.5.048,4.991-.1c.16-.01.161-.26,0-.25q-2.493.145-4.991.1a.125.125,0,0,0,0,.25Z" transform="translate(-0.011)" fill="#1d1d1b"/>
    <path d="M88.412,41.7a68.614,68.614,0,0,1,.154-8.663c.013-.16-.238-.16-.25,0a68.614,68.614,0,0,0-.154,8.663c.007.16.257.161.25,0Z" transform="translate(-0.011)" fill="#1d1d1b"/>
    <path d="M93.551,41.692q-.312-4.439-.245-8.891a.125.125,0,0,0-.25,0q-.068,4.449.245,8.891c.011.159.261.161.25,0Z" transform="translate(-0.011)" fill="#1d1d1b"/>
    <path d="M88.016,57.035q.189-4.887.01-9.776c-.006-.161-.256-.162-.25,0q.178,4.887-.01,9.776c-.006.161.244.161.25,0Z" transform="translate(-0.011)" fill="#1d1d1b"/>
    <path d="M93.971,57.059a16.028,16.028,0,0,0,.173-4.889q-.189-2.591-.381-5.181c-.012-.159-.262-.16-.25,0l.366,4.988a16.411,16.411,0,0,1-.149,5.016c-.038.156.2.223.241.066Z" transform="translate(-0.011)" fill="#1d1d1b"/>
    <path d="M88.488,48.017l4.541-.059a.125.125,0,0,0,0-.25l-4.541.059a.125.125,0,0,0,0,.25Z" transform="translate(-0.011)" fill="#1d1d1b"/>
    <path d="M88.544,56.506l4.882,0a.125.125,0,0,0,0-.25l-4.882,0a.125.125,0,0,0,0,.25Z" transform="translate(-0.011)" fill="#1d1d1b"/>
    <path d="M88.509,56.254q.158-4.114.008-8.233c-.006-.16-.256-.161-.25,0q.15,4.116-.008,8.233c-.006.161.244.16.25,0Z" transform="translate(-0.011)" fill="#1d1d1b"/>
    <path d="M93.522,56.279a13.469,13.469,0,0,0,.146-4.122q-.159-2.181-.32-4.362c-.012-.16-.262-.161-.25,0q.154,2.1.308,4.2a13.777,13.777,0,0,1-.125,4.218c-.037.156.2.223.241.066Z" transform="translate(-0.011)" fill="#1d1d1b"/>
    <path d="M103.238,42.27c.2-3.3.126-6.609.1-9.913a.125.125,0,0,0-.25,0c.023,3.3.094,6.613-.1,9.913-.009.161.241.16.25,0Z" transform="translate(-0.011)" fill="#1d1d1b"/>
    <path d="M109.317,42.133l.052-9.91a.125.125,0,0,0-.25,0l-.052,9.91a.125.125,0,0,0,.25,0Z" transform="translate(-0.011)" fill="#1d1d1b"/>
    <path d="M103.877,33.231q2.3-.138,4.609-.047c.161.007.16-.243,0-.25q-2.3-.09-4.609.047c-.159.009-.16.259,0,.25Z" transform="translate(-0.011)" fill="#1d1d1b"/>
    <path d="M103.878,41.525l4.663.092a.125.125,0,0,0,0-.25l-4.663-.092a.125.125,0,0,0,0,.25Z" transform="translate(-0.011)" fill="#1d1d1b"/>
    <path d="M103.779,41.386c.162-2.718.1-5.444.085-8.164a.125.125,0,0,0-.25,0c.019,2.72.077,5.446-.085,8.164-.009.16.241.16.25,0Z" transform="translate(-0.011)" fill="#1d1d1b"/>
    <path d="M108.785,41.273l.043-8.161a.125.125,0,0,0-.25,0l-.043,8.161a.125.125,0,0,0,.25,0Z" transform="translate(-0.011)" fill="#1d1d1b"/>
    <path d="M103.276,57.1l.182-9.91a.125.125,0,0,0-.25,0l-.182,9.91a.125.125,0,0,0,.25,0Z" transform="translate(-0.011)" fill="#1d1d1b"/>
    <path d="M109.277,57.1q-.029-5.022-.159-10.043c0-.16-.255-.161-.25,0q.131,5.02.159,10.043a.125.125,0,0,0,.25,0Z" transform="translate(-0.011)" fill="#1d1d1b"/>
    <path d="M103.952,48.159a41.456,41.456,0,0,0,4.445-.077c.16-.011.161-.262,0-.25a41.456,41.456,0,0,1-4.445.077c-.161-.006-.161.244,0,.25Z" transform="translate(-0.011)" fill="#1d1d1b"/>
    <path d="M103.736,56.4l4.774-.193c.161-.006.161-.256,0-.25l-4.774.193c-.16.007-.161.257,0,.25Z" transform="translate(-0.011)" fill="#1d1d1b"/>
    <path d="M103.833,56.174l.148-8.069a.125.125,0,0,0-.25,0l-.148,8.069a.125.125,0,0,0,.25,0Z" transform="translate(-0.011)" fill="#1d1d1b"/>
    <path d="M108.72,56.173q-.024-4.089-.13-8.177a.125.125,0,0,0-.25,0q.106,4.087.13,8.177a.125.125,0,0,0,.25,0Z" transform="translate(-0.011)" fill="#1d1d1b"/>
    <path d="M115.317,56.827q.231-4.95.17-9.907a.125.125,0,0,0-.25,0q.062,4.956-.17,9.907c-.008.161.242.161.25,0Z" transform="translate(-0.011)" fill="#1d1d1b"/>
    <path d="M115.379,42.405q.174-5.123.024-10.248c-.005-.161-.255-.161-.25,0q.15,5.124-.024,10.248c-.005.161.245.161.25,0Z" transform="translate(-0.011)" fill="#1d1d1b"/>
    <path d="M121.374,56.963q-.114-4.988-.04-9.976a.125.125,0,0,0-.25,0q-.074,4.987.04,9.976a.125.125,0,0,0,.25,0Z" transform="translate(-0.011)" fill="#1d1d1b"/>
    <path d="M115.83,47.83a47.312,47.312,0,0,1,4.749.029c.161.009.16-.241,0-.25a47.312,47.312,0,0,0-4.749-.029c-.16.007-.161.257,0,.25Z" transform="translate(-0.011)" fill="#1d1d1b"/>
    <path d="M115.486,56.471q2.662.087,5.325-.048c.161-.008.162-.258,0-.25q-2.66.135-5.325.048c-.161,0-.161.245,0,.25Z" transform="translate(-0.011)" fill="#1d1d1b"/>
    <path d="M115.733,56.148q.2-4.253.147-8.511a.125.125,0,0,0-.25,0q.053,4.257-.147,8.511c-.007.161.243.161.25,0Z" transform="translate(-0.011)" fill="#1d1d1b"/>
    <path d="M120.937,56.265q-.1-4.284-.034-8.57a.125.125,0,0,0-.25,0q-.063,4.284.034,8.57a.125.125,0,0,0,.25,0Z" transform="translate(-0.011)" fill="#1d1d1b"/>
    <path d="M121.158,42.132q-.083-5.055.046-10.112a.125.125,0,0,0-.25,0q-.127,5.055-.046,10.112a.125.125,0,0,0,.25,0Z" transform="translate(-0.011)" fill="#1d1d1b"/>
    <path d="M115.824,32.892q2.387.09,4.775.044a.125.125,0,0,0,0-.25q-2.388.045-4.775-.044c-.161-.006-.161.244,0,.25Z" transform="translate(-0.011)" fill="#1d1d1b"/>
    <path d="M115.669,41.84a3.576,3.576,0,0,0,1.172-.016q.644-.06,1.289-.095,1.292-.07,2.585-.048a.125.125,0,0,0,0-.25q-1.244-.019-2.486.043-.6.032-1.19.082a4.114,4.114,0,0,1-1.3.042.126.126,0,0,0-.066.242Z" transform="translate(-0.011)" fill="#1d1d1b"/>
    <path d="M115.779,41.7q.15-4.422.021-8.849c0-.16-.255-.161-.25,0q.129,4.425-.021,8.849c0,.161.245.161.25,0Z" transform="translate(-0.011)" fill="#1d1d1b"/>
    <path d="M120.769,41.466q-.071-4.367.04-8.732a.125.125,0,0,0-.25,0q-.111,4.365-.04,8.732a.125.125,0,0,0,.25,0Z" transform="translate(-0.011)" fill="#1d1d1b"/>
    <path d="M127.264,42.445c.628-3.336-.532-6.737.24-10.057.036-.157-.2-.224-.241-.067-.773,3.324.388,6.722-.24,10.058-.03.157.211.225.241.066Z" transform="translate(-0.011)" fill="#1d1d1b"/>
    <path d="M133.207,42.067q.178-5.022.246-10.047a.125.125,0,0,0-.25,0q-.068,5.025-.246,10.047c-.006.161.244.161.25,0Z" transform="translate(-0.011)" fill="#1d1d1b"/>
    <path d="M127.833,33.26l4.71-.172c.16-.006.161-.256,0-.25l-4.71.172c-.16.006-.161.256,0,.25Z" transform="translate(-0.011)" fill="#1d1d1b"/>
    <path d="M127.836,41.635a29.413,29.413,0,0,1,4.6-.219c.161.005.161-.245,0-.25a29.413,29.413,0,0,0-4.6.219c-.158.02-.16.27,0,.25Z" transform="translate(-0.011)" fill="#1d1d1b"/>
    <path d="M127.81,41.524c.516-2.743-.437-5.541.2-8.27.036-.157-.2-.224-.241-.067-.635,2.734.319,5.528-.2,8.271-.03.157.211.224.241.066Z" transform="translate(-0.011)" fill="#1d1d1b"/>
    <path d="M132.7,41.207q.147-4.129.2-8.261a.125.125,0,0,0-.25,0q-.056,4.131-.2,8.261c-.006.161.244.161.25,0Z" transform="translate(-0.011)" fill="#1d1d1b"/>
    <path d="M127.387,56.9l.11-9.844a.125.125,0,0,0-.25,0l-.11,9.844a.125.125,0,0,0,.25,0Z" transform="translate(-0.011)" fill="#1d1d1b"/>
    <path d="M133.32,56.993c.02-3.3-.275-6.63.251-9.91.025-.158-.216-.226-.241-.067-.53,3.305-.24,6.649-.26,9.977a.125.125,0,0,0,.25,0Z" transform="translate(-0.011)" fill="#1d1d1b"/>
    <path d="M127.873,47.955q2.422-.059,4.845-.011a.125.125,0,0,0,0-.25q-2.422-.048-4.845.011a.125.125,0,0,0,0,.25Z" transform="translate(-0.011)" fill="#1d1d1b"/>
    <path d="M127.779,56.4a4.576,4.576,0,0,0,1.078.058l1.23-.033,2.46-.065c.161-.005.161-.255,0-.25l-2.366.063-1.135.03a5.122,5.122,0,0,1-1.2-.044c-.157-.033-.224.208-.067.241Z" transform="translate(-0.011)" fill="#1d1d1b"/>
    <path d="M127.9,56.105l.092-8.227a.125.125,0,0,0-.25,0l-.092,8.227a.125.125,0,0,0,.25,0Z" transform="translate(-0.011)" fill="#1d1d1b"/>
    <path d="M132.854,56.184a54.056,54.056,0,0,1,.209-8.277c.025-.157-.216-.225-.241-.066a54.406,54.406,0,0,0-.218,8.343.125.125,0,0,0,.25,0Z" transform="translate(-0.011)" fill="#1d1d1b"/>
    <path d="M139.469,42.2q.233-4.885-.006-9.775c-.007-.16-.258-.161-.25,0q.239,4.886.006,9.775c-.007.161.243.16.25,0Z" transform="translate(-0.011)" fill="#1d1d1b"/>
    <path d="M139.458,57.032l-.107-9.91a.125.125,0,0,0-.25,0l.107,9.91a.125.125,0,0,0,.25,0Z" transform="translate(-0.011)" fill="#1d1d1b"/>
    <path d="M145.149,57.034q.214-4.986.067-9.979c0-.16-.255-.161-.25,0q.148,4.99-.067,9.979c-.007.161.243.161.25,0Z" transform="translate(-0.011)" fill="#1d1d1b"/>
    <path d="M139.856,48.2a9.19,9.19,0,0,0,2.143.078l2.314-.03a.125.125,0,0,0,0-.25l-2.227.029a9.371,9.371,0,0,1-2.164-.068c-.156-.036-.223.2-.066.241Z" transform="translate(-0.011)" fill="#1d1d1b"/>
    <path d="M139.948,56.319l4.42-.112a.125.125,0,0,0,0-.25l-4.42.112a.125.125,0,0,0,0,.25Z" transform="translate(-0.011)" fill="#1d1d1b"/>
    <path d="M140.03,56.05l-.085-7.924a.125.125,0,0,0-.25,0l.085,7.924a.125.125,0,0,0,.25,0Z" transform="translate(-0.011)" fill="#1d1d1b"/>
    <path d="M144.581,56.052q.171-3.987.054-7.979c0-.161-.255-.161-.25,0q.117,3.99-.054,7.979c-.007.161.243.161.25,0Z" transform="translate(-0.011)" fill="#1d1d1b"/>
    <path d="M145.215,42.066q-.052-4.821-.162-9.642a.125.125,0,0,0-.25,0q.11,4.819.162,9.642a.125.125,0,0,0,.25,0Z" transform="translate(-0.011)" fill="#1d1d1b"/>
    <path d="M139.654,33.244q2.428.175,4.864.112a.125.125,0,0,0,0-.25q-2.433.063-4.864-.112c-.16-.011-.159.239,0,.25Z" transform="translate(-0.011)" fill="#1d1d1b"/>
    <path d="M139.82,41.594l4.7-.117a.125.125,0,0,0,0-.25l-4.7.117a.125.125,0,0,0,0,.25Z" transform="translate(-0.011)" fill="#1d1d1b"/>
    <path d="M139.966,41.316q.19-4.007,0-8.015c-.008-.16-.258-.161-.25,0q.2,4,0,8.015c-.007.16.243.16.25,0Z" transform="translate(-0.011)" fill="#1d1d1b"/>
    <path d="M144.677,41.207q-.043-3.954-.132-7.906a.125.125,0,0,0-.25,0q.089,3.953.132,7.906a.125.125,0,0,0,.25,0Z" transform="translate(-0.011)" fill="#1d1d1b"/>
    <path d="M74.465.241c.062,2.665.047,5.347.273,8,.028.319.528.321.5,0-.226-2.657-.211-5.339-.273-8a.25.25,0,0,0-.5,0Z" transform="translate(-0.011)" fill="#1d1d1b"/>
    <path d="M74.8.571q5.922.47,11.865.583a.25.25,0,0,0,0-.5Q80.727.54,74.8.071c-.321-.025-.32.475,0,.5Z" transform="translate(-0.011)" fill="#1d1d1b"/>
    <path d="M75.117,3.264Q80.862,2.156,86.672,1.45c.316-.039.32-.539,0-.5Q80.8,1.663,74.984,2.782c-.315.061-.181.543.133.482Z" transform="translate(-0.011)" fill="#1d1d1b"/>
    <path d="M.85,25c6.138.381,12.275-.165,18.414-.215,6.168-.05,12.328.332,18.493.461,3.449.071,6.9.059,10.346-.144.159-.009.161-.259,0-.25-6.158.363-12.324.1-18.482-.115-3.04-.108-6.082-.2-9.124-.206-3.116,0-6.228.13-9.341.239-3.435.12-6.873.193-10.306-.02-.161-.01-.16.24,0,.25Z" transform="translate(-0.011)" fill="#1d1d1b"/>
    <path d="M100.89,25.048q18.592,0,37.183-.2,5.239-.055,10.48-.129a.125.125,0,0,0,0-.25q-18.589.256-37.182.311-5.239.015-10.481.014a.125.125,0,0,0,0,.25Z" transform="translate(-0.011)" fill="#1d1d1b"/>
  </g>
</svg>
