<svg xmlns="http://www.w3.org/2000/svg" width="3.411mm" height="3.103mm" viewBox="0 0 9.669 8.797">
  <title>wood1</title>
  <g>
    <path d="M.932,5.584,5.276,1.809C5.947,1.226,6.617.394,7.594.517a1.765,1.765,0,0,1,1.563,2c-.049.314.433.45.482.133a2.241,2.241,0,0,0-1-2.274A2.213,2.213,0,0,0,6.121.427C5.17,1.154,4.293,2,3.389,2.788L.578,5.23c-.243.212.112.564.354.354Z" transform="translate(0 -0.005)" fill="#1d1d1b"/>
    <path d="M5.652,4.145,5.434,5.684c-.066.458-.162.924-.182,1.386A1.417,1.417,0,0,0,5.6,8.152a.875.875,0,0,0,.967.218c.8-.339.716-1.428.759-2.14L7.51,3.222c.02-.322-.481-.321-.5,0L6.868,5.551,6.8,6.716a1.877,1.877,0,0,1-.211,1.017.4.4,0,0,1-.7-.026A1.542,1.542,0,0,1,5.8,6.635c.11-.786.223-1.571.334-2.357.045-.315-.437-.451-.482-.133Z" transform="translate(0 -0.005)" fill="#1d1d1b"/>
    <path d="M5.644,7.217a.662.662,0,0,1,.687-.31.672.672,0,0,1,.511.548.125.125,0,1,0,.241-.066.894.894,0,0,0-1.655-.3.125.125,0,0,0,.216.126Z" transform="translate(0 -0.005)" fill="#1d1d1b"/>
    <path d="M7.435,5.275,8.66,3.969q.3-.321.6-.643a.967.967,0,0,0,.341-.69c-.018-.32-.518-.322-.5,0,.01.189-.211.354-.328.479l-.571.608-1.124,1.2c-.22.235.133.589.353.354Z" transform="translate(0 -0.005)" fill="#1d1d1b"/>
    <path d="M6.006,4.094a1.156,1.156,0,0,1,.439-.832.812.812,0,0,1,.38-.181A.361.361,0,0,1,7,3.1a.119.119,0,0,1,.047.033c-.01-.013.009.014.01.016-.009-.021.006.036,0,.016a.128.128,0,0,0,.125.125.126.126,0,0,0,.125-.125c-.029-.334-.433-.394-.692-.291a1.393,1.393,0,0,0-.867,1.218c-.008.161.242.16.25,0Z" transform="translate(0 -0.005)" fill="#1d1d1b"/>
    <path d="M.536,5.267A2.422,2.422,0,0,0,.089,7.4,1.992,1.992,0,0,0,1.4,8.735a2.731,2.731,0,0,0,2.18-.542A18.789,18.789,0,0,0,5.636,6.6c.243-.211-.111-.564-.353-.353-.531.461-1.081.9-1.654,1.309A3.007,3.007,0,0,1,1.8,8.3,1.438,1.438,0,0,1,.571,7.269a1.964,1.964,0,0,1,.4-1.75c.2-.256-.239-.5-.432-.252Z" transform="translate(0 -0.005)" fill="#1d1d1b"/>
    <path d="M.829,5.576a1.6,1.6,0,0,1,1.165-.209,1.74,1.74,0,0,1,.817.733,1.722,1.722,0,0,1,.066,2.026c-.1.124.075.3.177.177A1.977,1.977,0,0,0,3,5.933a1.96,1.96,0,0,0-.938-.807A1.862,1.862,0,0,0,.7,5.36c-.145.069-.018.285.127.216Z" transform="translate(0 -0.005)" fill="#1d1d1b"/>
    <path d="M1.3,5.832a1.216,1.216,0,0,0,.4,2.053,1,1,0,0,0,1.006-.3A1,1,0,0,0,2.624,6.33a1.593,1.593,0,0,0-.588-.439.669.669,0,0,0-.709.024.126.126,0,0,0,0,.177.128.128,0,0,0,.177,0c.125-.1.329-.023.454.038a1.474,1.474,0,0,1,.418.295.792.792,0,0,1,.164.951.731.731,0,0,1-.716.282.836.836,0,0,1-.63-.584.943.943,0,0,1,.229-1.027.128.128,0,0,0,.044-.171A.125.125,0,0,0,1.3,5.832Z" transform="translate(0 -0.005)" fill="#1d1d1b"/>
    <path d="M1.422,6.686a.524.524,0,0,0,.124.525.49.49,0,0,0,.523.113.458.458,0,0,0,.32-.492.575.575,0,0,0-.174-.256.7.7,0,0,0-.261-.183.355.355,0,0,0-.324.038.291.291,0,0,0-.132.321.126.126,0,0,0,.153.088.127.127,0,0,0,.088-.154l0-.009q0-.021,0,.006V6.666s0,.026,0,.007-.015.02,0,0l.01-.015c-.011.02-.009.01,0,0l.021-.02c-.016.014-.005,0,.006,0l.017-.01c.026-.014-.016,0,0,0l.023-.007c.008,0,.021,0,0,0h.024c.008,0,.027.006,0,0a.461.461,0,0,1,.053.015c-.023-.008,0,0,.005,0l.024.013a.383.383,0,0,1,.042.028c.017.012-.021-.019,0,0l.017.015c.017.016.034.031.05.048s.047.049.069.074l.015.017c.024.027-.01-.018.009.011l.012.019c0,.006.012.033.006.011,0,0,.008.034.006.017s0,.02,0,.019.006-.023,0,0l-.008.029c0,.007-.014.03,0,.007l-.008.018-.013.02s-.021.028-.009.014l-.009.01-.013.013c-.006.006-.044.035-.019.018-.012.008-.023.016-.036.023l-.021.011c-.006,0-.034.013,0,0a.642.642,0,0,1-.083.023c.033-.006-.014,0-.024,0H1.877s-.041,0-.022,0-.01,0-.011,0l-.019,0A.2.2,0,0,0,1.8,7.09c-.017,0,.024.013,0,0s-.025-.013-.037-.021l-.02-.013c.017.012.005,0,0,0s-.022-.023-.033-.034.013.021,0-.005l-.015-.025a.342.342,0,0,1-.023-.042c.013.025,0,.006,0,0l-.011-.032c0-.01-.01-.057-.006-.024a.441.441,0,0,1,0-.052V6.812c0-.03-.006.026,0,0a.494.494,0,0,1,.015-.055A.124.124,0,0,0,1.576,6.6a.129.129,0,0,0-.154.087Z" transform="translate(0 -0.005)" fill="#1d1d1b"/>
  </g>
</svg>
