<svg xmlns="http://www.w3.org/2000/svg" width="2.804mm" height="2.691mm" viewBox="0 0 7.948 7.627">
  <title>wood2</title>
  <g>
    <path d="M.9,5.243c.612-.029,1.225-.033,1.837,0,.3.015.614.029.917.068a1.033,1.033,0,0,1,.674.351A16.673,16.673,0,0,0,5.583,6.82a3.605,3.605,0,0,0,1.206.767A.955.955,0,0,0,7.868,6.2,3.084,3.084,0,0,0,6.924,5.15L5.573,4c-.244-.208-.6.144-.354.353l1.158.987a5.162,5.162,0,0,1,.916.855c.239.338.265,1.013-.322.925a2.941,2.941,0,0,1-1.179-.772c-.366-.305-.713-.631-1.048-.971a1.579,1.579,0,0,0-.881-.541A14.365,14.365,0,0,0,.9,4.743c-.321.016-.323.516,0,.5Z" transform="translate(-0.013)" fill="#1d1d1b"/>
    <path d="M.552,4.731.424,4.8l.3.039a.758.758,0,0,1-.166-.833.833.833,0,0,1,.812-.458c.407,0,.816.04,1.223.052q.666.019,1.333.012a.25.25,0,0,0,0-.5q-.81.009-1.621-.022a3.9,3.9,0,0,0-1.494.047A1.259,1.259,0,0,0,.373,5.194a.256.256,0,0,0,.3.039L.8,5.163c.283-.154.031-.586-.252-.432Z" transform="translate(-0.013)" fill="#1d1d1b"/>
    <path d="M3.671,3.145C3.645,2.5,3.578,1.844,3.6,1.2A.691.691,0,0,1,3.9.578a.541.541,0,0,1,.63.059.95.95,0,0,1,.221.739l.051.98.051.979a1.649,1.649,0,0,0,.181.839c.173.27.605.02.432-.253a.853.853,0,0,1-.1-.436c-.012-.2-.021-.4-.031-.6l-.063-1.2A2.932,2.932,0,0,0,5.13.618,1.081,1.081,0,0,0,4.5.054,1.07,1.07,0,0,0,3.134.888a4.66,4.66,0,0,0-.01,1.069l.047,1.188c.013.32.513.322.5,0Z" transform="translate(-0.013)" fill="#1d1d1b"/>
    <path d="M.784,5.051A1.616,1.616,0,0,0,1.565,3.38a.125.125,0,0,0-.154-.087.127.127,0,0,0-.087.153A1.36,1.36,0,0,1,.658,4.835a.125.125,0,0,0,.126.216Z" transform="translate(-0.013)" fill="#1d1d1b"/>
    <path d="M6.95,7.1a1.034,1.034,0,0,0-.376-.245l.087.088a.474.474,0,0,1-.01-.146.412.412,0,0,1,.01-.058.528.528,0,0,1,.024-.077c0-.008,0-.008,0,0l.009-.018c.007-.014.014-.028.022-.042l.021-.034s.022-.031.011-.018a.456.456,0,0,1,.1-.1.465.465,0,0,1,.277-.078.488.488,0,0,1,.27.093.128.128,0,0,0,.177,0,.126.126,0,0,0,0-.176.712.712,0,0,0-1.168.633.2.2,0,0,0,.073.16c.034.02.069.028.106.048a.763.763,0,0,1,.19.144c.112.116.288-.061.176-.176Z" transform="translate(-0.013)" fill="#1d1d1b"/>
  </g>
</svg>
